<svg width="22" height="23" viewBox="0 0 22 23" fill="none" xmlns="http://www.w3.org/2000/svg">
<path d="M18.3016 5.19788C20.6609 8.66675 21.826 12.5796 21.3905 17.0841C21.3886 17.1032 21.3787 17.1207 21.3631 17.1321C19.5764 18.444 17.8454 19.2403 16.1386 19.7683C16.1253 19.7724 16.1111 19.7721 16.0979 19.7676C16.0848 19.7632 16.0733 19.7548 16.0653 19.7434C15.6709 19.1948 15.3127 18.6164 14.9988 18.009C14.9807 17.9732 14.9972 17.9301 15.0343 17.9161C15.6033 17.7017 16.1443 17.4447 16.6648 17.1405C16.7058 17.1165 16.7084 17.0577 16.6705 17.0295C16.56 16.9475 16.4506 16.8613 16.346 16.7752C16.3264 16.7593 16.3 16.7561 16.2778 16.7669C12.899 18.3271 9.19773 18.3271 5.77898 16.7669C5.75678 16.7568 5.73042 16.7603 5.71135 16.776C5.6069 16.8622 5.49722 16.9475 5.38781 17.0295C5.34994 17.0577 5.35308 17.1165 5.39433 17.1405C5.91477 17.439 6.45584 17.7017 7.02406 17.9172C7.06088 17.9312 7.07838 17.9732 7.06009 18.009C6.753 18.6172 6.39474 19.1955 5.99311 19.7442C5.97562 19.7664 5.94689 19.7766 5.91973 19.7683C4.22107 19.2403 2.49002 18.444 0.703359 17.1321C0.688474 17.1207 0.677768 17.1024 0.676201 17.0833C0.312182 13.187 1.05406 9.24177 3.76226 5.1971C3.76879 5.18639 3.77871 5.17803 3.7902 5.17307C5.12275 4.5615 6.55037 4.11157 8.04248 3.85461C8.06964 3.85044 8.09679 3.86297 8.11089 3.88699C8.29525 4.2134 8.50599 4.63201 8.64856 4.97409C10.2214 4.73384 11.8188 4.73384 13.4244 4.97409C13.567 4.63932 13.7704 4.2134 13.954 3.88699C13.9605 3.87508 13.9706 3.86553 13.9829 3.85972C13.9952 3.8539 14.0091 3.85212 14.0224 3.85461C15.5153 4.11235 16.9429 4.56228 18.2744 5.17307C18.2862 5.17803 18.2958 5.18639 18.3016 5.19788ZM9.44815 12.6062C9.4646 11.4543 8.6248 10.5012 7.57061 10.5012C6.52504 10.5012 5.69333 11.446 5.69333 12.6062C5.69333 13.7662 6.54149 14.7109 7.57061 14.7109C8.61644 14.7109 9.44815 13.7662 9.44815 12.6062ZM16.3895 12.6062C16.406 11.4543 15.5662 10.5012 14.5123 10.5012C13.4665 10.5012 12.6347 11.446 12.6347 12.6062C12.6347 13.7662 13.4829 14.7109 14.5123 14.7109C15.5662 14.7109 16.3895 13.7662 16.3895 12.6062Z" fill="#FDFDFD"/>
</svg>
