<svg width="22" height="22" viewBox="0 0 22 22" fill="none" xmlns="http://www.w3.org/2000/svg">
<g id="Link &#226;&#134;&#146; SVG">
<path id="Vector" d="M18.3016 4.38538C20.6609 7.85425 21.826 11.7671 21.3905 16.2716C21.3886 16.2907 21.3787 16.3082 21.3631 16.3196C19.5764 17.6315 17.8454 18.4278 16.1386 18.9558C16.1253 18.9599 16.1111 18.9596 16.0979 18.9551C16.0848 18.9507 16.0733 18.9423 16.0653 18.9309C15.6709 18.3823 15.3127 17.8039 14.9988 17.1965C14.9807 17.1607 14.9972 17.1176 15.0343 17.1036C15.6033 16.8892 16.1443 16.6322 16.6648 16.328C16.7058 16.304 16.7084 16.2452 16.6705 16.217C16.56 16.135 16.4506 16.0488 16.346 15.9627C16.3264 15.9468 16.3 15.9436 16.2778 15.9544C12.899 17.5146 9.19773 17.5146 5.77898 15.9544C5.75678 15.9443 5.73042 15.9478 5.71135 15.9635C5.6069 16.0497 5.49722 16.135 5.38781 16.217C5.34994 16.2452 5.35308 16.304 5.39433 16.328C5.91477 16.6265 6.45584 16.8892 7.02406 17.1047C7.06088 17.1187 7.07838 17.1607 7.06009 17.1965C6.753 17.8047 6.39474 18.383 5.99311 18.9317C5.97562 18.9539 5.94689 18.9641 5.91973 18.9558C4.22107 18.4278 2.49002 17.6315 0.703359 16.3196C0.688474 16.3082 0.677768 16.2899 0.676201 16.2708C0.312182 12.3745 1.05406 8.42927 3.76226 4.3846C3.76879 4.37389 3.77871 4.36553 3.7902 4.36057C5.12275 3.749 6.55037 3.29907 8.04248 3.04211C8.06964 3.03794 8.09679 3.05047 8.11089 3.07449C8.29525 3.4009 8.50599 3.81951 8.64856 4.16159C10.2214 3.92134 11.8188 3.92134 13.4244 4.16159C13.567 3.82682 13.7704 3.4009 13.954 3.07449C13.9605 3.06258 13.9706 3.05303 13.9829 3.04722C13.9952 3.0414 14.0091 3.03962 14.0224 3.04211C15.5153 3.29985 16.9429 3.74978 18.2744 4.36057C18.2862 4.36553 18.2958 4.37389 18.3016 4.38538ZM9.44815 11.7937C9.4646 10.6418 8.6248 9.68871 7.57061 9.68871C6.52504 9.68871 5.69333 10.6335 5.69333 11.7937C5.69333 12.9537 6.54149 13.8984 7.57061 13.8984C8.61644 13.8984 9.44815 12.9537 9.44815 11.7937ZM16.3895 11.7937C16.406 10.6418 15.5662 9.68871 14.5123 9.68871C13.4665 9.68871 12.6347 10.6335 12.6347 11.7937C12.6347 12.9537 13.4829 13.8984 14.5123 13.8984C15.5662 13.8984 16.3895 12.9537 16.3895 11.7937Z" fill="#383737"/>
</g>
</svg>
