<svg width="21" height="22" viewBox="0 0 21 22" fill="none" xmlns="http://www.w3.org/2000/svg">
<g id="Link &#226;&#134;&#146; SVG">
<path id="Vector" d="M18.9528 6.15049C18.0895 4.61938 16.8486 3.34734 15.3542 2.4617C13.8479 1.55803 12.131 1.08818 10.3852 1.10189C8.6378 1.08734 6.91912 1.55721 5.41134 2.4617C3.91543 3.34657 2.67308 4.61871 1.80892 6.15049C0.926444 7.69296 0.467601 9.45102 0.480938 11.2387C0.460269 13.3826 1.12318 15.4749 2.36908 17.1981C3.57288 18.9193 5.28249 20.2014 7.24829 20.8572C7.33527 20.8844 7.42729 20.8902 7.51688 20.8743C7.60648 20.8582 7.69114 20.8209 7.76403 20.7652C7.81807 20.7154 7.86097 20.6544 7.88982 20.5861C7.91866 20.5178 7.93275 20.444 7.93111 20.3697L7.92436 19.6566C7.91985 19.2076 7.91759 18.8173 7.91759 18.4857L7.62205 18.5421C7.38549 18.5807 7.14585 18.5963 6.9064 18.5885C6.60568 18.5832 6.3059 18.5525 6.01014 18.4965C5.6956 18.4372 5.39954 18.3015 5.14671 18.1009C4.88152 17.8956 4.68376 17.6124 4.57979 17.289L4.45134 16.9855C4.34301 16.7451 4.20682 16.5189 4.0457 16.312C3.90106 16.1008 3.7085 15.9287 3.48457 15.8105L3.39475 15.7443C3.33304 15.6986 3.27694 15.6455 3.22767 15.5861C3.18008 15.5309 3.14099 15.4685 3.11178 15.4012C3.08602 15.3392 3.10759 15.2883 3.17648 15.2489C3.29502 15.2001 3.42287 15.1798 3.55025 15.1895L3.80811 15.2291C4.03858 15.2922 4.25523 15.3995 4.44651 15.5455C4.70203 15.7239 4.9155 15.9584 5.07138 16.2319C5.24192 16.5615 5.48736 16.8444 5.78704 17.0567C6.03445 17.2354 6.32842 17.3342 6.63115 17.3405C6.87769 17.3437 7.12393 17.3215 7.36612 17.2742C7.56628 17.2322 7.76083 17.1658 7.9456 17.0764C7.98823 16.5598 8.2127 16.0765 8.57724 15.7166C8.13158 15.672 7.68991 15.5926 7.25602 15.4793C6.83257 15.3599 6.42539 15.1869 6.04394 14.964C5.64466 14.7417 5.29191 14.4414 5.0057 14.0799C4.69953 13.6647 4.47038 13.1954 4.32964 12.6954C4.14386 12.0536 4.05463 11.3867 4.06502 10.7175C4.04371 9.70926 4.40957 8.73276 5.08394 7.99784C4.76693 7.12303 4.7992 6.15557 5.17376 5.30494C5.55241 5.2422 5.94076 5.30454 6.2825 5.48294C6.65327 5.62402 7.01295 5.79396 7.35839 5.99126C7.58632 6.1317 7.76886 6.25037 7.90601 6.34729C9.52599 5.88974 11.2367 5.88974 12.8567 6.34729L13.3464 6.03082C13.7228 5.79931 14.1199 5.60494 14.5323 5.45031C14.8564 5.28911 15.2221 5.23817 15.5764 5.30494C15.7658 5.72475 15.8724 6.17873 15.8903 6.64084C15.908 7.10296 15.8364 7.5641 15.6797 7.99784C16.354 8.73281 16.7199 9.70929 16.6986 10.7175C16.7088 11.3896 16.6196 12.0595 16.434 12.7043C16.2948 13.2062 16.0631 13.6762 15.7512 14.0888C15.4604 14.4463 15.1062 14.7443 14.7072 14.967C14.3256 15.1898 13.9185 15.3628 13.4951 15.4822C13.0613 15.596 12.6195 15.6756 12.1739 15.7206C12.4137 15.964 12.5981 16.2586 12.7139 16.5834C12.8298 16.9082 12.8743 17.2552 12.8441 17.5995V20.3845C12.8424 20.4583 12.8559 20.5317 12.8836 20.5999C12.9115 20.668 12.9529 20.7294 13.0054 20.78C13.0768 20.8361 13.1604 20.8737 13.2489 20.8898C13.3375 20.9057 13.4286 20.8997 13.5144 20.8721C15.4803 20.2162 17.1899 18.9342 18.3936 17.2129C19.6417 15.4853 20.3041 13.3874 20.2798 11.2387C20.2931 9.45117 19.8346 7.69321 18.9528 6.15049Z" fill="#383737"/>
</g>
</svg>
