<svg width="21" height="23" viewBox="0 0 21 23" fill="none" xmlns="http://www.w3.org/2000/svg">
<path d="M18.9528 6.96299C18.0895 5.43188 16.8486 4.15984 15.3542 3.2742C13.8479 2.37053 12.131 1.90068 10.3852 1.91439C8.6378 1.89984 6.91912 2.36971 5.41134 3.2742C3.91543 4.15907 2.67308 5.43121 1.80892 6.96299C0.926444 8.50546 0.467601 10.2635 0.480938 12.0512C0.460269 14.1951 1.12318 16.2874 2.36908 18.0106C3.57288 19.7318 5.28249 21.0139 7.24829 21.6697C7.33527 21.6969 7.42729 21.7027 7.51688 21.6868C7.60648 21.6707 7.69114 21.6334 7.76403 21.5777C7.81807 21.5279 7.86097 21.4669 7.88982 21.3986C7.91866 21.3303 7.93275 21.2565 7.93111 21.1822L7.92436 20.4691C7.91985 20.0201 7.91759 19.6298 7.91759 19.2982L7.62205 19.3546C7.38549 19.3932 7.14585 19.4088 6.9064 19.401C6.60568 19.3957 6.3059 19.365 6.01014 19.309C5.6956 19.2497 5.39954 19.114 5.14671 18.9134C4.88152 18.7081 4.68376 18.4249 4.57979 18.1015L4.45134 17.798C4.34301 17.5576 4.20682 17.3314 4.0457 17.1245C3.90106 16.9133 3.7085 16.7412 3.48457 16.623L3.39475 16.5568C3.33304 16.5111 3.27694 16.458 3.22767 16.3986C3.18008 16.3434 3.14099 16.281 3.11178 16.2137C3.08602 16.1517 3.10759 16.1008 3.17648 16.0614C3.29502 16.0126 3.42287 15.9923 3.55025 16.002L3.80811 16.0416C4.03858 16.1047 4.25523 16.212 4.44651 16.358C4.70203 16.5364 4.9155 16.7709 5.07138 17.0444C5.24192 17.374 5.48736 17.6569 5.78704 17.8692C6.03445 18.0479 6.32842 18.1467 6.63115 18.153C6.87769 18.1562 7.12393 18.134 7.36612 18.0867C7.56628 18.0447 7.76083 17.9783 7.9456 17.8889C7.98823 17.3723 8.2127 16.889 8.57724 16.5291C8.13158 16.4845 7.68991 16.4051 7.25602 16.2918C6.83257 16.1724 6.42539 15.9994 6.04394 15.7765C5.64466 15.5542 5.29191 15.2539 5.0057 14.8924C4.69953 14.4772 4.47038 14.0079 4.32964 13.5079C4.14386 12.8661 4.05463 12.1992 4.06502 11.53C4.04371 10.5218 4.40957 9.54526 5.08394 8.81034C4.76693 7.93553 4.7992 6.96807 5.17376 6.11744C5.55241 6.0547 5.94076 6.11704 6.2825 6.29544C6.65327 6.43652 7.01295 6.60646 7.35839 6.80376C7.58632 6.9442 7.76886 7.06287 7.90601 7.15979C9.52599 6.70224 11.2367 6.70224 12.8567 7.15979L13.3464 6.84332C13.7228 6.61181 14.1199 6.41744 14.5323 6.26281C14.8564 6.10161 15.2221 6.05067 15.5764 6.11744C15.7658 6.53725 15.8724 6.99123 15.8903 7.45334C15.908 7.91546 15.8364 8.3766 15.6797 8.81034C16.354 9.54531 16.7199 10.5218 16.6986 11.53C16.7088 12.2021 16.6196 12.872 16.434 13.5168C16.2948 14.0187 16.0631 14.4887 15.7512 14.9013C15.4604 15.2588 15.1062 15.5568 14.7072 15.7795C14.3256 16.0023 13.9185 16.1753 13.4951 16.2947C13.0613 16.4085 12.6195 16.4881 12.1739 16.5331C12.4137 16.7765 12.5981 17.0711 12.7139 17.3959C12.8298 17.7207 12.8743 18.0677 12.8441 18.412V21.197C12.8424 21.2708 12.8559 21.3442 12.8836 21.4124C12.9115 21.4805 12.9529 21.5419 13.0054 21.5925C13.0768 21.6486 13.1604 21.6862 13.2489 21.7023C13.3375 21.7182 13.4286 21.7122 13.5144 21.6846C15.4803 21.0287 17.1899 19.7467 18.3936 18.0254C19.6417 16.2978 20.3041 14.1999 20.2798 12.0512C20.2931 10.2637 19.8346 8.50571 18.9528 6.96299Z" fill="#FDFDFD"/>
</svg>
