<svg width="1440" height="880" viewBox="0 0 1440 880" fill="none" xmlns="http://www.w3.org/2000/svg">
<g clip-path="url(#clip0_156_3353)">
<rect width="248" height="880" fill="#31450E"/>
<path fill-rule="evenodd" clip-rule="evenodd" d="M248 21.0725H-91.333V13.3857H248V21.0725Z" fill="#A0CF4D"/>
<path fill-rule="evenodd" clip-rule="evenodd" d="M248 59.5061H-91.333V51.8193H248V59.5061Z" fill="#A0CF4D"/>
<path fill-rule="evenodd" clip-rule="evenodd" d="M248 97.9407H-91.333V90.2539H248V97.9407Z" fill="#A0CF4D"/>
<path fill-rule="evenodd" clip-rule="evenodd" d="M248 136.374H-91.333V128.688H248V136.374Z" fill="#A0CF4D"/>
<path fill-rule="evenodd" clip-rule="evenodd" d="M248 174.808H-91.333V167.121H248V174.808Z" fill="#A0CF4D"/>
<path fill-rule="evenodd" clip-rule="evenodd" d="M248 213.241H-91.333V205.555H248V213.241Z" fill="#A0CF4D"/>
<path fill-rule="evenodd" clip-rule="evenodd" d="M248 251.675H-91.333V243.988H248V251.675Z" fill="#A0CF4D"/>
<path fill-rule="evenodd" clip-rule="evenodd" d="M248 290.109H-91.333V282.422H248V290.109Z" fill="#A0CF4D"/>
<path fill-rule="evenodd" clip-rule="evenodd" d="M248 328.542H-91.333V320.855H248V328.542Z" fill="#A0CF4D"/>
<path fill-rule="evenodd" clip-rule="evenodd" d="M248 366.977H-91.333V359.29H248V366.977Z" fill="#A0CF4D"/>
<path fill-rule="evenodd" clip-rule="evenodd" d="M248 405.41H-91.333V397.724H248V405.41Z" fill="#A0CF4D"/>
<path fill-rule="evenodd" clip-rule="evenodd" d="M248 443.844H-91.333V436.157H248V443.844Z" fill="#A0CF4D"/>
<path fill-rule="evenodd" clip-rule="evenodd" d="M248 482.278H-91.333V474.591H248V482.278Z" fill="#A0CF4D"/>
<path fill-rule="evenodd" clip-rule="evenodd" d="M248 520.711H-91.333V513.024H248V520.711Z" fill="#A0CF4D"/>
<path fill-rule="evenodd" clip-rule="evenodd" d="M248 559.145H-91.333V551.458H248V559.145Z" fill="#A0CF4D"/>
<path fill-rule="evenodd" clip-rule="evenodd" d="M248 597.578H-91.333V589.892H248V597.578Z" fill="#A0CF4D"/>
<path fill-rule="evenodd" clip-rule="evenodd" d="M248 636.013H-91.333V628.326H248V636.013Z" fill="#A0CF4D"/>
<path fill-rule="evenodd" clip-rule="evenodd" d="M248 674.447H-91.333V666.76H248V674.447Z" fill="#A0CF4D"/>
<path fill-rule="evenodd" clip-rule="evenodd" d="M248 712.88H-91.333V705.193H248V712.88Z" fill="#A0CF4D"/>
<path fill-rule="evenodd" clip-rule="evenodd" d="M248 751.314H-91.333V743.627H248V751.314Z" fill="#A0CF4D"/>
<path fill-rule="evenodd" clip-rule="evenodd" d="M248 789.747H-91.333V782.061H248V789.747Z" fill="#A0CF4D"/>
<path fill-rule="evenodd" clip-rule="evenodd" d="M248 828.181H-91.333V820.494H248V828.181Z" fill="#A0CF4D"/>
<path fill-rule="evenodd" clip-rule="evenodd" d="M248 866.614H-91.333V858.928H248V866.614Z" fill="#A0CF4D"/>
</g>
<rect width="1192" height="880" transform="translate(248)" fill="#31450E"/>
<defs>
<clipPath id="clip0_156_3353">
<rect width="248" height="880" fill="white"/>
</clipPath>
</defs>
</svg>
