<svg width="390" height="102" viewBox="0 0 390 102" fill="none" xmlns="http://www.w3.org/2000/svg">
<g clip-path="url(#clip0_450_2506)">
<rect width="102" height="395" transform="matrix(0 -1 1 0 -2.5 102)" fill="#EBFFC9"/>
<path fill-rule="evenodd" clip-rule="evenodd" d="M5.91192 -51.0011L5.91192 197.258H0.288239L0.288239 -51.0011H5.91192Z" fill="#65970C"/>
<path fill-rule="evenodd" clip-rule="evenodd" d="M34.0303 -51.0011L34.0303 197.258H28.4066L28.4066 -51.0011H34.0303Z" fill="#65970C"/>
<path fill-rule="evenodd" clip-rule="evenodd" d="M62.1487 -51.0011L62.1487 197.258H56.5251L56.5251 -51.0011H62.1487Z" fill="#65970C"/>
<path fill-rule="evenodd" clip-rule="evenodd" d="M90.2671 -51.0011L90.2671 197.258H84.6435L84.6435 -51.0011H90.2671Z" fill="#65970C"/>
<path fill-rule="evenodd" clip-rule="evenodd" d="M118.386 -51.0011L118.386 197.258H112.762L112.762 -51.0011H118.386Z" fill="#65970C"/>
<path fill-rule="evenodd" clip-rule="evenodd" d="M146.504 -51.0011L146.504 197.258H140.88L140.88 -51.0011H146.504Z" fill="#65970C"/>
<path fill-rule="evenodd" clip-rule="evenodd" d="M174.622 -51.0011L174.622 197.258H168.999L168.999 -51.0011H174.622Z" fill="#65970C"/>
<path fill-rule="evenodd" clip-rule="evenodd" d="M202.741 -51.0011L202.741 197.258H197.117L197.117 -51.0011H202.741Z" fill="#65970C"/>
<path fill-rule="evenodd" clip-rule="evenodd" d="M230.859 -51.0011L230.859 197.258H225.236L225.236 -51.0011H230.859Z" fill="#65970C"/>
<path fill-rule="evenodd" clip-rule="evenodd" d="M258.978 -51.0011V197.258H253.354L253.354 -51.0011H258.978Z" fill="#65970C"/>
<path fill-rule="evenodd" clip-rule="evenodd" d="M287.096 -51.0011V197.258H281.472V-51.0011H287.096Z" fill="#65970C"/>
<path fill-rule="evenodd" clip-rule="evenodd" d="M315.214 -51.0011V197.258H309.591V-51.0011H315.214Z" fill="#65970C"/>
<path fill-rule="evenodd" clip-rule="evenodd" d="M343.333 -51.0011V197.258H337.709V-51.0011H343.333Z" fill="#65970C"/>
<path fill-rule="evenodd" clip-rule="evenodd" d="M371.451 -51.0011V197.258H365.828V-51.0011H371.451Z" fill="#65970C"/>
</g>
<defs>
<clipPath id="clip0_450_2506">
<rect width="102" height="395" fill="white" transform="matrix(0 -1 1 0 -2.5 102)"/>
</clipPath>
</defs>
</svg>
