<svg width="1440" height="880" viewBox="0 0 1440 880" fill="none" xmlns="http://www.w3.org/2000/svg">
<g clip-path="url(#clip0_139_7711)">
<rect width="248" height="880" fill="#EBFFC9"/>
<path fill-rule="evenodd" clip-rule="evenodd" d="M248 21.0715H-91.333V13.3848H248V21.0715Z" fill="#65970C"/>
<path fill-rule="evenodd" clip-rule="evenodd" d="M248 59.5051H-91.333V51.8184H248V59.5051Z" fill="#65970C"/>
<path fill-rule="evenodd" clip-rule="evenodd" d="M248 97.9397H-91.333V90.2529H248V97.9397Z" fill="#65970C"/>
<path fill-rule="evenodd" clip-rule="evenodd" d="M248 136.373H-91.333V128.687H248V136.373Z" fill="#65970C"/>
<path fill-rule="evenodd" clip-rule="evenodd" d="M248 174.807H-91.333V167.12H248V174.807Z" fill="#65970C"/>
<path fill-rule="evenodd" clip-rule="evenodd" d="M248 213.24H-91.333V205.554H248V213.24Z" fill="#65970C"/>
<path fill-rule="evenodd" clip-rule="evenodd" d="M248 251.674H-91.333V243.987H248V251.674Z" fill="#65970C"/>
<path fill-rule="evenodd" clip-rule="evenodd" d="M248 290.108H-91.333V282.421H248V290.108Z" fill="#65970C"/>
<path fill-rule="evenodd" clip-rule="evenodd" d="M248 328.541H-91.333V320.854H248V328.541Z" fill="#65970C"/>
<path fill-rule="evenodd" clip-rule="evenodd" d="M248 366.976H-91.333V359.289H248V366.976Z" fill="#65970C"/>
<path fill-rule="evenodd" clip-rule="evenodd" d="M248 405.409H-91.333V397.723H248V405.409Z" fill="#65970C"/>
<path fill-rule="evenodd" clip-rule="evenodd" d="M248 443.843H-91.333V436.156H248V443.843Z" fill="#65970C"/>
<path fill-rule="evenodd" clip-rule="evenodd" d="M248 482.277H-91.333V474.59H248V482.277Z" fill="#65970C"/>
<path fill-rule="evenodd" clip-rule="evenodd" d="M248 520.71H-91.333V513.023H248V520.71Z" fill="#65970C"/>
<path fill-rule="evenodd" clip-rule="evenodd" d="M248 559.144H-91.333V551.457H248V559.144Z" fill="#65970C"/>
<path fill-rule="evenodd" clip-rule="evenodd" d="M248 597.577H-91.333V589.891H248V597.577Z" fill="#65970C"/>
<path fill-rule="evenodd" clip-rule="evenodd" d="M248 636.012H-91.333V628.325H248V636.012Z" fill="#65970C"/>
<path fill-rule="evenodd" clip-rule="evenodd" d="M248 674.446H-91.333V666.759H248V674.446Z" fill="#65970C"/>
<path fill-rule="evenodd" clip-rule="evenodd" d="M248 712.879H-91.333V705.192H248V712.879Z" fill="#65970C"/>
<path fill-rule="evenodd" clip-rule="evenodd" d="M248 751.313H-91.333V743.626H248V751.313Z" fill="#65970C"/>
<path fill-rule="evenodd" clip-rule="evenodd" d="M248 789.746H-91.333V782.06H248V789.746Z" fill="#65970C"/>
<path fill-rule="evenodd" clip-rule="evenodd" d="M248 828.18H-91.333V820.493H248V828.18Z" fill="#65970C"/>
<path fill-rule="evenodd" clip-rule="evenodd" d="M248 866.614H-91.333V858.927H248V866.614Z" fill="#65970C"/>
</g>
<rect width="1192" height="880" transform="translate(248)" fill="#EBFFC9"/>
<defs>
<clipPath id="clip0_139_7711">
<rect width="248" height="880" fill="white"/>
</clipPath>
</defs>
</svg>
