<svg width="248" height="880" viewBox="0 0 248 880" fill="none" xmlns="http://www.w3.org/2000/svg">
<g clip-path="url(#clip0_418_709)">
<rect width="248" height="880" fill="#EBFFC9"/>
<path fill-rule="evenodd" clip-rule="evenodd" d="M248 21.0696H-91.3335V13.3828H248V21.0696Z" fill="#65970C"/>
<path fill-rule="evenodd" clip-rule="evenodd" d="M248 59.5032H-91.3335V51.8164H248V59.5032Z" fill="#65970C"/>
<path fill-rule="evenodd" clip-rule="evenodd" d="M248 97.9367H-91.3335V90.25H248V97.9367Z" fill="#65970C"/>
<path fill-rule="evenodd" clip-rule="evenodd" d="M248 136.37H-91.3335V128.684H248V136.37Z" fill="#65970C"/>
<path fill-rule="evenodd" clip-rule="evenodd" d="M248 174.804H-91.3335V167.117H248V174.804Z" fill="#65970C"/>
<path fill-rule="evenodd" clip-rule="evenodd" d="M248 213.238H-91.3335V205.551H248V213.238Z" fill="#65970C"/>
<path fill-rule="evenodd" clip-rule="evenodd" d="M248 251.671H-91.3335V243.984H248V251.671Z" fill="#65970C"/>
<path fill-rule="evenodd" clip-rule="evenodd" d="M248 290.105H-91.3335V282.418H248V290.105Z" fill="#65970C"/>
<path fill-rule="evenodd" clip-rule="evenodd" d="M248 328.538H-91.3335V320.852H248V328.538Z" fill="#65970C"/>
<path fill-rule="evenodd" clip-rule="evenodd" d="M248 366.972H-91.3335V359.285H248V366.972Z" fill="#65970C"/>
<path fill-rule="evenodd" clip-rule="evenodd" d="M248 405.405H-91.3335V397.719H248V405.405Z" fill="#65970C"/>
<path fill-rule="evenodd" clip-rule="evenodd" d="M248 443.839H-91.3335V436.152H248V443.839Z" fill="#65970C"/>
<path fill-rule="evenodd" clip-rule="evenodd" d="M248 482.277H-91.3335V474.59H248V482.277Z" fill="#65970C"/>
<path fill-rule="evenodd" clip-rule="evenodd" d="M248 520.71H-91.3335V513.023H248V520.71Z" fill="#65970C"/>
<path fill-rule="evenodd" clip-rule="evenodd" d="M248 559.144H-91.3335V551.457H248V559.144Z" fill="#65970C"/>
<path fill-rule="evenodd" clip-rule="evenodd" d="M248 597.577H-91.3335V589.891H248V597.577Z" fill="#65970C"/>
<path fill-rule="evenodd" clip-rule="evenodd" d="M248 636.011H-91.3335V628.324H248V636.011Z" fill="#65970C"/>
<path fill-rule="evenodd" clip-rule="evenodd" d="M248 674.445H-91.3335V666.758H248V674.445Z" fill="#65970C"/>
<path fill-rule="evenodd" clip-rule="evenodd" d="M248 712.878H-91.3335V705.191H248V712.878Z" fill="#65970C"/>
<path fill-rule="evenodd" clip-rule="evenodd" d="M248 751.312H-91.3335V743.625H248V751.312Z" fill="#65970C"/>
<path fill-rule="evenodd" clip-rule="evenodd" d="M248 789.745H-91.3335V782.059H248V789.745Z" fill="#65970C"/>
<path fill-rule="evenodd" clip-rule="evenodd" d="M248 828.179H-91.3335V820.492H248V828.179Z" fill="#65970C"/>
<path fill-rule="evenodd" clip-rule="evenodd" d="M248 866.613H-91.3335V858.926H248V866.613Z" fill="#65970C"/>
</g>
<defs>
<clipPath id="clip0_418_709">
<rect width="248" height="880" fill="white"/>
</clipPath>
</defs>
</svg>
