<svg width="1440" height="880" viewBox="0 0 1440 880" fill="none" xmlns="http://www.w3.org/2000/svg">
<g clip-path="url(#clip0_156_2975)">
<rect width="1440" height="880" fill="#2F2020"/>
<g clip-path="url(#clip1_156_2975)">
<rect width="172" height="1442" transform="matrix(0 1 -1 0 1442 708.578)" fill="#2F2020"/>
<path fill-rule="evenodd" clip-rule="evenodd" d="M1408.96 880.577V541.244H1416.65V880.577H1408.96Z" fill="#E46F67"/>
<path fill-rule="evenodd" clip-rule="evenodd" d="M1370.53 880.577V541.244H1378.22V880.577H1370.53Z" fill="#E46F67"/>
<path fill-rule="evenodd" clip-rule="evenodd" d="M1332.1 880.577V541.244H1339.78V880.577H1332.1Z" fill="#E46F67"/>
<path fill-rule="evenodd" clip-rule="evenodd" d="M1293.66 880.577V541.244H1301.35V880.577H1293.66Z" fill="#E46F67"/>
<path fill-rule="evenodd" clip-rule="evenodd" d="M1255.23 880.577V541.244H1262.92V880.577H1255.23Z" fill="#E46F67"/>
<path fill-rule="evenodd" clip-rule="evenodd" d="M1216.79 880.577V541.244H1224.48V880.577H1216.79Z" fill="#E46F67"/>
<path fill-rule="evenodd" clip-rule="evenodd" d="M1178.36 880.577V541.244H1186.05V880.577H1178.36Z" fill="#E46F67"/>
<path fill-rule="evenodd" clip-rule="evenodd" d="M1139.93 880.577V541.244H1147.61V880.577H1139.93Z" fill="#E46F67"/>
<path fill-rule="evenodd" clip-rule="evenodd" d="M1101.49 880.577V541.244H1109.18V880.577H1101.49Z" fill="#E46F67"/>
<path fill-rule="evenodd" clip-rule="evenodd" d="M1063.06 880.577V541.244H1070.75V880.577H1063.06Z" fill="#E46F67"/>
<path fill-rule="evenodd" clip-rule="evenodd" d="M1024.63 880.577V541.244H1032.31V880.577H1024.63Z" fill="#E46F67"/>
<path fill-rule="evenodd" clip-rule="evenodd" d="M986.192 880.577V541.244H993.879V880.577H986.192Z" fill="#E46F67"/>
<path fill-rule="evenodd" clip-rule="evenodd" d="M947.759 880.577V541.244H955.445V880.577H947.759Z" fill="#E46F67"/>
<path fill-rule="evenodd" clip-rule="evenodd" d="M909.325 880.577V541.244H917.012V880.577H909.325Z" fill="#E46F67"/>
<path fill-rule="evenodd" clip-rule="evenodd" d="M870.891 880.577V541.244H878.578V880.577H870.891Z" fill="#E46F67"/>
<path fill-rule="evenodd" clip-rule="evenodd" d="M832.458 880.577V541.244H840.145V880.577H832.458Z" fill="#E46F67"/>
<path fill-rule="evenodd" clip-rule="evenodd" d="M794.024 880.577V541.244H801.711V880.577H794.024Z" fill="#E46F67"/>
<path fill-rule="evenodd" clip-rule="evenodd" d="M755.59 880.577V541.244H763.276V880.577H755.59Z" fill="#E46F67"/>
<path fill-rule="evenodd" clip-rule="evenodd" d="M717.156 880.577V541.244H724.843V880.577H717.156Z" fill="#E46F67"/>
<path fill-rule="evenodd" clip-rule="evenodd" d="M678.722 880.577V541.244H686.409V880.577H678.722Z" fill="#E46F67"/>
<path fill-rule="evenodd" clip-rule="evenodd" d="M640.289 880.577V541.244H647.976V880.577H640.289Z" fill="#E46F67"/>
<path fill-rule="evenodd" clip-rule="evenodd" d="M601.855 880.577V541.244H609.542V880.577H601.855Z" fill="#E46F67"/>
<path fill-rule="evenodd" clip-rule="evenodd" d="M563.422 880.577V541.244H571.108V880.577H563.422Z" fill="#E46F67"/>
<path fill-rule="evenodd" clip-rule="evenodd" d="M524.988 880.577V541.244H532.675V880.577H524.988Z" fill="#E46F67"/>
<path fill-rule="evenodd" clip-rule="evenodd" d="M486.554 880.577L486.554 541.244H494.241L494.241 880.577H486.554Z" fill="#E46F67"/>
<path fill-rule="evenodd" clip-rule="evenodd" d="M448.12 880.577L448.12 541.244H455.807L455.807 880.577H448.12Z" fill="#E46F67"/>
<path fill-rule="evenodd" clip-rule="evenodd" d="M409.686 880.577L409.686 541.244H417.373L417.373 880.577H409.686Z" fill="#E46F67"/>
<path fill-rule="evenodd" clip-rule="evenodd" d="M371.253 880.577L371.253 541.244H378.939L378.939 880.577H371.253Z" fill="#E46F67"/>
<path fill-rule="evenodd" clip-rule="evenodd" d="M332.819 880.577L332.819 541.244H340.506L340.506 880.577H332.819Z" fill="#E46F67"/>
<path fill-rule="evenodd" clip-rule="evenodd" d="M294.386 880.577L294.386 541.244H302.072L302.072 880.577H294.386Z" fill="#E46F67"/>
<path fill-rule="evenodd" clip-rule="evenodd" d="M255.952 880.577L255.952 541.244H263.639L263.639 880.577H255.952Z" fill="#E46F67"/>
<path fill-rule="evenodd" clip-rule="evenodd" d="M217.518 880.577L217.518 541.244H225.205L225.205 880.577H217.518Z" fill="#E46F67"/>
<path fill-rule="evenodd" clip-rule="evenodd" d="M179.085 880.577L179.085 541.244H186.771L186.771 880.577H179.085Z" fill="#E46F67"/>
<path fill-rule="evenodd" clip-rule="evenodd" d="M140.65 880.577L140.65 541.244H148.337L148.337 880.577H140.65Z" fill="#E46F67"/>
<path fill-rule="evenodd" clip-rule="evenodd" d="M102.217 880.577L102.217 541.244H109.903L109.903 880.577H102.217Z" fill="#E46F67"/>
<path fill-rule="evenodd" clip-rule="evenodd" d="M63.783 880.577L63.783 541.244H71.4697L71.4697 880.577H63.783Z" fill="#E46F67"/>
<path fill-rule="evenodd" clip-rule="evenodd" d="M25.3494 880.577L25.3494 541.244H33.0361L33.0361 880.577H25.3494Z" fill="#E46F67"/>
</g>
<g clip-path="url(#clip2_156_2975)">
<rect width="80" height="1442" transform="matrix(0 1 -1 0 1442 -0.421875)" fill="#2F2020"/>
<path fill-rule="evenodd" clip-rule="evenodd" d="M1408.96 79.5775V-259.756H1416.65V79.5775H1408.96Z" fill="#E46F67"/>
<path fill-rule="evenodd" clip-rule="evenodd" d="M1370.53 79.5775V-259.756H1378.22V79.5775H1370.53Z" fill="#E46F67"/>
<path fill-rule="evenodd" clip-rule="evenodd" d="M1332.1 79.5775V-259.756H1339.78V79.5775H1332.1Z" fill="#E46F67"/>
<path fill-rule="evenodd" clip-rule="evenodd" d="M1293.66 79.5775V-259.756H1301.35V79.5775H1293.66Z" fill="#E46F67"/>
<path fill-rule="evenodd" clip-rule="evenodd" d="M1255.23 79.5775V-259.756H1262.92V79.5775H1255.23Z" fill="#E46F67"/>
<path fill-rule="evenodd" clip-rule="evenodd" d="M1216.79 79.5775V-259.756H1224.48V79.5775H1216.79Z" fill="#E46F67"/>
<path fill-rule="evenodd" clip-rule="evenodd" d="M1178.36 79.5775V-259.756H1186.05V79.5775H1178.36Z" fill="#E46F67"/>
<path fill-rule="evenodd" clip-rule="evenodd" d="M1139.93 79.5775V-259.756H1147.61V79.5775H1139.93Z" fill="#E46F67"/>
<path fill-rule="evenodd" clip-rule="evenodd" d="M1101.49 79.5775V-259.756H1109.18V79.5775H1101.49Z" fill="#E46F67"/>
<path fill-rule="evenodd" clip-rule="evenodd" d="M1063.06 79.5775V-259.756H1070.75V79.5775H1063.06Z" fill="#E46F67"/>
<path fill-rule="evenodd" clip-rule="evenodd" d="M1024.63 79.5775V-259.756H1032.31V79.5775H1024.63Z" fill="#E46F67"/>
<path fill-rule="evenodd" clip-rule="evenodd" d="M986.192 79.5775V-259.756H993.879V79.5775H986.192Z" fill="#E46F67"/>
<path fill-rule="evenodd" clip-rule="evenodd" d="M947.759 79.5775V-259.756H955.445V79.5775H947.759Z" fill="#E46F67"/>
<path fill-rule="evenodd" clip-rule="evenodd" d="M909.325 79.5775V-259.756H917.012V79.5775H909.325Z" fill="#E46F67"/>
<path fill-rule="evenodd" clip-rule="evenodd" d="M870.891 79.5775V-259.756H878.578V79.5775H870.891Z" fill="#E46F67"/>
<path fill-rule="evenodd" clip-rule="evenodd" d="M832.458 79.5775V-259.756H840.145V79.5775H832.458Z" fill="#E46F67"/>
<path fill-rule="evenodd" clip-rule="evenodd" d="M794.024 79.5775V-259.756H801.711V79.5775H794.024Z" fill="#E46F67"/>
<path fill-rule="evenodd" clip-rule="evenodd" d="M755.59 79.5775V-259.756H763.276V79.5775H755.59Z" fill="#E46F67"/>
<path fill-rule="evenodd" clip-rule="evenodd" d="M717.156 79.5775V-259.756H724.843V79.5775H717.156Z" fill="#E46F67"/>
<path fill-rule="evenodd" clip-rule="evenodd" d="M678.722 79.5775V-259.756H686.409V79.5775H678.722Z" fill="#E46F67"/>
<path fill-rule="evenodd" clip-rule="evenodd" d="M640.289 79.5775V-259.756H647.976V79.5775H640.289Z" fill="#E46F67"/>
<path fill-rule="evenodd" clip-rule="evenodd" d="M601.855 79.5775V-259.756H609.542V79.5775H601.855Z" fill="#E46F67"/>
<path fill-rule="evenodd" clip-rule="evenodd" d="M563.422 79.5775V-259.756H571.108V79.5775H563.422Z" fill="#E46F67"/>
<path fill-rule="evenodd" clip-rule="evenodd" d="M524.988 79.5775V-259.756H532.675V79.5775H524.988Z" fill="#E46F67"/>
<path fill-rule="evenodd" clip-rule="evenodd" d="M486.554 79.5775L486.554 -259.756H494.241L494.241 79.5775H486.554Z" fill="#E46F67"/>
<path fill-rule="evenodd" clip-rule="evenodd" d="M448.12 79.5775L448.12 -259.756H455.807L455.807 79.5775H448.12Z" fill="#E46F67"/>
<path fill-rule="evenodd" clip-rule="evenodd" d="M409.686 79.5775L409.686 -259.756H417.373L417.373 79.5775H409.686Z" fill="#E46F67"/>
<path fill-rule="evenodd" clip-rule="evenodd" d="M371.253 79.5775L371.253 -259.756H378.939L378.939 79.5775H371.253Z" fill="#E46F67"/>
<path fill-rule="evenodd" clip-rule="evenodd" d="M332.819 79.5775L332.819 -259.756H340.506L340.506 79.5775H332.819Z" fill="#E46F67"/>
<path fill-rule="evenodd" clip-rule="evenodd" d="M294.386 79.5775L294.386 -259.756H302.072L302.072 79.5775H294.386Z" fill="#E46F67"/>
<path fill-rule="evenodd" clip-rule="evenodd" d="M255.952 79.5775L255.952 -259.756H263.639L263.639 79.5775H255.952Z" fill="#E46F67"/>
<path fill-rule="evenodd" clip-rule="evenodd" d="M217.518 79.5775L217.518 -259.756H225.205L225.205 79.5775H217.518Z" fill="#E46F67"/>
<path fill-rule="evenodd" clip-rule="evenodd" d="M179.085 79.5775L179.085 -259.756H186.771L186.771 79.5775H179.085Z" fill="#E46F67"/>
<path fill-rule="evenodd" clip-rule="evenodd" d="M140.65 79.5775L140.65 -259.756H148.337L148.337 79.5775H140.65Z" fill="#E46F67"/>
<path fill-rule="evenodd" clip-rule="evenodd" d="M102.217 79.5775L102.217 -259.756H109.903L109.903 79.5775H102.217Z" fill="#E46F67"/>
<path fill-rule="evenodd" clip-rule="evenodd" d="M63.783 79.5775L63.783 -259.756H71.4697L71.4697 79.5775H63.783Z" fill="#E46F67"/>
<path fill-rule="evenodd" clip-rule="evenodd" d="M25.3494 79.5775L25.3494 -259.756H33.0361L33.0361 79.5775H25.3494Z" fill="#E46F67"/>
</g>
</g>
<defs>
<clipPath id="clip0_156_2975">
<rect width="1440" height="880" fill="white"/>
</clipPath>
<clipPath id="clip1_156_2975">
<rect width="172" height="1442" fill="white" transform="matrix(0 1 -1 0 1442 708.578)"/>
</clipPath>
<clipPath id="clip2_156_2975">
<rect width="80" height="1442" fill="white" transform="matrix(0 1 -1 0 1442 -0.421875)"/>
</clipPath>
</defs>
</svg>
