<svg width="1440" height="881" viewBox="0 0 1440 881" fill="none" xmlns="http://www.w3.org/2000/svg">
<g clip-path="url(#clip0_139_7327)">
<rect width="1440" height="880" transform="translate(0 0.421875)" fill="#FFE5E5"/>
<g clip-path="url(#clip1_139_7327)">
<path fill-rule="evenodd" clip-rule="evenodd" d="M1408.96 879.999V540.666H1416.65V879.999H1408.96Z" fill="#AD2022"/>
<path fill-rule="evenodd" clip-rule="evenodd" d="M1370.53 879.999V540.666H1378.22V879.999H1370.53Z" fill="#AD2022"/>
<path fill-rule="evenodd" clip-rule="evenodd" d="M1332.1 879.999V540.666H1339.78V879.999H1332.1Z" fill="#AD2022"/>
<path fill-rule="evenodd" clip-rule="evenodd" d="M1293.66 879.999V540.666H1301.35V879.999H1293.66Z" fill="#AD2022"/>
<path fill-rule="evenodd" clip-rule="evenodd" d="M1255.23 879.999V540.666H1262.92V879.999H1255.23Z" fill="#AD2022"/>
<path fill-rule="evenodd" clip-rule="evenodd" d="M1216.79 879.999V540.666H1224.48V879.999H1216.79Z" fill="#AD2022"/>
<path fill-rule="evenodd" clip-rule="evenodd" d="M1178.36 879.999V540.666H1186.05V879.999H1178.36Z" fill="#AD2022"/>
<path fill-rule="evenodd" clip-rule="evenodd" d="M1139.93 879.999V540.666H1147.61V879.999H1139.93Z" fill="#AD2022"/>
<path fill-rule="evenodd" clip-rule="evenodd" d="M1101.49 879.999V540.666H1109.18V879.999H1101.49Z" fill="#AD2022"/>
<path fill-rule="evenodd" clip-rule="evenodd" d="M1063.06 879.999V540.666H1070.75V879.999H1063.06Z" fill="#AD2022"/>
<path fill-rule="evenodd" clip-rule="evenodd" d="M1024.63 879.999V540.666H1032.31V879.999H1024.63Z" fill="#AD2022"/>
<path fill-rule="evenodd" clip-rule="evenodd" d="M986.192 879.999V540.666H993.879V879.999H986.192Z" fill="#AD2022"/>
<path fill-rule="evenodd" clip-rule="evenodd" d="M947.759 879.999V540.666H955.445V879.999H947.759Z" fill="#AD2022"/>
<path fill-rule="evenodd" clip-rule="evenodd" d="M909.325 879.999V540.666H917.012V879.999H909.325Z" fill="#AD2022"/>
<path fill-rule="evenodd" clip-rule="evenodd" d="M870.891 879.999V540.666H878.578V879.999H870.891Z" fill="#AD2022"/>
<path fill-rule="evenodd" clip-rule="evenodd" d="M832.458 879.999V540.666H840.145V879.999H832.458Z" fill="#AD2022"/>
<path fill-rule="evenodd" clip-rule="evenodd" d="M794.024 879.999V540.666H801.711V879.999H794.024Z" fill="#AD2022"/>
<path fill-rule="evenodd" clip-rule="evenodd" d="M755.59 879.999V540.666H763.276V879.999H755.59Z" fill="#AD2022"/>
<path fill-rule="evenodd" clip-rule="evenodd" d="M717.156 879.999V540.666H724.843V879.999H717.156Z" fill="#AD2022"/>
<path fill-rule="evenodd" clip-rule="evenodd" d="M678.722 879.999V540.666H686.409V879.999H678.722Z" fill="#AD2022"/>
<path fill-rule="evenodd" clip-rule="evenodd" d="M640.289 879.999V540.666H647.976V879.999H640.289Z" fill="#AD2022"/>
<path fill-rule="evenodd" clip-rule="evenodd" d="M601.855 879.999V540.666H609.542V879.999H601.855Z" fill="#AD2022"/>
<path fill-rule="evenodd" clip-rule="evenodd" d="M563.422 879.999V540.666H571.108V879.999H563.422Z" fill="#AD2022"/>
<path fill-rule="evenodd" clip-rule="evenodd" d="M524.988 879.999V540.666H532.675V879.999H524.988Z" fill="#AD2022"/>
<path fill-rule="evenodd" clip-rule="evenodd" d="M486.554 879.999L486.554 540.666H494.241L494.241 879.999H486.554Z" fill="#AD2022"/>
<path fill-rule="evenodd" clip-rule="evenodd" d="M448.12 879.999L448.12 540.666H455.807L455.807 879.999H448.12Z" fill="#AD2022"/>
<path fill-rule="evenodd" clip-rule="evenodd" d="M409.686 879.999L409.686 540.666H417.373L417.373 879.999H409.686Z" fill="#AD2022"/>
<path fill-rule="evenodd" clip-rule="evenodd" d="M371.253 879.999L371.253 540.666H378.939L378.939 879.999H371.253Z" fill="#AD2022"/>
<path fill-rule="evenodd" clip-rule="evenodd" d="M332.819 879.999L332.819 540.666H340.506L340.506 879.999H332.819Z" fill="#AD2022"/>
<path fill-rule="evenodd" clip-rule="evenodd" d="M294.386 879.999L294.386 540.666H302.072L302.072 879.999H294.386Z" fill="#AD2022"/>
<path fill-rule="evenodd" clip-rule="evenodd" d="M255.952 879.999L255.952 540.666H263.639L263.639 879.999H255.952Z" fill="#AD2022"/>
<path fill-rule="evenodd" clip-rule="evenodd" d="M217.518 879.999L217.518 540.666H225.205L225.205 879.999H217.518Z" fill="#AD2022"/>
<path fill-rule="evenodd" clip-rule="evenodd" d="M179.085 879.999L179.085 540.666H186.771L186.771 879.999H179.085Z" fill="#AD2022"/>
<path fill-rule="evenodd" clip-rule="evenodd" d="M140.65 879.999L140.65 540.666H148.337L148.337 879.999H140.65Z" fill="#AD2022"/>
<path fill-rule="evenodd" clip-rule="evenodd" d="M102.217 879.999L102.217 540.666H109.903L109.903 879.999H102.217Z" fill="#AD2022"/>
<path fill-rule="evenodd" clip-rule="evenodd" d="M63.783 879.999L63.783 540.666H71.4697L71.4697 879.999H63.783Z" fill="#AD2022"/>
<path fill-rule="evenodd" clip-rule="evenodd" d="M25.3494 879.999L25.3494 540.666H33.0361L33.0361 879.999H25.3494Z" fill="#AD2022"/>
</g>
<g clip-path="url(#clip2_139_7327)">
<path fill-rule="evenodd" clip-rule="evenodd" d="M1408.96 79.9988V-259.334H1416.65V79.9988H1408.96Z" fill="#AD2022"/>
<path fill-rule="evenodd" clip-rule="evenodd" d="M1370.53 79.9988V-259.334H1378.22V79.9988H1370.53Z" fill="#AD2022"/>
<path fill-rule="evenodd" clip-rule="evenodd" d="M1332.1 79.9988V-259.334H1339.78V79.9988H1332.1Z" fill="#AD2022"/>
<path fill-rule="evenodd" clip-rule="evenodd" d="M1293.66 79.9988V-259.334H1301.35V79.9988H1293.66Z" fill="#AD2022"/>
<path fill-rule="evenodd" clip-rule="evenodd" d="M1255.23 79.9988V-259.334H1262.92V79.9988H1255.23Z" fill="#AD2022"/>
<path fill-rule="evenodd" clip-rule="evenodd" d="M1216.79 79.9988V-259.334H1224.48V79.9988H1216.79Z" fill="#AD2022"/>
<path fill-rule="evenodd" clip-rule="evenodd" d="M1178.36 79.9988V-259.334H1186.05V79.9988H1178.36Z" fill="#AD2022"/>
<path fill-rule="evenodd" clip-rule="evenodd" d="M1139.93 79.9988V-259.334H1147.61V79.9988H1139.93Z" fill="#AD2022"/>
<path fill-rule="evenodd" clip-rule="evenodd" d="M1101.49 79.9988V-259.334H1109.18V79.9988H1101.49Z" fill="#AD2022"/>
<path fill-rule="evenodd" clip-rule="evenodd" d="M1063.06 79.9988V-259.334H1070.75V79.9988H1063.06Z" fill="#AD2022"/>
<path fill-rule="evenodd" clip-rule="evenodd" d="M1024.63 79.9988V-259.334H1032.31V79.9988H1024.63Z" fill="#AD2022"/>
<path fill-rule="evenodd" clip-rule="evenodd" d="M986.192 79.9988V-259.334H993.879V79.9988H986.192Z" fill="#AD2022"/>
<path fill-rule="evenodd" clip-rule="evenodd" d="M947.759 79.9988V-259.334H955.445V79.9988H947.759Z" fill="#AD2022"/>
<path fill-rule="evenodd" clip-rule="evenodd" d="M909.325 79.9988V-259.334H917.012V79.9988H909.325Z" fill="#AD2022"/>
<path fill-rule="evenodd" clip-rule="evenodd" d="M870.891 79.9988V-259.334H878.578V79.9988H870.891Z" fill="#AD2022"/>
<path fill-rule="evenodd" clip-rule="evenodd" d="M832.458 79.9988V-259.334H840.145V79.9988H832.458Z" fill="#AD2022"/>
<path fill-rule="evenodd" clip-rule="evenodd" d="M794.024 79.9988V-259.334H801.711V79.9988H794.024Z" fill="#AD2022"/>
<path fill-rule="evenodd" clip-rule="evenodd" d="M755.59 79.9988V-259.334H763.276V79.9988H755.59Z" fill="#AD2022"/>
<path fill-rule="evenodd" clip-rule="evenodd" d="M717.156 79.9988V-259.334H724.843V79.9988H717.156Z" fill="#AD2022"/>
<path fill-rule="evenodd" clip-rule="evenodd" d="M678.722 79.9988V-259.334H686.409V79.9988H678.722Z" fill="#AD2022"/>
<path fill-rule="evenodd" clip-rule="evenodd" d="M640.289 79.9988V-259.334H647.976V79.9988H640.289Z" fill="#AD2022"/>
<path fill-rule="evenodd" clip-rule="evenodd" d="M601.855 79.9988V-259.334H609.542V79.9988H601.855Z" fill="#AD2022"/>
<path fill-rule="evenodd" clip-rule="evenodd" d="M563.422 79.9988V-259.334H571.108V79.9988H563.422Z" fill="#AD2022"/>
<path fill-rule="evenodd" clip-rule="evenodd" d="M524.988 79.9988V-259.334H532.675V79.9988H524.988Z" fill="#AD2022"/>
<path fill-rule="evenodd" clip-rule="evenodd" d="M486.554 79.9988L486.554 -259.334H494.241L494.241 79.9988H486.554Z" fill="#AD2022"/>
<path fill-rule="evenodd" clip-rule="evenodd" d="M448.12 79.9988L448.12 -259.334H455.807L455.807 79.9988H448.12Z" fill="#AD2022"/>
<path fill-rule="evenodd" clip-rule="evenodd" d="M409.686 79.9988L409.686 -259.334H417.373L417.373 79.9988H409.686Z" fill="#AD2022"/>
<path fill-rule="evenodd" clip-rule="evenodd" d="M371.253 79.9988L371.253 -259.334H378.939L378.939 79.9988H371.253Z" fill="#AD2022"/>
<path fill-rule="evenodd" clip-rule="evenodd" d="M332.819 79.9988L332.819 -259.334H340.506L340.506 79.9988H332.819Z" fill="#AD2022"/>
<path fill-rule="evenodd" clip-rule="evenodd" d="M294.386 79.9988L294.386 -259.334H302.072L302.072 79.9988H294.386Z" fill="#AD2022"/>
<path fill-rule="evenodd" clip-rule="evenodd" d="M255.952 79.9988L255.952 -259.334H263.639L263.639 79.9988H255.952Z" fill="#AD2022"/>
<path fill-rule="evenodd" clip-rule="evenodd" d="M217.518 79.9988L217.518 -259.334H225.205L225.205 79.9988H217.518Z" fill="#AD2022"/>
<path fill-rule="evenodd" clip-rule="evenodd" d="M179.085 79.9988L179.085 -259.334H186.771L186.771 79.9988H179.085Z" fill="#AD2022"/>
<path fill-rule="evenodd" clip-rule="evenodd" d="M140.65 79.9988L140.65 -259.334H148.337L148.337 79.9988H140.65Z" fill="#AD2022"/>
<path fill-rule="evenodd" clip-rule="evenodd" d="M102.217 79.9988L102.217 -259.334H109.903L109.903 79.9988H102.217Z" fill="#AD2022"/>
<path fill-rule="evenodd" clip-rule="evenodd" d="M63.783 79.9988L63.783 -259.334H71.4697L71.4697 79.9988H63.783Z" fill="#AD2022"/>
<path fill-rule="evenodd" clip-rule="evenodd" d="M25.3494 79.9988L25.3494 -259.334H33.0361L33.0361 79.9988H25.3494Z" fill="#AD2022"/>
</g>
</g>
<defs>
<clipPath id="clip0_139_7327">
<rect width="1440" height="880" fill="white" transform="translate(0 0.421875)"/>
</clipPath>
<clipPath id="clip1_139_7327">
<rect width="172" height="1442" fill="white" transform="matrix(0 1 -1 0 1442 708)"/>
</clipPath>
<clipPath id="clip2_139_7327">
<rect width="80" height="1442" fill="white" transform="matrix(0 1 -1 0 1442 0)"/>
</clipPath>
</defs>
</svg>
