<svg width="640" height="960" viewBox="0 0 640 960" fill="none" xmlns="http://www.w3.org/2000/svg">
<g clip-path="url(#clip0_418_242)">
<rect width="640" height="960" fill="#D5E5FF"/>
<path fill-rule="evenodd" clip-rule="evenodd" d="M300.667 26.4809H-38.6667V11.1074H300.667V26.4809Z" fill="#609AF8"/>
<path fill-rule="evenodd" clip-rule="evenodd" d="M300.667 64.9145H-38.6667V49.541H300.667V64.9145Z" fill="#609AF8"/>
<path fill-rule="evenodd" clip-rule="evenodd" d="M300.667 103.348H-38.6667V87.9746H300.667V103.348Z" fill="#609AF8"/>
<path fill-rule="evenodd" clip-rule="evenodd" d="M300.667 141.782H-38.6667V126.408H300.667V141.782Z" fill="#609AF8"/>
<path fill-rule="evenodd" clip-rule="evenodd" d="M300.667 180.215H-38.6667V164.842H300.667V180.215Z" fill="#609AF8"/>
<path fill-rule="evenodd" clip-rule="evenodd" d="M300.667 218.649H-38.6667V203.275H300.667V218.649Z" fill="#609AF8"/>
<path fill-rule="evenodd" clip-rule="evenodd" d="M300.667 257.084H-38.6667V241.711H300.667V257.084Z" fill="#609AF8"/>
<path fill-rule="evenodd" clip-rule="evenodd" d="M300.667 295.518H-38.6667V280.145H300.667V295.518Z" fill="#609AF8"/>
<path fill-rule="evenodd" clip-rule="evenodd" d="M300.667 333.952H-38.6667V318.578H300.667V333.952Z" fill="#609AF8"/>
<path fill-rule="evenodd" clip-rule="evenodd" d="M300.667 372.385H-38.6667V357.012H300.667V372.385Z" fill="#609AF8"/>
<path fill-rule="evenodd" clip-rule="evenodd" d="M300.667 410.819H-38.6667V395.445H300.667V410.819Z" fill="#609AF8"/>
<path fill-rule="evenodd" clip-rule="evenodd" d="M300.667 449.252H-38.6667V433.879H300.667V449.252Z" fill="#609AF8"/>
<path fill-rule="evenodd" clip-rule="evenodd" d="M300.667 487.686H-38.6667V472.312H300.667V487.686Z" fill="#609AF8"/>
<path fill-rule="evenodd" clip-rule="evenodd" d="M300.667 526.12H-38.6667V510.746H300.667V526.12Z" fill="#609AF8"/>
<path fill-rule="evenodd" clip-rule="evenodd" d="M300.667 564.553H-38.6667V549.18H300.667V564.553Z" fill="#609AF8"/>
<path fill-rule="evenodd" clip-rule="evenodd" d="M300.667 602.987H-38.6667V587.613H300.667V602.987Z" fill="#609AF8"/>
<path fill-rule="evenodd" clip-rule="evenodd" d="M300.667 641.42H-38.6667V626.047H300.667V641.42Z" fill="#609AF8"/>
<path fill-rule="evenodd" clip-rule="evenodd" d="M300.667 679.854H-38.6667V664.48H300.667V679.854Z" fill="#609AF8"/>
<path fill-rule="evenodd" clip-rule="evenodd" d="M300.667 718.288H-38.6667V702.914H300.667V718.288Z" fill="#609AF8"/>
<path fill-rule="evenodd" clip-rule="evenodd" d="M300.667 756.721H-38.6667V741.348H300.667V756.721Z" fill="#609AF8"/>
<path fill-rule="evenodd" clip-rule="evenodd" d="M300.667 795.155H-38.6667V779.781H300.667V795.155Z" fill="#609AF8"/>
<path fill-rule="evenodd" clip-rule="evenodd" d="M300.667 833.59H-38.6667V818.217H300.667V833.59Z" fill="#609AF8"/>
<path fill-rule="evenodd" clip-rule="evenodd" d="M300.667 872.024H-38.6667V856.65H300.667V872.024Z" fill="#609AF8"/>
<path fill-rule="evenodd" clip-rule="evenodd" d="M300.667 910.457H-38.6667V895.084H300.667V910.457Z" fill="#609AF8"/>
<path fill-rule="evenodd" clip-rule="evenodd" d="M300.667 948.891H-38.6667V933.518H300.667V948.891Z" fill="#609AF8"/>
<path fill-rule="evenodd" clip-rule="evenodd" d="M640 22.6379H300.667V14.9512H640V22.6379Z" fill="#609AF8"/>
<path fill-rule="evenodd" clip-rule="evenodd" d="M640 61.0715H300.667V53.3848H640V61.0715Z" fill="#609AF8"/>
<path fill-rule="evenodd" clip-rule="evenodd" d="M640 99.5051H300.667V91.8184H640V99.5051Z" fill="#609AF8"/>
<path fill-rule="evenodd" clip-rule="evenodd" d="M640 137.939H300.667V130.252H640V137.939Z" fill="#609AF8"/>
<path fill-rule="evenodd" clip-rule="evenodd" d="M640 176.372H300.667V168.686H640V176.372Z" fill="#609AF8"/>
<path fill-rule="evenodd" clip-rule="evenodd" d="M640 214.806H300.667V207.119H640V214.806Z" fill="#609AF8"/>
<path fill-rule="evenodd" clip-rule="evenodd" d="M640 253.241H300.667V245.555H640V253.241Z" fill="#609AF8"/>
<path fill-rule="evenodd" clip-rule="evenodd" d="M640 291.675H300.667V283.988H640V291.675Z" fill="#609AF8"/>
<path fill-rule="evenodd" clip-rule="evenodd" d="M640 330.109H300.667V322.422H640V330.109Z" fill="#609AF8"/>
<path fill-rule="evenodd" clip-rule="evenodd" d="M640 368.542H300.667V360.855H640V368.542Z" fill="#609AF8"/>
<path fill-rule="evenodd" clip-rule="evenodd" d="M640 406.976H300.667V399.289H640V406.976Z" fill="#609AF8"/>
<path fill-rule="evenodd" clip-rule="evenodd" d="M640 445.409H300.667V437.723H640V445.409Z" fill="#609AF8"/>
<path fill-rule="evenodd" clip-rule="evenodd" d="M640 483.843H300.667V476.156H640V483.843Z" fill="#609AF8"/>
<path fill-rule="evenodd" clip-rule="evenodd" d="M640 522.277H300.667V514.59H640V522.277Z" fill="#609AF8"/>
<path fill-rule="evenodd" clip-rule="evenodd" d="M640 560.71H300.667V553.023H640V560.71Z" fill="#609AF8"/>
<path fill-rule="evenodd" clip-rule="evenodd" d="M640 599.144H300.667V591.457H640V599.144Z" fill="#609AF8"/>
<path fill-rule="evenodd" clip-rule="evenodd" d="M640 637.577H300.667V629.891H640V637.577Z" fill="#609AF8"/>
<path fill-rule="evenodd" clip-rule="evenodd" d="M640 676.011H300.667V668.324H640V676.011Z" fill="#609AF8"/>
<path fill-rule="evenodd" clip-rule="evenodd" d="M640 714.445H300.667V706.758H640V714.445Z" fill="#609AF8"/>
<path fill-rule="evenodd" clip-rule="evenodd" d="M640 752.878H300.667V745.191H640V752.878Z" fill="#609AF8"/>
<path fill-rule="evenodd" clip-rule="evenodd" d="M640 791.312H300.667V783.625H640V791.312Z" fill="#609AF8"/>
<path fill-rule="evenodd" clip-rule="evenodd" d="M640 829.747H300.667V822.061H640V829.747Z" fill="#609AF8"/>
<path fill-rule="evenodd" clip-rule="evenodd" d="M640 868.181H300.667V860.494H640V868.181Z" fill="#609AF8"/>
<path fill-rule="evenodd" clip-rule="evenodd" d="M640 906.614H300.667V898.928H640V906.614Z" fill="#609AF8"/>
<path fill-rule="evenodd" clip-rule="evenodd" d="M640 945.048H300.667V937.361H640V945.048Z" fill="#609AF8"/>
</g>
<defs>
<clipPath id="clip0_418_242">
<rect width="640" height="960" fill="white"/>
</clipPath>
</defs>
</svg>
