<svg width="1440" height="960" viewBox="0 0 1440 960" fill="none" xmlns="http://www.w3.org/2000/svg">
<g clip-path="url(#clip0_156_2645)">
<rect width="640" height="960" fill="#031B62"/>
<path fill-rule="evenodd" clip-rule="evenodd" d="M300.666 26.4809H-38.667V11.1074H300.666V26.4809Z" fill="#6586EA"/>
<path fill-rule="evenodd" clip-rule="evenodd" d="M300.666 64.915H-38.667V49.5415H300.666V64.915Z" fill="#6586EA"/>
<path fill-rule="evenodd" clip-rule="evenodd" d="M300.666 103.349H-38.667V87.9751H300.666V103.349Z" fill="#6586EA"/>
<path fill-rule="evenodd" clip-rule="evenodd" d="M300.666 141.782H-38.667V126.409H300.666V141.782Z" fill="#6586EA"/>
<path fill-rule="evenodd" clip-rule="evenodd" d="M300.666 180.216H-38.667V164.842H300.666V180.216Z" fill="#6586EA"/>
<path fill-rule="evenodd" clip-rule="evenodd" d="M300.666 218.65H-38.667V203.276H300.666V218.65Z" fill="#6586EA"/>
<path fill-rule="evenodd" clip-rule="evenodd" d="M300.666 257.083H-38.667V241.71H300.666V257.083Z" fill="#6586EA"/>
<path fill-rule="evenodd" clip-rule="evenodd" d="M300.666 295.517H-38.667V280.144H300.666V295.517Z" fill="#6586EA"/>
<path fill-rule="evenodd" clip-rule="evenodd" d="M300.666 333.951H-38.667V318.578H300.666V333.951Z" fill="#6586EA"/>
<path fill-rule="evenodd" clip-rule="evenodd" d="M300.666 372.385H-38.667V357.011H300.666V372.385Z" fill="#6586EA"/>
<path fill-rule="evenodd" clip-rule="evenodd" d="M300.666 410.818H-38.667V395.445H300.666V410.818Z" fill="#6586EA"/>
<path fill-rule="evenodd" clip-rule="evenodd" d="M300.666 449.252H-38.667V433.879H300.666V449.252Z" fill="#6586EA"/>
<path fill-rule="evenodd" clip-rule="evenodd" d="M300.666 487.686H-38.667V472.312H300.666V487.686Z" fill="#6586EA"/>
<path fill-rule="evenodd" clip-rule="evenodd" d="M300.666 526.12H-38.667V510.746H300.666V526.12Z" fill="#6586EA"/>
<path fill-rule="evenodd" clip-rule="evenodd" d="M300.666 564.553H-38.667V549.18H300.666V564.553Z" fill="#6586EA"/>
<path fill-rule="evenodd" clip-rule="evenodd" d="M300.666 602.987H-38.667V587.614H300.666V602.987Z" fill="#6586EA"/>
<path fill-rule="evenodd" clip-rule="evenodd" d="M300.666 641.421H-38.667V626.047H300.666V641.421Z" fill="#6586EA"/>
<path fill-rule="evenodd" clip-rule="evenodd" d="M300.666 679.854H-38.667V664.481H300.666V679.854Z" fill="#6586EA"/>
<path fill-rule="evenodd" clip-rule="evenodd" d="M300.666 718.288H-38.667V702.915H300.666V718.288Z" fill="#6586EA"/>
<path fill-rule="evenodd" clip-rule="evenodd" d="M300.666 756.722H-38.667V741.349H300.666V756.722Z" fill="#6586EA"/>
<path fill-rule="evenodd" clip-rule="evenodd" d="M300.666 795.156H-38.667V779.782H300.666V795.156Z" fill="#6586EA"/>
<path fill-rule="evenodd" clip-rule="evenodd" d="M300.666 833.589H-38.667V818.216H300.666V833.589Z" fill="#6586EA"/>
<path fill-rule="evenodd" clip-rule="evenodd" d="M300.666 872.023H-38.667V856.649H300.666V872.023Z" fill="#6586EA"/>
<path fill-rule="evenodd" clip-rule="evenodd" d="M300.666 910.457H-38.667V895.083H300.666V910.457Z" fill="#6586EA"/>
<path fill-rule="evenodd" clip-rule="evenodd" d="M300.666 948.891H-38.667V933.517H300.666V948.891Z" fill="#6586EA"/>
<path fill-rule="evenodd" clip-rule="evenodd" d="M640 22.6374H300.667V14.9507H640V22.6374Z" fill="#6586EA"/>
<path fill-rule="evenodd" clip-rule="evenodd" d="M640 61.0715H300.667V53.3848H640V61.0715Z" fill="#6586EA"/>
<path fill-rule="evenodd" clip-rule="evenodd" d="M640 99.5051H300.667V91.8184H640V99.5051Z" fill="#6586EA"/>
<path fill-rule="evenodd" clip-rule="evenodd" d="M640 137.939H300.667V130.252H640V137.939Z" fill="#6586EA"/>
<path fill-rule="evenodd" clip-rule="evenodd" d="M640 176.372H300.667V168.686H640V176.372Z" fill="#6586EA"/>
<path fill-rule="evenodd" clip-rule="evenodd" d="M640 214.806H300.667V207.12H640V214.806Z" fill="#6586EA"/>
<path fill-rule="evenodd" clip-rule="evenodd" d="M640 253.24H300.667V245.553H640V253.24Z" fill="#6586EA"/>
<path fill-rule="evenodd" clip-rule="evenodd" d="M640 291.674H300.667V283.987H640V291.674Z" fill="#6586EA"/>
<path fill-rule="evenodd" clip-rule="evenodd" d="M640 330.108H300.667V322.421H640V330.108Z" fill="#6586EA"/>
<path fill-rule="evenodd" clip-rule="evenodd" d="M640 368.541H300.667V360.854H640V368.541Z" fill="#6586EA"/>
<path fill-rule="evenodd" clip-rule="evenodd" d="M640 406.975H300.667V399.288H640V406.975Z" fill="#6586EA"/>
<path fill-rule="evenodd" clip-rule="evenodd" d="M640 445.409H300.667V437.722H640V445.409Z" fill="#6586EA"/>
<path fill-rule="evenodd" clip-rule="evenodd" d="M640 483.843H300.667V476.156H640V483.843Z" fill="#6586EA"/>
<path fill-rule="evenodd" clip-rule="evenodd" d="M640 522.276H300.667V514.589H640V522.276Z" fill="#6586EA"/>
<path fill-rule="evenodd" clip-rule="evenodd" d="M640 560.71H300.667V553.023H640V560.71Z" fill="#6586EA"/>
<path fill-rule="evenodd" clip-rule="evenodd" d="M640 599.144H300.667V591.457H640V599.144Z" fill="#6586EA"/>
<path fill-rule="evenodd" clip-rule="evenodd" d="M640 637.577H300.667V629.891H640V637.577Z" fill="#6586EA"/>
<path fill-rule="evenodd" clip-rule="evenodd" d="M640 676.011H300.667V668.324H640V676.011Z" fill="#6586EA"/>
<path fill-rule="evenodd" clip-rule="evenodd" d="M640 714.445H300.667V706.758H640V714.445Z" fill="#6586EA"/>
<path fill-rule="evenodd" clip-rule="evenodd" d="M640 752.879H300.667V745.192H640V752.879Z" fill="#6586EA"/>
<path fill-rule="evenodd" clip-rule="evenodd" d="M640 791.312H300.667V783.625H640V791.312Z" fill="#6586EA"/>
<path fill-rule="evenodd" clip-rule="evenodd" d="M640 829.746H300.667V822.059H640V829.746Z" fill="#6586EA"/>
<path fill-rule="evenodd" clip-rule="evenodd" d="M640 868.179H300.667V860.493H640V868.179Z" fill="#6586EA"/>
<path fill-rule="evenodd" clip-rule="evenodd" d="M640 906.614H300.667V898.927H640V906.614Z" fill="#6586EA"/>
<path fill-rule="evenodd" clip-rule="evenodd" d="M640 945.047H300.667V937.36H640V945.047Z" fill="#6586EA"/>
</g>
<rect width="800" height="960" transform="translate(640)" fill="#031B62"/>
<defs>
<clipPath id="clip0_156_2645">
<rect width="640" height="960" fill="white"/>
</clipPath>
</defs>
</svg>
