<svg width="390" height="373" viewBox="0 0 390 373" fill="none" xmlns="http://www.w3.org/2000/svg">
<g clip-path="url(#clip0_450_191)">
<path fill-rule="evenodd" clip-rule="evenodd" d="M130 11.2044H0V-2.45508H130V11.2044Z" fill="#609AF8"/>
<path fill-rule="evenodd" clip-rule="evenodd" d="M130 33.97H0V20.3105H130V33.97Z" fill="#609AF8"/>
<path fill-rule="evenodd" clip-rule="evenodd" d="M130 56.7356H0V43.0762H130V56.7356Z" fill="#609AF8"/>
<path fill-rule="evenodd" clip-rule="evenodd" d="M130 79.5013H0V65.8418H130V79.5013Z" fill="#609AF8"/>
<path fill-rule="evenodd" clip-rule="evenodd" d="M130 102.267H0V88.6074H130V102.267Z" fill="#609AF8"/>
<path fill-rule="evenodd" clip-rule="evenodd" d="M130 125.033H0V111.373H130V125.033Z" fill="#609AF8"/>
<path fill-rule="evenodd" clip-rule="evenodd" d="M130 147.798H0V134.139H130V147.798Z" fill="#609AF8"/>
<path fill-rule="evenodd" clip-rule="evenodd" d="M130 170.566H0V156.906H130V170.566Z" fill="#609AF8"/>
<path fill-rule="evenodd" clip-rule="evenodd" d="M130 193.331H0V179.672H130V193.331Z" fill="#609AF8"/>
<path fill-rule="evenodd" clip-rule="evenodd" d="M130 216.097H0V202.438H130V216.097Z" fill="#609AF8"/>
<path fill-rule="evenodd" clip-rule="evenodd" d="M130 238.863H0V225.203H130V238.863Z" fill="#609AF8"/>
<path fill-rule="evenodd" clip-rule="evenodd" d="M130 261.628H0V247.969H130V261.628Z" fill="#609AF8"/>
<path fill-rule="evenodd" clip-rule="evenodd" d="M130 284.394H0V270.734H130V284.394Z" fill="#609AF8"/>
<path fill-rule="evenodd" clip-rule="evenodd" d="M130 307.159H0V293.5H130V307.159Z" fill="#609AF8"/>
<path fill-rule="evenodd" clip-rule="evenodd" d="M130 329.925H0V316.266H130V329.925Z" fill="#609AF8"/>
<path fill-rule="evenodd" clip-rule="evenodd" d="M130 352.691H0V339.031H130V352.691Z" fill="#609AF8"/>
<path fill-rule="evenodd" clip-rule="evenodd" d="M130 375.456H0V361.797H130V375.456Z" fill="#609AF8"/>
<path fill-rule="evenodd" clip-rule="evenodd" d="M260 8.92662H130V-0.179688H260V8.92662Z" fill="#609AF8"/>
<path fill-rule="evenodd" clip-rule="evenodd" d="M260 31.6922H130V22.5859H260V31.6922Z" fill="#609AF8"/>
<path fill-rule="evenodd" clip-rule="evenodd" d="M260 54.4579H130V45.3516H260V54.4579Z" fill="#609AF8"/>
<path fill-rule="evenodd" clip-rule="evenodd" d="M260 77.2254H130V68.1191H260V77.2254Z" fill="#609AF8"/>
<path fill-rule="evenodd" clip-rule="evenodd" d="M260 99.9911H130V90.8848H260V99.9911Z" fill="#609AF8"/>
<path fill-rule="evenodd" clip-rule="evenodd" d="M260 122.757H130V113.65H260V122.757Z" fill="#609AF8"/>
<path fill-rule="evenodd" clip-rule="evenodd" d="M260 145.522H130V136.416H260V145.522Z" fill="#609AF8"/>
<path fill-rule="evenodd" clip-rule="evenodd" d="M260 168.288H130V159.182H260V168.288Z" fill="#609AF8"/>
<path fill-rule="evenodd" clip-rule="evenodd" d="M260 191.054H130V181.947H260V191.054Z" fill="#609AF8"/>
<path fill-rule="evenodd" clip-rule="evenodd" d="M260 213.819H130V204.713H260V213.819Z" fill="#609AF8"/>
<path fill-rule="evenodd" clip-rule="evenodd" d="M260 236.585H130V227.479H260V236.585Z" fill="#609AF8"/>
<path fill-rule="evenodd" clip-rule="evenodd" d="M260 259.35H130V250.244H260V259.35Z" fill="#609AF8"/>
<path fill-rule="evenodd" clip-rule="evenodd" d="M260 282.116H130V273.01H260V282.116Z" fill="#609AF8"/>
<path fill-rule="evenodd" clip-rule="evenodd" d="M260 304.882H130V295.775H260V304.882Z" fill="#609AF8"/>
<path fill-rule="evenodd" clip-rule="evenodd" d="M260 327.647H130V318.541H260V327.647Z" fill="#609AF8"/>
<path fill-rule="evenodd" clip-rule="evenodd" d="M260 350.413H130V341.307H260V350.413Z" fill="#609AF8"/>
<path fill-rule="evenodd" clip-rule="evenodd" d="M260 373.179H130V364.072H260V373.179Z" fill="#609AF8"/>
<path fill-rule="evenodd" clip-rule="evenodd" d="M390 6.65081H260V2.09766H390V6.65081Z" fill="#609AF8"/>
<path fill-rule="evenodd" clip-rule="evenodd" d="M390 29.4164H260V24.8633H390V29.4164Z" fill="#609AF8"/>
<path fill-rule="evenodd" clip-rule="evenodd" d="M390 52.1821H260V47.6289H390V52.1821Z" fill="#609AF8"/>
<path fill-rule="evenodd" clip-rule="evenodd" d="M390 74.9496H260V70.3965H390V74.9496Z" fill="#609AF8"/>
<path fill-rule="evenodd" clip-rule="evenodd" d="M390 97.7153H260V93.1621H390V97.7153Z" fill="#609AF8"/>
<path fill-rule="evenodd" clip-rule="evenodd" d="M390 120.481H260V115.928H390V120.481Z" fill="#609AF8"/>
<path fill-rule="evenodd" clip-rule="evenodd" d="M390 143.247H260V138.693H390V143.247Z" fill="#609AF8"/>
<path fill-rule="evenodd" clip-rule="evenodd" d="M390 166.012H260V161.459H390V166.012Z" fill="#609AF8"/>
<path fill-rule="evenodd" clip-rule="evenodd" d="M390 188.778H260V184.225H390V188.778Z" fill="#609AF8"/>
<path fill-rule="evenodd" clip-rule="evenodd" d="M390 211.543H260V206.99H390V211.543Z" fill="#609AF8"/>
<path fill-rule="evenodd" clip-rule="evenodd" d="M390 234.309H260V229.756H390V234.309Z" fill="#609AF8"/>
<path fill-rule="evenodd" clip-rule="evenodd" d="M390 257.075H260V252.521H390V257.075Z" fill="#609AF8"/>
<path fill-rule="evenodd" clip-rule="evenodd" d="M390 279.84H260V275.287H390V279.84Z" fill="#609AF8"/>
<path fill-rule="evenodd" clip-rule="evenodd" d="M390 302.606H260V298.053H390V302.606Z" fill="#609AF8"/>
<path fill-rule="evenodd" clip-rule="evenodd" d="M390 325.372H260V320.818H390V325.372Z" fill="#609AF8"/>
<path fill-rule="evenodd" clip-rule="evenodd" d="M390 348.137H260V343.584H390V348.137Z" fill="#609AF8"/>
<path fill-rule="evenodd" clip-rule="evenodd" d="M390 370.903H260V366.35H390V370.903Z" fill="#609AF8"/>
</g>
<defs>
<clipPath id="clip0_450_191">
<rect width="390" height="373" fill="white"/>
</clipPath>
</defs>
</svg>
