<svg width="95%" height="499" viewBox="0 0 450 499" fill="none" xmlns="http://www.w3.org/2000/svg">
<path opacity="0.2" fill-rule="evenodd" clip-rule="evenodd" d="M472.346 165.987L472.346 0L483.637 0L483.637 165.987H472.346Z" fill="#F4AB3E"/>
<path opacity="0.2" fill-rule="evenodd" clip-rule="evenodd" d="M453.527 165.987L453.527 0L464.818 0L464.818 165.987H453.527Z" fill="#F4AB3E"/>
<path opacity="0.2" fill-rule="evenodd" clip-rule="evenodd" d="M434.709 165.987L434.709 0L446 0L446 165.987H434.709Z" fill="#F4AB3E"/>
<path opacity="0.2" fill-rule="evenodd" clip-rule="evenodd" d="M415.89 165.987L415.89 0L427.182 0L427.182 165.987H415.89Z" fill="#F4AB3E"/>
<path opacity="0.2" fill-rule="evenodd" clip-rule="evenodd" d="M397.072 165.987L397.072 0L408.363 0L408.363 165.987H397.072Z" fill="#F4AB3E"/>
<path opacity="0.2" fill-rule="evenodd" clip-rule="evenodd" d="M378.252 165.987L378.252 0L389.543 0L389.543 165.987H378.252Z" fill="#F4AB3E"/>
<path opacity="0.2" fill-rule="evenodd" clip-rule="evenodd" d="M359.433 165.987L359.433 0L370.725 0L370.725 165.987H359.433Z" fill="#F4AB3E"/>
<path opacity="0.2" fill-rule="evenodd" clip-rule="evenodd" d="M340.615 165.987L340.615 0L351.906 0L351.906 165.987H340.615Z" fill="#F4AB3E"/>
<path opacity="0.2" fill-rule="evenodd" clip-rule="evenodd" d="M321.797 165.987L321.797 0L333.088 0L333.088 165.987H321.797Z" fill="#F4AB3E"/>
<path opacity="0.2" fill-rule="evenodd" clip-rule="evenodd" d="M302.978 165.987L302.978 0L314.27 0L314.27 165.987H302.978Z" fill="#F4AB3E"/>
<path opacity="0.2" fill-rule="evenodd" clip-rule="evenodd" d="M284.16 165.987L284.16 0L295.451 0L295.451 165.987H284.16Z" fill="#F4AB3E"/>
<path opacity="0.2" fill-rule="evenodd" clip-rule="evenodd" d="M265.342 165.987L265.342 0L276.633 0L276.633 165.987H265.342Z" fill="#F4AB3E"/>
<path opacity="0.2" fill-rule="evenodd" clip-rule="evenodd" d="M246.523 165.987L246.523 0L257.814 0L257.814 165.987H246.523Z" fill="#F4AB3E"/>
<path opacity="0.2" fill-rule="evenodd" clip-rule="evenodd" d="M227.703 165.987L227.703 0L238.994 0L238.994 165.987H227.703Z" fill="#F4AB3E"/>
<path opacity="0.2" fill-rule="evenodd" clip-rule="evenodd" d="M208.885 165.987L208.885 0L220.176 0L220.176 165.987H208.885Z" fill="#F4AB3E"/>
<path opacity="0.2" fill-rule="evenodd" clip-rule="evenodd" d="M190.066 165.987L190.066 0L201.357 0L201.357 165.987H190.066Z" fill="#F4AB3E"/>
<path opacity="0.2" fill-rule="evenodd" clip-rule="evenodd" d="M171.248 165.987L171.248 0L182.539 0L182.539 165.987H171.248Z" fill="#F4AB3E"/>
<path opacity="0.15" fill-rule="evenodd" clip-rule="evenodd" d="M553.695 331.974V165.987H561.223V331.974H553.695Z" fill="#F4AB3E"/>
<path opacity="0.15" fill-rule="evenodd" clip-rule="evenodd" d="M534.877 331.974V165.987H542.404V331.974H534.877Z" fill="#F4AB3E"/>
<path opacity="0.15" fill-rule="evenodd" clip-rule="evenodd" d="M516.059 331.974V165.987H523.586V331.974H516.059Z" fill="#F4AB3E"/>
<path opacity="0.15" fill-rule="evenodd" clip-rule="evenodd" d="M497.24 331.974L497.24 165.987H504.768L504.768 331.974H497.24Z" fill="#F4AB3E"/>
<path opacity="0.15" fill-rule="evenodd" clip-rule="evenodd" d="M478.422 331.974L478.422 165.987H485.949L485.949 331.974H478.422Z" fill="#F4AB3E"/>
<path opacity="0.15" fill-rule="evenodd" clip-rule="evenodd" d="M459.601 331.974L459.601 165.987H467.129L467.129 331.974H459.601Z" fill="#F4AB3E"/>
<path opacity="0.15" fill-rule="evenodd" clip-rule="evenodd" d="M440.783 331.974L440.783 165.987H448.311L448.311 331.974H440.783Z" fill="#F4AB3E"/>
<path opacity="0.15" fill-rule="evenodd" clip-rule="evenodd" d="M421.965 331.974L421.965 165.987H429.492L429.492 331.974H421.965Z" fill="#F4AB3E"/>
<path opacity="0.15" fill-rule="evenodd" clip-rule="evenodd" d="M403.146 331.974L403.146 165.987H410.674L410.674 331.974H403.146Z" fill="#F4AB3E"/>
<path opacity="0.15" fill-rule="evenodd" clip-rule="evenodd" d="M384.328 331.974L384.328 165.987H391.855L391.855 331.974H384.328Z" fill="#F4AB3E"/>
<path opacity="0.15" fill-rule="evenodd" clip-rule="evenodd" d="M365.51 331.974L365.51 165.987H373.037L373.037 331.974H365.51Z" fill="#F4AB3E"/>
<path opacity="0.15" fill-rule="evenodd" clip-rule="evenodd" d="M346.691 331.974L346.691 165.987H354.219L354.219 331.974H346.691Z" fill="#F4AB3E"/>
<path opacity="0.15" fill-rule="evenodd" clip-rule="evenodd" d="M327.873 331.974L327.873 165.987H335.4L335.4 331.974H327.873Z" fill="#F4AB3E"/>
<path opacity="0.15" fill-rule="evenodd" clip-rule="evenodd" d="M309.053 331.974L309.053 165.987H316.58L316.58 331.974H309.053Z" fill="#F4AB3E"/>
<path opacity="0.15" fill-rule="evenodd" clip-rule="evenodd" d="M290.234 331.974L290.234 165.987H297.762L297.762 331.974H290.234Z" fill="#F4AB3E"/>
<path opacity="0.15" fill-rule="evenodd" clip-rule="evenodd" d="M271.416 331.974L271.416 165.987H278.943L278.943 331.974H271.416Z" fill="#F4AB3E"/>
<path opacity="0.15" fill-rule="evenodd" clip-rule="evenodd" d="M252.598 331.974L252.598 165.987H260.125L260.125 331.974H252.598Z" fill="#F4AB3E"/>
<path opacity="0.15" fill-rule="evenodd" clip-rule="evenodd" d="M233.779 331.974L233.779 165.987H241.307L241.307 331.974H233.779Z" fill="#F4AB3E"/>
<path opacity="0.15" fill-rule="evenodd" clip-rule="evenodd" d="M214.961 331.974L214.961 165.987H222.488L222.488 331.974H214.961Z" fill="#F4AB3E"/>
<path opacity="0.15" fill-rule="evenodd" clip-rule="evenodd" d="M196.142 331.974L196.142 165.987H203.67L203.67 331.974H196.142Z" fill="#F4AB3E"/>
<path opacity="0.15" fill-rule="evenodd" clip-rule="evenodd" d="M177.324 331.974L177.324 165.987H184.852L184.852 331.974H177.324Z" fill="#F4AB3E"/>
<path opacity="0.15" fill-rule="evenodd" clip-rule="evenodd" d="M158.506 331.974L158.506 165.987H166.033L166.033 331.974H158.506Z" fill="#F4AB3E"/>
<path opacity="0.15" fill-rule="evenodd" clip-rule="evenodd" d="M139.687 331.974L139.687 165.987H147.215L147.215 331.974H139.687Z" fill="#F4AB3E"/>
<path opacity="0.15" fill-rule="evenodd" clip-rule="evenodd" d="M120.867 331.974L120.867 165.987H128.395L128.395 331.974H120.867Z" fill="#F4AB3E"/>
<path opacity="0.15" fill-rule="evenodd" clip-rule="evenodd" d="M102.049 331.974L102.049 165.987H109.576L109.576 331.974H102.049Z" fill="#F4AB3E"/>
<path opacity="0.15" fill-rule="evenodd" clip-rule="evenodd" d="M83.2304 331.974L83.2304 165.987H90.7578L90.7578 331.974H83.2304Z" fill="#F4AB3E"/>
<path opacity="0.15" fill-rule="evenodd" clip-rule="evenodd" d="M64.412 331.974L64.412 165.987H71.9395L71.9395 331.974H64.412Z" fill="#F4AB3E"/>
<path opacity="0.1" fill-rule="evenodd" clip-rule="evenodd" d="M621.441 498.124V331.974H625.205V498.124H621.441Z" fill="#F4AB3E"/>
<path opacity="0.1" fill-rule="evenodd" clip-rule="evenodd" d="M602.623 498.124V331.974H606.387V498.124H602.623Z" fill="#F4AB3E"/>
<path opacity="0.1" fill-rule="evenodd" clip-rule="evenodd" d="M583.805 498.124V331.974H587.568V498.124H583.805Z" fill="#F4AB3E"/>
<path opacity="0.1" fill-rule="evenodd" clip-rule="evenodd" d="M564.986 498.124V331.974H568.75V498.124H564.986Z" fill="#F4AB3E"/>
<path opacity="0.1" fill-rule="evenodd" clip-rule="evenodd" d="M546.168 498.124V331.974H549.932V498.124H546.168Z" fill="#F4AB3E"/>
<path opacity="0.1" fill-rule="evenodd" clip-rule="evenodd" d="M527.35 498.124V331.974H531.113V498.124H527.35Z" fill="#F4AB3E"/>
<path opacity="0.1" fill-rule="evenodd" clip-rule="evenodd" d="M508.531 498.124L508.531 331.974H512.295V498.124H508.531Z" fill="#F4AB3E"/>
<path opacity="0.1" fill-rule="evenodd" clip-rule="evenodd" d="M489.713 498.124L489.713 331.974H493.477L493.477 498.124H489.713Z" fill="#F4AB3E"/>
<path opacity="0.1" fill-rule="evenodd" clip-rule="evenodd" d="M470.893 498.124L470.893 331.974H474.656L474.656 498.124H470.893Z" fill="#F4AB3E"/>
<path opacity="0.1" fill-rule="evenodd" clip-rule="evenodd" d="M452.074 498.124L452.074 331.974H455.838L455.838 498.124H452.074Z" fill="#F4AB3E"/>
<path opacity="0.1" fill-rule="evenodd" clip-rule="evenodd" d="M433.256 498.124L433.256 331.974H437.02L437.02 498.124H433.256Z" fill="#F4AB3E"/>
<path opacity="0.1" fill-rule="evenodd" clip-rule="evenodd" d="M414.437 498.124L414.437 331.974H418.201L418.201 498.124H414.437Z" fill="#F4AB3E"/>
<path opacity="0.1" fill-rule="evenodd" clip-rule="evenodd" d="M395.619 498.124L395.619 331.974H399.383L399.383 498.124H395.619Z" fill="#F4AB3E"/>
<path opacity="0.1" fill-rule="evenodd" clip-rule="evenodd" d="M376.801 498.124L376.801 331.974H380.564L380.564 498.124H376.801Z" fill="#F4AB3E"/>
<path opacity="0.1" fill-rule="evenodd" clip-rule="evenodd" d="M357.982 498.124L357.982 331.974H361.746L361.746 498.124H357.982Z" fill="#F4AB3E"/>
<path opacity="0.1" fill-rule="evenodd" clip-rule="evenodd" d="M339.164 498.124L339.164 331.974H342.928L342.928 498.124H339.164Z" fill="#F4AB3E"/>
<path opacity="0.1" fill-rule="evenodd" clip-rule="evenodd" d="M320.346 498.124L320.346 331.974H324.109L324.109 498.124H320.346Z" fill="#F4AB3E"/>
<path opacity="0.1" fill-rule="evenodd" clip-rule="evenodd" d="M301.527 498.124L301.527 331.974H305.291L305.291 498.124H301.527Z" fill="#F4AB3E"/>
<path opacity="0.1" fill-rule="evenodd" clip-rule="evenodd" d="M282.709 498.124L282.709 331.974H286.473L286.473 498.124H282.709Z" fill="#F4AB3E"/>
<path opacity="0.1" fill-rule="evenodd" clip-rule="evenodd" d="M263.891 498.124L263.891 331.974H267.654L267.654 498.124H263.891Z" fill="#F4AB3E"/>
<path opacity="0.1" fill-rule="evenodd" clip-rule="evenodd" d="M245.072 498.124L245.072 331.974H248.836L248.836 498.124H245.072Z" fill="#F4AB3E"/>
<path opacity="0.1" fill-rule="evenodd" clip-rule="evenodd" d="M226.254 498.124L226.254 331.974H230.018L230.018 498.124H226.254Z" fill="#F4AB3E"/>
<path opacity="0.1" fill-rule="evenodd" clip-rule="evenodd" d="M207.436 498.124L207.436 331.974H211.199L211.199 498.124H207.436Z" fill="#F4AB3E"/>
<path opacity="0.1" fill-rule="evenodd" clip-rule="evenodd" d="M188.615 498.124L188.615 331.974H192.379L192.379 498.124H188.615Z" fill="#F4AB3E"/>
<path opacity="0.1" fill-rule="evenodd" clip-rule="evenodd" d="M169.797 498.124L169.797 331.974H173.561L173.561 498.124H169.797Z" fill="#F4AB3E"/>
<path opacity="0.1" fill-rule="evenodd" clip-rule="evenodd" d="M150.978 498.124L150.978 331.974H154.742L154.742 498.124H150.978Z" fill="#F4AB3E"/>
<path opacity="0.1" fill-rule="evenodd" clip-rule="evenodd" d="M132.16 498.124L132.16 331.974H135.924L135.924 498.124H132.16Z" fill="#F4AB3E"/>
<path opacity="0.1" fill-rule="evenodd" clip-rule="evenodd" d="M113.342 498.124L113.342 331.974H117.105L117.105 498.124H113.342Z" fill="#F4AB3E"/>
<path opacity="0.1" fill-rule="evenodd" clip-rule="evenodd" d="M94.5234 498.124L94.5234 331.974H98.2871L98.2871 498.124H94.5234Z" fill="#F4AB3E"/>
<path opacity="0.1" fill-rule="evenodd" clip-rule="evenodd" d="M75.7051 498.124L75.7051 331.974H79.4688L79.4688 498.124H75.7051Z" fill="#F4AB3E"/>
<path opacity="0.1" fill-rule="evenodd" clip-rule="evenodd" d="M56.8867 498.124L56.8867 331.974H60.6504L60.6504 498.124H56.8867Z" fill="#F4AB3E"/>
<path opacity="0.1" fill-rule="evenodd" clip-rule="evenodd" d="M38.0683 498.124L38.0683 331.974H41.832L41.832 498.124H38.0683Z" fill="#F4AB3E"/>
<path opacity="0.1" fill-rule="evenodd" clip-rule="evenodd" d="M19.25 498.124L19.25 331.974H23.0137L23.0137 498.124H19.25Z" fill="#F4AB3E"/>
<path opacity="0.1" fill-rule="evenodd" clip-rule="evenodd" d="M0.431613 498.124L0.431613 331.974H4.19531L4.19531 498.124H0.431613Z" fill="#F4AB3E"/>
</svg>
