<svg width="1440" height="1024" viewBox="0 0 1440 1024" fill="none" xmlns="http://www.w3.org/2000/svg">
<g clip-path="url(#clip0_156_3183)">
<rect width="1440" height="1024" fill="#1C1C1A"/>
<path opacity="0.2" fill-rule="evenodd" clip-rule="evenodd" d="M807.957 337L807.957 -2L831.018 -2L831.018 337H807.957Z" fill="#F4AB3E"/>
<path opacity="0.2" fill-rule="evenodd" clip-rule="evenodd" d="M846.017 337L846.017 -2L869.077 -2L869.077 337H846.017Z" fill="#F4AB3E"/>
<path opacity="0.2" fill-rule="evenodd" clip-rule="evenodd" d="M884.077 337L884.077 -2L907.138 -2L907.138 337H884.077Z" fill="#F4AB3E"/>
<path opacity="0.2" fill-rule="evenodd" clip-rule="evenodd" d="M922.138 337L922.138 -2L945.198 -2L945.198 337H922.138Z" fill="#F4AB3E"/>
<path opacity="0.2" fill-rule="evenodd" clip-rule="evenodd" d="M960.198 337L960.198 -2L983.258 -2L983.258 337H960.198Z" fill="#F4AB3E"/>
<path opacity="0.2" fill-rule="evenodd" clip-rule="evenodd" d="M998.258 337L998.258 -2L1021.32 -2L1021.32 337H998.258Z" fill="#F4AB3E"/>
<path opacity="0.2" fill-rule="evenodd" clip-rule="evenodd" d="M1036.32 337V-2L1059.38 -2V337H1036.32Z" fill="#F4AB3E"/>
<path opacity="0.2" fill-rule="evenodd" clip-rule="evenodd" d="M1074.38 337V-2L1097.44 -2V337H1074.38Z" fill="#F4AB3E"/>
<path opacity="0.2" fill-rule="evenodd" clip-rule="evenodd" d="M1112.44 337V-2L1135.5 -2V337H1112.44Z" fill="#F4AB3E"/>
<path opacity="0.2" fill-rule="evenodd" clip-rule="evenodd" d="M1150.5 337V-2L1173.56 -2V337H1150.5Z" fill="#F4AB3E"/>
<path opacity="0.2" fill-rule="evenodd" clip-rule="evenodd" d="M1188.56 337V-2L1211.62 -2V337H1188.56Z" fill="#F4AB3E"/>
<path opacity="0.2" fill-rule="evenodd" clip-rule="evenodd" d="M1226.62 337V-2L1249.68 -2V337H1226.62Z" fill="#F4AB3E"/>
<path opacity="0.2" fill-rule="evenodd" clip-rule="evenodd" d="M1264.68 337V-2L1287.74 -2V337H1264.68Z" fill="#F4AB3E"/>
<path opacity="0.2" fill-rule="evenodd" clip-rule="evenodd" d="M1302.74 337V-2L1325.8 -2V337H1302.74Z" fill="#F4AB3E"/>
<path opacity="0.2" fill-rule="evenodd" clip-rule="evenodd" d="M1340.8 337V-2L1363.86 -2V337H1340.8Z" fill="#F4AB3E"/>
<path opacity="0.2" fill-rule="evenodd" clip-rule="evenodd" d="M1378.86 337V-2L1401.92 -2V337H1378.86Z" fill="#F4AB3E"/>
<path opacity="0.2" fill-rule="evenodd" clip-rule="evenodd" d="M1416.92 337V-2L1439.98 -2V337H1416.92Z" fill="#F4AB3E"/>
<g opacity="0.15">
<path fill-rule="evenodd" clip-rule="evenodd" d="M1424.61 676.333V337H1439.98V676.333H1424.61Z" fill="#F4AB3E"/>
<path fill-rule="evenodd" clip-rule="evenodd" d="M1386.23 676.333V337H1401.61V676.333H1386.23Z" fill="#F4AB3E"/>
<path fill-rule="evenodd" clip-rule="evenodd" d="M1347.86 676.333V337H1363.23V676.333H1347.86Z" fill="#F4AB3E"/>
<path fill-rule="evenodd" clip-rule="evenodd" d="M1309.49 676.333V337H1324.86V676.333H1309.49Z" fill="#F4AB3E"/>
<path fill-rule="evenodd" clip-rule="evenodd" d="M1271.11 676.333V337H1286.49V676.333H1271.11Z" fill="#F4AB3E"/>
<path fill-rule="evenodd" clip-rule="evenodd" d="M1232.74 676.333V337H1248.11V676.333H1232.74Z" fill="#F4AB3E"/>
<path fill-rule="evenodd" clip-rule="evenodd" d="M1194.37 676.333V337H1209.74V676.333H1194.37Z" fill="#F4AB3E"/>
<path fill-rule="evenodd" clip-rule="evenodd" d="M1155.99 676.333V337H1171.37V676.333H1155.99Z" fill="#F4AB3E"/>
<path fill-rule="evenodd" clip-rule="evenodd" d="M1117.62 676.333V337H1132.99V676.333H1117.62Z" fill="#F4AB3E"/>
<path fill-rule="evenodd" clip-rule="evenodd" d="M1079.25 676.333V337H1094.62V676.333H1079.25Z" fill="#F4AB3E"/>
<path fill-rule="evenodd" clip-rule="evenodd" d="M1040.87 676.333V337H1056.25V676.333H1040.87Z" fill="#F4AB3E"/>
<path fill-rule="evenodd" clip-rule="evenodd" d="M1002.5 676.333L1002.5 337H1017.87L1017.87 676.333H1002.5Z" fill="#F4AB3E"/>
<path fill-rule="evenodd" clip-rule="evenodd" d="M964.126 676.333L964.126 337H979.499L979.499 676.333H964.126Z" fill="#F4AB3E"/>
<path fill-rule="evenodd" clip-rule="evenodd" d="M925.752 676.333L925.752 337H941.126L941.126 676.333H925.752Z" fill="#F4AB3E"/>
<path fill-rule="evenodd" clip-rule="evenodd" d="M887.379 676.333L887.379 337H902.753L902.753 676.333H887.379Z" fill="#F4AB3E"/>
<path fill-rule="evenodd" clip-rule="evenodd" d="M849.005 676.333L849.005 337H864.379L864.379 676.333H849.005Z" fill="#F4AB3E"/>
<path fill-rule="evenodd" clip-rule="evenodd" d="M810.632 676.333L810.632 337H826.006L826.006 676.333H810.632Z" fill="#F4AB3E"/>
<path fill-rule="evenodd" clip-rule="evenodd" d="M772.258 676.333L772.258 337H787.632L787.632 676.333H772.258Z" fill="#F4AB3E"/>
<path fill-rule="evenodd" clip-rule="evenodd" d="M733.885 676.333L733.885 337H749.259L749.259 676.333H733.885Z" fill="#F4AB3E"/>
<path fill-rule="evenodd" clip-rule="evenodd" d="M695.511 676.333L695.511 337H710.885L710.885 676.333H695.511Z" fill="#F4AB3E"/>
<path fill-rule="evenodd" clip-rule="evenodd" d="M657.138 676.333L657.138 337H672.512L672.512 676.333H657.138Z" fill="#F4AB3E"/>
<path fill-rule="evenodd" clip-rule="evenodd" d="M618.765 676.333L618.765 337H634.139L634.139 676.333H618.765Z" fill="#F4AB3E"/>
</g>
<g opacity="0.1">
<path fill-rule="evenodd" clip-rule="evenodd" d="M1432.29 1015.67V676.333H1439.98V1015.67H1432.29Z" fill="#F4AB3E"/>
<path fill-rule="evenodd" clip-rule="evenodd" d="M1393.61 1015.67V676.333H1401.29V1015.67H1393.61Z" fill="#F4AB3E"/>
<path fill-rule="evenodd" clip-rule="evenodd" d="M1354.92 1015.67V676.333H1362.61V1015.67H1354.92Z" fill="#F4AB3E"/>
<path fill-rule="evenodd" clip-rule="evenodd" d="M1316.23 1015.67V676.333H1323.92V1015.67H1316.23Z" fill="#F4AB3E"/>
<path fill-rule="evenodd" clip-rule="evenodd" d="M1277.55 1015.67V676.333H1285.23V1015.67H1277.55Z" fill="#F4AB3E"/>
<path fill-rule="evenodd" clip-rule="evenodd" d="M1238.86 1015.67V676.333H1246.55V1015.67H1238.86Z" fill="#F4AB3E"/>
<path fill-rule="evenodd" clip-rule="evenodd" d="M1200.17 1015.67V676.333H1207.86V1015.67H1200.17Z" fill="#F4AB3E"/>
<path fill-rule="evenodd" clip-rule="evenodd" d="M1161.49 1015.67V676.333H1169.17V1015.67H1161.49Z" fill="#F4AB3E"/>
<path fill-rule="evenodd" clip-rule="evenodd" d="M1122.8 1015.67V676.333H1130.49V1015.67H1122.8Z" fill="#F4AB3E"/>
<path fill-rule="evenodd" clip-rule="evenodd" d="M1084.11 1015.67V676.333H1091.8V1015.67H1084.11Z" fill="#F4AB3E"/>
<path fill-rule="evenodd" clip-rule="evenodd" d="M1045.43 1015.67V676.333H1053.11V1015.67H1045.43Z" fill="#F4AB3E"/>
<path fill-rule="evenodd" clip-rule="evenodd" d="M1006.74 1015.67L1006.74 676.333H1014.43L1014.43 1015.67H1006.74Z" fill="#F4AB3E"/>
<path fill-rule="evenodd" clip-rule="evenodd" d="M968.053 1015.67L968.053 676.333H975.74L975.74 1015.67H968.053Z" fill="#F4AB3E"/>
<path fill-rule="evenodd" clip-rule="evenodd" d="M929.367 1015.67L929.367 676.333H937.054L937.054 1015.67H929.367Z" fill="#F4AB3E"/>
<path fill-rule="evenodd" clip-rule="evenodd" d="M890.68 1015.67L890.68 676.333H898.367L898.367 1015.67H890.68Z" fill="#F4AB3E"/>
<path fill-rule="evenodd" clip-rule="evenodd" d="M851.994 1015.67L851.994 676.333H859.681L859.681 1015.67H851.994Z" fill="#F4AB3E"/>
<path fill-rule="evenodd" clip-rule="evenodd" d="M813.306 1015.67L813.306 676.333H820.993L820.993 1015.67H813.306Z" fill="#F4AB3E"/>
<path fill-rule="evenodd" clip-rule="evenodd" d="M774.62 1015.67L774.62 676.333H782.307L782.307 1015.67H774.62Z" fill="#F4AB3E"/>
<path fill-rule="evenodd" clip-rule="evenodd" d="M735.933 1015.67L735.933 676.333H743.62L743.62 1015.67H735.933Z" fill="#F4AB3E"/>
<path fill-rule="evenodd" clip-rule="evenodd" d="M697.247 1015.67L697.247 676.333H704.934L704.934 1015.67H697.247Z" fill="#F4AB3E"/>
<path fill-rule="evenodd" clip-rule="evenodd" d="M658.559 1015.67L658.559 676.333H666.246L666.246 1015.67H658.559Z" fill="#F4AB3E"/>
<path fill-rule="evenodd" clip-rule="evenodd" d="M619.873 1015.67L619.873 676.333H627.56L627.56 1015.67H619.873Z" fill="#F4AB3E"/>
<path fill-rule="evenodd" clip-rule="evenodd" d="M581.186 1015.67L581.186 676.333H588.873L588.873 1015.67H581.186Z" fill="#F4AB3E"/>
<path fill-rule="evenodd" clip-rule="evenodd" d="M542.5 1015.67L542.5 676.333H550.187L550.187 1015.67H542.5Z" fill="#F4AB3E"/>
<path fill-rule="evenodd" clip-rule="evenodd" d="M503.812 1015.67L503.812 676.333H511.499L511.499 1015.67H503.812Z" fill="#F4AB3E"/>
<path fill-rule="evenodd" clip-rule="evenodd" d="M465.126 1015.67L465.126 676.333H472.812L472.813 1015.67H465.126Z" fill="#F4AB3E"/>
<path fill-rule="evenodd" clip-rule="evenodd" d="M426.439 1015.67L426.439 676.333H434.126L434.126 1015.67H426.439Z" fill="#F4AB3E"/>
<path fill-rule="evenodd" clip-rule="evenodd" d="M388.006 1015.67L388.006 676.333H395.692L395.692 1015.67H388.006Z" fill="#F4AB3E"/>
<path fill-rule="evenodd" clip-rule="evenodd" d="M349.572 1015.67L349.572 676.333H357.259L357.259 1015.67H349.572Z" fill="#F4AB3E"/>
<path fill-rule="evenodd" clip-rule="evenodd" d="M311.138 1015.67L311.138 676.333H318.825L318.825 1015.67H311.138Z" fill="#F4AB3E"/>
<path fill-rule="evenodd" clip-rule="evenodd" d="M272.704 1015.67L272.704 676.333H280.391L280.391 1015.67H272.704Z" fill="#F4AB3E"/>
</g>
</g>
<defs>
<clipPath id="clip0_156_3183">
<rect width="1440" height="1024" fill="white"/>
</clipPath>
</defs>
</svg>
