<svg width="1440" height="1025" viewBox="0 0 1440 1025" fill="none" xmlns="http://www.w3.org/2000/svg">
<g clip-path="url(#clip0_139_7535)">
<rect width="1440" height="1024" transform="translate(0 0.421875)" fill="white"/>
<path opacity="0.2" fill-rule="evenodd" clip-rule="evenodd" d="M1416.74 340.732V-1.15625L1440 -1.15625V340.732H1416.74Z" fill="#F4AB3E"/>
<path opacity="0.2" fill-rule="evenodd" clip-rule="evenodd" d="M1377.98 340.732V-1.15625L1401.24 -1.15625V340.732H1377.98Z" fill="#F4AB3E"/>
<path opacity="0.2" fill-rule="evenodd" clip-rule="evenodd" d="M1339.22 340.732V-1.15625L1362.48 -1.15625V340.732H1339.22Z" fill="#F4AB3E"/>
<path opacity="0.2" fill-rule="evenodd" clip-rule="evenodd" d="M1300.46 340.732V-1.15625L1323.72 -1.15625V340.732H1300.46Z" fill="#F4AB3E"/>
<path opacity="0.2" fill-rule="evenodd" clip-rule="evenodd" d="M1261.7 340.732V-1.15625L1284.96 -1.15625V340.732H1261.7Z" fill="#F4AB3E"/>
<path opacity="0.2" fill-rule="evenodd" clip-rule="evenodd" d="M1222.94 340.732V-1.15625L1246.19 -1.15625V340.732H1222.94Z" fill="#F4AB3E"/>
<path opacity="0.2" fill-rule="evenodd" clip-rule="evenodd" d="M1184.18 340.732V-1.15625L1207.43 -1.15625V340.732H1184.18Z" fill="#F4AB3E"/>
<path opacity="0.2" fill-rule="evenodd" clip-rule="evenodd" d="M1145.42 340.732V-1.15625L1168.67 -1.15625V340.732H1145.42Z" fill="#F4AB3E"/>
<path opacity="0.2" fill-rule="evenodd" clip-rule="evenodd" d="M1106.65 340.732V-1.15625L1129.91 -1.15625V340.732H1106.65Z" fill="#F4AB3E"/>
<path opacity="0.2" fill-rule="evenodd" clip-rule="evenodd" d="M1067.89 340.732V-1.15625L1091.15 -1.15625V340.732H1067.89Z" fill="#F4AB3E"/>
<path opacity="0.2" fill-rule="evenodd" clip-rule="evenodd" d="M1029.13 340.732V-1.15625L1052.39 -1.15625V340.732H1029.13Z" fill="#F4AB3E"/>
<path opacity="0.2" fill-rule="evenodd" clip-rule="evenodd" d="M990.37 340.732L990.37 -1.15625L1013.63 -1.15625L1013.63 340.732H990.37Z" fill="#F4AB3E"/>
<path opacity="0.2" fill-rule="evenodd" clip-rule="evenodd" d="M951.609 340.732L951.609 -1.15625L974.865 -1.15625L974.865 340.732H951.609Z" fill="#F4AB3E"/>
<path opacity="0.2" fill-rule="evenodd" clip-rule="evenodd" d="M912.848 340.732L912.848 -1.15625L936.104 -1.15625L936.104 340.732H912.848Z" fill="#F4AB3E"/>
<path opacity="0.2" fill-rule="evenodd" clip-rule="evenodd" d="M874.086 340.732L874.086 -1.15625L897.343 -1.15625L897.343 340.732H874.086Z" fill="#F4AB3E"/>
<path opacity="0.2" fill-rule="evenodd" clip-rule="evenodd" d="M835.325 340.732L835.325 -1.15625L858.582 -1.15625L858.582 340.732H835.325Z" fill="#F4AB3E"/>
<path opacity="0.2" fill-rule="evenodd" clip-rule="evenodd" d="M796.564 340.732L796.564 -1.15625L819.82 -1.15625L819.82 340.732H796.564Z" fill="#F4AB3E"/>
<path opacity="0.15" fill-rule="evenodd" clip-rule="evenodd" d="M1401.64 682.621V340.732H1417.15V682.621H1401.64Z" fill="#F4AB3E"/>
<path opacity="0.15" fill-rule="evenodd" clip-rule="evenodd" d="M1362.88 682.621V340.732H1378.39V682.621H1362.88Z" fill="#F4AB3E"/>
<path opacity="0.15" fill-rule="evenodd" clip-rule="evenodd" d="M1324.12 682.621V340.732H1339.63V682.621H1324.12Z" fill="#F4AB3E"/>
<path opacity="0.15" fill-rule="evenodd" clip-rule="evenodd" d="M1285.36 682.621V340.732H1300.87V682.621H1285.36Z" fill="#F4AB3E"/>
<path opacity="0.15" fill-rule="evenodd" clip-rule="evenodd" d="M1246.6 682.621V340.732H1262.1V682.621H1246.6Z" fill="#F4AB3E"/>
<path opacity="0.15" fill-rule="evenodd" clip-rule="evenodd" d="M1207.84 682.621V340.732H1223.34V682.621H1207.84Z" fill="#F4AB3E"/>
<path opacity="0.15" fill-rule="evenodd" clip-rule="evenodd" d="M1169.08 682.621V340.732H1184.58V682.621H1169.08Z" fill="#F4AB3E"/>
<path opacity="0.15" fill-rule="evenodd" clip-rule="evenodd" d="M1130.32 682.621V340.732H1145.82V682.621H1130.32Z" fill="#F4AB3E"/>
<path opacity="0.15" fill-rule="evenodd" clip-rule="evenodd" d="M1091.55 682.621V340.732H1107.06V682.621H1091.55Z" fill="#F4AB3E"/>
<path opacity="0.15" fill-rule="evenodd" clip-rule="evenodd" d="M1052.79 682.621V340.732H1068.3V682.621H1052.79Z" fill="#F4AB3E"/>
<path opacity="0.15" fill-rule="evenodd" clip-rule="evenodd" d="M1014.03 682.621L1014.03 340.732H1029.54V682.621H1014.03Z" fill="#F4AB3E"/>
<path opacity="0.15" fill-rule="evenodd" clip-rule="evenodd" d="M975.271 682.621L975.271 340.732H990.775L990.775 682.621H975.271Z" fill="#F4AB3E"/>
<path opacity="0.15" fill-rule="evenodd" clip-rule="evenodd" d="M936.509 682.621L936.509 340.732H952.014L952.014 682.621H936.509Z" fill="#F4AB3E"/>
<path opacity="0.15" fill-rule="evenodd" clip-rule="evenodd" d="M897.748 682.621L897.748 340.732H913.253L913.253 682.621H897.748Z" fill="#F4AB3E"/>
<path opacity="0.15" fill-rule="evenodd" clip-rule="evenodd" d="M858.987 682.621L858.987 340.732H874.491L874.491 682.621H858.987Z" fill="#F4AB3E"/>
<path opacity="0.15" fill-rule="evenodd" clip-rule="evenodd" d="M820.226 682.621L820.226 340.732H835.73L835.73 682.621H820.226Z" fill="#F4AB3E"/>
<path opacity="0.15" fill-rule="evenodd" clip-rule="evenodd" d="M781.464 682.621L781.464 340.732H796.969L796.969 682.621H781.464Z" fill="#F4AB3E"/>
<path opacity="0.15" fill-rule="evenodd" clip-rule="evenodd" d="M742.704 682.621L742.704 340.732H758.208L758.208 682.621H742.704Z" fill="#F4AB3E"/>
<path opacity="0.15" fill-rule="evenodd" clip-rule="evenodd" d="M703.942 682.621L703.942 340.732H719.446L719.446 682.621H703.942Z" fill="#F4AB3E"/>
<path opacity="0.15" fill-rule="evenodd" clip-rule="evenodd" d="M665.181 682.621L665.181 340.732H680.686L680.686 682.621H665.181Z" fill="#F4AB3E"/>
<path opacity="0.15" fill-rule="evenodd" clip-rule="evenodd" d="M626.419 682.621L626.419 340.732H641.924L641.924 682.621H626.419Z" fill="#F4AB3E"/>
<path opacity="0.15" fill-rule="evenodd" clip-rule="evenodd" d="M587.659 682.621L587.659 340.732H603.163L603.163 682.621H587.659Z" fill="#F4AB3E"/>
<path opacity="0.15" fill-rule="evenodd" clip-rule="evenodd" d="M548.897 682.621L548.897 340.732H564.401L564.401 682.621H548.897Z" fill="#F4AB3E"/>
<path opacity="0.15" fill-rule="evenodd" clip-rule="evenodd" d="M510.136 682.621L510.136 340.732H525.641L525.641 682.621H510.136Z" fill="#F4AB3E"/>
<path opacity="0.15" fill-rule="evenodd" clip-rule="evenodd" d="M471.374 682.621L471.374 340.732H486.879L486.879 682.621H471.374Z" fill="#F4AB3E"/>
<path opacity="0.15" fill-rule="evenodd" clip-rule="evenodd" d="M432.614 682.621L432.614 340.732H448.118L448.118 682.621H432.614Z" fill="#F4AB3E"/>
<path opacity="0.15" fill-rule="evenodd" clip-rule="evenodd" d="M393.852 682.621L393.852 340.732H409.356L409.356 682.621H393.852Z" fill="#F4AB3E"/>
<path opacity="0.1" fill-rule="evenodd" clip-rule="evenodd" d="M1424.9 1024.84V682.621H1432.65V1024.84H1424.9Z" fill="#F4AB3E"/>
<path opacity="0.1" fill-rule="evenodd" clip-rule="evenodd" d="M1386.14 1024.84V682.621H1393.89V1024.84H1386.14Z" fill="#F4AB3E"/>
<path opacity="0.1" fill-rule="evenodd" clip-rule="evenodd" d="M1347.38 1024.84V682.621H1355.13V1024.84H1347.38Z" fill="#F4AB3E"/>
<path opacity="0.1" fill-rule="evenodd" clip-rule="evenodd" d="M1308.61 1024.84V682.621H1316.37V1024.84H1308.61Z" fill="#F4AB3E"/>
<path opacity="0.1" fill-rule="evenodd" clip-rule="evenodd" d="M1269.85 1024.84V682.621H1277.61V1024.84H1269.85Z" fill="#F4AB3E"/>
<path opacity="0.1" fill-rule="evenodd" clip-rule="evenodd" d="M1231.09 1024.84V682.621H1238.85V1024.84H1231.09Z" fill="#F4AB3E"/>
<path opacity="0.1" fill-rule="evenodd" clip-rule="evenodd" d="M1192.33 1024.84V682.621H1200.08V1024.84H1192.33Z" fill="#F4AB3E"/>
<path opacity="0.1" fill-rule="evenodd" clip-rule="evenodd" d="M1153.57 1024.84V682.621H1161.32V1024.84H1153.57Z" fill="#F4AB3E"/>
<path opacity="0.1" fill-rule="evenodd" clip-rule="evenodd" d="M1114.81 1024.84V682.621H1122.56V1024.84H1114.81Z" fill="#F4AB3E"/>
<path opacity="0.1" fill-rule="evenodd" clip-rule="evenodd" d="M1076.05 1024.84V682.621H1083.8V1024.84H1076.05Z" fill="#F4AB3E"/>
<path opacity="0.1" fill-rule="evenodd" clip-rule="evenodd" d="M1037.29 1024.84V682.621H1045.04V1024.84H1037.29Z" fill="#F4AB3E"/>
<path opacity="0.1" fill-rule="evenodd" clip-rule="evenodd" d="M998.527 1024.84L998.527 682.621H1006.28L1006.28 1024.84H998.527Z" fill="#F4AB3E"/>
<path opacity="0.1" fill-rule="evenodd" clip-rule="evenodd" d="M959.766 1024.84L959.766 682.621H967.519L967.519 1024.84H959.766Z" fill="#F4AB3E"/>
<path opacity="0.1" fill-rule="evenodd" clip-rule="evenodd" d="M921.005 1024.84L921.005 682.621H928.757L928.757 1024.84H921.005Z" fill="#F4AB3E"/>
<path opacity="0.1" fill-rule="evenodd" clip-rule="evenodd" d="M882.244 1024.84L882.244 682.621H889.996L889.996 1024.84H882.244Z" fill="#F4AB3E"/>
<path opacity="0.1" fill-rule="evenodd" clip-rule="evenodd" d="M843.483 1024.84L843.483 682.621H851.235L851.235 1024.84H843.483Z" fill="#F4AB3E"/>
<path opacity="0.1" fill-rule="evenodd" clip-rule="evenodd" d="M804.721 1024.84L804.721 682.621H812.474L812.474 1024.84H804.721Z" fill="#F4AB3E"/>
<path opacity="0.1" fill-rule="evenodd" clip-rule="evenodd" d="M765.961 1024.84L765.961 682.621H773.713L773.713 1024.84H765.961Z" fill="#F4AB3E"/>
<path opacity="0.1" fill-rule="evenodd" clip-rule="evenodd" d="M727.2 1024.84L727.2 682.621H734.952L734.952 1024.84H727.2Z" fill="#F4AB3E"/>
<path opacity="0.1" fill-rule="evenodd" clip-rule="evenodd" d="M688.439 1024.84L688.439 682.621H696.191L696.191 1024.84H688.439Z" fill="#F4AB3E"/>
<path opacity="0.1" fill-rule="evenodd" clip-rule="evenodd" d="M649.677 1024.84L649.677 682.621H657.43L657.43 1024.84H649.677Z" fill="#F4AB3E"/>
<path opacity="0.1" fill-rule="evenodd" clip-rule="evenodd" d="M610.917 1024.84L610.917 682.621H618.669L618.669 1024.84H610.917Z" fill="#F4AB3E"/>
<path opacity="0.1" fill-rule="evenodd" clip-rule="evenodd" d="M572.156 1024.84L572.156 682.621H579.908L579.908 1024.84H572.156Z" fill="#F4AB3E"/>
<path opacity="0.1" fill-rule="evenodd" clip-rule="evenodd" d="M533.394 1024.84L533.394 682.621H541.146L541.146 1024.84H533.394Z" fill="#F4AB3E"/>
<path opacity="0.1" fill-rule="evenodd" clip-rule="evenodd" d="M494.634 1024.84L494.634 682.621H502.386L502.386 1024.84H494.634Z" fill="#F4AB3E"/>
<path opacity="0.1" fill-rule="evenodd" clip-rule="evenodd" d="M455.873 1024.84L455.873 682.621H463.625L463.625 1024.84H455.873Z" fill="#F4AB3E"/>
<path opacity="0.1" fill-rule="evenodd" clip-rule="evenodd" d="M417.111 1024.84L417.111 682.621H424.863L424.863 1024.84H417.111Z" fill="#F4AB3E"/>
<path opacity="0.1" fill-rule="evenodd" clip-rule="evenodd" d="M378.35 1024.84L378.35 682.621H386.103L386.103 1024.84H378.35Z" fill="#F4AB3E"/>
<path opacity="0.1" fill-rule="evenodd" clip-rule="evenodd" d="M339.59 1024.84L339.59 682.621H347.342L347.342 1024.84H339.59Z" fill="#F4AB3E"/>
<path opacity="0.1" fill-rule="evenodd" clip-rule="evenodd" d="M300.829 1024.84L300.829 682.621H308.581L308.581 1024.84H300.829Z" fill="#F4AB3E"/>
<path opacity="0.1" fill-rule="evenodd" clip-rule="evenodd" d="M262.068 1024.84L262.068 682.621H269.82L269.82 1024.84H262.068Z" fill="#F4AB3E"/>
</g>
<defs>
<clipPath id="clip0_139_7535">
<rect width="1440" height="1024" fill="white" transform="translate(0 0.421875)"/>
</clipPath>
</defs>
</svg>
