<svg width="28" height="25" viewBox="0 0 28 25" fill="none" xmlns="http://www.w3.org/2000/svg">
<path id="Union" fill-rule="evenodd" clip-rule="evenodd" d="M0.5 0.75H5C5 0.75 5.0375 11.8269 15.8 11.8269C6.80008 11.8269 6.8 0.75 6.8 0.75H11.3C11.3 0.75 10.4 10.9038 17.6 10.9038C12.1321 10.9038 13.1 0.75 13.1 0.75H17.6C17.6 0.75 14 11.8269 23 11.8269H27.5V13.6731H23C14 13.6731 17.6 24.75 17.6 24.75H13.1C13.1 24.75 12.132 14.5961 17.6 14.5961C10.4 14.5962 11.3001 24.75 11.3001 24.75H6.80008C6.80008 24.75 6.8 13.6731 15.8 13.6731C5.0375 13.6731 5.00008 24.75 5.00008 24.75H0.500076C0.500076 24.75 0.5 12.75 13.1 12.75C0.5 12.75 0.5 0.75 0.5 0.75Z" fill="#323131"/>
</svg>
