<svg width="1422" height="231" viewBox="0 0 1422 231" fill="none" xmlns="http://www.w3.org/2000/svg">
<path d="M90.596 276.844C62.9187 276.844 40.932 268.178 24.636 250.847C8.59867 233.258 0.58 210.237 0.58 181.783C0.58 153.33 8.59867 130.438 24.636 113.107C40.932 95.5182 62.9187 86.7235 90.596 86.7235C115.428 86.7235 135.345 93.0608 150.348 105.735C165.609 118.151 174.275 134.835 176.344 155.787H134.052C129.396 134.835 114.911 124.359 90.596 124.359C75.5933 124.359 63.824 129.403 55.288 139.491C47.0107 149.321 42.872 163.418 42.872 181.783C42.872 200.149 47.0107 214.375 55.288 224.463C63.824 234.293 75.5933 239.207 90.596 239.207C114.652 239.207 129.137 229.378 134.052 209.719H176.344C174.275 230.154 165.609 246.45 150.348 258.607C135.345 270.765 115.428 276.844 90.596 276.844ZM280.795 276.844C252.6 276.844 230.743 267.919 215.223 250.071C199.703 232.223 191.943 209.461 191.943 181.783C191.943 154.365 200.091 131.731 216.387 113.883C232.683 95.7768 254.54 86.7235 281.959 86.7235C294.116 86.7235 305.239 89.3102 315.327 94.4835C325.415 99.6568 333.175 106.77 338.607 115.823V91.3795H380.899V272.188H338.607V247.743C333.433 256.538 325.285 263.651 314.163 269.083C303.299 274.257 292.176 276.844 280.795 276.844ZM287.003 239.207C304.333 239.207 317.525 233.775 326.579 222.911C335.891 212.047 340.547 198.338 340.547 181.783C340.547 165.229 335.891 151.519 326.579 140.655C317.525 129.791 304.333 124.359 287.003 124.359C270.707 124.359 257.773 129.791 248.203 140.655C238.891 151.261 234.235 164.97 234.235 181.783C234.235 198.597 238.891 212.435 248.203 223.299C257.773 233.905 270.707 239.207 287.003 239.207ZM501.488 236.491C510.024 236.491 517.137 235.974 522.828 234.939V272.188C514.033 273.74 503.557 274.516 491.4 274.516C484.416 274.516 478.337 273.998 473.164 272.964C467.991 271.929 461.912 269.601 454.928 265.979C447.944 262.099 442.512 255.503 438.632 246.191C434.752 236.879 432.812 225.11 432.812 210.883V126.687H402.16V91.3795H432.812V36.6715H475.104V91.3795H516.62V126.687H475.104V201.183C475.104 215.669 477.173 225.239 481.312 229.895C485.451 234.293 492.176 236.491 501.488 236.491ZM619.567 276.844C591.373 276.844 569.515 267.919 553.995 250.071C538.475 232.223 530.715 209.461 530.715 181.783C530.715 154.365 538.863 131.731 555.159 113.883C571.455 95.7768 593.313 86.7235 620.731 86.7235C632.889 86.7235 644.011 89.3102 654.099 94.4835C664.187 99.6568 671.947 106.77 677.379 115.823V91.3795H719.671V272.188H677.379V247.743C672.206 256.538 664.058 263.651 652.935 269.083C642.071 274.257 630.949 276.844 619.567 276.844ZM625.775 239.207C643.106 239.207 656.298 233.775 665.351 222.911C674.663 212.047 679.319 198.338 679.319 181.783C679.319 165.229 674.663 151.519 665.351 140.655C656.298 129.791 643.106 124.359 625.775 124.359C609.479 124.359 596.546 129.791 586.975 140.655C577.663 151.261 573.007 164.97 573.007 181.783C573.007 198.597 577.663 212.435 586.975 223.299C596.546 233.905 609.479 239.207 625.775 239.207ZM758.392 272.188V0.587481H800.684V272.188H758.392ZM962.49 91.3795H1004.78V272.964C1004.78 300.641 996.892 322.11 981.114 337.372C965.852 351.34 945.418 358.324 919.81 358.324C893.167 358.324 872.474 352.116 857.73 339.7C844.796 328.318 838.071 312.669 837.554 292.752H880.234C881.268 303.098 884.631 310.729 890.322 315.644C896.271 320.817 905.842 323.403 919.034 323.403C932.484 323.403 943.09 319.006 950.85 310.212C958.61 301.676 962.49 288.225 962.49 269.859V246.967C950.85 266.885 931.45 276.844 904.29 276.844C882.82 276.844 866.266 269.989 854.626 256.279C843.244 242.311 837.554 224.075 837.554 201.571V91.3795H879.846V192.647C879.846 223.946 892.908 239.595 919.034 239.595C933.26 239.595 943.995 234.551 951.238 224.463C958.739 214.375 962.49 201.183 962.49 184.887V91.3795ZM1106.98 276.844C1084.22 276.844 1065.73 271.024 1051.5 259.384C1037.27 247.743 1030.16 233.517 1030.16 216.703H1072.45C1072.45 224.463 1075.81 230.801 1082.54 235.715C1089.52 240.63 1098.45 243.087 1109.31 243.087C1117.33 243.087 1123.67 241.147 1128.32 237.267C1132.98 233.387 1135.31 228.214 1135.31 221.747C1135.31 211.401 1130.78 205.063 1121.73 202.735L1075.17 189.931C1049.04 182.689 1035.98 166.005 1035.98 139.879C1035.98 124.877 1042.45 112.331 1055.38 102.243C1068.31 91.8968 1085 86.7235 1105.43 86.7235C1128.45 86.7235 1146.04 91.8968 1158.2 102.243C1170.62 112.59 1176.82 126.17 1176.82 142.983H1135.31C1135.31 135.482 1132.46 129.662 1126.77 125.523C1121.34 121.126 1113.71 118.927 1103.88 118.927C1096.38 118.927 1090.17 120.738 1085.26 124.359C1080.34 127.722 1077.88 132.119 1077.88 137.551C1077.88 147.381 1083.06 153.847 1093.4 156.951L1136.47 169.367C1148.89 172.989 1158.98 179.197 1166.74 187.991C1174.5 196.527 1178.38 206.486 1178.38 217.867C1178.38 235.457 1172.04 249.683 1159.36 260.547C1146.95 271.411 1129.49 276.844 1106.98 276.844ZM1249.39 56.4595C1243.44 62.4088 1235.94 65.3835 1226.89 65.3835C1217.83 65.3835 1210.33 62.4088 1204.38 56.4595C1198.43 50.2515 1195.46 42.7502 1195.46 33.9555C1195.46 25.1608 1198.43 17.7888 1204.38 11.8395C1210.33 5.63149 1217.83 2.52748 1226.89 2.52748C1235.94 2.52748 1243.44 5.63149 1249.39 11.8395C1255.34 17.7888 1258.32 25.1608 1258.32 33.9555C1258.32 42.7502 1255.34 50.2515 1249.39 56.4595ZM1205.55 272.188V91.3795H1247.84V272.188H1205.55ZM1349.89 276.844C1327.13 276.844 1308.64 271.024 1294.41 259.384C1280.18 247.743 1273.07 233.517 1273.07 216.703H1315.36C1315.36 224.463 1318.72 230.801 1325.45 235.715C1332.43 240.63 1341.36 243.087 1352.22 243.087C1360.24 243.087 1366.58 241.147 1371.23 237.267C1375.89 233.387 1378.22 228.214 1378.22 221.747C1378.22 211.401 1373.69 205.063 1364.64 202.735L1318.08 189.931C1291.95 182.689 1278.89 166.005 1278.89 139.879C1278.89 124.877 1285.36 112.331 1298.29 102.243C1311.22 91.8968 1327.91 86.7235 1348.34 86.7235C1371.36 86.7235 1388.95 91.8968 1401.11 102.243C1413.52 112.59 1419.73 126.17 1419.73 142.983H1378.22C1378.22 135.482 1375.37 129.662 1369.68 125.523C1364.25 121.126 1356.62 118.927 1346.79 118.927C1339.29 118.927 1333.08 120.738 1328.16 124.359C1323.25 127.722 1320.79 132.119 1320.79 137.551C1320.79 147.381 1325.97 153.847 1336.31 156.951L1379.38 169.367C1391.8 172.989 1401.88 179.197 1409.64 187.991C1417.4 196.527 1421.28 206.486 1421.28 217.867C1421.28 235.457 1414.95 249.683 1402.27 260.547C1389.86 271.411 1372.4 276.844 1349.89 276.844Z" fill="#323131" fill-opacity="0.04"/>
</svg>
