<svg width="163" height="32" viewBox="0 0 163 32" fill="none" xmlns="http://www.w3.org/2000/svg">
<g id="Group 6">
<path id="Union" fill-rule="evenodd" clip-rule="evenodd" d="M0 0H5.99999C5.99999 0 6.04999 14.7692 20.4 14.7692C8.40009 14.7692 8.39999 0 8.39999 0H14.4C14.4 0 13.2 13.5385 22.8 13.5384C15.5094 13.5385 16.8 0 16.8 0H22.8C22.8 0 18 14.7692 30 14.7692H36V17.2307H30C18 17.2307 22.8 32 22.8 32H16.8C16.8 32 15.5094 18.4615 22.8 18.4615C13.2 18.4615 14.4001 32 14.4001 32H8.40009C8.40009 32 8.39999 17.2307 20.4 17.2307C6.04999 17.2307 6.00009 32 6.00009 32H0.00010158C0.00010158 32 0 16 16.8 16C0 16 0 0 0 0Z" fill="#323131"/>
<g id="catalysis">
<path id="Vector" d="M156.404 25.053C154.527 25.053 153.001 24.573 151.828 23.613C150.655 22.653 150.068 21.4797 150.068 20.093H153.556C153.556 20.733 153.833 21.2557 154.388 21.661C154.964 22.0664 155.7 22.269 156.596 22.269C157.257 22.269 157.78 22.109 158.164 21.789C158.548 21.469 158.74 21.0424 158.74 20.509C158.74 19.6557 158.367 19.133 157.62 18.941L153.78 17.885C151.625 17.2877 150.548 15.9117 150.548 13.757C150.548 12.5197 151.081 11.485 152.148 10.653C153.215 9.79971 154.591 9.37305 156.276 9.37305C158.175 9.37305 159.625 9.79971 160.628 10.653C161.652 11.5064 162.164 12.6264 162.164 14.013H158.74C158.74 13.3944 158.505 12.9144 158.036 12.573C157.588 12.2104 156.959 12.029 156.148 12.029C155.529 12.029 155.017 12.1784 154.612 12.477C154.207 12.7544 154.004 13.117 154.004 13.565C154.004 14.3757 154.431 14.909 155.284 15.165L158.836 16.189C159.86 16.4877 160.692 16.9997 161.332 17.725C161.972 18.429 162.292 19.2504 162.292 20.189C162.292 21.6397 161.769 22.813 160.724 23.709C159.7 24.605 158.26 25.053 156.404 25.053Z" fill="#323131"/>
<path id="Vector_2" d="M148.115 6.87671C147.624 7.36738 147.006 7.61271 146.259 7.61271C145.512 7.61271 144.894 7.36738 144.403 6.87671C143.912 6.36471 143.667 5.74604 143.667 5.02071C143.667 4.29538 143.912 3.68738 144.403 3.19671C144.894 2.68471 145.512 2.42871 146.259 2.42871C147.006 2.42871 147.624 2.68471 148.115 3.19671C148.606 3.68738 148.851 4.29538 148.851 5.02071C148.851 5.74604 148.606 6.36471 148.115 6.87671ZM144.499 24.6687V9.75671H147.987V24.6687H144.499Z" fill="#323131"/>
<path id="Vector_3" d="M136.371 25.053C134.494 25.053 132.968 24.573 131.795 23.613C130.622 22.653 130.035 21.4797 130.035 20.093H133.523C133.523 20.733 133.8 21.2557 134.355 21.661C134.931 22.0664 135.667 22.269 136.563 22.269C137.224 22.269 137.747 22.109 138.131 21.789C138.515 21.469 138.707 21.0424 138.707 20.509C138.707 19.6557 138.334 19.133 137.587 18.941L133.747 17.885C131.592 17.2877 130.515 15.9117 130.515 13.757C130.515 12.5197 131.048 11.485 132.115 10.653C133.182 9.79971 134.558 9.37305 136.243 9.37305C138.142 9.37305 139.592 9.79971 140.595 10.653C141.619 11.5064 142.131 12.6264 142.131 14.013H138.707C138.707 13.3944 138.472 12.9144 138.003 12.573C137.555 12.2104 136.926 12.029 136.115 12.029C135.496 12.029 134.984 12.1784 134.579 12.477C134.174 12.7544 133.971 13.117 133.971 13.565C133.971 14.3757 134.398 14.909 135.251 15.165L138.803 16.189C139.827 16.4877 140.659 16.9997 141.299 17.725C141.939 18.429 142.259 19.2504 142.259 20.189C142.259 21.6397 141.736 22.813 140.691 23.709C139.667 24.605 138.227 25.053 136.371 25.053Z" fill="#323131"/>
<path id="Vector_4" d="M124.453 9.76172H127.941V24.7377C127.941 27.0204 127.291 28.791 125.989 30.0497C124.731 31.2017 123.045 31.7777 120.933 31.7777C118.736 31.7777 117.029 31.2657 115.813 30.2417C114.747 29.3031 114.192 28.0124 114.149 26.3697H117.669C117.755 27.2231 118.032 27.8524 118.501 28.2577C118.992 28.6844 119.781 28.8977 120.869 28.8977C121.979 28.8977 122.853 28.535 123.493 27.8097C124.133 27.1057 124.453 25.9964 124.453 24.4817V22.5937C123.493 24.2364 121.893 25.0577 119.653 25.0577C117.883 25.0577 116.517 24.4924 115.557 23.3617C114.619 22.2097 114.149 20.7057 114.149 18.8497V9.76172H117.637V18.1137C117.637 20.6951 118.715 21.9857 120.869 21.9857C122.043 21.9857 122.928 21.5697 123.525 20.7377C124.144 19.9057 124.453 18.8177 124.453 17.4737V9.76172Z" fill="#323131"/>
<path id="Vector_5" d="M107.62 24.6686V2.26855H111.108V24.6686H107.62Z" fill="#323131"/>
<path id="Vector_6" d="M96.1683 25.053C93.843 25.053 92.0403 24.317 90.7603 22.845C89.4803 21.373 88.8403 19.4957 88.8403 17.213C88.8403 14.9517 89.5123 13.085 90.8563 11.613C92.2003 10.1197 94.003 9.37305 96.2643 9.37305C97.267 9.37305 98.1843 9.58638 99.0163 10.013C99.8483 10.4397 100.488 11.0264 100.936 11.773V9.75705H104.424V24.669H100.936V22.653C100.51 23.3784 99.8377 23.965 98.9203 24.413C98.0243 24.8397 97.107 25.053 96.1683 25.053ZM96.6803 21.949C98.1097 21.949 99.1976 21.501 99.9443 20.605C100.712 19.709 101.096 18.5784 101.096 17.213C101.096 15.8477 100.712 14.717 99.9443 13.821C99.1976 12.925 98.1097 12.477 96.6803 12.477C95.3363 12.477 94.2697 12.925 93.4803 13.821C92.7123 14.6957 92.3283 15.8264 92.3283 17.213C92.3283 18.5997 92.7123 19.741 93.4803 20.637C94.2697 21.5117 95.3363 21.949 96.6803 21.949Z" fill="#323131"/>
<path id="Vector_7" d="M86.4317 21.728C87.1357 21.728 87.7224 21.6854 88.1917 21.6V24.672C87.4664 24.8 86.6024 24.864 85.5997 24.864C85.0237 24.864 84.5224 24.8214 84.0957 24.736C83.6691 24.6507 83.1677 24.4587 82.5917 24.16C82.0157 23.84 81.5677 23.296 81.2477 22.528C80.9277 21.76 80.7677 20.7894 80.7677 19.616V12.672H78.2397V9.76005H80.7677V5.24805H84.2557V9.76005H87.6797V12.672H84.2557V18.816C84.2557 20.0107 84.4264 20.8 84.7677 21.184C85.1091 21.5467 85.6637 21.728 86.4317 21.728Z" fill="#323131"/>
<path id="Vector_8" d="M68.2294 25.053C65.904 25.053 64.1014 24.317 62.8214 22.845C61.5414 21.373 60.9014 19.4957 60.9014 17.213C60.9014 14.9517 61.5734 13.085 62.9174 11.613C64.2614 10.1197 66.064 9.37305 68.3254 9.37305C69.328 9.37305 70.2454 9.58638 71.0774 10.013C71.9094 10.4397 72.5494 11.0264 72.9974 11.773V9.75705H76.4853V24.669H72.9974V22.653C72.5707 23.3784 71.8987 23.965 70.9814 24.413C70.0854 24.8397 69.168 25.053 68.2294 25.053ZM68.7414 21.949C70.1707 21.949 71.2587 21.501 72.0054 20.605C72.7734 19.709 73.1574 18.5784 73.1574 17.213C73.1574 15.8477 72.7734 14.717 72.0054 13.821C71.2587 12.925 70.1707 12.477 68.7414 12.477C67.3974 12.477 66.3307 12.925 65.5414 13.821C64.7734 14.6957 64.3894 15.8264 64.3894 17.213C64.3894 18.5997 64.7734 19.741 65.5414 20.637C66.3307 21.5117 67.3974 21.949 68.7414 21.949Z" fill="#323131"/>
<path id="Vector_9" d="M52.5441 25.053C50.2614 25.053 48.4481 24.3384 47.1041 22.909C45.7814 21.4584 45.1201 19.5597 45.1201 17.213C45.1201 14.8664 45.7814 12.9784 47.1041 11.549C48.4481 10.0984 50.2614 9.37305 52.5441 9.37305C54.5921 9.37305 56.2348 9.89571 57.4721 10.941C58.7308 11.965 59.4454 13.341 59.6161 15.069H56.1281C55.7441 13.341 54.5494 12.477 52.5441 12.477C51.3068 12.477 50.3361 12.893 49.6321 13.725C48.9494 14.5357 48.6081 15.6984 48.6081 17.213C48.6081 18.7277 48.9494 19.901 49.6321 20.733C50.3361 21.5437 51.3068 21.949 52.5441 21.949C54.5281 21.949 55.7228 21.1384 56.1281 19.517H59.6161C59.4454 21.2024 58.7308 22.5464 57.4721 23.549C56.2348 24.5517 54.5921 25.053 52.5441 25.053Z" fill="#323131"/>
</g>
</g>
</svg>
