<svg width="1422" height="231" viewBox="0 0 1422 231" fill="none" xmlns="http://www.w3.org/2000/svg">
<path d="M90.596 276.656C62.9187 276.656 40.932 267.991 24.636 250.66C8.59867 233.071 0.58 210.049 0.58 181.596C0.58 153.143 8.59867 130.251 24.636 112.92C40.932 95.3307 62.9187 86.536 90.596 86.536C115.428 86.536 135.345 92.8733 150.348 105.548C165.609 117.964 174.275 134.648 176.344 155.6H134.052C129.396 134.648 114.911 124.172 90.596 124.172C75.5933 124.172 63.824 129.216 55.288 139.304C47.0107 149.133 42.872 163.231 42.872 181.596C42.872 199.961 47.0107 214.188 55.288 224.276C63.824 234.105 75.5933 239.02 90.596 239.02C114.652 239.02 129.137 229.191 134.052 209.532H176.344C174.275 229.967 165.609 246.263 150.348 258.42C135.345 270.577 115.428 276.656 90.596 276.656ZM280.795 276.656C252.6 276.656 230.743 267.732 215.223 249.884C199.703 232.036 191.943 209.273 191.943 181.596C191.943 154.177 200.091 131.544 216.387 113.696C232.683 95.5893 254.54 86.536 281.959 86.536C294.116 86.536 305.239 89.1227 315.327 94.296C325.415 99.4693 333.175 106.583 338.607 115.636V91.192H380.899V272H338.607V247.556C333.433 256.351 325.285 263.464 314.163 268.896C303.299 274.069 292.176 276.656 280.795 276.656ZM287.003 239.02C304.333 239.02 317.525 233.588 326.579 222.724C335.891 211.86 340.547 198.151 340.547 181.596C340.547 165.041 335.891 151.332 326.579 140.468C317.525 129.604 304.333 124.172 287.003 124.172C270.707 124.172 257.773 129.604 248.203 140.468C238.891 151.073 234.235 164.783 234.235 181.596C234.235 198.409 238.891 212.248 248.203 223.112C257.773 233.717 270.707 239.02 287.003 239.02ZM501.488 236.304C510.024 236.304 517.137 235.787 522.828 234.752V272C514.033 273.552 503.557 274.328 491.4 274.328C484.416 274.328 478.337 273.811 473.164 272.776C467.991 271.741 461.912 269.413 454.928 265.792C447.944 261.912 442.512 255.316 438.632 246.004C434.752 236.692 432.812 224.923 432.812 210.696V126.5H402.16V91.192H432.812V36.484H475.104V91.192H516.62V126.5H475.104V200.996C475.104 215.481 477.173 225.052 481.312 229.708C485.451 234.105 492.176 236.304 501.488 236.304ZM619.567 276.656C591.373 276.656 569.515 267.732 553.995 249.884C538.475 232.036 530.715 209.273 530.715 181.596C530.715 154.177 538.863 131.544 555.159 113.696C571.455 95.5893 593.313 86.536 620.731 86.536C632.889 86.536 644.011 89.1227 654.099 94.296C664.187 99.4693 671.947 106.583 677.379 115.636V91.192H719.671V272H677.379V247.556C672.206 256.351 664.058 263.464 652.935 268.896C642.071 274.069 630.949 276.656 619.567 276.656ZM625.775 239.02C643.106 239.02 656.298 233.588 665.351 222.724C674.663 211.86 679.319 198.151 679.319 181.596C679.319 165.041 674.663 151.332 665.351 140.468C656.298 129.604 643.106 124.172 625.775 124.172C609.479 124.172 596.546 129.604 586.975 140.468C577.663 151.073 573.007 164.783 573.007 181.596C573.007 198.409 577.663 212.248 586.975 223.112C596.546 233.717 609.479 239.02 625.775 239.02ZM758.392 272V0.399981H800.684V272H758.392ZM962.49 91.192H1004.78V272.776C1004.78 300.453 996.892 321.923 981.114 337.184C965.852 351.152 945.418 358.136 919.81 358.136C893.167 358.136 872.474 351.928 857.73 339.512C844.796 328.131 838.071 312.481 837.554 292.564H880.234C881.268 302.911 884.631 310.541 890.322 315.456C896.271 320.629 905.842 323.216 919.034 323.216C932.484 323.216 943.09 318.819 950.85 310.024C958.61 301.488 962.49 288.037 962.49 269.672V246.78C950.85 266.697 931.45 276.656 904.29 276.656C882.82 276.656 866.266 269.801 854.626 256.092C843.244 242.124 837.554 223.888 837.554 201.384V91.192H879.846V192.46C879.846 223.759 892.908 239.408 919.034 239.408C933.26 239.408 943.995 234.364 951.238 224.276C958.739 214.188 962.49 200.996 962.49 184.7V91.192ZM1106.98 276.656C1084.22 276.656 1065.73 270.836 1051.5 259.196C1037.27 247.556 1030.16 233.329 1030.16 216.516H1072.45C1072.45 224.276 1075.81 230.613 1082.54 235.528C1089.52 240.443 1098.45 242.9 1109.31 242.9C1117.33 242.9 1123.67 240.96 1128.32 237.08C1132.98 233.2 1135.31 228.027 1135.31 221.56C1135.31 211.213 1130.78 204.876 1121.73 202.548L1075.17 189.744C1049.04 182.501 1035.98 165.817 1035.98 139.692C1035.98 124.689 1042.45 112.144 1055.38 102.056C1068.31 91.7093 1085 86.536 1105.43 86.536C1128.45 86.536 1146.04 91.7093 1158.2 102.056C1170.62 112.403 1176.82 125.983 1176.82 142.796H1135.31C1135.31 135.295 1132.46 129.475 1126.77 125.336C1121.34 120.939 1113.71 118.74 1103.88 118.74C1096.38 118.74 1090.17 120.551 1085.26 124.172C1080.34 127.535 1077.88 131.932 1077.88 137.364C1077.88 147.193 1083.06 153.66 1093.4 156.764L1136.47 169.18C1148.89 172.801 1158.98 179.009 1166.74 187.804C1174.5 196.34 1178.38 206.299 1178.38 217.68C1178.38 235.269 1172.04 249.496 1159.36 260.36C1146.95 271.224 1129.49 276.656 1106.98 276.656ZM1249.39 56.272C1243.44 62.2213 1235.94 65.196 1226.89 65.196C1217.83 65.196 1210.33 62.2213 1204.38 56.272C1198.43 50.064 1195.46 42.5627 1195.46 33.768C1195.46 24.9733 1198.43 17.6013 1204.38 11.652C1210.33 5.44399 1217.83 2.33998 1226.89 2.33998C1235.94 2.33998 1243.44 5.44399 1249.39 11.652C1255.34 17.6013 1258.32 24.9733 1258.32 33.768C1258.32 42.5627 1255.34 50.064 1249.39 56.272ZM1205.55 272V91.192H1247.84V272H1205.55ZM1349.89 276.656C1327.13 276.656 1308.64 270.836 1294.41 259.196C1280.18 247.556 1273.07 233.329 1273.07 216.516H1315.36C1315.36 224.276 1318.72 230.613 1325.45 235.528C1332.43 240.443 1341.36 242.9 1352.22 242.9C1360.24 242.9 1366.58 240.96 1371.23 237.08C1375.89 233.2 1378.22 228.027 1378.22 221.56C1378.22 211.213 1373.69 204.876 1364.64 202.548L1318.08 189.744C1291.95 182.501 1278.89 165.817 1278.89 139.692C1278.89 124.689 1285.36 112.144 1298.29 102.056C1311.22 91.7093 1327.91 86.536 1348.34 86.536C1371.36 86.536 1388.95 91.7093 1401.11 102.056C1413.52 112.403 1419.73 125.983 1419.73 142.796H1378.22C1378.22 135.295 1375.37 129.475 1369.68 125.336C1364.25 120.939 1356.62 118.74 1346.79 118.74C1339.29 118.74 1333.08 120.551 1328.16 124.172C1323.25 127.535 1320.79 131.932 1320.79 137.364C1320.79 147.193 1325.97 153.66 1336.31 156.764L1379.38 169.18C1391.8 172.801 1401.88 179.009 1409.64 187.804C1417.4 196.34 1421.28 206.299 1421.28 217.68C1421.28 235.269 1414.95 249.496 1402.27 260.36C1389.86 271.224 1372.4 276.656 1349.89 276.656Z" fill="#EEEEEE" fill-opacity="0.04"/>
</svg>
