<svg width="163" height="33" viewBox="0 0 163 33" fill="none" xmlns="http://www.w3.org/2000/svg">
<g id="Group 6">
<path id="Union" fill-rule="evenodd" clip-rule="evenodd" d="M0 0.8125H5.99999C5.99999 0.8125 6.04999 15.5817 20.4 15.5817C8.40009 15.5817 8.39999 0.8125 8.39999 0.8125H14.4C14.4 0.8125 13.2 14.351 22.8 14.3509C15.5094 14.351 16.8 0.8125 16.8 0.8125H22.8C22.8 0.8125 18 15.5817 30 15.5817H36V18.0432H30C18 18.0432 22.8 32.8125 22.8 32.8125H16.8C16.8 32.8125 15.5094 19.274 22.8 19.274C13.2 19.274 14.4001 32.8125 14.4001 32.8125H8.40009C8.40009 32.8125 8.39999 18.0432 20.4 18.0432C6.04999 18.0432 6.00009 32.8125 6.00009 32.8125H0.00010158C0.00010158 32.8125 0 16.8125 16.8 16.8125C0 16.8125 0 0.8125 0 0.8125Z" fill="#CECECE"/>
<g id="catalysis">
<path id="Vector" d="M156.404 25.8655C154.527 25.8655 153.001 25.3855 151.828 24.4255C150.655 23.4655 150.068 22.2922 150.068 20.9055H153.556C153.556 21.5455 153.833 22.0682 154.388 22.4735C154.964 22.8789 155.7 23.0815 156.596 23.0815C157.257 23.0815 157.78 22.9215 158.164 22.6015C158.548 22.2815 158.74 21.8549 158.74 21.3215C158.74 20.4682 158.367 19.9455 157.62 19.7535L153.78 18.6975C151.625 18.1002 150.548 16.7242 150.548 14.5695C150.548 13.3322 151.081 12.2975 152.148 11.4655C153.215 10.6122 154.591 10.1855 156.276 10.1855C158.175 10.1855 159.625 10.6122 160.628 11.4655C161.652 12.3189 162.164 13.4389 162.164 14.8255H158.74C158.74 14.2069 158.505 13.7269 158.036 13.3855C157.588 13.0229 156.959 12.8415 156.148 12.8415C155.529 12.8415 155.017 12.9909 154.612 13.2895C154.207 13.5669 154.004 13.9295 154.004 14.3775C154.004 15.1882 154.431 15.7215 155.284 15.9775L158.836 17.0015C159.86 17.3002 160.692 17.8122 161.332 18.5375C161.972 19.2415 162.292 20.0629 162.292 21.0015C162.292 22.4522 161.769 23.6255 160.724 24.5215C159.7 25.4175 158.26 25.8655 156.404 25.8655Z" fill="#CECECE"/>
<path id="Vector_2" d="M148.115 7.68921C147.624 8.17988 147.006 8.42521 146.259 8.42521C145.512 8.42521 144.894 8.17988 144.403 7.68921C143.912 7.17721 143.667 6.55854 143.667 5.83321C143.667 5.10788 143.912 4.49988 144.403 4.00921C144.894 3.49721 145.512 3.24121 146.259 3.24121C147.006 3.24121 147.624 3.49721 148.115 4.00921C148.606 4.49988 148.851 5.10788 148.851 5.83321C148.851 6.55854 148.606 7.17721 148.115 7.68921ZM144.499 25.4812V10.5692H147.987V25.4812H144.499Z" fill="#CECECE"/>
<path id="Vector_3" d="M136.371 25.8655C134.494 25.8655 132.968 25.3855 131.795 24.4255C130.622 23.4655 130.035 22.2922 130.035 20.9055H133.523C133.523 21.5455 133.8 22.0682 134.355 22.4735C134.931 22.8789 135.667 23.0815 136.563 23.0815C137.224 23.0815 137.747 22.9215 138.131 22.6015C138.515 22.2815 138.707 21.8549 138.707 21.3215C138.707 20.4682 138.334 19.9455 137.587 19.7535L133.747 18.6975C131.592 18.1002 130.515 16.7242 130.515 14.5695C130.515 13.3322 131.048 12.2975 132.115 11.4655C133.182 10.6122 134.558 10.1855 136.243 10.1855C138.142 10.1855 139.592 10.6122 140.595 11.4655C141.619 12.3189 142.131 13.4389 142.131 14.8255H138.707C138.707 14.2069 138.472 13.7269 138.003 13.3855C137.555 13.0229 136.926 12.8415 136.115 12.8415C135.496 12.8415 134.984 12.9909 134.579 13.2895C134.174 13.5669 133.971 13.9295 133.971 14.3775C133.971 15.1882 134.398 15.7215 135.251 15.9775L138.803 17.0015C139.827 17.3002 140.659 17.8122 141.299 18.5375C141.939 19.2415 142.259 20.0629 142.259 21.0015C142.259 22.4522 141.736 23.6255 140.691 24.5215C139.667 25.4175 138.227 25.8655 136.371 25.8655Z" fill="#CECECE"/>
<path id="Vector_4" d="M124.453 10.5742H127.941V25.5502C127.941 27.8329 127.291 29.6035 125.989 30.8622C124.731 32.0142 123.045 32.5902 120.933 32.5902C118.736 32.5902 117.029 32.0782 115.813 31.0542C114.747 30.1156 114.192 28.8249 114.149 27.1822H117.669C117.755 28.0356 118.032 28.6649 118.501 29.0702C118.992 29.4969 119.781 29.7102 120.869 29.7102C121.979 29.7102 122.853 29.3475 123.493 28.6222C124.133 27.9182 124.453 26.8089 124.453 25.2942V23.4062C123.493 25.0489 121.893 25.8702 119.653 25.8702C117.883 25.8702 116.517 25.3049 115.557 24.1742C114.619 23.0222 114.149 21.5182 114.149 19.6622V10.5742H117.637V18.9262C117.637 21.5076 118.715 22.7982 120.869 22.7982C122.043 22.7982 122.928 22.3822 123.525 21.5502C124.144 20.7182 124.453 19.6302 124.453 18.2862V10.5742Z" fill="#CECECE"/>
<path id="Vector_5" d="M107.62 25.4811V3.08105H111.108V25.4811H107.62Z" fill="#CECECE"/>
<path id="Vector_6" d="M96.1683 25.8655C93.843 25.8655 92.0403 25.1295 90.7603 23.6575C89.4803 22.1855 88.8403 20.3082 88.8403 18.0255C88.8403 15.7642 89.5123 13.8975 90.8563 12.4255C92.2003 10.9322 94.003 10.1855 96.2643 10.1855C97.267 10.1855 98.1843 10.3989 99.0163 10.8255C99.8483 11.2522 100.488 11.8389 100.936 12.5855V10.5695H104.424V25.4815H100.936V23.4655C100.51 24.1909 99.8377 24.7775 98.9203 25.2255C98.0243 25.6522 97.107 25.8655 96.1683 25.8655ZM96.6803 22.7615C98.1097 22.7615 99.1976 22.3135 99.9443 21.4175C100.712 20.5215 101.096 19.3909 101.096 18.0255C101.096 16.6602 100.712 15.5295 99.9443 14.6335C99.1976 13.7375 98.1097 13.2895 96.6803 13.2895C95.3363 13.2895 94.2697 13.7375 93.4803 14.6335C92.7123 15.5082 92.3283 16.6389 92.3283 18.0255C92.3283 19.4122 92.7123 20.5535 93.4803 21.4495C94.2697 22.3242 95.3363 22.7615 96.6803 22.7615Z" fill="#CECECE"/>
<path id="Vector_7" d="M86.4317 22.5405C87.1357 22.5405 87.7224 22.4979 88.1917 22.4125V25.4845C87.4664 25.6125 86.6024 25.6765 85.5997 25.6765C85.0237 25.6765 84.5224 25.6339 84.0957 25.5485C83.6691 25.4632 83.1677 25.2712 82.5917 24.9725C82.0157 24.6525 81.5677 24.1085 81.2477 23.3405C80.9277 22.5725 80.7677 21.6019 80.7677 20.4285V13.4845H78.2397V10.5725H80.7677V6.06055H84.2557V10.5725H87.6797V13.4845H84.2557V19.6285C84.2557 20.8232 84.4264 21.6125 84.7677 21.9965C85.1091 22.3592 85.6637 22.5405 86.4317 22.5405Z" fill="#CECECE"/>
<path id="Vector_8" d="M68.2294 25.8655C65.904 25.8655 64.1014 25.1295 62.8214 23.6575C61.5414 22.1855 60.9014 20.3082 60.9014 18.0255C60.9014 15.7642 61.5734 13.8975 62.9174 12.4255C64.2614 10.9322 66.064 10.1855 68.3254 10.1855C69.328 10.1855 70.2454 10.3989 71.0774 10.8255C71.9094 11.2522 72.5494 11.8389 72.9974 12.5855V10.5695H76.4853V25.4815H72.9974V23.4655C72.5707 24.1909 71.8987 24.7775 70.9814 25.2255C70.0854 25.6522 69.168 25.8655 68.2294 25.8655ZM68.7414 22.7615C70.1707 22.7615 71.2587 22.3135 72.0054 21.4175C72.7734 20.5215 73.1574 19.3909 73.1574 18.0255C73.1574 16.6602 72.7734 15.5295 72.0054 14.6335C71.2587 13.7375 70.1707 13.2895 68.7414 13.2895C67.3974 13.2895 66.3307 13.7375 65.5414 14.6335C64.7734 15.5082 64.3894 16.6389 64.3894 18.0255C64.3894 19.4122 64.7734 20.5535 65.5414 21.4495C66.3307 22.3242 67.3974 22.7615 68.7414 22.7615Z" fill="#CECECE"/>
<path id="Vector_9" d="M52.5441 25.8655C50.2614 25.8655 48.4481 25.1509 47.1041 23.7215C45.7814 22.2709 45.1201 20.3722 45.1201 18.0255C45.1201 15.6789 45.7814 13.7909 47.1041 12.3615C48.4481 10.9109 50.2614 10.1855 52.5441 10.1855C54.5921 10.1855 56.2348 10.7082 57.4721 11.7535C58.7308 12.7775 59.4454 14.1535 59.6161 15.8815H56.1281C55.7441 14.1535 54.5494 13.2895 52.5441 13.2895C51.3068 13.2895 50.3361 13.7055 49.6321 14.5375C48.9494 15.3482 48.6081 16.5109 48.6081 18.0255C48.6081 19.5402 48.9494 20.7135 49.6321 21.5455C50.3361 22.3562 51.3068 22.7615 52.5441 22.7615C54.5281 22.7615 55.7228 21.9509 56.1281 20.3295H59.6161C59.4454 22.0149 58.7308 23.3589 57.4721 24.3615C56.2348 25.3642 54.5921 25.8655 52.5441 25.8655Z" fill="#CECECE"/>
</g>
</g>
</svg>
