<svg width="1420" height="44" viewBox="0 0 1420 44" fill="none" xmlns="http://www.w3.org/2000/svg">
<path d="M48.4059 25.9121C48.7766 26.0575 49.326 26.1511 50.0542 26.1943V26.4981H41.8368V26.1943C42.5634 26.1511 43.1143 26.0575 43.485 25.9121C43.8557 25.7681 44.1126 25.5363 44.253 25.2167C44.3932 24.8985 44.4642 24.4277 44.4642 23.8057V14.1217H44.3977L38.7634 26.7803H38.697L32.661 14.1663H32.5945V23.8057C32.5945 24.4277 32.6683 24.8985 32.8175 25.2167C32.9652 25.5349 33.2222 25.7667 33.5855 25.9121C33.9488 26.0575 34.4952 26.1511 35.2218 26.1943V26.4981H28.9525V26.1943C29.6791 26.1511 30.2255 26.0575 30.5889 25.9121C30.9522 25.7681 31.2092 25.5363 31.3569 25.2167C31.5046 24.8985 31.5798 24.4277 31.5798 23.8057V14.1001C31.5798 13.4781 31.506 13.0073 31.3569 12.6891C31.2077 12.3709 30.9522 12.1391 30.5889 11.9937C30.2241 11.8497 29.6791 11.7547 28.9525 11.7115V11.4077H34.5765L39.713 22.34L44.6945 11.4077H50.0542V11.7115C49.326 11.7547 48.7766 11.8497 48.4059 11.9937C48.0353 12.1391 47.7753 12.3738 47.6262 12.6992C47.477 13.0246 47.4031 13.4911 47.4031 14.1001V23.8057C47.4031 24.4277 47.477 24.8985 47.6262 25.2167C47.7753 25.5363 48.0353 25.7667 48.4059 25.9121ZM59.5711 18.5951C60.0305 19.4201 60.2608 20.3531 60.2608 21.3955C60.2608 22.4379 60.0305 23.3709 59.5711 24.1959C59.1104 25.0209 58.4694 25.6587 57.6453 26.1065C56.8212 26.5557 55.8819 26.7803 54.8274 26.7803C53.7729 26.7803 52.8381 26.5557 52.0214 26.1065C51.2046 25.6587 50.5622 25.0209 50.0955 24.1959C49.6273 23.3709 49.394 22.4379 49.394 21.3955C49.394 20.3531 49.6273 19.4201 50.0955 18.5951C50.5637 17.7701 51.2046 17.1337 52.0214 16.6845C52.8381 16.2353 53.7729 16.0107 54.8274 16.0107C55.8819 16.0107 56.8212 16.2353 57.6453 16.6845C58.4694 17.1337 59.1104 17.7701 59.5711 18.5951ZM57.344 21.3955C57.344 20.3675 57.2436 19.4849 57.0427 18.7463C56.8419 18.0076 56.5524 17.4476 56.1743 17.0632C55.7962 16.6802 55.3458 16.4873 54.8274 16.4873C54.3076 16.4873 53.8586 16.6788 53.4805 17.0632C53.1024 17.4476 52.813 18.0076 52.6121 18.7463C52.4113 19.4849 52.3108 20.3675 52.3108 21.3955C52.3108 22.4235 52.4113 23.3061 52.6121 24.0447C52.813 24.7833 53.1024 25.3434 53.4805 25.7278C53.8586 26.1122 54.3076 26.3037 54.8274 26.3037C55.3473 26.3037 55.7962 26.1122 56.1743 25.7278C56.5524 25.3449 56.8419 24.7833 57.0427 24.0447C57.2436 23.3061 57.344 22.4235 57.344 21.3955ZM67.8121 18.3345C68.1976 18.3345 68.5474 18.3993 68.8591 18.5303V16.1417C68.6658 16.0553 68.4372 16.0121 68.1697 16.0121C67.4858 16.0121 66.8817 16.3058 66.3544 16.8918C65.8272 17.4778 65.4166 18.1517 65.0356 19.4935H64.9854V16.0985H64.8968L60.4868 17.3367V17.619C60.9919 17.619 61.3818 17.6665 61.6565 17.7601C61.9312 17.8536 62.1276 18.0062 62.2473 18.2165C62.3654 18.4267 62.426 18.7117 62.426 19.0745V24.4594C62.426 24.9086 62.3816 25.2411 62.293 25.4586C62.2044 25.676 62.0405 25.8387 61.8027 25.9466C61.5649 26.0547 61.1869 26.1382 60.667 26.1957V26.4996H66.8581V26.1957C66.3382 26.1526 65.9483 26.0762 65.6884 25.9683C65.4285 25.8603 65.2468 25.6933 65.1434 25.4687C65.04 25.2441 64.9869 24.9071 64.9869 24.4594V20.1919C65.4535 19.122 66.4815 18.3345 67.8121 18.3345ZM100.311 25.4456C100.222 25.221 100.178 24.8855 100.178 24.4363V19.4849C100.178 17.1596 98.8575 16.0107 97.1267 16.0107C95.396 16.0107 94.2839 17.2057 93.8082 17.8421H93.7639V16.0985H93.6755L89.2653 17.3367V17.619C89.7553 17.619 90.1412 17.6665 90.4229 17.7601C90.7054 17.8536 90.9062 18.0019 91.0246 18.205C91.1423 18.408 91.2029 18.6901 91.2029 19.0515V24.4349C91.2029 24.8841 91.1586 25.221 91.0702 25.4442C90.9817 25.6688 90.8177 25.8343 90.5795 25.9438C90.3419 26.0518 89.9635 26.1353 89.4443 26.1929V26.4967H95.2347V26.1929C94.8345 26.1353 94.5262 26.0518 94.3105 25.9438C94.0947 25.8358 93.9497 25.6688 93.8762 25.4442C93.8021 25.2196 93.7653 24.8841 93.7653 24.4349V18.6311C94.2778 18.0249 94.8801 17.4433 95.8595 17.4433C97.205 17.4433 97.6188 18.4324 97.6188 19.5497V24.4349C97.6188 24.8841 97.5773 25.221 97.4956 25.4442C97.4146 25.6688 97.2731 25.8343 97.0723 25.9438C96.8715 26.0518 96.5639 26.1353 96.1474 26.1929V26.4967H101.872V26.1929C101.382 26.1353 101.021 26.0518 100.792 25.9438C100.559 25.8358 100.401 25.6703 100.311 25.4456ZM156.584 23.5019C156.092 24.5486 154.72 26.7803 151.929 26.7803C149.278 26.7803 147.075 24.6667 147.075 21.4833C147.075 20.4841 147.298 19.5655 147.742 18.7261C148.189 17.8867 148.792 17.2244 149.557 16.7392C150.322 16.254 151.164 16.0121 152.086 16.0121C154.76 16.0121 156.094 17.8493 156.094 19.7642V20.1961H149.459C149.459 20.235 149.457 20.2724 149.457 20.3114C149.457 22.615 150.509 24.828 153.154 24.828C155.165 24.828 156.007 23.7424 156.338 23.3522L156.584 23.5019ZM149.504 19.4633H153.666C153.638 17.8896 153.156 16.5161 151.841 16.5103C150.606 16.506 149.711 17.629 149.504 19.4633ZM127.045 25.4456C126.957 25.221 126.913 24.8855 126.913 24.4363V19.4849C126.913 18.7319 126.783 18.0955 126.523 17.5743C126.263 17.0531 125.902 16.6629 125.443 16.4023C124.982 16.1417 124.455 16.0121 123.861 16.0121C123.178 16.0121 122.573 16.182 122.046 16.5218C121.519 16.8616 121.018 17.3512 120.542 17.9875H120.498V10.9009H120.41L115.999 12.1391V12.4213C116.49 12.4213 116.875 12.4688 117.158 12.5624C117.44 12.656 117.64 12.8043 117.759 13.0073C117.877 13.2103 117.937 13.4925 117.937 13.8539V24.4349C117.937 24.8841 117.893 25.221 117.804 25.4442C117.716 25.6688 117.552 25.8343 117.314 25.9438C117.076 26.0518 116.698 26.1353 116.178 26.1929V26.4967H121.97V26.1929C121.569 26.1353 121.26 26.0518 121.045 25.9438C120.829 25.8358 120.685 25.6688 120.61 25.4442C120.537 25.2196 120.5 24.8841 120.5 24.4349V18.6311C121.012 18.0249 121.615 17.4433 122.594 17.4433C123.144 17.4433 123.573 17.6204 123.886 17.9746C124.198 18.3288 124.354 18.8543 124.354 19.5482V24.4349C124.354 24.8841 124.313 25.221 124.232 25.4442C124.151 25.6688 124.009 25.8343 123.808 25.9438C123.607 26.0518 123.3 26.1353 122.884 26.1929V26.4967H128.608V26.1929C128.117 26.1353 127.757 26.0518 127.528 25.9438C127.293 25.8358 127.135 25.6703 127.045 25.4456ZM110.869 25.5608C107.585 25.5824 104.979 23.0081 104.979 18.8312C104.979 14.4168 107.406 11.8425 110.181 11.8425C112.956 11.8425 114.146 14.2801 114.753 16.6744L115.198 16.6672V12.2615C114.155 11.6985 112.445 11.0636 109.959 11.0636C105.165 11.0636 101.547 14.4831 101.547 19.0487C101.547 23.3982 104.566 26.8379 109.76 26.8163C112.624 26.7947 114.621 25.1288 115.574 23.8518L115.264 23.5278C114.621 24.242 113.332 25.5392 110.869 25.5608ZM143.935 20.4625L142.399 19.7455C141.379 19.3006 140.795 18.7117 140.795 17.9875C140.795 17.1669 141.566 16.6053 142.644 16.6053C144.214 16.6053 145.028 17.4519 145.365 19.3337H145.828V16.5981C145.368 16.4239 144.151 16.0121 142.911 16.0121C140.461 16.0121 138.969 17.5138 138.969 19.2473C138.969 19.914 139.151 20.4956 139.515 20.9952C139.878 21.4948 140.424 21.9253 141.151 22.2867L142.755 23.0685C143.852 23.5566 144.292 24.0375 144.292 24.7617C144.292 25.5622 143.631 26.1885 142.377 26.1885C140.544 26.1885 139.672 24.4939 139.434 23.1333H138.969V25.9337C139.668 26.3743 140.983 26.7803 142.199 26.7803C144.547 26.7803 146.186 25.3779 146.186 23.394C146.184 21.9642 145.402 21.0701 143.935 20.4625ZM22.1928 19.9197V23.8057C22.1928 24.4133 22.2814 24.8798 22.4602 25.2066C22.6388 25.532 22.9357 25.7681 23.3507 25.9121C23.7657 26.0575 24.3978 26.1511 25.244 26.1943V26.4981H16.625V26.1943C17.3516 26.1511 17.898 26.0575 18.2614 25.9121C18.6247 25.7681 18.8817 25.5363 19.0294 25.2167C19.1771 24.8985 19.2523 24.4277 19.2523 23.8057V14.1663C19.2523 12.1809 18.3322 11.7777 16.9351 11.7777C15.4021 11.7777 14.4643 12.1794 14.4643 14.1015V24.887C14.4643 27.3246 12.8398 29.6426 9.632 29.6426C9.38385 29.6426 9.13871 29.6282 8.89648 29.6009V29.3403C9.65854 29.2956 10.2759 29.0437 10.7455 28.5786C11.2654 28.0646 11.5253 27.2223 11.5253 26.0489V14.1001C11.5253 13.4925 11.4515 13.0246 11.3023 12.6992C11.1532 12.3738 10.8932 12.1391 10.5225 11.9937C10.1518 11.8497 9.60981 11.7547 8.89648 11.7115V11.4077H24.1157C27.5775 11.4077 29.7205 13.0951 29.7205 15.6421C29.7205 18.5577 26.783 19.9197 24.1571 19.9197H22.1928ZM22.1928 19.3366H23.2547C25.0609 19.3366 26.5806 18.3057 26.5806 15.6637C26.5806 12.4343 24.3934 11.9908 23.3093 11.9908H22.1928V19.3366ZM88.3676 25.6313C88.7351 25.6313 89.0584 25.4745 89.2639 25.3391V25.8546C88.8535 26.2289 88.0912 26.7731 86.9451 26.7731C85.9794 26.7731 85.1681 26.1756 84.953 25.2642H84.8952C84.5188 25.9582 83.3679 26.835 82.1129 26.835C80.6061 26.835 79.4974 25.856 79.4974 24.3672C79.4974 23.2039 80.3141 22.4293 81.6726 21.9599L84.8952 20.8282V19.3697C84.8952 18.0437 83.9117 17.4317 82.8452 17.4317C81.757 17.4317 80.7524 17.881 79.7071 18.9205L79.394 18.6354C80.3141 17.187 81.7788 16.0035 83.8927 16.0035C85.9011 16.0035 87.5121 17.2892 87.4916 19.3697L87.4501 24.5716C87.4474 25.3045 87.7618 25.6313 88.3676 25.6313ZM84.8952 21.5078L83.5987 22.0204C82.5941 22.4077 81.9462 22.8569 81.9462 23.8964C81.9462 24.7732 82.5737 25.3852 83.4523 25.3852C83.9131 25.3852 84.5821 25.0382 84.8965 24.6509V21.5078H84.8952ZM137.534 25.6313C137.904 25.6313 138.225 25.473 138.432 25.3391V25.8546C138.021 26.2289 137.26 26.7746 136.112 26.7746C135.146 26.7746 134.335 26.177 134.119 25.2656H134.062C133.685 25.9596 132.535 26.8364 131.279 26.8364C129.773 26.8364 128.664 25.8574 128.664 24.3686C128.664 23.2053 129.481 22.4307 130.84 21.9613L134.062 20.8296V19.3697C134.062 18.0437 133.078 17.4317 132.012 17.4317C130.923 17.4317 129.92 17.881 128.874 18.9205L128.559 18.6354C129.479 17.187 130.945 16.0035 133.058 16.0035C135.066 16.0035 136.678 17.2892 136.657 19.3697L136.615 24.5716C136.614 25.3045 136.927 25.6313 137.534 25.6313ZM134.06 21.5078L132.764 22.0204C131.759 22.4077 131.111 22.8569 131.111 23.8964C131.111 24.7732 131.739 25.3852 132.617 25.3852C133.078 25.3852 133.747 25.0382 134.062 24.6509V21.5078H134.06ZM76.852 16.7248C77.8048 17.449 78.2254 18.4915 78.2254 19.3812C78.2254 21.718 76.1775 22.9288 73.8451 22.9288C73.2306 22.9288 72.6371 22.8439 72.0953 22.6769C71.7938 22.903 71.5352 23.1981 71.5352 23.5437C71.5352 24.2866 72.7773 24.4363 73.5191 24.4781L76.0475 24.648C78.0736 24.7761 79.3586 25.4759 79.3586 27.2396C79.3586 29.4698 76.6526 31.3185 72.7126 31.3185C70.4245 31.3185 68.7897 30.554 68.7897 29.1934C68.7897 28.0113 69.4574 27.3346 71.1738 26.5312C70.0508 26.213 69.7909 25.5608 69.7909 24.923C69.7909 24.0505 70.5899 23.2672 71.6727 22.5243C70.3762 21.9915 69.4649 20.9362 69.4649 19.3784C69.4649 17.0416 71.5134 15.8307 73.8451 15.8307C74.9177 15.8307 75.7712 16.0683 76.428 16.4412C76.9187 15.4808 77.8858 14.3636 79.6199 14.3636V16.3577C78.6937 16.0784 77.5639 16.2238 76.852 16.7248ZM70.6198 28.2619C70.6198 29.4943 72.0579 30.0458 73.9323 30.0458C75.7195 30.0458 78.1369 29.2596 78.1369 28.0056C78.1369 27.2828 77.7238 27.1129 76.6335 27.028L72.2546 26.7112C71.9973 26.6925 71.7659 26.6637 71.5577 26.6248C70.9268 27.1043 70.6198 27.5967 70.6198 28.2619ZM75.5228 19.3826C75.5228 17.3857 74.8483 16.4297 73.8451 16.4297C72.8426 16.4297 72.1675 17.3857 72.1675 19.3826C72.1675 21.3797 72.8426 22.3357 73.8451 22.3357C74.8483 22.3357 75.5228 21.3797 75.5228 19.3826Z" fill="#FDFDFD"/>
<path d="M213.841 30.7119C213.841 32.4771 214.67 35.2002 217.343 35.2002C220.014 35.2002 220.844 32.4771 220.844 30.7128C220.844 28.9477 220.015 26.2245 217.343 26.2245C214.67 26.2245 213.841 28.9514 213.841 30.7128V30.7119ZM215.556 30.7119C215.556 28.8804 215.574 26.6822 217.343 26.6822C219.112 26.6822 219.13 28.8822 219.13 30.7128C219.13 32.5472 219.112 34.7625 217.344 34.7625C215.572 34.7625 215.556 32.5472 215.556 30.7128V30.7119ZM222.718 26.8574V34.555H221.445V34.9898H225.46V34.554H224.256V26.8574H225.691V26.4206H224.256V24.4811C224.256 23.4332 224.364 22.7377 225.176 22.7377C225.761 22.7377 225.971 23.1546 225.971 23.904C225.971 24.4612 226.184 24.7246 226.678 24.7246C227.068 24.7246 227.334 24.4612 227.334 23.9922C227.334 22.6287 225.989 22.3 225.087 22.3C223.957 22.3 222.719 22.7879 222.719 24.6905V26.4178H221.445V26.8555H222.719L222.718 26.8574ZM230.547 34.4137C231.466 34.9017 233.005 35.1651 234.031 35.1651C236.119 35.1651 237.763 34.2404 237.763 31.5864C237.763 26.8887 231.945 28.1811 231.945 25.0562C231.945 23.6795 233.13 22.7358 234.174 22.7358C235.57 22.7358 236.651 23.7989 236.862 25.7896H237.34L237.252 23.0485C236.436 22.6126 235.236 22.3151 234.352 22.3151C232.602 22.3151 230.726 23.363 230.726 25.7546C230.726 30.0676 236.527 28.8652 236.527 32.2317C236.527 33.9087 235.377 34.7454 234.121 34.7454C232.194 34.7454 231.026 33.434 230.902 31.2377H230.442L230.547 34.4137ZM239.856 34.555H238.546V34.9898H242.67V34.554H241.377V26.4206H238.545V26.8574H239.856V34.555ZM239.678 23.7127C239.678 24.3238 240.119 24.7616 240.615 24.7616C241.093 24.7616 241.553 24.3409 241.553 23.7127C241.553 23.0665 241.111 22.6648 240.615 22.6648C240.085 22.6648 239.678 23.0485 239.678 23.7127ZM242.828 34.555V34.9898H246.842V34.554H245.658V30.0155C245.658 28.3905 246.366 26.8565 247.762 26.8565C248.823 26.8565 248.966 27.8163 248.966 28.7742V34.554H247.78V34.9889H251.689V34.5531H250.504V28.6899C250.504 26.9437 249.761 26.2264 248.293 26.2264C247.055 26.2264 246.152 26.8906 245.694 28.0788H245.658V26.4206H242.828V26.8745H244.136V34.5568L242.828 34.555ZM255.384 26.2245C254.111 26.2245 252.925 27.2213 252.925 28.8623C252.925 29.6298 253.033 30.0847 253.438 30.7128C252.711 31.0274 252.092 31.6546 252.092 32.6855C252.092 33.6804 252.677 34.4517 253.596 34.6942V34.7283V34.7094C252.871 34.8676 252.128 35.3736 252.128 36.3865C252.128 38.4482 254.356 38.8292 255.647 38.8292C257.274 38.8292 259.254 38.0446 259.254 35.6872C259.254 33.7486 258.157 33.0152 256.636 33.0152H254.036C253.186 33.0152 252.674 32.8921 252.674 32.2496C252.674 31.6565 253.346 31.1487 253.79 31.1487C254.305 31.4996 254.914 31.6888 255.539 31.6916C256.955 31.6916 258.087 30.6086 258.087 28.8964C258.092 28.368 257.964 27.8465 257.713 27.3795C257.713 27.1692 257.979 26.8565 258.155 26.8565C258.685 26.8565 258.174 28.0087 258.971 28.0087C259.325 28.0087 259.518 27.6771 259.518 27.2412C259.518 26.5751 259.024 26.2254 258.567 26.2254C258.054 26.2254 257.715 26.5428 257.45 26.9437C256.939 26.4007 256.181 26.2245 255.384 26.2245ZM254.357 28.7923C254.357 27.7102 254.446 26.6641 255.542 26.6641C256.639 26.6641 256.639 28.0247 256.639 29.0196C256.639 29.9444 256.55 31.2368 255.489 31.2368C254.411 31.2368 254.357 29.718 254.357 28.7923ZM256.446 34.7283C257.861 34.7283 258.637 34.9719 258.637 36.1449C258.637 37.3823 257.418 38.3601 255.843 38.3601C254.304 38.3601 253.224 37.8892 253.224 36.4717C253.226 34.8515 254.34 34.7283 256.446 34.7283ZM264.527 33.8538C264.773 34.9017 265.359 34.9898 266.188 34.9898H267.338V34.554C266.489 34.554 266.155 34.7085 266.155 33.3848V28.7581C266.155 27.3075 265.643 26.2245 263.306 26.2245C262.103 26.2245 260.406 26.6111 260.406 28.2862C260.406 28.8112 260.706 28.9334 261.095 28.9334C261.573 28.9334 261.838 28.6492 261.838 28.0238C261.838 26.9247 262.545 26.6641 263.306 26.6641C264.297 26.6641 264.615 27.4487 264.615 28.6501V29.3854C262.723 30.0647 259.98 30.0837 259.98 32.7007C259.98 34.2916 260.529 35.2002 262.082 35.2002C263.075 35.2002 263.943 34.9017 264.527 33.8547V33.8538ZM264.616 29.8743V31.9C264.616 33.0882 264.03 34.6052 262.724 34.6052C261.908 34.6052 261.698 33.7164 261.698 32.6514C261.698 30.9402 262.369 30.5575 263.269 30.276L264.616 29.8743ZM267.445 38.83H271.618V38.3942H270.326V33.9949H270.344C270.68 34.8344 271.44 35.2002 272.292 35.2002C274.644 35.2002 275.632 33.0692 275.632 30.7128C275.632 27.4999 274.129 26.2245 272.537 26.2245C271.547 26.2245 270.821 26.5419 270.344 27.6221H270.326V26.4197H267.53V26.8735H268.788V38.3942H267.443L267.445 38.83ZM270.274 29.8932C270.274 27.3065 271.369 26.7674 272.061 26.7674C273.458 26.7674 273.937 28.4824 273.937 30.7128C273.937 33.2104 273.265 34.6572 272.061 34.6572C270.539 34.6572 270.274 32.8428 270.274 31.323V29.8932ZM276.694 30.7119C276.694 32.4771 277.524 35.2002 280.198 35.2002C282.868 35.2002 283.7 32.4771 283.7 30.7128C283.7 28.9477 282.868 26.2245 280.198 26.2245C277.524 26.2245 276.694 28.9514 276.694 30.7128V30.7119ZM278.41 30.7119C278.41 28.8804 278.429 26.6822 280.198 26.6822C281.966 26.6822 281.985 28.8822 281.985 30.7128C281.985 32.5472 281.966 34.7625 280.199 34.7625C278.428 34.7625 278.41 32.5472 278.41 30.7128V30.7119ZM285.608 34.555H284.3V34.9898H288.384V34.554H287.129V30.6266C287.129 28.7401 287.977 26.9437 288.808 26.9437C289.019 26.9437 289.18 27.0991 289.18 27.3464V28.165C289.18 28.7069 289.48 28.8822 289.888 28.8822C290.419 28.8822 290.665 28.3763 290.665 27.8002C290.665 26.7864 290.115 26.2274 289.232 26.2274C288.081 26.2274 287.483 27.3094 287.163 28.3251H287.129V26.4206H284.297V26.8584H285.606L285.608 34.555ZM297.634 30.1728C297.634 27.8343 296.449 26.2444 294.396 26.2444C292.204 26.2444 290.893 28.3583 290.893 30.7128C290.893 33.1745 291.796 35.2002 294.147 35.2002C295.827 35.2002 296.747 34.5872 297.401 32.5633L296.959 32.443C296.552 33.6274 295.918 34.6601 294.625 34.6601C292.677 34.6601 292.608 32.9319 292.608 30.4864V30.1718H297.635L297.634 30.1728ZM292.61 29.6829C292.61 28.6028 292.944 26.6822 294.237 26.6822C295.759 26.6822 295.829 28.4284 295.829 29.6829H292.61ZM214.901 17.4914H213.486V17.9272H217.024V17.4914H215.396V6.1782H215.432L219.447 18.1376H219.764L223.781 6.1782H223.816V17.4914H222.136V17.9272H226.892V17.4914H225.514V5.88068H226.892V5.44482H223.516L220.826 13.4578L220.224 15.3784L219.66 13.4929L216.953 5.44482H213.487V5.88068H214.901V17.4914ZM227.656 13.6521C227.656 15.4144 228.488 18.1376 231.158 18.1376C233.83 18.1376 234.662 15.4144 234.662 13.6521C234.662 11.8869 233.831 9.16662 231.158 9.16662C228.489 9.16662 227.656 11.886 227.656 13.6521ZM229.372 13.6521C229.372 11.8168 229.391 9.62047 231.159 9.62047C232.929 9.62047 232.947 11.8187 232.947 13.6521C232.947 15.4836 232.929 17.7027 231.159 17.7027C229.39 17.7027 229.372 15.4855 229.372 13.6521ZM235.26 17.4914V17.9263H239.275V17.4904H238.09V12.95C238.09 11.326 238.798 9.79102 240.194 9.79102C241.256 9.79102 241.397 10.7508 241.397 11.7125V17.4904H240.213V17.9253H244.12V17.4895H242.937V11.6245C242.937 9.8782 242.194 9.16283 240.725 9.16283C239.487 9.16283 238.585 9.82513 238.126 11.0152H238.09V9.35706H235.26V9.80808H236.568V17.4942H235.26V17.4914ZM251.46 13.1092C251.46 10.7707 250.277 9.18083 248.222 9.18083C246.031 9.18083 244.72 11.2937 244.72 13.6483C244.72 16.1109 245.624 18.1338 247.974 18.1338C249.654 18.1338 250.574 17.5236 251.227 15.4988L250.786 15.3756C250.379 16.5657 249.742 17.5947 248.451 17.5947C246.504 17.5947 246.435 15.8664 246.435 13.4219V13.1073L251.461 13.1092H251.46ZM246.437 12.6202C246.437 11.5382 246.773 9.61763 248.063 9.61763C249.585 9.61763 249.656 11.3648 249.656 12.6212L246.437 12.6202ZM251.904 9.79102H253.123V15.8835C253.123 17.0006 253.246 18.0343 254.822 18.0343C255.99 18.0343 256.539 17.4412 256.875 16.5145L256.468 16.3582C256.222 16.9143 255.937 17.4042 255.388 17.4042C254.787 17.4042 254.645 16.9143 254.645 15.8863V9.79197H256.326V9.37318H254.646V7.05179H253.122V9.37318H251.904V9.79102Z" fill="#FDFDFD"/>
<path d="M261.176 16.6089C261.424 17.6649 262.011 17.7546 262.848 17.7546H264.004V17.3154C263.149 17.3154 262.813 17.4701 262.813 16.1363V11.4721C262.813 10.0113 262.297 8.92285 259.949 8.92285C258.74 8.92285 257.031 9.30954 257.031 10.9986C257.031 11.5275 257.334 11.6487 257.725 11.6487C258.205 11.6487 258.472 11.3671 258.472 10.735C258.472 9.62748 259.184 9.36205 259.949 9.36205C260.947 9.36205 261.264 10.1545 261.264 11.3671V12.1061C259.362 12.7897 256.604 12.8098 256.604 15.4469C256.604 17.05 257.156 17.9637 258.721 17.9637C259.719 17.9637 260.59 17.6639 261.176 16.6089ZM261.265 12.5988V14.6391C261.265 15.8374 260.677 17.367 259.364 17.367C258.543 17.367 258.331 16.4685 258.331 15.3953C258.331 13.6719 259.006 13.2853 259.913 13.0026L261.264 12.5978L261.265 12.5988ZM265.429 17.3126H264.111V17.7508H268.221V17.3116H266.956V13.3531C266.956 11.4531 267.81 9.6418 268.646 9.6418C268.858 9.6418 269.02 9.79935 269.02 10.0476V10.8725C269.02 11.4187 269.321 11.5934 269.732 11.5934C270.265 11.5934 270.513 11.0873 270.513 10.5049C270.513 9.48331 269.961 8.92285 269.072 8.92285C267.915 8.92285 267.312 10.0113 266.991 11.0329H266.956V9.11763H264.108V9.55587H265.426L265.428 17.3135L265.429 17.3126Z" fill="#FDFDFD"/>
<path d="M273.446 18.5383C273.039 20.1099 272.473 20.8125 272.012 20.8125C271.57 20.8125 271.498 20.3549 271.498 19.9009C271.498 19.449 271.392 18.9941 270.844 18.9941C270.403 18.9941 270.156 19.3607 270.156 19.9722C270.156 20.7261 270.65 21.4422 271.554 21.4422C273.535 21.4422 273.784 18.7492 274.226 17.471L276.989 9.30084H278.068L278.087 8.88207H275.023V9.30084H276.475L274.917 14.0601C274.704 14.6726 274.542 15.3525 274.542 15.3525H274.491C274.491 15.3525 274.384 14.6878 274.172 14.0212L272.685 9.29799H274.068V8.88018H269.817V9.29799H270.95L273.729 17.4681L273.446 18.5383ZM281.179 17.0323H279.905V17.4681H283.358V17.0314H281.727L282.859 13.0241H285.728L286.878 17.0314H285.304V17.4681H290.156V17.0314H288.773L285.108 4.74951H284.72L281.179 17.0323ZM285.604 12.5722H282.968L283.887 9.36921L284.259 7.8119H284.347L284.7 9.36921L285.604 12.5722ZM295.181 17.4691H298.012V17.0323H296.719V8.89727H293.819V9.31698H295.181V13.8825C295.181 15.5101 294.473 17.0485 293.076 17.0485C292.031 17.0485 291.871 16.0846 291.871 15.1217V8.89631H289.145V9.31603H290.349V15.2129C290.349 16.962 291.075 17.6799 292.563 17.6799C293.784 17.6799 294.686 17.0152 295.163 15.8254H295.183L295.181 17.47V17.4691ZM298.223 9.31508H299.444V15.4209C299.444 16.5404 299.567 17.5764 301.144 17.5764C302.313 17.5764 302.86 16.982 303.199 16.0533L302.792 15.8966C302.544 16.454 302.261 16.945 301.71 16.945C301.11 16.945 300.967 16.454 300.967 15.4237V9.31603H302.648V8.89631H300.967V6.56985H299.444V8.89631H298.223V9.31508Z" fill="#FDFDFD"/>
<path d="M303.198 17.3269V17.7559H307.189V17.326H306.012V12.8476C306.012 11.2457 306.716 9.73169 308.103 9.73169C309.159 9.73169 309.3 10.6784 309.3 11.627V17.326H308.121V17.755H312.007V17.3251H310.83V11.5401C310.83 9.81767 310.091 9.11207 308.631 9.11207C307.401 9.11207 306.503 9.76533 306.048 10.9392H306.012V5.44482H303.198V5.87473H304.5V17.3288H303.198V17.3269ZM312.604 13.5401C312.604 15.2784 313.429 17.9643 316.087 17.9643C318.742 17.9643 319.568 15.2784 319.568 13.5401C319.568 11.7989 318.742 9.11581 316.087 9.11581C313.429 9.11581 312.604 11.7981 312.604 13.5401ZM314.309 13.5401C314.309 11.7298 314.327 9.56347 316.087 9.56347C317.845 9.56347 317.862 11.7317 317.862 13.5401C317.862 15.3465 317.845 17.5354 316.087 17.5354C314.327 17.5354 314.309 15.3484 314.309 13.5401ZM321.464 17.3269H320.163V17.7559H324.225V17.326H322.975V13.4513C322.975 11.5914 323.821 9.81861 324.646 9.81861C324.856 9.81861 325.016 9.97281 325.016 10.2158V11.0233C325.016 11.5578 325.315 11.7289 325.72 11.7289C326.247 11.7289 326.492 11.2335 326.492 10.6635C326.492 9.66346 325.946 9.11488 325.066 9.11488C323.923 9.11488 323.327 10.1803 323.009 11.1803H322.975V9.30553H320.161V9.73449H321.461L321.464 17.3269ZM327.915 17.3269H326.615V17.7559H330.713V17.326H329.429V9.30272H326.615V9.73263H327.915V17.3269ZM327.74 6.6336C327.74 7.2364 328.18 7.66536 328.672 7.66536C329.147 7.66536 329.605 7.25229 329.605 6.6336C329.605 5.99529 329.166 5.59997 328.672 5.59997C328.146 5.59997 327.74 5.97941 327.74 6.6336ZM330.941 9.73169H332.155V15.741C332.155 16.8428 332.277 17.8624 333.843 17.8624C335.005 17.8624 335.548 17.2774 335.884 16.3634L335.478 16.2092C335.233 16.7578 334.95 17.2409 334.406 17.2409C333.808 17.2409 333.667 16.7578 333.667 15.7437V9.73263H335.337V9.31954H333.667V7.02986H332.155V9.31954H330.941V9.73169Z" fill="#FDFDFD"/>
<path d="M338.85 18.5483C338.44 20.1145 337.868 20.8149 337.403 20.8149C336.957 20.8149 336.886 20.3587 336.886 19.9064C336.886 19.4559 336.779 19.0026 336.225 19.0026C335.777 19.0026 335.53 19.3679 335.53 19.9773C335.53 20.7288 336.031 21.4424 336.939 21.4424C338.94 21.4424 339.19 18.7584 339.637 17.4846L342.423 9.34209H343.515L343.533 8.92474H340.443V9.34209H341.907L340.335 14.0852C340.121 14.6957 339.958 15.3733 339.958 15.3733H339.905C339.905 15.3733 339.796 14.7108 339.582 14.0465L338.082 9.33925H339.476V8.92285H335.188V9.33925H336.332L339.136 17.4818L338.85 18.5483Z" fill="#FDFDFD"/>
<path d="M452.472 16.5022V20.2589H452.505C453.127 19.4431 454.014 19.035 455.167 19.035C455.682 19.035 456.169 19.119 456.627 19.2865C457.086 19.4541 457.494 19.7067 457.849 20.0449C458.205 20.3826 458.483 20.8047 458.684 21.3114C458.886 21.8179 458.986 22.4029 458.986 23.0663C458.986 23.814 458.848 24.5088 458.573 25.1506C458.297 25.7928 457.868 26.3068 457.285 26.6937C456.703 27.0802 455.98 27.2742 455.117 27.2742C453.871 27.2742 452.983 26.8775 452.454 26.0848H452.421V27.0688H450.054V16.5022H452.472ZM443.389 18.8144C447.989 18.8144 447.595 23.75 447.595 23.75H441.299C441.553 24.7322 442.4 25.3778 443.566 25.3778C444.971 25.3778 445.728 24.5298 445.728 24.5298L447.065 25.8944C446.377 26.577 445.453 27.2008 443.546 27.2008C440.597 27.2008 439.025 25.2511 439.025 23.1846C439.025 21.1181 440.204 18.8144 443.389 18.8144ZM500.665 18.8108C502.643 18.8108 503.902 19.5646 503.902 19.5646L503.089 21.3062C500.455 19.9417 499.262 20.9034 499.262 21.3841C499.262 21.8652 499.734 21.9042 501.568 22.2422C503.403 22.5804 504.256 23.3467 504.256 24.5815C504.256 25.8163 503.194 27.1812 500.599 27.1812C498.004 27.1812 496.824 26.3492 496.824 26.3492L497.611 24.6204C499.643 25.9074 501.948 25.4911 501.948 24.7248C501.948 24.1496 501.182 24.0276 500.356 23.9314L500.001 23.8904C499.844 23.8717 499.687 23.8519 499.537 23.8277C498.489 23.6587 496.93 23.1 496.93 21.4882C496.93 19.8766 498.686 18.8108 500.665 18.8108ZM489.078 15.9517V22.3335L492.518 19.0318H495.33L491.921 22.304L495.663 27.1814H492.872L490.312 23.8471L489.078 25.0312V27.1814H486.778V15.9517H489.078ZM480.835 18.7592C482.466 18.7592 483.895 19.5704 484.685 20.7864L482.74 21.9285C482.376 21.2372 481.659 20.767 480.835 20.767C479.64 20.767 478.672 21.7534 478.672 22.9701C478.672 24.1864 479.64 25.1732 480.835 25.1732C481.62 25.1732 482.307 24.7446 482.685 24.1054L484.638 25.2212C483.84 26.3989 482.436 27.1814 480.835 27.1814C478.349 27.1814 476.333 25.2957 476.333 22.9701C476.333 20.6441 478.349 18.7592 480.835 18.7592ZM470.146 18.7588C472.632 18.7588 474.648 20.6445 474.648 22.9697C474.648 25.2957 472.632 27.181 470.146 27.181C467.659 27.181 465.644 25.2957 465.644 22.9697C465.644 20.6445 467.659 18.7588 470.146 18.7588ZM429.273 18.9929V27.1035H426.776V18.9929H429.273ZM424.534 16.5363V18.5639H418.951V21.2544H423.885V23.2626H418.951V27.1033H416.454V16.5363H424.534ZM434.601 20.0064C434.601 20.0064 435.486 18.6222 437.313 18.837V21.0983C437.313 21.0983 435.328 20.5915 434.601 22.6387V27.1031H432.222V18.9928H434.496L434.601 19.9482V20.0064ZM463.265 15.9124V27.0445H460.748V15.9124H463.265ZM454.44 20.8171C453.06 20.8171 452.37 21.656 452.37 23.3345C452.37 23.9706 452.548 24.5042 452.903 24.9354C453.259 25.3662 453.795 25.5818 454.511 25.5818C454.989 25.5818 455.377 25.4573 455.675 25.2085C455.973 24.9592 456.184 24.6548 456.309 24.2944C456.434 23.9343 456.497 23.5746 456.497 23.2157C456.497 22.5259 456.333 21.9544 456.006 21.4994C455.679 21.0444 455.156 20.8171 454.44 20.8171ZM470.146 20.767C468.951 20.767 467.983 21.753 467.983 22.9697C467.983 24.1868 468.951 25.1732 470.146 25.1732C471.34 25.1732 472.308 24.1868 472.308 22.9697C472.308 21.753 471.34 20.767 470.146 20.767ZM443.428 20.5818C442.212 20.5818 441.535 21.331 441.307 22.3071H445.384C445.364 22.0533 444.962 20.5818 443.428 20.5818ZM428.024 15.1714C428.834 15.1714 429.492 15.7739 429.492 16.5167C429.492 17.2595 428.834 17.8619 428.024 17.8619C427.214 17.8619 426.556 17.2595 426.556 16.5167C426.556 15.7739 427.214 15.1714 428.024 15.1714Z" fill="#FDFDFD"/>
<path d="M408.111 13.2803C408.487 13.2803 408.792 13.5851 408.792 13.961V29.6187C408.792 29.9947 408.487 30.2995 408.111 30.2995H392.231C391.855 30.2995 391.55 29.9947 391.55 29.6187V13.961C391.55 13.5851 391.855 13.2803 392.231 13.2803H408.111ZM400.171 18.0078L395.381 25.572H404.96L400.171 18.0078Z" fill="#FDFDFD"/>
<path d="M586.507 9.54102C583.44 9.54102 581.689 11.2699 581.689 14.132C581.689 16.9044 583.44 18.694 586.447 18.694C589.216 18.694 590.831 17.2782 591.1 15.0272H589.006C588.811 16.3095 588.018 17.0846 586.462 17.0846C584.742 17.0846 583.725 16.0863 583.725 14.1179C583.725 12.1495 584.637 11.1512 586.462 11.1512C587.958 11.1512 588.736 11.8959 588.945 13.193H591.025C590.756 11.017 589.335 9.54102 586.507 9.54102Z" fill="#FDFDFD"/>
<path fill-rule="evenodd" clip-rule="evenodd" d="M596.456 18.694C599.388 18.694 601.183 16.9199 601.183 14.0875C601.183 11.1363 599.224 9.54102 596.456 9.54102C593.524 9.54102 591.729 11.1964 591.729 14.1475C591.729 17.0987 593.688 18.694 596.456 18.694ZM596.456 11.1505C598.072 11.1505 599.149 12.0894 599.149 14.1468C599.149 16.1442 598.161 17.0831 596.456 17.0831C594.84 17.0831 593.763 16.0841 593.763 14.0868C593.763 12.0894 594.751 11.1505 596.456 11.1505Z" fill="#FDFDFD"/>
<path d="M604.28 9.68912H602.275V18.5447H604.28V12.5371C604.804 11.5381 605.522 11.076 606.674 11.076C608.11 11.076 608.843 11.7324 608.843 13.1631V18.544H610.848V12.8791C610.848 10.7623 609.681 9.54004 607.616 9.54004C605.791 9.54004 604.788 10.4797 604.28 12.0447V9.68912Z" fill="#FDFDFD"/>
<path d="M613.781 15.831H611.687C611.911 17.6051 613.243 18.6938 616.116 18.6938C618.988 18.6938 620.2 17.5161 620.2 15.9363C620.2 14.5953 619.557 13.6704 617.612 13.4472L614.933 13.1342C614.141 13.0444 613.856 12.7315 613.856 12.21C613.856 11.5841 614.335 11.1072 615.861 11.1072C617.387 11.1072 617.91 11.6137 618.03 12.3888H620.11C619.855 10.7044 618.762 9.5415 615.921 9.5415C613.079 9.5415 611.926 10.749 611.926 12.3287C611.926 13.7149 612.659 14.55 614.619 14.7733L617.193 15.0715C618.046 15.176 618.27 15.5335 618.27 16.0104C618.27 16.6513 617.686 17.1281 616.16 17.1281C614.634 17.1281 613.946 16.7106 613.781 15.831Z" fill="#FDFDFD"/>
<path fill-rule="evenodd" clip-rule="evenodd" d="M620.963 14.1466C620.963 16.7402 622.579 18.693 625.601 18.693C628.129 18.693 629.685 17.5004 630.134 15.6819H628.084C627.785 16.5615 627.022 17.0829 625.66 17.0829C624.149 17.0829 623.177 16.2033 622.998 14.6235H630.193C630.208 11.5225 628.862 9.54004 625.616 9.54004C622.698 9.54004 620.963 11.4038 620.963 14.1466ZM628.084 13.267H623.028C623.282 11.8511 624.21 11.1057 625.601 11.1057C627.187 11.1057 627.949 11.9549 628.084 13.267Z" fill="#FDFDFD"/>
<path d="M633.185 9.68912H631.18V18.5447H633.185V12.5371C633.709 11.5381 634.426 11.076 635.578 11.076C637.014 11.076 637.748 11.7324 637.748 13.1631V18.544H639.752V12.8791C639.752 10.7623 638.585 9.54004 636.521 9.54004C634.695 9.54004 633.693 10.4797 633.185 12.0447V9.68912Z" fill="#FDFDFD"/>
<path d="M642.686 15.831H640.591C640.815 17.6051 642.148 18.6938 645.02 18.6938C647.892 18.6938 649.105 17.5161 649.105 15.9363C649.105 14.5953 648.461 13.6704 646.516 13.4472L643.838 13.1342C643.046 13.0444 642.761 12.7315 642.761 12.21C642.761 11.5841 643.24 11.1072 644.765 11.1072C646.292 11.1072 646.815 11.6137 646.935 12.3888H649.015C648.76 10.7044 647.667 9.5415 644.825 9.5415C641.983 9.5415 640.831 10.749 640.831 12.3287C640.831 13.7149 641.564 14.55 643.524 14.7733L646.097 15.0715C646.951 15.176 647.175 15.5335 647.175 16.0104C647.175 16.6513 646.591 17.1281 645.065 17.1281C643.539 17.1281 642.85 16.7106 642.686 15.831Z" fill="#FDFDFD"/>
<path d="M654.938 20.7209L658.663 9.68994H656.568L653.994 17.4412L651.316 9.68994H649.103L652.019 17.5755H653.949L653.456 19.0811H650.075V20.7209H654.938Z" fill="#FDFDFD"/>
<path d="M660.728 15.8315H658.633C658.857 17.6056 660.189 18.6943 663.062 18.6943C665.935 18.6943 667.147 17.5166 667.147 15.9367C667.147 14.5958 666.503 13.6709 664.558 13.4477L661.88 13.1347C661.087 13.0449 660.802 12.732 660.802 12.2105C660.802 11.5846 661.282 11.1077 662.807 11.1077C664.333 11.1077 664.856 11.6142 664.976 12.3893H667.056C666.802 10.7049 665.709 9.54199 662.867 9.54199C660.025 9.54199 658.872 10.7494 658.872 12.3292C658.872 13.7154 659.606 14.5505 661.566 14.7738L664.139 15.072C664.992 15.1765 665.216 15.534 665.216 16.0109C665.216 16.6518 664.633 17.1286 663.107 17.1286C661.58 17.1286 660.892 16.7111 660.728 15.8315Z" fill="#FDFDFD"/>
<path fill-rule="evenodd" clip-rule="evenodd" d="M577.064 21.865V18.5443V9.68945H568.177H564.844C558.096 9.68945 552.625 15.1403 552.625 21.8643C552.625 28.5883 558.096 34.0398 564.845 34.0398C571.593 34.0398 577.064 28.5889 577.064 21.865ZM562.067 15.7769L568.177 9.68945V18.5443H577.064L570.953 24.6345H562.067V15.7769Z" fill="#FDFDFD"/>
<path fill-rule="evenodd" clip-rule="evenodd" d="M764.441 33.5391H766.089L766.029 29.0236H766.059L768.395 33.5391H770.582V26.9145H768.964L768.994 31.4002H768.964L766.718 26.9145H764.441V33.5391ZM773.038 33.5391H774.805V28.2215H776.452V26.9145H771.39V28.2215H773.038V33.5391ZM777.261 33.5391H779.028V30.9248H779.388C780.047 30.9248 780.286 31.2219 780.646 32.3508L781.035 33.5391H782.892L782.233 31.7269C781.904 30.9248 781.874 30.4199 781.275 30.2713V30.2416C782.143 30.0336 782.563 29.4395 782.563 28.578C782.563 27.4491 781.604 26.9145 780.406 26.9145H777.231L777.261 33.5391ZM779.028 28.1621H779.507C780.196 28.1621 780.795 28.281 780.795 28.9048C780.795 29.6475 780.077 29.6772 779.507 29.6772H779.028V28.1621ZM721.968 33.5391H723.766L724.305 32.1131H726.821L727.33 33.5391H729.247L726.671 26.9145H724.484C724.514 26.9145 721.968 33.5391 721.968 33.5391ZM726.401 30.8655H724.724L725.593 28.281H725.623L726.401 30.8655ZM716.367 33.5391H719.183C720.381 33.5391 721.789 33.2123 721.789 31.6379C721.789 30.8358 721.339 30.3604 720.441 30.1822V30.1525C721.19 29.9148 721.609 29.4395 721.609 28.6077C721.609 27.4789 720.68 26.9145 719.452 26.9145H716.367V33.5391ZM718.134 30.7169H718.674C719.273 30.7169 719.991 30.7763 719.991 31.519C719.991 32.2023 719.303 32.2914 718.674 32.2914H718.134V30.7169ZM718.134 28.1621H718.644C719.243 28.1621 719.812 28.2215 719.812 28.8157C719.812 29.3801 719.213 29.5287 718.614 29.5287H718.134V28.1621ZM729.666 33.5391H731.314L731.254 29.0236H731.284L733.62 33.5391H735.836V26.9145H734.219L734.249 31.4002H734.219L731.943 26.9145H729.666V33.5391ZM742.336 31.9943C741.797 32.2023 741.228 32.3211 740.659 32.3508C739.371 32.3508 738.442 31.5487 738.442 30.2713C738.442 29.0236 739.281 28.1324 740.539 28.1324C741.138 28.1324 741.737 28.281 742.276 28.6077L742.426 27.1818C741.797 26.9738 741.108 26.855 740.449 26.8253C738.263 26.8253 736.615 27.9839 736.615 30.2713C736.615 32.7667 738.682 33.6579 740.449 33.6579C741.108 33.6579 741.797 33.5688 742.426 33.3905L742.336 31.9943ZM742.606 30.2119C742.606 32.3211 743.774 33.6282 745.96 33.6282C748.147 33.6282 749.315 32.3211 749.315 30.2119C749.315 28.1027 748.177 26.7956 745.96 26.7956C743.744 26.7956 742.606 28.1027 742.606 30.2119ZM744.433 30.2119C744.433 29.0534 744.852 28.1027 745.93 28.1027C747.009 28.1027 747.428 29.083 747.428 30.2119C747.428 31.3111 747.009 32.3211 745.93 32.3211C744.852 32.3211 744.433 31.3111 744.433 30.2119ZM757.822 31.9943C757.283 32.2023 756.713 32.3211 756.144 32.3508C754.856 32.3508 753.928 31.5487 753.928 30.2713C753.928 29.0236 754.767 28.1324 756.025 28.1324C756.624 28.1324 757.223 28.281 757.762 28.6077L757.912 27.1818C757.253 26.9738 756.594 26.855 755.905 26.8253C753.718 26.8253 752.071 27.9839 752.071 30.2713C752.071 32.7667 754.138 33.6579 755.905 33.6579C756.564 33.6579 757.253 33.5688 757.882 33.3905L757.822 31.9943ZM758.72 33.5391H763.543V32.2914H760.518V30.806H763.273V29.5583H760.518V28.1918H763.453V26.9442H758.75L758.72 33.5391ZM783.102 33.5391H784.899L785.438 32.1131H787.954L788.463 33.5391H790.41L787.834 26.9145H785.648L783.102 33.5391ZM787.505 30.8655H785.828L786.696 28.281H786.726L787.505 30.8655ZM790.8 33.5391H795.323V32.232H792.567V26.9145H790.8V33.5391ZM751.472 23.5873H758.151L760.248 21.5078H753.568V17.7944H754.826L756.923 15.7149H751.891V10.7539L749.794 12.8334V14.081H746.05V7.4564L743.954 9.53592V16.1606H747.728V19.8739H751.502V23.5873H751.472ZM758.99 8.70408V3.74307L761.087 1.66358V6.65434H766.089L763.992 8.73384L758.99 8.70408ZM753.568 1.66358H751.891V6.62464H756.893L754.797 8.70408H749.794V7.4564H747.698V5.79284L753.568 0V1.66358ZM766.089 15.7446V14.081H767.766L761.895 19.8739H760.218V17.7944H758.96V12.8334L761.057 10.7539V15.7446H766.089ZM731.164 43.4612H733.59C735.866 43.4612 737.544 42.5997 737.544 40.134C737.544 37.5792 735.926 36.8365 733.59 36.8365H731.164V43.4612ZM732.931 38.1437H733.62C734.908 38.1437 735.687 38.8269 735.687 40.134C735.687 41.4411 734.938 42.1244 733.62 42.1244H732.931C732.931 42.1541 732.931 38.1437 732.931 38.1437ZM737.933 40.1637C737.933 42.2729 739.101 43.58 741.288 43.58C743.474 43.58 744.643 42.2729 744.643 40.1637C744.643 38.0545 743.504 36.7474 741.288 36.7474C739.071 36.7474 737.933 38.0248 737.933 40.1637ZM739.76 40.1637C739.76 39.0051 740.18 38.0545 741.258 38.0545C742.336 38.0545 742.756 39.0349 742.756 40.1637C742.756 41.2628 742.336 42.2729 741.258 42.2729C740.18 42.2729 739.76 41.2332 739.76 40.1637ZM747.698 43.4612H750.513C751.711 43.4612 753.119 43.1344 753.119 41.5599C753.119 40.7579 752.67 40.2826 751.771 40.1043V40.0746C752.52 39.837 752.939 39.3616 752.939 38.5298C752.939 37.401 752.011 36.8365 750.783 36.8365H747.698V43.4612ZM749.495 40.639H750.034C750.633 40.639 751.352 40.6984 751.352 41.4114C751.352 42.0947 750.663 42.1838 750.034 42.1838H749.495V40.639ZM749.495 38.0842H750.004C750.603 38.0842 751.172 38.1437 751.172 38.7378C751.172 39.3022 750.573 39.4507 749.974 39.4507H749.465L749.495 38.0842ZM753.928 43.4612H755.695V40.847H756.055C756.713 40.847 756.953 41.144 757.313 42.2729L757.702 43.4612H759.559L758.9 41.6491C758.571 40.847 758.541 40.3419 757.942 40.1934V40.1637C758.81 39.9558 759.23 39.3914 759.23 38.5001C759.23 37.3713 758.271 36.8365 757.073 36.8365H753.898L753.928 43.4612ZM755.725 38.0842H756.204C756.893 38.0842 757.492 38.203 757.492 38.8269C757.492 39.5695 756.773 39.5993 756.204 39.5993H755.725V38.0842ZM759.769 43.4612H761.566L762.105 42.0352H764.591L765.1 43.4612H767.047L764.471 36.8365H762.285L759.769 43.4612ZM764.202 40.7875H762.524L763.393 38.203H763.423L764.202 40.7875ZM773.038 43.4612H774.805V36.8365H773.038V43.4612ZM776.033 43.4612H780.556V42.154H777.8V36.8365H776.033V43.4612ZM767.317 43.2829C767.976 43.4909 768.635 43.58 769.294 43.58C770.791 43.58 772.229 43.1047 772.229 41.3817C772.229 39.0051 769.084 39.7181 769.084 38.6487C769.084 38.0842 769.833 38.0248 770.282 38.0248C770.791 38.0248 771.3 38.1139 771.78 38.3219L771.9 36.9554C771.33 36.7771 770.761 36.688 770.162 36.7177C768.814 36.7177 767.257 37.1633 767.257 38.7378C767.257 41.144 770.402 40.3716 770.402 41.5896C770.402 42.1244 769.863 42.2432 769.294 42.2432C768.665 42.2432 768.036 42.0947 767.467 41.7976L767.317 43.2829Z" fill="#FDFDFD"/>
<path fill-rule="evenodd" clip-rule="evenodd" d="M846.75 29.9938C845.892 28.1715 845.414 26.1384 845.414 23.9943C845.414 16.1558 851.812 9.80149 859.705 9.80149C864.1 9.80149 868.031 11.7717 870.653 14.8712L872.217 13.5679C869.221 10.0257 864.728 7.77393 859.705 7.77393C850.685 7.77393 843.372 15.036 843.372 23.9943C843.372 26.4447 843.919 28.7683 844.899 30.8509L846.75 29.9938Z" fill="#FDFDFD"/>
<path fill-rule="evenodd" clip-rule="evenodd" d="M859.705 33.6251C854.349 33.6251 850.007 29.3133 850.007 23.9943C850.007 18.6753 854.349 14.3635 859.705 14.3635C862.687 14.3635 865.355 15.7008 867.134 17.804L868.698 16.5004C866.545 13.9544 863.315 12.3359 859.705 12.3359C853.222 12.3359 847.966 17.5556 847.966 23.9943C847.966 30.433 853.222 35.6527 859.705 35.6527V33.6251Z" fill="#FDFDFD"/>
<path fill-rule="evenodd" clip-rule="evenodd" d="M863.224 26.9261C862.381 27.9224 861.118 28.5558 859.705 28.5558C857.168 28.5558 855.111 26.5134 855.111 23.9938C855.111 21.4743 857.168 19.4318 859.705 19.4318C861.118 19.4318 862.381 20.0653 863.224 21.0616L864.983 19.5955C863.719 18.1011 861.824 17.1509 859.705 17.1509C855.899 17.1509 852.814 20.2146 852.814 23.9938C852.814 27.7731 855.899 30.8368 859.705 30.8368C861.647 30.8368 863.4 30.0384 864.653 28.7547L863.224 26.9261Z" fill="#FDFDFD"/>
<path fill-rule="evenodd" clip-rule="evenodd" d="M868.271 23.7577C868.731 23.3618 869.292 23.1633 869.955 23.1633C870.311 23.1633 870.621 23.2214 870.885 23.3371C871.149 23.4532 871.367 23.6085 871.539 23.8034C871.711 23.9986 871.836 24.224 871.916 24.48C871.996 24.736 872.036 25.0043 872.036 25.2846H867.507C867.555 24.663 867.81 24.154 868.271 23.7577ZM872.368 27.8814C872.122 28.2351 871.809 28.5123 871.429 28.7133C871.048 28.9145 870.581 29.0151 870.029 29.0151C869.71 29.0151 869.403 28.9602 869.108 28.8505C868.814 28.7408 868.55 28.5916 868.317 28.4025C868.083 28.2136 867.896 27.9881 867.755 27.7259C867.614 27.4638 867.531 27.1744 867.507 26.8573H874.227C874.239 26.7599 874.246 26.6624 874.246 26.5647V26.2722C874.246 25.4798 874.138 24.788 873.923 24.1965C873.709 23.6054 873.411 23.1117 873.03 22.7154C872.65 22.3194 872.199 22.0205 871.677 21.8193C871.155 21.6182 870.587 21.5176 869.974 21.5176C869.311 21.5176 868.694 21.6305 868.123 21.856C867.553 22.0816 867.058 22.3986 866.641 22.8069C866.224 23.2154 865.895 23.7091 865.656 24.2879C865.416 24.8672 865.297 25.5104 865.297 26.2172C865.297 26.9367 865.416 27.5795 865.656 28.1464C865.895 28.7133 866.227 29.1919 866.65 29.582C867.074 29.9723 867.574 30.2739 868.151 30.4871C868.728 30.7003 869.36 30.8072 870.047 30.8072C871.531 30.8072 872.7 30.3377 873.554 29.3993L872.368 27.8814Z" fill="#FDFDFD"/>
<path fill-rule="evenodd" clip-rule="evenodd" d="M875.644 21.7737H877.743V23.1817H877.78C877.976 22.7428 878.316 22.3559 878.801 22.0205C879.286 21.6854 879.86 21.5176 880.523 21.5176C881.1 21.5176 881.594 21.6182 882.005 21.8194C882.417 22.0205 882.754 22.2857 883.018 22.6148C883.282 22.944 883.475 23.322 883.598 23.7486C883.721 24.1754 883.782 24.6143 883.782 25.0652V30.5511H881.573V25.687C881.573 25.4309 881.554 25.1629 881.517 24.8823C881.481 24.6021 881.401 24.3491 881.278 24.1235C881.155 23.898 880.986 23.712 880.772 23.5658C880.557 23.4194 880.271 23.3462 879.915 23.3462C879.559 23.3462 879.253 23.4166 878.995 23.5566C878.737 23.6968 878.525 23.8766 878.36 24.0961C878.194 24.3155 878.068 24.5687 877.982 24.8548C877.896 25.1415 877.853 25.4309 877.853 25.7236V30.5511H875.644V21.7737Z" fill="#FDFDFD"/>
<path fill-rule="evenodd" clip-rule="evenodd" d="M884.722 23.5289V21.7733H886.268V19.2314H888.441V21.7733H890.651V23.5289H888.441V27.6067C888.441 27.9969 888.512 28.3199 888.653 28.5759C888.794 28.8319 889.11 28.9599 889.601 28.9599C889.749 28.9599 889.908 28.9448 890.08 28.9142C890.252 28.8839 890.405 28.8382 890.54 28.777L890.614 30.4959C890.417 30.5691 890.184 30.6268 889.914 30.6697C889.644 30.7122 889.386 30.7337 889.141 30.7337C888.552 30.7337 888.073 30.6514 887.705 30.4868C887.336 30.3222 887.045 30.0968 886.83 29.8102C886.615 29.524 886.468 29.1947 886.388 28.8227C886.308 28.451 886.268 28.0518 886.268 27.6249V23.5289H884.722Z" fill="#FDFDFD"/>
<path fill-rule="evenodd" clip-rule="evenodd" d="M891.977 21.7737H894.094V23.2365H894.131C894.376 22.7245 894.72 22.3103 895.162 21.9931C895.604 21.6762 896.119 21.5176 896.709 21.5176C896.794 21.5176 896.887 21.5207 896.985 21.5267C897.083 21.533 897.169 21.5482 897.243 21.5724V23.584C897.095 23.5475 896.969 23.5232 896.865 23.5109C896.761 23.4988 896.66 23.4926 896.561 23.4926C896.058 23.4926 895.653 23.584 895.346 23.7668C895.039 23.9497 894.8 24.1691 894.628 24.4252C894.456 24.6813 894.34 24.9435 894.278 25.2115C894.217 25.4798 894.186 25.6931 894.186 25.8515V30.5511H891.977V21.7737Z" fill="#FDFDFD"/>
<path fill-rule="evenodd" clip-rule="evenodd" d="M898.255 30.5513H900.465V21.7738H898.255V30.5513ZM897.942 18.7931C897.942 18.4397 898.074 18.132 898.338 17.8697C898.602 17.6076 898.937 17.4766 899.342 17.4766C899.747 17.4766 900.087 17.6016 900.364 17.8514C900.64 18.1014 900.778 18.4154 900.778 18.7931C900.778 19.1711 900.64 19.4852 900.364 19.7348C900.087 19.9849 899.747 20.1098 899.342 20.1098C898.937 20.1098 898.602 19.9789 898.338 19.7166C898.074 19.4546 897.942 19.1468 897.942 18.7931Z" fill="#FDFDFD"/>
<path fill-rule="evenodd" clip-rule="evenodd" d="M903.319 23.5291H901.644V21.7736H903.319V21.1172C903.319 20.5931 903.377 20.0903 903.494 19.6086C903.611 19.1271 903.807 18.7033 904.083 18.3376C904.36 17.9719 904.725 17.6824 905.179 17.469C905.633 17.2559 906.204 17.1489 906.891 17.1489C907.137 17.1489 907.343 17.1581 907.508 17.1764C907.674 17.1947 907.843 17.2284 908.015 17.277L907.867 19.1422C907.744 19.1056 907.612 19.0754 907.471 19.0508C907.33 19.0265 907.18 19.0142 907.02 19.0142C906.701 19.0142 906.443 19.0754 906.247 19.1971C906.05 19.319 905.9 19.4777 905.796 19.6725C905.691 19.8676 905.621 20.0811 905.584 20.3126C905.547 20.5443 905.529 20.7697 905.529 20.9891V21.7736H907.573V23.5291H905.529V30.551H903.319V23.5291Z" fill="#FDFDFD"/>
<path fill-rule="evenodd" clip-rule="evenodd" d="M916.816 30.5509H914.717V29.1429H914.681C914.485 29.5818 914.144 29.9689 913.659 30.304C913.174 30.6392 912.6 30.807 911.937 30.807C911.36 30.807 910.866 30.7064 910.455 30.5052C910.043 30.304 909.706 30.0389 909.442 29.7098C909.178 29.3806 908.984 29.0029 908.862 28.576C908.739 28.1493 908.678 27.7105 908.678 27.2594V21.7734H910.887V26.6376C910.887 26.8936 910.906 27.1619 910.943 27.4423C910.979 27.7228 911.059 27.9757 911.182 28.2011C911.304 28.4269 911.474 28.6125 911.688 28.7588C911.903 28.9051 912.189 28.9783 912.545 28.9783C912.888 28.9783 913.192 28.9083 913.457 28.768C913.72 28.628 913.935 28.448 914.101 28.2285C914.267 28.0091 914.392 27.7562 914.478 27.4697C914.564 27.1833 914.607 26.8936 914.607 26.601V21.7734H916.816V30.5509Z" fill="#FDFDFD"/>
<path fill-rule="evenodd" clip-rule="evenodd" d="M925.34 27.1465C925.218 27.4807 925.043 27.7753 924.815 28.0305C924.588 28.2856 924.312 28.489 923.987 28.641C923.661 28.7931 923.296 28.8687 922.891 28.8687C922.498 28.8687 922.146 28.79 921.833 28.6319C921.519 28.4739 921.255 28.2642 921.041 28.003C920.826 27.7418 920.66 27.447 920.544 27.119C920.427 26.791 920.369 26.451 920.369 26.0984C920.369 25.7098 920.427 25.3452 920.544 25.0049C920.66 24.6646 920.826 24.37 921.041 24.1209C921.255 23.8717 921.519 23.6743 921.833 23.5285C922.146 23.3828 922.505 23.3097 922.91 23.3097C923.315 23.3097 923.677 23.3828 923.996 23.5285C924.316 23.6743 924.588 23.8748 924.815 24.13C925.043 24.3852 925.218 24.6828 925.34 25.0228C925.463 25.3632 925.525 25.7218 925.525 26.0984C925.525 26.463 925.463 26.8124 925.34 27.1465ZM925.525 21.7737V23.0902H925.487C925.168 22.5539 924.739 22.1576 924.198 21.9017C923.659 21.6456 923.076 21.5176 922.449 21.5176C921.786 21.5176 921.188 21.6396 920.654 21.8834C920.12 22.1274 919.666 22.4565 919.292 22.8708C918.917 23.2854 918.629 23.7731 918.426 24.3337C918.224 24.8946 918.122 25.4921 918.122 26.1258C918.122 26.7476 918.226 27.3359 918.435 27.8904C918.644 28.4453 918.936 28.9299 919.31 29.3442C919.685 29.7588 920.141 30.088 920.682 30.3317C921.222 30.5754 921.823 30.6974 922.486 30.6974C923.1 30.6974 923.656 30.5835 924.153 30.3557C924.65 30.1279 925.058 29.7985 925.377 29.3674H925.414V30.0097C925.414 30.4503 925.368 30.854 925.276 31.2211C925.184 31.588 925.03 31.9063 924.815 32.1755C924.601 32.4446 924.312 32.6555 923.95 32.8087C923.588 32.9615 923.143 33.0381 922.616 33.0381C922.063 33.0381 921.517 32.9312 920.976 32.7181C920.451 32.5103 919.977 32.2128 919.556 31.8259L918.251 33.4953C918.533 33.7267 918.853 33.9341 919.209 34.117C919.565 34.2998 919.936 34.4521 920.323 34.5742C920.709 34.6959 921.102 34.7874 921.501 34.8484C921.9 34.9093 922.277 34.9398 922.633 34.9398C923.492 34.9398 924.236 34.8179 924.862 34.5742C925.487 34.3301 926.006 33.9858 926.417 33.541C926.829 33.0958 927.133 32.5535 927.329 31.9135C927.525 31.2734 927.624 30.5571 927.624 29.7648V21.7737H925.525Z" fill="#FDFDFD"/>
<path fill-rule="evenodd" clip-rule="evenodd" d="M931.956 23.7577C932.417 23.3618 932.978 23.1633 933.641 23.1633C933.997 23.1633 934.307 23.2214 934.571 23.3371C934.835 23.4532 935.052 23.6085 935.224 23.8034C935.396 23.9986 935.522 24.224 935.602 24.48C935.682 24.736 935.721 25.0043 935.721 25.2846H931.192C931.241 24.663 931.496 24.154 931.956 23.7577ZM936.053 27.8814C935.807 28.2351 935.495 28.5123 935.114 28.7133C934.733 28.9145 934.267 29.0151 933.714 29.0151C933.395 29.0151 933.089 28.9602 932.794 28.8505C932.499 28.7408 932.235 28.5916 932.002 28.4025C931.769 28.2136 931.581 27.9881 931.44 27.7259C931.299 27.4638 931.216 27.1744 931.192 26.8573H937.913C937.925 26.7599 937.931 26.6624 937.931 26.5647V26.2722C937.931 25.4798 937.824 24.788 937.609 24.1965C937.394 23.6054 937.096 23.1117 936.716 22.7154C936.335 22.3194 935.884 22.0205 935.363 21.8193C934.84 21.6182 934.273 21.5176 933.659 21.5176C932.997 21.5176 932.38 21.6305 931.809 21.856C931.238 22.0816 930.744 22.3986 930.326 22.8069C929.909 23.2154 929.581 23.7091 929.341 24.2879C929.102 24.8672 928.982 25.5104 928.982 26.2172C928.982 26.9367 929.102 27.5795 929.341 28.1464C929.581 28.7133 929.912 29.1919 930.336 29.582C930.759 29.9723 931.259 30.2739 931.836 30.4871C932.413 30.7003 933.046 30.8072 933.733 30.8072C935.217 30.8072 936.385 30.3377 937.24 29.3993L936.053 27.8814Z" fill="#FDFDFD"/>
<path d="M1034.43 25.9121C1034.8 26.0575 1035.35 26.1511 1036.07 26.1943V26.4981H1027.86V26.1943C1028.58 26.1511 1029.13 26.0575 1029.5 25.9121C1029.88 25.7681 1030.13 25.5363 1030.27 25.2167C1030.41 24.8985 1030.48 24.4277 1030.48 23.8057V14.1217H1030.42L1024.78 26.7803H1024.72L1018.68 14.1663H1018.61V23.8057C1018.61 24.4277 1018.69 24.8985 1018.84 25.2167C1018.98 25.5349 1019.24 25.7667 1019.61 25.9121C1019.97 26.0575 1020.51 26.1511 1021.24 26.1943V26.4981H1014.97V26.1943C1015.7 26.1511 1016.25 26.0575 1016.61 25.9121C1016.97 25.7681 1017.23 25.5363 1017.38 25.2167C1017.52 24.8985 1017.6 24.4277 1017.6 23.8057V14.1001C1017.6 13.4781 1017.53 13.0073 1017.38 12.6891C1017.23 12.3709 1016.97 12.1391 1016.61 11.9937C1016.24 11.8497 1015.7 11.7547 1014.97 11.7115V11.4077H1020.6L1025.73 22.34L1030.71 11.4077H1036.07V11.7115C1035.35 11.7547 1034.8 11.8497 1034.43 11.9937C1034.05 12.1391 1033.79 12.3738 1033.65 12.6992C1033.5 13.0246 1033.42 13.4911 1033.42 14.1001V23.8057C1033.42 24.4277 1033.5 24.8985 1033.65 25.2167C1033.79 25.5363 1034.05 25.7667 1034.43 25.9121ZM1045.59 18.5951C1046.05 19.4201 1046.28 20.3531 1046.28 21.3955C1046.28 22.4379 1046.05 23.3709 1045.59 24.1959C1045.13 25.0209 1044.49 25.6587 1043.66 26.1065C1042.84 26.5557 1041.9 26.7803 1040.85 26.7803C1039.79 26.7803 1038.86 26.5557 1038.04 26.1065C1037.22 25.6587 1036.58 25.0209 1036.12 24.1959C1035.65 23.3709 1035.41 22.4379 1035.41 21.3955C1035.41 20.3531 1035.65 19.4201 1036.12 18.5951C1036.58 17.7701 1037.22 17.1337 1038.04 16.6845C1038.86 16.2353 1039.79 16.0107 1040.85 16.0107C1041.9 16.0107 1042.84 16.2353 1043.66 16.6845C1044.49 17.1337 1045.13 17.7701 1045.59 18.5951ZM1043.36 21.3955C1043.36 20.3675 1043.26 19.4849 1043.06 18.7463C1042.86 18.0076 1042.57 17.4476 1042.19 17.0632C1041.82 16.6802 1041.37 16.4873 1040.85 16.4873C1040.33 16.4873 1039.88 16.6788 1039.5 17.0632C1039.12 17.4476 1038.83 18.0076 1038.63 18.7463C1038.43 19.4849 1038.33 20.3675 1038.33 21.3955C1038.33 22.4235 1038.43 23.3061 1038.63 24.0447C1038.83 24.7833 1039.12 25.3434 1039.5 25.7278C1039.88 26.1122 1040.33 26.3037 1040.85 26.3037C1041.37 26.3037 1041.82 26.1122 1042.19 25.7278C1042.57 25.3449 1042.86 24.7833 1043.06 24.0447C1043.26 23.3061 1043.36 22.4235 1043.36 21.3955ZM1053.83 18.3345C1054.22 18.3345 1054.57 18.3993 1054.88 18.5303V16.1417C1054.69 16.0553 1054.46 16.0121 1054.19 16.0121C1053.51 16.0121 1052.9 16.3058 1052.37 16.8918C1051.85 17.4778 1051.44 18.1517 1051.06 19.4935H1051V16.0985H1050.92L1046.51 17.3367V17.619C1047.01 17.619 1047.4 17.6665 1047.68 17.7601C1047.95 17.8536 1048.15 18.0062 1048.27 18.2165C1048.38 18.4267 1048.45 18.7117 1048.45 19.0745V24.4594C1048.45 24.9086 1048.4 25.2411 1048.31 25.4586C1048.22 25.676 1048.06 25.8387 1047.82 25.9466C1047.58 26.0547 1047.21 26.1382 1046.69 26.1957V26.4996H1052.88V26.1957C1052.36 26.1526 1051.97 26.0762 1051.71 25.9683C1051.45 25.8603 1051.27 25.6933 1051.16 25.4687C1051.06 25.2441 1051.01 24.9071 1051.01 24.4594V20.1919C1051.47 19.122 1052.5 18.3345 1053.83 18.3345ZM1086.33 25.4456C1086.24 25.221 1086.2 24.8855 1086.2 24.4363V19.4849C1086.2 17.1596 1084.88 16.0107 1083.15 16.0107C1081.42 16.0107 1080.3 17.2057 1079.83 17.8421H1079.78V16.0985H1079.69L1075.28 17.3367V17.619C1075.77 17.619 1076.16 17.6665 1076.44 17.7601C1076.72 17.8536 1076.93 18.0019 1077.04 18.205C1077.16 18.408 1077.22 18.6901 1077.22 19.0515V24.4349C1077.22 24.8841 1077.18 25.221 1077.09 25.4442C1077 25.6688 1076.84 25.8343 1076.6 25.9438C1076.36 26.0518 1075.98 26.1353 1075.46 26.1929V26.4967H1081.25V26.1929C1080.85 26.1353 1080.55 26.0518 1080.33 25.9438C1080.11 25.8358 1079.97 25.6688 1079.9 25.4442C1079.82 25.2196 1079.78 24.8841 1079.78 24.4349V18.6311C1080.3 18.0249 1080.9 17.4433 1081.88 17.4433C1083.22 17.4433 1083.64 18.4324 1083.64 19.5497V24.4349C1083.64 24.8841 1083.6 25.221 1083.52 25.4442C1083.43 25.6688 1083.29 25.8343 1083.09 25.9438C1082.89 26.0518 1082.58 26.1353 1082.17 26.1929V26.4967H1087.89V26.1929C1087.4 26.1353 1087.04 26.0518 1086.81 25.9438C1086.58 25.8358 1086.42 25.6703 1086.33 25.4456ZM1142.6 23.5019C1142.11 24.5486 1140.74 26.7803 1137.95 26.7803C1135.3 26.7803 1133.09 24.6667 1133.09 21.4833C1133.09 20.4841 1133.32 19.5655 1133.76 18.7261C1134.21 17.8867 1134.81 17.2244 1135.58 16.7392C1136.34 16.254 1137.18 16.0121 1138.11 16.0121C1140.78 16.0121 1142.11 17.8493 1142.11 19.7642V20.1961H1135.48C1135.48 20.235 1135.48 20.2724 1135.48 20.3114C1135.48 22.615 1136.53 24.828 1139.17 24.828C1141.18 24.828 1142.03 23.7424 1142.36 23.3522L1142.6 23.5019ZM1135.52 19.4633H1139.69C1139.66 17.8896 1139.18 16.5161 1137.86 16.5103C1136.63 16.506 1135.73 17.629 1135.52 19.4633ZM1113.06 25.4456C1112.98 25.221 1112.93 24.8855 1112.93 24.4363V19.4849C1112.93 18.7319 1112.8 18.0955 1112.54 17.5743C1112.28 17.0531 1111.92 16.6629 1111.46 16.4023C1111 16.1417 1110.47 16.0121 1109.88 16.0121C1109.2 16.0121 1108.59 16.182 1108.07 16.5218C1107.54 16.8616 1107.04 17.3512 1106.56 17.9875H1106.52V10.9009H1106.43L1102.02 12.1391V12.4213C1102.51 12.4213 1102.89 12.4688 1103.18 12.5624C1103.46 12.656 1103.66 12.8043 1103.78 13.0073C1103.9 13.2103 1103.96 13.4925 1103.96 13.8539V24.4349C1103.96 24.8841 1103.91 25.221 1103.82 25.4442C1103.74 25.6688 1103.57 25.8343 1103.33 25.9438C1103.1 26.0518 1102.72 26.1353 1102.2 26.1929V26.4967H1107.99V26.1929C1107.59 26.1353 1107.28 26.0518 1107.06 25.9438C1106.85 25.8358 1106.7 25.6688 1106.63 25.4442C1106.56 25.2196 1106.52 24.8841 1106.52 24.4349V18.6311C1107.03 18.0249 1107.63 17.4433 1108.61 17.4433C1109.16 17.4433 1109.59 17.6204 1109.91 17.9746C1110.22 18.3288 1110.37 18.8543 1110.37 19.5482V24.4349C1110.37 24.8841 1110.33 25.221 1110.25 25.4442C1110.17 25.6688 1110.03 25.8343 1109.83 25.9438C1109.63 26.0518 1109.32 26.1353 1108.9 26.1929V26.4967H1114.63V26.1929C1114.14 26.1353 1113.78 26.0518 1113.55 25.9438C1113.31 25.8358 1113.15 25.6703 1113.06 25.4456ZM1096.89 25.5608C1093.6 25.5824 1091 23.0081 1091 18.8312C1091 14.4168 1093.43 11.8425 1096.2 11.8425C1098.98 11.8425 1100.17 14.2801 1100.77 16.6744L1101.22 16.6672V12.2615C1100.17 11.6985 1098.46 11.0636 1095.98 11.0636C1091.18 11.0636 1087.57 14.4831 1087.57 19.0487C1087.57 23.3982 1090.59 26.8379 1095.78 26.8163C1098.64 26.7947 1100.64 25.1288 1101.59 23.8518L1101.28 23.5278C1100.64 24.242 1099.35 25.5392 1096.89 25.5608ZM1129.95 20.4625L1128.42 19.7455C1127.4 19.3006 1126.81 18.7117 1126.81 17.9875C1126.81 17.1669 1127.59 16.6053 1128.66 16.6053C1130.23 16.6053 1131.05 17.4519 1131.38 19.3337H1131.85V16.5981C1131.39 16.4239 1130.17 16.0121 1128.93 16.0121C1126.48 16.0121 1124.99 17.5138 1124.99 19.2473C1124.99 19.914 1125.17 20.4956 1125.53 20.9952C1125.9 21.4948 1126.44 21.9253 1127.17 22.2867L1128.77 23.0685C1129.87 23.5566 1130.31 24.0375 1130.31 24.7617C1130.31 25.5622 1129.65 26.1885 1128.4 26.1885C1126.56 26.1885 1125.69 24.4939 1125.45 23.1333H1124.99V25.9337C1125.69 26.3743 1127 26.7803 1128.22 26.7803C1130.57 26.7803 1132.21 25.3779 1132.21 23.394C1132.2 21.9642 1131.42 21.0701 1129.95 20.4625ZM1008.21 19.9197V23.8057C1008.21 24.4133 1008.3 24.8798 1008.48 25.2066C1008.66 25.532 1008.96 25.7681 1009.37 25.9121C1009.79 26.0575 1010.42 26.1511 1011.26 26.1943V26.4981H1002.64V26.1943C1003.37 26.1511 1003.92 26.0575 1004.28 25.9121C1004.64 25.7681 1004.9 25.5363 1005.05 25.2167C1005.2 24.8985 1005.27 24.4277 1005.27 23.8057V14.1663C1005.27 12.1809 1004.35 11.7777 1002.95 11.7777C1001.42 11.7777 1000.48 12.1794 1000.48 14.1015V24.887C1000.48 27.3246 998.859 29.6426 995.652 29.6426C995.403 29.6426 995.158 29.6282 994.916 29.6009V29.3403C995.678 29.2956 996.295 29.0437 996.765 28.5786C997.285 28.0646 997.545 27.2223 997.545 26.0489V14.1001C997.545 13.4925 997.471 13.0246 997.322 12.6992C997.173 12.3738 996.913 12.1391 996.542 11.9937C996.171 11.8497 995.629 11.7547 994.916 11.7115V11.4077H1010.14C1013.6 11.4077 1015.74 13.0951 1015.74 15.6421C1015.74 18.5577 1012.8 19.9197 1010.18 19.9197H1008.21ZM1008.21 19.3366H1009.27C1011.08 19.3366 1012.6 18.3057 1012.6 15.6637C1012.6 12.4343 1010.41 11.9908 1009.33 11.9908H1008.21V19.3366ZM1074.39 25.6313C1074.75 25.6313 1075.08 25.4745 1075.28 25.3391V25.8546C1074.87 26.2289 1074.11 26.7731 1072.96 26.7731C1072 26.7731 1071.19 26.1756 1070.97 25.2642H1070.91C1070.54 25.9582 1069.39 26.835 1068.13 26.835C1066.63 26.835 1065.52 25.856 1065.52 24.3672C1065.52 23.2039 1066.33 22.4293 1067.69 21.9599L1070.91 20.8282V19.3697C1070.91 18.0437 1069.93 17.4317 1068.86 17.4317C1067.78 17.4317 1066.77 17.881 1065.73 18.9205L1065.41 18.6354C1066.33 17.187 1067.8 16.0035 1069.91 16.0035C1071.92 16.0035 1073.53 17.2892 1073.51 19.3697L1073.47 24.5716C1073.47 25.3045 1073.78 25.6313 1074.39 25.6313ZM1070.91 21.5078L1069.62 22.0204C1068.61 22.4077 1067.97 22.8569 1067.97 23.8964C1067.97 24.7732 1068.59 25.3852 1069.47 25.3852C1069.93 25.3852 1070.6 25.0382 1070.92 24.6509V21.5078H1070.91ZM1123.55 25.6313C1123.92 25.6313 1124.25 25.473 1124.45 25.3391V25.8546C1124.04 26.2289 1123.28 26.7746 1122.13 26.7746C1121.17 26.7746 1120.35 26.177 1120.14 25.2656H1120.08C1119.7 25.9596 1118.55 26.8364 1117.3 26.8364C1115.79 26.8364 1114.68 25.8574 1114.68 24.3686C1114.68 23.2053 1115.5 22.4307 1116.86 21.9613L1120.08 20.8296V19.3697C1120.08 18.0437 1119.1 17.4317 1118.03 17.4317C1116.94 17.4317 1115.94 17.881 1114.89 18.9205L1114.58 18.6354C1115.5 17.187 1116.96 16.0035 1119.08 16.0035C1121.09 16.0035 1122.7 17.2892 1122.68 19.3697L1122.63 24.5716C1122.63 25.3045 1122.95 25.6313 1123.55 25.6313ZM1120.08 21.5078L1118.78 22.0204C1117.78 22.4077 1117.13 22.8569 1117.13 23.8964C1117.13 24.7732 1117.76 25.3852 1118.64 25.3852C1119.1 25.3852 1119.77 25.0382 1120.08 24.6509V21.5078H1120.08ZM1062.87 16.7248C1063.82 17.449 1064.24 18.4915 1064.24 19.3812C1064.24 21.718 1062.2 22.9288 1059.86 22.9288C1059.25 22.9288 1058.66 22.8439 1058.11 22.6769C1057.81 22.903 1057.55 23.1981 1057.55 23.5437C1057.55 24.2866 1058.8 24.4363 1059.54 24.4781L1062.07 24.648C1064.09 24.7761 1065.38 25.4759 1065.38 27.2396C1065.38 29.4698 1062.67 31.3185 1058.73 31.3185C1056.44 31.3185 1054.81 30.554 1054.81 29.1934C1054.81 28.0113 1055.48 27.3346 1057.19 26.5312C1056.07 26.213 1055.81 25.5608 1055.81 24.923C1055.81 24.0505 1056.61 23.2672 1057.69 22.5243C1056.4 21.9915 1055.48 20.9362 1055.48 19.3784C1055.48 17.0416 1057.53 15.8307 1059.86 15.8307C1060.94 15.8307 1061.79 16.0683 1062.45 16.4412C1062.94 15.4808 1063.91 14.3636 1065.64 14.3636V16.3577C1064.71 16.0784 1063.58 16.2238 1062.87 16.7248ZM1056.64 28.2619C1056.64 29.4943 1058.08 30.0458 1059.95 30.0458C1061.74 30.0458 1064.16 29.2596 1064.16 28.0056C1064.16 27.2828 1063.74 27.1129 1062.65 27.028L1058.27 26.7112C1058.02 26.6925 1057.79 26.6637 1057.58 26.6248C1056.95 27.1043 1056.64 27.5967 1056.64 28.2619ZM1061.54 19.3826C1061.54 17.3857 1060.87 16.4297 1059.86 16.4297C1058.86 16.4297 1058.19 17.3857 1058.19 19.3826C1058.19 21.3797 1058.86 22.3357 1059.86 22.3357C1060.87 22.3357 1061.54 21.3797 1061.54 19.3826Z" fill="#FDFDFD"/>
<path d="M1199.86 30.7119C1199.86 32.4771 1200.69 35.2002 1203.36 35.2002C1206.03 35.2002 1206.86 32.4771 1206.86 30.7128C1206.86 28.9477 1206.03 26.2245 1203.36 26.2245C1200.69 26.2245 1199.86 28.9514 1199.86 30.7128V30.7119ZM1201.58 30.7119C1201.58 28.8804 1201.59 26.6822 1203.36 26.6822C1205.13 26.6822 1205.15 28.8822 1205.15 30.7128C1205.15 32.5472 1205.13 34.7625 1203.36 34.7625C1201.59 34.7625 1201.58 32.5472 1201.58 30.7128V30.7119ZM1208.74 26.8574V34.555H1207.46V34.9898H1211.48V34.554H1210.28V26.8574H1211.71V26.4206H1210.28V24.4811C1210.28 23.4332 1210.38 22.7377 1211.2 22.7377C1211.78 22.7377 1211.99 23.1546 1211.99 23.904C1211.99 24.4612 1212.2 24.7246 1212.7 24.7246C1213.09 24.7246 1213.35 24.4612 1213.35 23.9922C1213.35 22.6287 1212.01 22.3 1211.11 22.3C1209.98 22.3 1208.74 22.7879 1208.74 24.6905V26.4178H1207.46V26.8555H1208.74L1208.74 26.8574ZM1216.57 34.4137C1217.49 34.9017 1219.02 35.1651 1220.05 35.1651C1222.14 35.1651 1223.78 34.2404 1223.78 31.5864C1223.78 26.8887 1217.96 28.1811 1217.96 25.0562C1217.96 23.6795 1219.15 22.7358 1220.19 22.7358C1221.59 22.7358 1222.67 23.7989 1222.88 25.7896H1223.36L1223.27 23.0485C1222.46 22.6126 1221.26 22.3151 1220.37 22.3151C1218.62 22.3151 1216.75 23.363 1216.75 25.7546C1216.75 30.0676 1222.55 28.8652 1222.55 32.2317C1222.55 33.9087 1221.4 34.7454 1220.14 34.7454C1218.21 34.7454 1217.05 33.434 1216.92 31.2377H1216.46L1216.57 34.4137ZM1225.88 34.555H1224.57V34.9898H1228.69V34.554H1227.4V26.4206H1224.56V26.8574H1225.88V34.555ZM1225.7 23.7127C1225.7 24.3238 1226.14 24.7616 1226.63 24.7616C1227.11 24.7616 1227.57 24.3409 1227.57 23.7127C1227.57 23.0665 1227.13 22.6648 1226.63 22.6648C1226.1 22.6648 1225.7 23.0485 1225.7 23.7127ZM1228.85 34.555V34.9898H1232.86V34.554H1231.68V30.0155C1231.68 28.3905 1232.39 26.8565 1233.78 26.8565C1234.84 26.8565 1234.99 27.8163 1234.99 28.7742V34.554H1233.8V34.9889H1237.71V34.5531H1236.52V28.6899C1236.52 26.9437 1235.78 26.2264 1234.31 26.2264C1233.07 26.2264 1232.17 26.8906 1231.71 28.0788H1231.68V26.4206H1228.85V26.8745H1230.16V34.5568L1228.85 34.555ZM1241.4 26.2245C1240.13 26.2245 1238.94 27.2213 1238.94 28.8623C1238.94 29.6298 1239.05 30.0847 1239.46 30.7128C1238.73 31.0274 1238.11 31.6546 1238.11 32.6855C1238.11 33.6804 1238.7 34.4517 1239.62 34.6942V34.7283V34.7094C1238.89 34.8676 1238.15 35.3736 1238.15 36.3865C1238.15 38.4482 1240.38 38.8292 1241.67 38.8292C1243.29 38.8292 1245.27 38.0446 1245.27 35.6872C1245.27 33.7486 1244.18 33.0152 1242.66 33.0152H1240.06C1239.21 33.0152 1238.69 32.8921 1238.69 32.2496C1238.69 31.6565 1239.37 31.1487 1239.81 31.1487C1240.32 31.4996 1240.93 31.6888 1241.56 31.6916C1242.97 31.6916 1244.11 30.6086 1244.11 28.8964C1244.11 28.368 1243.98 27.8465 1243.73 27.3795C1243.73 27.1692 1244 26.8565 1244.17 26.8565C1244.7 26.8565 1244.19 28.0087 1244.99 28.0087C1245.34 28.0087 1245.54 27.6771 1245.54 27.2412C1245.54 26.5751 1245.04 26.2254 1244.59 26.2254C1244.07 26.2254 1243.73 26.5428 1243.47 26.9437C1242.96 26.4007 1242.2 26.2245 1241.4 26.2245ZM1240.38 28.7923C1240.38 27.7102 1240.47 26.6641 1241.56 26.6641C1242.66 26.6641 1242.66 28.0247 1242.66 29.0196C1242.66 29.9444 1242.57 31.2368 1241.51 31.2368C1240.43 31.2368 1240.38 29.718 1240.38 28.7923ZM1242.47 34.7283C1243.88 34.7283 1244.66 34.9719 1244.66 36.1449C1244.66 37.3823 1243.44 38.3601 1241.86 38.3601C1240.32 38.3601 1239.24 37.8892 1239.24 36.4717C1239.25 34.8515 1240.36 34.7283 1242.47 34.7283ZM1250.55 33.8538C1250.79 34.9017 1251.38 34.9898 1252.21 34.9898H1253.36V34.554C1252.51 34.554 1252.17 34.7085 1252.17 33.3848V28.7581C1252.17 27.3075 1251.66 26.2245 1249.33 26.2245C1248.12 26.2245 1246.43 26.6111 1246.43 28.2862C1246.43 28.8112 1246.73 28.9334 1247.11 28.9334C1247.59 28.9334 1247.86 28.6492 1247.86 28.0238C1247.86 26.9247 1248.56 26.6641 1249.33 26.6641C1250.32 26.6641 1250.63 27.4487 1250.63 28.6501V29.3854C1248.74 30.0647 1246 30.0837 1246 32.7007C1246 34.2916 1246.55 35.2002 1248.1 35.2002C1249.09 35.2002 1249.96 34.9017 1250.55 33.8547V33.8538ZM1250.64 29.8743V31.9C1250.64 33.0882 1250.05 34.6052 1248.74 34.6052C1247.93 34.6052 1247.72 33.7164 1247.72 32.6514C1247.72 30.9402 1248.39 30.5575 1249.29 30.276L1250.64 29.8743ZM1253.46 38.83H1257.64V38.3942H1256.35V33.9949H1256.36C1256.7 34.8344 1257.46 35.2002 1258.31 35.2002C1260.66 35.2002 1261.65 33.0692 1261.65 30.7128C1261.65 27.4999 1260.15 26.2245 1258.56 26.2245C1257.57 26.2245 1256.84 26.5419 1256.36 27.6221H1256.35V26.4197H1253.55V26.8735H1254.81V38.3942H1253.46L1253.46 38.83ZM1256.29 29.8932C1256.29 27.3065 1257.39 26.7674 1258.08 26.7674C1259.48 26.7674 1259.96 28.4824 1259.96 30.7128C1259.96 33.2104 1259.28 34.6572 1258.08 34.6572C1256.56 34.6572 1256.29 32.8428 1256.29 31.323V29.8932ZM1262.71 30.7119C1262.71 32.4771 1263.54 35.2002 1266.22 35.2002C1268.89 35.2002 1269.72 32.4771 1269.72 30.7128C1269.72 28.9477 1268.89 26.2245 1266.22 26.2245C1263.54 26.2245 1262.71 28.9514 1262.71 30.7128V30.7119ZM1264.43 30.7119C1264.43 28.8804 1264.45 26.6822 1266.22 26.6822C1267.99 26.6822 1268 28.8822 1268 30.7128C1268 32.5472 1267.99 34.7625 1266.22 34.7625C1264.45 34.7625 1264.43 32.5472 1264.43 30.7128V30.7119ZM1271.63 34.555H1270.32V34.9898H1274.4V34.554H1273.15V30.6266C1273.15 28.7401 1274 26.9437 1274.83 26.9437C1275.04 26.9437 1275.2 27.0991 1275.2 27.3464V28.165C1275.2 28.7069 1275.5 28.8822 1275.91 28.8822C1276.44 28.8822 1276.68 28.3763 1276.68 27.8002C1276.68 26.7864 1276.13 26.2274 1275.25 26.2274C1274.1 26.2274 1273.5 27.3094 1273.18 28.3251H1273.15V26.4206H1270.32V26.8584H1271.63L1271.63 34.555ZM1283.65 30.1728C1283.65 27.8343 1282.47 26.2444 1280.42 26.2444C1278.22 26.2444 1276.91 28.3583 1276.91 30.7128C1276.91 33.1745 1277.82 35.2002 1280.17 35.2002C1281.85 35.2002 1282.77 34.5872 1283.42 32.5633L1282.98 32.443C1282.57 33.6274 1281.94 34.6601 1280.64 34.6601C1278.7 34.6601 1278.63 32.9319 1278.63 30.4864V30.1718H1283.65L1283.65 30.1728ZM1278.63 29.6829C1278.63 28.6028 1278.96 26.6822 1280.26 26.6822C1281.78 26.6822 1281.85 28.4284 1281.85 29.6829H1278.63ZM1200.92 17.4914H1199.51V17.9272H1203.04V17.4914H1201.42V6.1782H1201.45L1205.47 18.1376H1205.78L1209.8 6.1782H1209.84V17.4914H1208.16V17.9272H1212.91V17.4914H1211.53V5.88068H1212.91V5.44482H1209.54L1206.85 13.4578L1206.24 15.3784L1205.68 13.4929L1202.97 5.44482H1199.51V5.88068H1200.92V17.4914ZM1213.68 13.6521C1213.68 15.4144 1214.51 18.1376 1217.18 18.1376C1219.85 18.1376 1220.68 15.4144 1220.68 13.6521C1220.68 11.8869 1219.85 9.16662 1217.18 9.16662C1214.51 9.16662 1213.68 11.886 1213.68 13.6521ZM1215.39 13.6521C1215.39 11.8168 1215.41 9.62047 1217.18 9.62047C1218.95 9.62047 1218.97 11.8187 1218.97 13.6521C1218.97 15.4836 1218.95 17.7027 1217.18 17.7027C1215.41 17.7027 1215.39 15.4855 1215.39 13.6521ZM1221.28 17.4914V17.9263H1225.29V17.4904H1224.11V12.95C1224.11 11.326 1224.82 9.79102 1226.21 9.79102C1227.28 9.79102 1227.42 10.7508 1227.42 11.7125V17.4904H1226.23V17.9253H1230.14V17.4895H1228.96V11.6245C1228.96 9.8782 1228.21 9.16283 1226.74 9.16283C1225.51 9.16283 1224.6 9.82513 1224.15 11.0152H1224.11V9.35706H1221.28V9.80808H1222.59V17.4942H1221.28V17.4914ZM1237.48 13.1092C1237.48 10.7707 1236.3 9.18083 1234.24 9.18083C1232.05 9.18083 1230.74 11.2937 1230.74 13.6483C1230.74 16.1109 1231.64 18.1338 1233.99 18.1338C1235.67 18.1338 1236.59 17.5236 1237.25 15.4988L1236.81 15.3756C1236.4 16.5657 1235.76 17.5947 1234.47 17.5947C1232.52 17.5947 1232.45 15.8664 1232.45 13.4219V13.1073L1237.48 13.1092H1237.48ZM1232.46 12.6202C1232.46 11.5382 1232.79 9.61763 1234.08 9.61763C1235.6 9.61763 1235.68 11.3648 1235.68 12.6212L1232.46 12.6202ZM1237.92 9.79102H1239.14V15.8835C1239.14 17.0006 1239.27 18.0343 1240.84 18.0343C1242.01 18.0343 1242.56 17.4412 1242.89 16.5145L1242.49 16.3582C1242.24 16.9143 1241.96 17.4042 1241.41 17.4042C1240.81 17.4042 1240.66 16.9143 1240.66 15.8863V9.79197H1242.35V9.37318H1240.67V7.05179H1239.14V9.37318H1237.92V9.79102Z" fill="#FDFDFD"/>
<path d="M1247.2 16.6089C1247.44 17.6649 1248.03 17.7546 1248.87 17.7546H1250.02V17.3154C1249.17 17.3154 1248.83 17.4701 1248.83 16.1363V11.4721C1248.83 10.0113 1248.32 8.92285 1245.97 8.92285C1244.76 8.92285 1243.05 9.30954 1243.05 10.9986C1243.05 11.5275 1243.35 11.6487 1243.74 11.6487C1244.22 11.6487 1244.49 11.3671 1244.49 10.735C1244.49 9.62748 1245.2 9.36205 1245.97 9.36205C1246.97 9.36205 1247.28 10.1545 1247.28 11.3671V12.1061C1245.38 12.7897 1242.62 12.8098 1242.62 15.4469C1242.62 17.05 1243.18 17.9637 1244.74 17.9637C1245.74 17.9637 1246.61 17.6639 1247.2 16.6089ZM1247.28 12.5988V14.6391C1247.28 15.8374 1246.7 17.367 1245.38 17.367C1244.56 17.367 1244.35 16.4685 1244.35 15.3953C1244.35 13.6719 1245.03 13.2853 1245.93 13.0026L1247.28 12.5978L1247.28 12.5988ZM1251.45 17.3126H1250.13V17.7508H1254.24V17.3116H1252.98V13.3531C1252.98 11.4531 1253.83 9.6418 1254.67 9.6418C1254.88 9.6418 1255.04 9.79935 1255.04 10.0476V10.8725C1255.04 11.4187 1255.34 11.5934 1255.75 11.5934C1256.28 11.5934 1256.53 11.0873 1256.53 10.5049C1256.53 9.48331 1255.98 8.92285 1255.09 8.92285C1253.93 8.92285 1253.33 10.0113 1253.01 11.0329H1252.98V9.11763H1250.13V9.55587H1251.45L1251.45 17.3135L1251.45 17.3126Z" fill="#FDFDFD"/>
<path d="M1259.47 18.5383C1259.06 20.1099 1258.49 20.8125 1258.03 20.8125C1257.59 20.8125 1257.52 20.3549 1257.52 19.9009C1257.52 19.449 1257.41 18.9941 1256.86 18.9941C1256.42 18.9941 1256.18 19.3607 1256.18 19.9722C1256.18 20.7261 1256.67 21.4422 1257.57 21.4422C1259.55 21.4422 1259.8 18.7492 1260.25 17.471L1263.01 9.30084H1264.09L1264.11 8.88207H1261.04V9.30084H1262.49L1260.94 14.0601C1260.72 14.6726 1260.56 15.3525 1260.56 15.3525H1260.51C1260.51 15.3525 1260.4 14.6878 1260.19 14.0212L1258.7 9.29799H1260.09V8.88018H1255.84V9.29799H1256.97L1259.75 17.4681L1259.47 18.5383ZM1267.2 17.0323H1265.92V17.4681H1269.38V17.0314H1267.75L1268.88 13.0241H1271.75L1272.9 17.0314H1271.32V17.4681H1276.18V17.0314H1274.79L1271.13 4.74951H1270.74L1267.2 17.0323ZM1271.62 12.5722H1268.99L1269.91 9.36921L1270.28 7.8119H1270.37L1270.72 9.36921L1271.62 12.5722ZM1281.2 17.4691H1284.03V17.0323H1282.74V8.89727H1279.84V9.31698H1281.2V13.8825C1281.2 15.5101 1280.49 17.0485 1279.1 17.0485C1278.05 17.0485 1277.89 16.0846 1277.89 15.1217V8.89631H1275.16V9.31603H1276.37V15.2129C1276.37 16.962 1277.1 17.6799 1278.58 17.6799C1279.8 17.6799 1280.71 17.0152 1281.18 15.8254H1281.2L1281.2 17.47V17.4691ZM1284.24 9.31508H1285.46V15.4209C1285.46 16.5404 1285.59 17.5764 1287.16 17.5764C1288.33 17.5764 1288.88 16.982 1289.22 16.0533L1288.81 15.8966C1288.56 16.454 1288.28 16.945 1287.73 16.945C1287.13 16.945 1286.99 16.454 1286.99 15.4237V9.31603H1288.67V8.89631H1286.99V6.56985H1285.46V8.89631H1284.24V9.31508Z" fill="#FDFDFD"/>
<path d="M1289.22 17.3269V17.7559H1293.21V17.326H1292.03V12.8476C1292.03 11.2457 1292.74 9.73169 1294.12 9.73169C1295.18 9.73169 1295.32 10.6784 1295.32 11.627V17.326H1294.14V17.755H1298.03V17.3251H1296.85V11.5401C1296.85 9.81767 1296.11 9.11207 1294.65 9.11207C1293.42 9.11207 1292.52 9.76533 1292.07 10.9392H1292.03V5.44482H1289.22V5.87473H1290.52V17.3288H1289.22V17.3269ZM1298.62 13.5401C1298.62 15.2784 1299.45 17.9643 1302.11 17.9643C1304.76 17.9643 1305.59 15.2784 1305.59 13.5401C1305.59 11.7989 1304.76 9.11581 1302.11 9.11581C1299.45 9.11581 1298.62 11.7981 1298.62 13.5401ZM1300.33 13.5401C1300.33 11.7298 1300.35 9.56347 1302.11 9.56347C1303.86 9.56347 1303.88 11.7317 1303.88 13.5401C1303.88 15.3465 1303.86 17.5354 1302.11 17.5354C1300.35 17.5354 1300.33 15.3484 1300.33 13.5401ZM1307.48 17.3269H1306.18V17.7559H1310.24V17.326H1308.99V13.4513C1308.99 11.5914 1309.84 9.81861 1310.67 9.81861C1310.88 9.81861 1311.04 9.97281 1311.04 10.2158V11.0233C1311.04 11.5578 1311.33 11.7289 1311.74 11.7289C1312.27 11.7289 1312.51 11.2335 1312.51 10.6635C1312.51 9.66346 1311.97 9.11488 1311.09 9.11488C1309.94 9.11488 1309.35 10.1803 1309.03 11.1803H1308.99V9.30553H1306.18V9.73449H1307.48L1307.48 17.3269ZM1313.94 17.3269H1312.63V17.7559H1316.73V17.326H1315.45V9.30272H1312.63V9.73263H1313.94V17.3269ZM1313.76 6.6336C1313.76 7.2364 1314.2 7.66536 1314.69 7.66536C1315.17 7.66536 1315.62 7.25229 1315.62 6.6336C1315.62 5.99529 1315.19 5.59997 1314.69 5.59997C1314.17 5.59997 1313.76 5.97941 1313.76 6.6336ZM1316.96 9.73169H1318.17V15.741C1318.17 16.8428 1318.3 17.8624 1319.86 17.8624C1321.02 17.8624 1321.57 17.2774 1321.9 16.3634L1321.5 16.2092C1321.25 16.7578 1320.97 17.2409 1320.43 17.2409C1319.83 17.2409 1319.69 16.7578 1319.69 15.7437V9.73263H1321.36V9.31954H1319.69V7.02986H1318.17V9.31954H1316.96V9.73169Z" fill="#FDFDFD"/>
<path d="M1324.87 18.5483C1324.46 20.1145 1323.89 20.8149 1323.42 20.8149C1322.98 20.8149 1322.91 20.3587 1322.91 19.9064C1322.91 19.4559 1322.8 19.0026 1322.24 19.0026C1321.8 19.0026 1321.55 19.3679 1321.55 19.9773C1321.55 20.7288 1322.05 21.4424 1322.96 21.4424C1324.96 21.4424 1325.21 18.7584 1325.66 17.4846L1328.44 9.34209H1329.53L1329.55 8.92474H1326.46V9.34209H1327.93L1326.35 14.0852C1326.14 14.6957 1325.98 15.3733 1325.98 15.3733H1325.92C1325.92 15.3733 1325.82 14.7108 1325.6 14.0465L1324.1 9.33925H1325.5V8.92285H1321.21V9.33925H1322.35L1325.16 17.4818L1324.87 18.5483Z" fill="#FDFDFD"/>
</svg>
