<svg width="403" height="332" viewBox="0 0 403 332" fill="none" xmlns="http://www.w3.org/2000/svg">
<path d="M201.832 174.584L201.253 174.174L200.675 174.584C200.152 174.955 199.607 175.293 199.041 175.596L199.514 176.478C198.316 177.12 197.036 177.616 195.702 177.945L195.463 176.974C194.844 177.127 194.214 177.241 193.574 177.314C192.955 177.386 192.338 177.465 191.722 177.554L191.864 178.544C190.648 178.718 189.439 178.926 188.239 179.167L188.042 178.186C186.82 178.432 185.606 178.711 184.403 179.023L184.654 179.991C183.465 180.299 182.287 180.639 181.12 181.013L180.815 180.06C179.629 180.439 178.454 180.851 177.291 181.295L177.648 182.229C176.502 182.667 175.369 183.136 174.249 183.637L173.841 182.724C172.705 183.232 171.583 183.772 170.476 184.342L170.934 185.231C169.845 185.793 168.771 186.385 167.713 187.007L167.206 186.145C166.134 186.776 165.078 187.437 164.041 188.127L164.595 188.96C163.575 189.638 162.574 190.346 161.591 191.083L160.991 190.282C160.493 190.655 160 191.035 159.512 191.423C159.008 191.823 158.481 192.188 157.936 192.517L158.453 193.373C157.278 194.084 156.022 194.638 154.721 195.031L154.432 194.073C153.818 194.259 153.193 194.405 152.561 194.513L151.862 194.632L151.743 195.331C151.635 195.962 151.489 196.587 151.303 197.202L152.261 197.49C151.868 198.792 151.313 200.048 150.603 201.223L149.747 200.706C149.418 201.251 149.052 201.778 148.652 202.282C148.221 202.825 147.798 203.375 147.384 203.931L148.187 204.528C147.37 205.626 146.588 206.747 145.843 207.889L145.005 207.343C144.247 208.506 143.526 209.691 142.842 210.896L143.712 211.389C143.038 212.579 142.401 213.788 141.802 215.015L140.903 214.576C140.295 215.823 139.726 217.088 139.196 218.369L140.12 218.751C139.598 220.014 139.115 221.292 138.672 222.585L137.726 222.261C137.277 223.572 136.868 224.898 136.501 226.236L137.465 226.501C137.104 227.817 136.782 229.145 136.502 230.484L135.524 230.279C135.24 231.635 134.998 233.001 134.799 234.375L135.788 234.519C135.593 235.868 135.438 237.226 135.326 238.59L134.329 238.508C134.272 239.199 134.226 239.891 134.191 240.584C134.158 241.227 134.084 241.863 133.971 242.49L134.955 242.667C134.711 244.019 134.297 245.327 133.732 246.561L132.823 246.145C132.289 247.313 131.611 248.41 130.809 249.408L131.588 250.035C130.735 251.095 129.75 252.051 128.652 252.871L128.054 252.07C127.04 252.827 125.923 253.461 124.722 253.945L125.096 254.873C123.858 255.371 122.536 255.72 121.145 255.894L121.021 254.902C120.397 254.98 119.757 255.02 119.103 255.02H117.154V256.02H113.257V255.02H109.359V256.02H105.462V255.02H101.565V256.02H97.6674V255.02H93.7701V256.02H89.8728V255.02H85.9754V256.02L82.0781 256.02V255.02H78.1808V256.02H74.2835V255.02H70.3861V256.02H66.4888V255.02H62.5915L62.5915 256.02H58.6941V255.02H54.7968L54.7968 256.02H50.8995V255.02H48.9508C48.2808 255.02 47.6194 254.976 46.9697 254.889L46.8375 255.88C45.4171 255.691 44.0484 255.313 42.7609 254.771L43.1487 253.85C41.9209 253.333 40.7716 252.657 39.7301 251.846L39.1155 252.634C38.0019 251.767 37.0041 250.754 36.1534 249.621L36.953 249.021C36.1647 247.971 35.5117 246.812 35.0221 245.568L34.0915 245.934C33.5846 244.645 33.2413 243.27 33.0893 241.83L34.0838 241.725C34.0154 241.077 33.9883 240.414 34.0056 239.739C34.0222 239.088 34.0426 238.437 34.0669 237.787L33.0676 237.75C33.1163 236.441 33.1804 235.133 33.2595 233.828L34.2577 233.889C34.3365 232.588 34.4304 231.291 34.5394 229.995L33.5429 229.911C33.6527 228.606 33.7776 227.303 33.9176 226.003L34.9119 226.11C35.0513 224.815 35.2057 223.523 35.375 222.234L34.3835 222.104C34.554 220.805 34.7397 219.509 34.9402 218.217L35.9284 218.37C36.128 217.083 36.3426 215.8 36.5719 214.52L35.5875 214.344C35.8185 213.054 36.0644 211.769 36.3251 210.487L37.3051 210.686C37.5645 209.41 37.8387 208.138 38.1276 206.87L37.1525 206.648C37.4434 205.371 37.749 204.098 38.0693 202.83L39.0389 203.074C39.3576 201.812 39.6908 200.554 40.0386 199.301L39.075 199.034C39.4251 197.772 39.7897 196.515 40.1689 195.262L41.126 195.552C41.5032 194.306 41.8947 193.065 42.3006 191.829L41.3506 191.517C41.7591 190.274 42.182 189.035 42.6192 187.801L43.5618 188.135C43.9965 186.909 44.4456 185.687 44.9087 184.472L43.9742 184.116C44.4402 182.892 44.9205 181.675 45.4148 180.463L46.3408 180.84C46.8322 179.635 47.3377 178.436 47.8571 177.243L46.9402 176.844C47.4627 175.644 47.9992 174.45 48.5496 173.262L49.457 173.683C50.004 172.502 50.5648 171.328 51.1394 170.16L50.2421 169.719C50.82 168.545 51.4116 167.377 52.0169 166.216L52.9036 166.678C53.505 165.525 54.12 164.378 54.7485 163.238L53.8728 162.755C54.5047 161.61 55.1501 160.471 55.809 159.339L56.6732 159.842C57.3277 158.718 57.9955 157.601 58.6766 156.492L57.8244 155.969C58.509 154.854 59.2068 153.746 59.9178 152.647L60.7576 153.19C61.4637 152.097 62.1829 151.013 62.9151 149.937L62.0882 149.374C62.8239 148.293 63.5727 147.219 64.3344 146.153L65.1479 146.735C65.9041 145.677 66.6731 144.627 67.4549 143.586L66.6551 142.986C67.4404 141.94 68.2385 140.902 69.0492 139.873L69.8347 140.492C70.6393 139.471 71.4565 138.458 72.2861 137.454L71.5153 136.817C72.3484 135.809 73.194 134.81 74.052 133.82L74.8077 134.475C75.2337 133.983 75.6628 133.494 76.095 133.007C76.6609 132.369 77.2645 131.794 77.8983 131.281L77.2692 130.503C78.6886 129.354 80.2543 128.493 81.8937 127.912L82.2275 128.855C83.0155 128.576 83.822 128.366 84.6379 128.225L85.3325 128.105L85.4528 127.41C85.594 126.594 85.8039 125.788 86.083 125L85.1404 124.666C85.7211 123.026 86.583 121.461 87.7321 120.041L88.5093 120.671C89.0224 120.037 89.5974 119.433 90.2354 118.867C90.7318 118.427 91.2306 117.99 91.7318 117.556L91.0771 116.8C92.0864 115.926 93.1052 115.065 94.1331 114.217L94.7696 114.988C95.7931 114.143 96.8259 113.311 97.8675 112.493L97.2495 111.707C98.2991 110.882 99.3576 110.07 100.425 109.271L101.024 110.072C102.086 109.277 103.158 108.495 104.237 107.727L103.657 106.912C104.745 106.138 105.841 105.378 106.945 104.631L107.506 105.459C108.604 104.715 109.712 103.986 110.827 103.269L110.286 102.428C111.409 101.707 112.54 100.999 113.679 100.305L114.199 101.159C115.332 100.469 116.472 99.7927 117.62 99.1301L117.121 98.264C118.276 97.597 119.44 96.944 120.61 96.3052L121.089 97.1829C122.253 96.5474 123.425 95.926 124.603 95.3187L124.145 94.4298C125.331 93.8186 126.524 93.2216 127.724 92.6389L128.161 93.5385C129.354 92.9591 130.553 92.394 131.76 91.8433L131.344 90.9337C132.558 90.3796 133.778 89.8399 135.004 89.3149L135.398 90.2342C136.617 89.7122 137.842 89.2048 139.073 88.712L138.701 87.7836C139.939 87.2879 141.184 86.8068 142.434 86.3406L142.783 87.2775C144.025 86.8142 145.273 86.3655 146.527 85.9317L146.199 84.9867C147.46 84.5504 148.726 84.129 149.996 83.7227L150.301 84.6752C151.564 84.2714 152.831 83.8826 154.104 83.5088L153.822 82.5493C155.102 82.1735 156.386 81.8127 157.675 81.4672L157.934 82.4331C159.214 82.0899 160.499 81.7617 161.788 81.4488L161.552 80.477C162.848 80.1625 164.148 79.8632 165.452 79.5793L165.665 80.5564C166.96 80.2744 168.259 80.0077 169.561 79.7564L169.372 78.7745C170.681 78.522 171.994 78.2848 173.31 78.0632L173.476 79.0493C174.783 78.8293 176.093 78.6247 177.407 78.4356L177.264 77.4458C178.583 77.2558 179.906 77.0814 181.231 76.9226L181.35 77.9155C182.666 77.758 183.984 77.6159 185.305 77.4894L185.21 76.494C186.536 76.367 187.866 76.2556 189.198 76.16L189.269 77.1575C189.93 77.11 190.592 77.0664 191.255 77.0268C192.106 76.9759 192.939 76.9961 193.75 77.0815L193.855 76.087C195.671 76.2781 197.388 76.7758 198.957 77.5245L198.527 78.4271C199.282 78.7869 200 79.2089 200.677 79.6859L201.253 80.0921L201.829 79.6859C202.506 79.2088 203.225 78.7869 203.979 78.427L203.549 77.5244C205.119 76.7757 206.835 76.278 208.651 76.0868L208.756 77.0813C209.567 76.996 210.4 76.9757 211.252 77.0266C211.914 77.0663 212.576 77.1098 213.237 77.1573L213.309 76.1598C214.641 76.2554 215.97 76.3668 217.297 76.4937L217.202 77.4892C218.523 77.6157 219.842 77.7577 221.157 77.9153L221.276 76.9224C222.602 77.0812 223.924 77.2556 225.244 77.4456L225.101 78.4354C226.415 78.6245 227.725 78.8291 229.032 79.0492L229.198 78.063C230.515 78.2847 231.828 78.5218 233.137 78.7744L232.947 79.7563C234.25 80.0077 235.549 80.2744 236.845 80.5564L237.057 79.5792C238.361 79.8632 239.662 80.1625 240.957 80.4771L240.722 81.4488C242.011 81.7618 243.296 82.09 244.576 82.4333L244.835 81.4674C246.124 81.813 247.409 82.1737 248.688 82.5496L248.406 83.5091C249.679 83.8829 250.947 84.2718 252.21 84.6756L252.514 83.7231C253.785 84.1296 255.051 84.551 256.312 84.9873L255.985 85.9323C257.238 86.3662 258.486 86.8149 259.728 87.2784L260.078 86.3414C261.328 86.8077 262.572 87.2889 263.811 87.7847L263.439 88.713C264.67 89.2059 265.896 89.7135 267.115 90.2355L267.508 89.3162C268.735 89.8413 269.955 90.381 271.168 90.9352L270.753 91.8449C271.959 92.3956 273.159 92.9608 274.352 93.5403L274.789 92.6408C275.989 93.2235 277.182 93.8206 278.368 94.4319L277.91 95.3208C279.089 95.9282 280.26 96.5497 281.424 97.1853L281.904 96.3076C283.074 96.9466 284.237 97.5997 285.393 98.2667L284.893 99.1329C286.042 99.7955 287.182 100.472 288.315 101.162L288.836 100.308C289.974 101.002 291.105 101.71 292.228 102.431L291.688 103.273C292.803 103.989 293.91 104.719 295.009 105.463L295.57 104.634C296.674 105.382 297.77 106.142 298.858 106.916L298.278 107.731C299.358 108.5 300.429 109.282 301.491 110.077L302.091 109.276C303.158 110.075 304.216 110.886 305.266 111.712L304.648 112.498C305.69 113.317 306.723 114.148 307.746 114.993L308.383 114.222C309.411 115.07 310.429 115.932 311.439 116.806L310.784 117.562C311.285 117.996 311.784 118.433 312.281 118.874C312.919 119.439 313.494 120.043 314.007 120.677L314.784 120.048C315.933 121.467 316.795 123.033 317.375 124.672L316.433 125.006C316.712 125.794 316.922 126.6 317.063 127.416L317.183 128.111L317.878 128.231C318.694 128.372 319.5 128.582 320.288 128.861L320.622 127.919C322.261 128.499 323.827 129.361 325.246 130.51L324.617 131.287C325.251 131.801 325.854 132.376 326.42 133.013C326.852 133.501 327.281 133.99 327.707 134.482L328.463 133.827C329.321 134.817 330.167 135.816 331 136.824L330.229 137.461C331.058 138.465 331.875 139.478 332.68 140.499L333.465 139.88C334.276 140.909 335.074 141.946 335.859 142.992L335.059 143.593C335.841 144.634 336.61 145.683 337.366 146.741L338.179 146.16C338.941 147.225 339.69 148.299 340.425 149.38L339.598 149.943C340.33 151.019 341.05 152.104 341.756 153.196L342.595 152.653C343.306 153.752 344.004 154.86 344.688 155.975L343.836 156.498C344.517 157.607 345.185 158.724 345.839 159.848L346.704 159.345C347.362 160.476 348.008 161.615 348.639 162.761L347.764 163.244C348.392 164.383 349.007 165.53 349.608 166.684L350.495 166.221C351.1 167.382 351.692 168.55 352.27 169.724L351.372 170.166C351.947 171.333 352.508 172.507 353.055 173.688L353.962 173.267C354.512 174.455 355.049 175.649 355.571 176.849L354.654 177.248C355.173 178.441 355.679 179.64 356.17 180.845L357.096 180.467C357.591 181.679 358.071 182.897 358.537 184.12L357.602 184.476C358.065 185.691 358.514 186.913 358.949 188.139L359.891 187.805C360.329 189.039 360.751 190.277 361.16 191.521L360.21 191.833C360.616 193.069 361.007 194.31 361.384 195.555L362.341 195.266C362.72 196.518 363.085 197.775 363.435 199.037L362.472 199.304C362.819 200.557 363.152 201.815 363.471 203.077L364.441 202.833C364.761 204.101 365.066 205.374 365.357 206.651L364.382 206.873C364.671 208.141 364.945 209.413 365.205 210.688L366.185 210.489C366.445 211.771 366.691 213.056 366.922 214.346L365.938 214.522C366.167 215.802 366.382 217.085 366.581 218.372L367.569 218.218C367.77 219.511 367.955 220.806 368.126 222.105L367.134 222.235C367.304 223.524 367.458 224.816 367.598 226.111L368.592 226.004C368.732 227.304 368.857 228.607 368.966 229.912L367.97 229.996C368.079 231.291 368.173 232.589 368.252 233.889L369.25 233.828C369.329 235.134 369.393 236.441 369.442 237.75L368.442 237.787C368.467 238.438 368.487 239.088 368.504 239.739C368.521 240.414 368.494 241.077 368.425 241.726L369.42 241.831C369.268 243.27 368.925 244.645 368.418 245.934L367.487 245.568C366.998 246.812 366.345 247.971 365.556 249.021L366.356 249.621C365.505 250.754 364.507 251.767 363.394 252.634L362.779 251.846C361.738 252.657 360.588 253.333 359.361 253.85L359.748 254.771C358.461 255.313 357.092 255.691 355.672 255.88L355.54 254.889C354.89 254.976 354.228 255.02 353.558 255.02H351.61V256.02H347.712V255.02H343.815V256.02H339.918V255.02H336.02V256.02H332.123V255.02H328.226V256.02H324.328V255.02H320.431V256.02H316.534V255.02H312.636V256.02H308.739V255.02H304.842V256.02H300.944V255.02H297.047V256.02H293.15V255.02H289.253V256.02H285.355V255.02H283.407C282.753 255.02 282.113 254.98 281.488 254.902L281.364 255.894C279.973 255.72 278.651 255.371 277.413 254.873L277.787 253.945C276.586 253.461 275.47 252.827 274.455 252.07L273.857 252.871C272.759 252.051 271.774 251.095 270.921 250.035L271.701 249.408C270.898 248.41 270.22 247.313 269.686 246.145L268.777 246.561C268.212 245.327 267.798 244.019 267.554 242.667L268.539 242.49C268.426 241.863 268.352 241.227 268.319 240.584C268.283 239.891 268.237 239.199 268.18 238.509L267.183 238.591C267.071 237.226 266.917 235.869 266.721 234.52L267.711 234.376C267.511 233.002 267.269 231.636 266.986 230.281L266.007 230.486C265.727 229.147 265.406 227.819 265.045 226.503L266.009 226.238C265.642 224.9 265.233 223.575 264.784 222.264L263.838 222.588C263.395 221.295 262.912 220.017 262.391 218.755L263.315 218.373C262.785 217.092 262.216 215.827 261.608 214.58L260.709 215.019C260.111 213.792 259.474 212.583 258.8 211.394L259.669 210.901C258.986 209.696 258.265 208.511 257.507 207.348L256.669 207.894C255.924 206.752 255.143 205.631 254.326 204.533L255.129 203.936C254.715 203.38 254.293 202.831 253.861 202.287C253.461 201.783 253.096 201.256 252.766 200.711L251.911 201.228C251.2 200.053 250.646 198.797 250.253 197.495L251.211 197.207C251.025 196.592 250.879 195.967 250.771 195.336L250.652 194.637L249.953 194.518C249.322 194.41 248.697 194.263 248.082 194.078L247.794 195.035C246.492 194.643 245.236 194.088 244.061 193.378L244.578 192.522C244.033 192.192 243.506 191.827 243.002 191.427C242.514 191.039 242.021 190.659 241.523 190.286L240.924 191.086C239.94 190.35 238.938 189.642 237.919 188.963L238.473 188.13C237.435 187.439 236.38 186.778 235.307 186.148L234.8 187.01C233.742 186.387 232.668 185.795 231.578 185.233L232.037 184.344C230.929 183.773 229.807 183.233 228.671 182.725L228.262 183.638C227.142 183.137 226.009 182.668 224.863 182.23L225.22 181.296C224.057 180.851 222.881 180.439 221.695 180.06L221.39 181.013C220.223 180.64 219.044 180.299 217.856 179.991L218.107 179.023C216.903 178.71 215.689 178.431 214.466 178.186L214.27 179.167C213.069 178.926 211.859 178.718 210.643 178.543L210.785 177.553C210.169 177.465 209.552 177.385 208.933 177.314C208.293 177.241 207.663 177.126 207.044 176.974L206.805 177.945C205.471 177.616 204.191 177.12 202.993 176.478L203.466 175.596C202.9 175.293 202.355 174.955 201.832 174.584Z" fill="#52360B" stroke="#F4AB3E" stroke-width="2" stroke-dasharray="4 4"/>
<path fill-rule="evenodd" clip-rule="evenodd" d="M206.463 162.306C206.463 164.412 208.098 166.146 210.19 166.386C224.678 168.053 238.418 173.745 249.841 182.811C251.49 184.12 253.872 184.05 255.361 182.561L305.114 132.812C306.713 131.213 306.672 128.603 304.981 127.102C278.791 103.869 245.543 90.0976 210.595 88.0071C208.337 87.872 206.463 89.6889 206.463 91.9502V162.306ZM196.043 91.9503C196.043 89.689 194.169 87.8722 191.912 88.0072C156.967 90.0982 123.723 103.868 97.5346 127.097C95.8428 128.597 95.8022 131.207 97.4014 132.806L147.154 182.556C148.643 184.045 151.025 184.115 152.674 182.806C164.095 173.743 177.832 168.054 192.317 166.387C194.408 166.146 196.043 164.412 196.043 162.306V91.9503ZM262.478 195.45C261.169 193.8 261.239 191.418 262.728 189.929L312.482 140.18C314.081 138.581 316.691 138.621 318.191 140.313C342.6 167.83 356.564 203.137 357.507 240.02C357.564 242.229 355.767 244.02 353.558 244.02H283.406C281.197 244.02 279.417 242.228 279.304 240.022C278.47 223.737 272.563 208.16 262.478 195.45ZM84.3234 140.307C85.824 138.615 88.4337 138.575 90.0327 140.174L139.786 189.923C141.275 191.412 141.345 193.794 140.036 195.443C129.948 208.155 124.039 223.735 123.205 240.022C123.092 242.228 121.312 244.02 119.103 244.02L48.9506 244.02C46.7415 244.02 44.9453 242.229 45.0018 240.02C45.9452 203.134 59.9106 167.825 84.3234 140.307Z" fill="#F4AB3E"/>
<mask id="mask0_114_5236" style="mask-type:alpha" maskUnits="userSpaceOnUse" x="45" y="88" width="313" height="157">
<path fill-rule="evenodd" clip-rule="evenodd" d="M206.463 162.306C206.463 164.412 208.098 166.146 210.19 166.386C224.678 168.053 238.418 173.745 249.841 182.811C251.49 184.12 253.872 184.05 255.361 182.561L305.114 132.812C306.713 131.213 306.672 128.603 304.981 127.102C278.791 103.869 245.543 90.0976 210.595 88.0071C208.337 87.872 206.463 89.6889 206.463 91.9502V162.306ZM196.043 91.9503C196.043 89.689 194.169 87.8722 191.912 88.0072C156.967 90.0982 123.723 103.868 97.5346 127.097C95.8428 128.597 95.8022 131.207 97.4014 132.806L147.154 182.556C148.643 184.045 151.025 184.115 152.674 182.806C164.095 173.743 177.832 168.054 192.317 166.387C194.408 166.146 196.043 164.412 196.043 162.306V91.9503ZM262.478 195.45C261.169 193.8 261.239 191.418 262.728 189.929L312.482 140.18C314.081 138.581 316.691 138.621 318.191 140.313C342.6 167.83 356.564 203.137 357.507 240.02C357.564 242.229 355.767 244.02 353.558 244.02H283.406C281.197 244.02 279.417 242.228 279.304 240.022C278.47 223.737 272.563 208.16 262.478 195.45ZM84.3234 140.307C85.824 138.615 88.4337 138.575 90.0327 140.174L139.786 189.923C141.275 191.412 141.345 193.794 140.036 195.443C129.948 208.155 124.039 223.735 123.205 240.022C123.092 242.228 121.312 244.02 119.103 244.02L48.9506 244.02C46.7415 244.02 44.9453 242.229 45.0018 240.02C45.9452 203.134 59.9106 167.825 84.3234 140.307Z" fill="#F4AB3E"/>
</mask>
<g mask="url(#mask0_114_5236)">
<rect width="429" height="255.357" transform="translate(-12.9995 38)" fill="#F4AB3E"/>
<line x1="47.4349" y1="293.357" x2="47.4349" y2="37.9998" stroke="white" stroke-opacity="0.5" stroke-width="1.70238"/>
<line x1="52.5424" y1="293.357" x2="52.5424" y2="37.9998" stroke="white" stroke-opacity="0.5" stroke-width="1.70238"/>
<line x1="57.6493" y1="293.357" x2="57.6493" y2="37.9998" stroke="white" stroke-opacity="0.5" stroke-width="1.70238"/>
<line x1="62.7562" y1="293.357" x2="62.7562" y2="37.9998" stroke="white" stroke-opacity="0.5" stroke-width="1.70238"/>
<line x1="67.8637" y1="293.357" x2="67.8637" y2="37.9998" stroke="white" stroke-opacity="0.5" stroke-width="1.70238"/>
<line x1="72.9706" y1="293.357" x2="72.9706" y2="37.9998" stroke="white" stroke-opacity="0.5" stroke-width="1.70238"/>
<line x1="78.078" y1="293.357" x2="78.078" y2="37.9998" stroke="white" stroke-opacity="0.5" stroke-width="1.70238"/>
<line x1="83.1849" y1="293.357" x2="83.1849" y2="37.9998" stroke="white" stroke-opacity="0.5" stroke-width="1.70238"/>
<line x1="88.2924" y1="293.357" x2="88.2924" y2="37.9998" stroke="white" stroke-opacity="0.5" stroke-width="1.70238"/>
<line x1="93.3993" y1="293.357" x2="93.3993" y2="37.9998" stroke="white" stroke-opacity="0.5" stroke-width="1.70238"/>
<line x1="98.5067" y1="293.357" x2="98.5067" y2="37.9998" stroke="white" stroke-opacity="0.5" stroke-width="1.70238"/>
<line x1="103.614" y1="293.357" x2="103.614" y2="37.9998" stroke="white" stroke-opacity="0.5" stroke-width="1.70238"/>
<line x1="108.721" y1="293.357" x2="108.721" y2="37.9998" stroke="white" stroke-opacity="0.5" stroke-width="1.70238"/>
<line x1="113.828" y1="293.357" x2="113.828" y2="37.9998" stroke="white" stroke-opacity="0.5" stroke-width="1.70238"/>
<line x1="118.935" y1="293.357" x2="118.935" y2="37.9998" stroke="white" stroke-opacity="0.5" stroke-width="1.70238"/>
<line x1="124.042" y1="293.357" x2="124.042" y2="37.9998" stroke="white" stroke-opacity="0.5" stroke-width="1.70238"/>
<line x1="129.149" y1="293.357" x2="129.149" y2="37.9998" stroke="white" stroke-opacity="0.5" stroke-width="1.70238"/>
<line x1="134.257" y1="293.357" x2="134.257" y2="37.9998" stroke="white" stroke-opacity="0.5" stroke-width="1.70238"/>
<line x1="139.364" y1="293.357" x2="139.364" y2="37.9998" stroke="white" stroke-opacity="0.5" stroke-width="1.70238"/>
<line x1="144.471" y1="293.357" x2="144.471" y2="37.9998" stroke="white" stroke-opacity="0.5" stroke-width="1.70238"/>
<line x1="149.578" y1="293.357" x2="149.578" y2="37.9998" stroke="white" stroke-opacity="0.5" stroke-width="1.70238"/>
<line x1="154.685" y1="293.357" x2="154.685" y2="37.9998" stroke="white" stroke-opacity="0.5" stroke-width="1.70238"/>
<line x1="159.792" y1="293.357" x2="159.792" y2="37.9998" stroke="white" stroke-opacity="0.5" stroke-width="1.70238"/>
<line x1="164.899" y1="293.357" x2="164.899" y2="37.9998" stroke="white" stroke-opacity="0.5" stroke-width="1.70238"/>
<line x1="170.007" y1="293.357" x2="170.007" y2="37.9998" stroke="white" stroke-opacity="0.5" stroke-width="1.70238"/>
<line x1="175.114" y1="293.357" x2="175.114" y2="37.9998" stroke="white" stroke-opacity="0.5" stroke-width="1.70238"/>
<line x1="180.221" y1="293.357" x2="180.221" y2="37.9998" stroke="white" stroke-opacity="0.5" stroke-width="1.70238"/>
<line x1="185.328" y1="293.357" x2="185.328" y2="37.9998" stroke="white" stroke-opacity="0.5" stroke-width="1.70238"/>
<line x1="190.435" y1="293.357" x2="190.435" y2="37.9998" stroke="white" stroke-opacity="0.5" stroke-width="1.70238"/>
<line x1="195.542" y1="293.357" x2="195.542" y2="37.9998" stroke="white" stroke-opacity="0.5" stroke-width="1.70238"/>
<line x1="200.649" y1="293.357" x2="200.649" y2="37.9998" stroke="white" stroke-opacity="0.5" stroke-width="1.70238"/>
<line x1="205.757" y1="293.357" x2="205.757" y2="37.9998" stroke="white" stroke-opacity="0.5" stroke-width="1.70238"/>
<line x1="210.864" y1="293.357" x2="210.864" y2="37.9998" stroke="white" stroke-opacity="0.5" stroke-width="1.70238"/>
<line x1="215.971" y1="293.357" x2="215.971" y2="37.9998" stroke="white" stroke-opacity="0.5" stroke-width="1.70238"/>
<line x1="221.078" y1="293.357" x2="221.078" y2="37.9998" stroke="white" stroke-opacity="0.5" stroke-width="1.70238"/>
<line x1="226.185" y1="293.357" x2="226.185" y2="37.9998" stroke="white" stroke-opacity="0.5" stroke-width="1.70238"/>
<line x1="231.292" y1="293.357" x2="231.292" y2="37.9998" stroke="white" stroke-opacity="0.5" stroke-width="1.70238"/>
<line x1="236.399" y1="293.357" x2="236.399" y2="37.9998" stroke="white" stroke-opacity="0.5" stroke-width="1.70238"/>
<line x1="241.507" y1="293.357" x2="241.507" y2="37.9998" stroke="white" stroke-opacity="0.5" stroke-width="1.70238"/>
<line x1="246.614" y1="293.357" x2="246.614" y2="37.9998" stroke="white" stroke-opacity="0.5" stroke-width="1.70238"/>
<line x1="251.721" y1="293.357" x2="251.721" y2="37.9998" stroke="white" stroke-opacity="0.5" stroke-width="1.70238"/>
<line x1="256.828" y1="293.357" x2="256.828" y2="37.9998" stroke="white" stroke-opacity="0.5" stroke-width="1.70238"/>
<line x1="261.935" y1="293.357" x2="261.935" y2="37.9998" stroke="white" stroke-opacity="0.5" stroke-width="1.70238"/>
<line x1="267.042" y1="293.357" x2="267.042" y2="37.9998" stroke="white" stroke-opacity="0.5" stroke-width="1.70238"/>
<line x1="272.149" y1="293.357" x2="272.149" y2="37.9998" stroke="white" stroke-opacity="0.5" stroke-width="1.70238"/>
<line x1="277.257" y1="293.357" x2="277.257" y2="37.9998" stroke="white" stroke-opacity="0.5" stroke-width="1.70238"/>
<line x1="282.364" y1="293.357" x2="282.364" y2="37.9998" stroke="white" stroke-opacity="0.5" stroke-width="1.70238"/>
<line x1="287.471" y1="293.357" x2="287.471" y2="37.9998" stroke="white" stroke-opacity="0.5" stroke-width="1.70238"/>
<line x1="292.578" y1="293.357" x2="292.578" y2="37.9998" stroke="white" stroke-opacity="0.5" stroke-width="1.70238"/>
<line x1="297.685" y1="293.357" x2="297.685" y2="37.9998" stroke="white" stroke-opacity="0.5" stroke-width="1.70238"/>
<line x1="302.792" y1="293.357" x2="302.792" y2="37.9998" stroke="white" stroke-opacity="0.5" stroke-width="1.70238"/>
<line x1="307.899" y1="293.357" x2="307.899" y2="37.9998" stroke="white" stroke-opacity="0.5" stroke-width="1.70238"/>
<line x1="313.007" y1="293.357" x2="313.007" y2="37.9998" stroke="white" stroke-opacity="0.5" stroke-width="1.70238"/>
<line x1="318.114" y1="293.357" x2="318.114" y2="37.9998" stroke="white" stroke-opacity="0.5" stroke-width="1.70238"/>
<line x1="323.221" y1="293.357" x2="323.221" y2="37.9998" stroke="white" stroke-opacity="0.5" stroke-width="1.70238"/>
<line x1="328.328" y1="293.357" x2="328.328" y2="37.9998" stroke="white" stroke-opacity="0.5" stroke-width="1.70238"/>
<line x1="333.435" y1="293.357" x2="333.435" y2="37.9998" stroke="white" stroke-opacity="0.5" stroke-width="1.70238"/>
<line x1="338.542" y1="293.357" x2="338.542" y2="37.9998" stroke="white" stroke-opacity="0.5" stroke-width="1.70238"/>
<line x1="343.65" y1="293.357" x2="343.65" y2="37.9998" stroke="white" stroke-opacity="0.5" stroke-width="1.70238"/>
<line x1="348.757" y1="293.357" x2="348.757" y2="37.9998" stroke="white" stroke-opacity="0.5" stroke-width="1.70238"/>
<line x1="353.864" y1="293.357" x2="353.864" y2="37.9998" stroke="white" stroke-opacity="0.5" stroke-width="1.70238"/>
</g>
<path d="M251.141 161.06C251.698 159.98 253.337 160.641 252.988 161.806L224.81 255.76C224.683 256.183 224.294 256.472 223.852 256.473L203.64 256.474C202.892 256.474 202.409 255.682 202.751 255.016L251.141 161.06Z" fill="#8298AB"/>
</svg>
