<svg width="403" height="332" viewBox="0 0 403 332" fill="none" xmlns="http://www.w3.org/2000/svg">
<path d="M201.831 174.584L201.253 174.174L200.675 174.584C200.152 174.955 199.606 175.293 199.041 175.596L199.514 176.478C198.316 177.12 197.035 177.616 195.702 177.945L195.463 176.974C194.844 177.127 194.213 177.241 193.574 177.314C192.955 177.386 192.337 177.465 191.722 177.554L191.864 178.544C190.648 178.718 189.439 178.926 188.238 179.167L188.042 178.186C186.82 178.432 185.606 178.711 184.402 179.023L184.653 179.991C183.465 180.299 182.287 180.639 181.119 181.013L180.815 180.06C179.628 180.439 178.453 180.851 177.291 181.295L177.648 182.229C176.502 182.667 175.368 183.136 174.249 183.637L173.841 182.724C172.705 183.232 171.582 183.772 170.475 184.342L170.934 185.231C169.844 185.793 168.77 186.385 167.712 187.007L167.205 186.145C166.133 186.776 165.078 187.437 164.04 188.127L164.594 188.96C163.575 189.638 162.573 190.346 161.59 191.083L160.991 190.282C160.493 190.655 160 191.035 159.512 191.423C159.008 191.823 158.481 192.188 157.936 192.517L158.453 193.373C157.277 194.084 156.022 194.638 154.72 195.031L154.431 194.073C153.817 194.259 153.192 194.405 152.56 194.513L151.862 194.632L151.742 195.331C151.635 195.962 151.488 196.587 151.303 197.202L152.26 197.49C151.868 198.792 151.313 200.048 150.602 201.223L149.747 200.706C149.417 201.251 149.052 201.778 148.652 202.282C148.22 202.825 147.798 203.375 147.384 203.931L148.186 204.528C147.369 205.626 146.588 206.747 145.843 207.889L145.005 207.343C144.246 208.506 143.525 209.691 142.842 210.896L143.712 211.389C143.037 212.579 142.4 213.788 141.801 215.015L140.903 214.576C140.294 215.823 139.725 217.088 139.195 218.369L140.119 218.751C139.598 220.014 139.115 221.292 138.672 222.585L137.726 222.261C137.277 223.572 136.868 224.898 136.5 226.236L137.465 226.501C137.103 227.817 136.782 229.145 136.502 230.484L135.523 230.279C135.24 231.635 134.998 233.001 134.798 234.375L135.788 234.519C135.592 235.868 135.438 237.226 135.325 238.59L134.329 238.508C134.272 239.199 134.226 239.891 134.19 240.584C134.157 241.227 134.083 241.863 133.97 242.49L134.954 242.667C134.711 244.019 134.297 245.327 133.732 246.561L132.822 246.145C132.288 247.313 131.611 248.41 130.808 249.408L131.587 250.035C130.735 251.095 129.75 252.051 128.652 252.871L128.053 252.07C127.039 252.827 125.923 253.461 124.722 253.945L125.095 254.873C123.858 255.371 122.535 255.72 121.145 255.894L121.021 254.902C120.396 254.98 119.756 255.02 119.102 255.02H117.154V256.02H113.256V255.02H109.359V256.02H105.462V255.02H101.564V256.02H97.6669V255.02H93.7696V256.02H89.8723V255.02H85.9749V256.02L82.0776 256.02V255.02H78.1803V256.02H74.283V255.02H70.3856V256.02H66.4883V255.02H62.591L62.591 256.02H58.6936V255.02H54.7963L54.7963 256.02H50.899V255.02H48.9503C48.2804 255.02 47.6189 254.976 46.9692 254.889L46.837 255.88C45.4166 255.691 44.0479 255.313 42.7604 254.771L43.1482 253.85C41.9204 253.333 40.7711 252.657 39.7296 251.846L39.115 252.634C38.0014 251.767 37.0036 250.754 36.153 249.621L36.9525 249.021C36.1642 247.971 35.5112 246.812 35.0216 245.568L34.091 245.934C33.5841 244.645 33.2408 243.27 33.0888 241.83L34.0833 241.725C34.0149 241.077 33.9878 240.414 34.0051 239.739C34.0217 239.088 34.0422 238.437 34.0664 237.787L33.0671 237.75C33.1158 236.441 33.1799 235.133 33.259 233.828L34.2572 233.889C34.336 232.588 34.4299 231.291 34.5389 229.995L33.5424 229.911C33.6522 228.606 33.7771 227.303 33.9171 226.003L34.9114 226.11C35.0508 224.815 35.2052 223.523 35.3745 222.234L34.383 222.104C34.5536 220.805 34.7392 219.509 34.9397 218.217L35.9279 218.37C36.1275 217.083 36.3421 215.8 36.5714 214.52L35.5871 214.344C35.818 213.054 36.0639 211.769 36.3246 210.487L37.3046 210.686C37.564 209.41 37.8382 208.138 38.1271 206.87L37.152 206.648C37.4429 205.371 37.7485 204.098 38.0688 202.83L39.0384 203.074C39.3571 201.812 39.6903 200.554 40.0381 199.301L39.0745 199.034C39.4246 197.772 39.7893 196.515 40.1684 195.262L41.1255 195.552C41.5027 194.306 41.8943 193.065 42.3002 191.829L41.3501 191.517C41.7586 190.274 42.1815 189.035 42.6187 187.801L43.5613 188.135C43.9961 186.909 44.4451 185.687 44.9082 184.472L43.9737 184.116C44.4398 182.892 44.92 181.675 45.4143 180.463L46.3403 180.84C46.8317 179.635 47.3372 178.436 47.8566 177.243L46.9398 176.844C47.4622 175.644 47.9987 174.45 48.5491 173.262L49.4565 173.683C50.0035 172.502 50.5643 171.328 51.1389 170.16L50.2417 169.719C50.8195 168.545 51.4111 167.377 52.0164 166.216L52.9031 166.678C53.5045 165.525 54.1195 164.378 54.748 163.238L53.8723 162.755C54.5042 161.61 55.1497 160.471 55.8085 159.339L56.6727 159.842C57.3272 158.718 57.9951 157.601 58.6761 156.492L57.8239 155.969C58.5085 154.854 59.2063 153.746 59.9174 152.647L60.7571 153.19C61.4632 152.097 62.1824 151.013 62.9146 149.937L62.0877 149.374C62.8235 148.293 63.5722 147.219 64.3339 146.153L65.1474 146.735C65.9036 145.677 66.6726 144.627 67.4544 143.586L66.6547 142.986C67.4399 141.94 68.238 140.902 69.0487 139.873L69.8342 140.492C70.6388 139.471 71.456 138.458 72.2856 137.454L71.5148 136.817C72.3479 135.809 73.1935 134.81 74.0515 133.82L74.8072 134.475C75.2332 133.983 75.6623 133.494 76.0945 133.007C76.6604 132.369 77.264 131.794 77.8979 131.281L77.2687 130.503C78.6881 129.354 80.2538 128.493 81.8932 127.912L82.227 128.855C83.015 128.576 83.8215 128.366 84.6374 128.225L85.332 128.105L85.4523 127.41C85.5935 126.594 85.8034 125.788 86.0825 125L85.1399 124.666C85.7206 123.026 86.5825 121.461 87.7316 120.041L88.5088 120.671C89.022 120.037 89.597 119.433 90.2349 118.867C90.7313 118.427 91.2301 117.99 91.7313 117.556L91.0766 116.8C92.0859 115.926 93.1047 115.065 94.1326 114.217L94.7691 114.988C95.7927 114.143 96.8254 113.311 97.867 112.493L97.2491 111.707C98.2986 110.882 99.3571 110.07 100.424 109.271L101.023 110.072C102.086 109.277 103.157 108.495 104.237 107.727L103.657 106.912C104.744 106.138 105.84 105.378 106.945 104.631L107.505 105.459C108.604 104.715 109.711 103.986 110.826 103.269L110.286 102.428C111.409 101.707 112.54 100.999 113.678 100.305L114.199 101.159C115.331 100.469 116.472 99.7927 117.62 99.1301L117.12 98.264C118.276 97.597 119.439 96.944 120.61 96.3052L121.089 97.1829C122.253 96.5474 123.424 95.926 124.603 95.3187L124.145 94.4298C125.331 93.8186 126.524 93.2216 127.723 92.6389L128.16 93.5385C129.353 92.9591 130.553 92.394 131.759 91.8433L131.344 90.9337C132.557 90.3796 133.777 89.8399 135.003 89.3149L135.397 90.2342C136.616 89.7122 137.841 89.2048 139.072 88.712L138.701 87.7836C139.939 87.2879 141.183 86.8068 142.433 86.3406L142.783 87.2775C144.025 86.8142 145.273 86.3655 146.526 85.9317L146.199 84.9867C147.459 84.5504 148.725 84.129 149.996 83.7227L150.3 84.6752C151.563 84.2714 152.831 83.8826 154.104 83.5088L153.822 82.5493C155.101 82.1735 156.385 81.8127 157.674 81.4672L157.933 82.4331C159.214 82.0899 160.498 81.7617 161.787 81.4488L161.552 80.477C162.847 80.1625 164.147 79.8632 165.451 79.5793L165.664 80.5564C166.959 80.2744 168.258 80.0077 169.561 79.7564L169.371 78.7745C170.681 78.522 171.993 78.2848 173.31 78.0632L173.476 79.0493C174.782 78.8293 176.093 78.6247 177.406 78.4356L177.264 77.4458C178.583 77.2558 179.905 77.0814 181.231 76.9226L181.35 77.9155C182.665 77.758 183.984 77.6159 185.305 77.4894L185.209 76.494C186.536 76.367 187.865 76.2556 189.197 76.16L189.269 77.1575C189.93 77.11 190.592 77.0664 191.254 77.0268C192.105 76.9759 192.939 76.9961 193.75 77.0815L193.854 76.087C195.671 76.2781 197.387 76.7758 198.957 77.5245L198.526 78.4271C199.281 78.7869 200 79.2089 200.677 79.6859L201.253 80.0921L201.829 79.6859C202.506 79.2088 203.224 78.7869 203.979 78.427L203.548 77.5244C205.118 76.7757 206.835 76.278 208.651 76.0868L208.756 77.0813C209.567 76.996 210.4 76.9757 211.251 77.0266C211.914 77.0663 212.576 77.1098 213.237 77.1573L213.308 76.1598C214.64 76.2554 215.97 76.3668 217.297 76.4937L217.201 77.4892C218.522 77.6157 219.841 77.7577 221.157 77.9153L221.276 76.9224C222.601 77.0812 223.924 77.2556 225.243 77.4456L225.101 78.4354C226.414 78.6245 227.725 78.8291 229.032 79.0492L229.198 78.063C230.514 78.2847 231.827 78.5218 233.136 78.7744L232.947 79.7563C234.25 80.0077 235.549 80.2744 236.844 80.5564L237.057 79.5792C238.361 79.8632 239.661 80.1625 240.957 80.4771L240.721 81.4488C242.01 81.7618 243.295 82.09 244.576 82.4333L244.835 81.4674C246.124 81.813 247.408 82.1737 248.688 82.5496L248.406 83.5091C249.679 83.8829 250.946 84.2718 252.209 84.6756L252.514 83.7231C253.785 84.1296 255.051 84.551 256.311 84.9873L255.984 85.9323C257.237 86.3662 258.485 86.8149 259.728 87.2784L260.077 86.3414C261.327 86.8077 262.572 87.2889 263.81 87.7847L263.439 88.713C264.67 89.2059 265.895 89.7135 267.114 90.2355L267.508 89.3162C268.734 89.8413 269.954 90.381 271.168 90.9352L270.753 91.8449C271.959 92.3956 273.159 92.9608 274.352 93.5403L274.789 92.6408C275.988 93.2235 277.182 93.8206 278.368 94.4319L277.91 95.3208C279.088 95.9282 280.26 96.5497 281.424 97.1853L281.903 96.3076C283.074 96.9466 284.237 97.5997 285.393 98.2667L284.893 99.1329C286.041 99.7955 287.182 100.472 288.315 101.162L288.835 100.308C289.974 101.002 291.105 101.71 292.228 102.431L291.687 103.273C292.802 103.989 293.91 104.719 295.009 105.463L295.569 104.634C296.673 105.382 297.77 106.142 298.857 106.916L298.277 107.731C299.357 108.5 300.428 109.282 301.491 110.077L302.09 109.276C303.157 110.075 304.216 110.886 305.266 111.712L304.648 112.498C305.689 113.317 306.722 114.148 307.746 114.993L308.382 114.222C309.41 115.07 310.429 115.932 311.438 116.806L310.784 117.562C311.285 117.996 311.784 118.433 312.28 118.874C312.918 119.439 313.493 120.043 314.006 120.677L314.783 120.048C315.932 121.467 316.794 123.033 317.375 124.672L316.432 125.006C316.711 125.794 316.921 126.6 317.062 127.416L317.183 128.111L317.877 128.231C318.693 128.372 319.5 128.582 320.288 128.861L320.621 127.919C322.261 128.499 323.826 129.361 325.246 130.51L324.617 131.287C325.25 131.801 325.854 132.376 326.42 133.013C326.852 133.501 327.281 133.99 327.707 134.482L328.463 133.827C329.321 134.817 330.166 135.816 330.999 136.824L330.228 137.461C331.058 138.465 331.875 139.478 332.679 140.499L333.465 139.88C334.275 140.909 335.073 141.946 335.858 142.992L335.059 143.593C335.84 144.634 336.609 145.683 337.365 146.741L338.179 146.16C338.94 147.225 339.689 148.299 340.425 149.38L339.598 149.943C340.33 151.019 341.049 152.104 341.755 153.196L342.595 152.653C343.306 153.752 344.003 154.86 344.688 155.975L343.836 156.498C344.517 157.607 345.184 158.724 345.839 159.848L346.703 159.345C347.362 160.476 348.007 161.615 348.639 162.761L347.763 163.244C348.392 164.383 349.007 165.53 349.608 166.684L350.495 166.221C351.1 167.382 351.691 168.55 352.269 169.724L351.372 170.166C351.946 171.333 352.507 172.507 353.054 173.688L353.961 173.267C354.512 174.455 355.048 175.649 355.571 176.849L354.654 177.248C355.173 178.441 355.678 179.64 356.17 180.845L357.096 180.467C357.59 181.679 358.07 182.897 358.536 184.12L357.602 184.476C358.065 185.691 358.514 186.913 358.948 188.139L359.891 187.805C360.328 189.039 360.751 190.277 361.159 191.521L360.209 191.833C360.615 193.069 361.007 194.31 361.384 195.555L362.341 195.266C362.72 196.518 363.085 197.775 363.435 199.037L362.471 199.304C362.819 200.557 363.152 201.815 363.471 203.077L364.44 202.833C364.76 204.101 365.066 205.374 365.357 206.651L364.382 206.873C364.671 208.141 364.945 209.413 365.204 210.688L366.184 210.489C366.445 211.771 366.691 213.056 366.922 214.346L365.937 214.522C366.167 215.802 366.381 217.085 366.581 218.372L367.569 218.218C367.769 219.511 367.955 220.806 368.125 222.105L367.134 222.235C367.303 223.524 367.458 224.816 367.597 226.111L368.591 226.004C368.731 227.304 368.856 228.607 368.966 229.912L367.969 229.996C368.078 231.291 368.172 232.589 368.251 233.889L369.249 233.828C369.328 235.134 369.392 236.441 369.441 237.75L368.442 237.787C368.466 238.438 368.487 239.088 368.503 239.739C368.521 240.414 368.493 241.077 368.425 241.726L369.419 241.831C369.267 243.27 368.924 244.645 368.417 245.934L367.487 245.568C366.997 246.812 366.344 247.971 365.556 249.021L366.355 249.621C365.505 250.754 364.507 251.767 363.393 252.634L362.779 251.846C361.737 252.657 360.588 253.333 359.36 253.85L359.748 254.771C358.46 255.313 357.092 255.691 355.671 255.88L355.539 254.889C354.889 254.976 354.228 255.02 353.558 255.02H351.609V256.02H347.712V255.02H343.815V256.02H339.917V255.02H336.02V256.02H332.123V255.02H328.225V256.02H324.328V255.02H320.431V256.02H316.533V255.02H312.636V256.02H308.739V255.02H304.841V256.02H300.944V255.02H297.047V256.02H293.149V255.02H289.252V256.02H285.355V255.02H283.406C282.752 255.02 282.112 254.98 281.488 254.902L281.364 255.894C279.973 255.72 278.65 255.371 277.413 254.873L277.786 253.945C276.585 253.461 275.469 252.827 274.455 252.07L273.857 252.871C272.758 252.051 271.773 251.095 270.921 250.035L271.7 249.408C270.897 248.41 270.22 247.313 269.686 246.145L268.776 246.561C268.212 245.327 267.798 244.019 267.554 242.667L268.538 242.49C268.425 241.863 268.351 241.227 268.318 240.584C268.283 239.891 268.236 239.199 268.18 238.509L267.183 238.591C267.071 237.226 266.916 235.869 266.72 234.52L267.71 234.376C267.511 233.002 267.269 231.636 266.985 230.281L266.007 230.486C265.727 229.147 265.406 227.819 265.044 226.503L266.009 226.238C265.641 224.9 265.232 223.575 264.783 222.264L263.837 222.588C263.394 221.295 262.912 220.017 262.39 218.755L263.314 218.373C262.785 217.092 262.216 215.827 261.607 214.58L260.709 215.019C260.11 213.792 259.473 212.583 258.799 211.394L259.669 210.901C258.986 209.696 258.265 208.511 257.506 207.348L256.669 207.894C255.924 206.752 255.143 205.631 254.326 204.533L255.128 203.936C254.715 203.38 254.292 202.831 253.861 202.287C253.461 201.783 253.096 201.256 252.766 200.711L251.91 201.228C251.2 200.053 250.645 198.797 250.253 197.495L251.21 197.207C251.025 196.592 250.878 195.967 250.771 195.336L250.652 194.637L249.953 194.518C249.321 194.41 248.696 194.263 248.082 194.078L247.793 195.035C246.492 194.643 245.236 194.088 244.061 193.378L244.578 192.522C244.033 192.192 243.506 191.827 243.002 191.427C242.514 191.039 242.021 190.659 241.523 190.286L240.923 191.086C239.94 190.35 238.938 189.642 237.918 188.963L238.472 188.13C237.435 187.439 236.379 186.778 235.307 186.148L234.8 187.01C233.742 186.387 232.667 185.795 231.578 185.233L232.036 184.344C230.929 183.773 229.806 183.233 228.67 182.725L228.262 183.638C227.142 183.137 226.008 182.668 224.862 182.23L225.219 181.296C224.056 180.851 222.881 180.439 221.694 180.06L221.39 181.013C220.222 180.64 219.044 180.299 217.855 179.991L218.106 179.023C216.902 178.71 215.688 178.431 214.466 178.186L214.269 179.167C213.068 178.926 211.859 178.718 210.643 178.543L210.785 177.553C210.169 177.465 209.551 177.385 208.932 177.314C208.293 177.241 207.662 177.126 207.044 176.974L206.804 177.945C205.471 177.616 204.19 177.12 202.992 176.478L203.465 175.596C202.9 175.293 202.354 174.955 201.831 174.584Z" fill="#FFE1B5" stroke="#F4AB3E" stroke-width="2" stroke-dasharray="4 4"/>
<path fill-rule="evenodd" clip-rule="evenodd" d="M249.84 182.81C251.49 184.12 253.872 184.049 255.361 182.56L305.113 132.811C306.712 131.212 306.672 128.603 304.98 127.102C278.791 103.869 245.543 90.0973 210.595 88.0066C208.337 87.8716 206.463 89.6884 206.463 91.9497V162.305C206.463 164.411 208.098 166.145 210.19 166.386C224.678 168.053 238.417 173.744 249.84 182.81ZM192.317 166.386C194.408 166.145 196.043 164.411 196.043 162.306V91.9498C196.043 89.6885 194.169 87.8717 191.911 88.0067C156.967 90.0976 123.722 103.867 97.5337 127.097C95.8419 128.597 95.8014 131.207 97.4005 132.806L147.153 182.556C148.642 184.044 151.024 184.115 152.673 182.806C164.095 173.743 177.832 168.053 192.317 166.386ZM200.806 87.7282H201.702C201.553 87.7278 201.403 87.7275 201.254 87.7275C201.105 87.7275 200.955 87.7278 200.806 87.7282ZM262.477 195.449C261.168 193.8 261.239 191.418 262.728 189.929L312.481 140.179C314.08 138.58 316.69 138.621 318.191 140.313C342.6 167.829 356.563 203.137 357.507 240.02C357.563 242.228 355.767 244.02 353.558 244.02H283.406C281.197 244.02 279.417 242.227 279.304 240.021C278.47 223.737 272.563 208.159 262.477 195.449ZM84.3225 140.307C85.8232 138.615 88.4329 138.575 90.0319 140.174L139.785 189.923C141.274 191.412 141.344 193.794 140.035 195.443C129.947 208.154 124.038 223.734 123.204 240.021C123.091 242.227 121.311 244.02 119.102 244.02L48.9502 244.02C46.741 244.02 44.9448 242.228 45.0013 240.02C45.9447 203.134 59.91 167.824 84.3225 140.307Z" fill="#F4AB3E"/>
<mask id="mask0_139_6302" style="mask-type:alpha" maskUnits="userSpaceOnUse" x="45" y="87" width="313" height="158">
<path fill-rule="evenodd" clip-rule="evenodd" d="M249.84 182.81C251.49 184.12 253.872 184.049 255.361 182.56L305.113 132.811C306.712 131.212 306.672 128.603 304.98 127.102C278.791 103.869 245.543 90.0973 210.595 88.0066C208.337 87.8716 206.463 89.6884 206.463 91.9497V162.305C206.463 164.411 208.098 166.145 210.19 166.386C224.678 168.053 238.417 173.744 249.84 182.81ZM192.317 166.386C194.408 166.145 196.043 164.411 196.043 162.306V91.9498C196.043 89.6885 194.169 87.8717 191.911 88.0067C156.967 90.0976 123.722 103.867 97.5337 127.097C95.8419 128.597 95.8014 131.207 97.4005 132.806L147.153 182.556C148.642 184.044 151.024 184.115 152.673 182.806C164.095 173.743 177.832 168.053 192.317 166.386ZM200.806 87.7282H201.702C201.553 87.7278 201.403 87.7275 201.254 87.7275C201.105 87.7275 200.955 87.7278 200.806 87.7282ZM262.477 195.449C261.168 193.8 261.239 191.418 262.728 189.929L312.481 140.179C314.08 138.58 316.69 138.621 318.191 140.313C342.6 167.829 356.563 203.137 357.507 240.02C357.563 242.228 355.767 244.02 353.558 244.02H283.406C281.197 244.02 279.417 242.227 279.304 240.021C278.47 223.737 272.563 208.159 262.477 195.449ZM84.3225 140.307C85.8232 138.615 88.4329 138.575 90.0319 140.174L139.785 189.923C141.274 191.412 141.344 193.794 140.035 195.443C129.947 208.154 124.038 223.734 123.204 240.021C123.091 242.227 121.311 244.02 119.102 244.02L48.9502 244.02C46.741 244.02 44.9448 242.228 45.0013 240.02C45.9447 203.134 59.91 167.824 84.3225 140.307Z" fill="#F4AB3E"/>
</mask>
<g mask="url(#mask0_139_6302)">
<line x1="47.4349" y1="293.357" x2="47.4349" y2="37.9998" stroke="white" stroke-opacity="0.5" stroke-width="1.70238"/>
<line x1="52.5414" y1="293.357" x2="52.5414" y2="37.9998" stroke="white" stroke-opacity="0.5" stroke-width="1.70238"/>
<line x1="57.6488" y1="293.357" x2="57.6488" y2="37.9998" stroke="white" stroke-opacity="0.5" stroke-width="1.70238"/>
<line x1="62.7562" y1="293.357" x2="62.7562" y2="37.9998" stroke="white" stroke-opacity="0.5" stroke-width="1.70238"/>
<line x1="67.8627" y1="293.357" x2="67.8627" y2="37.9998" stroke="white" stroke-opacity="0.5" stroke-width="1.70238"/>
<line x1="72.9701" y1="293.357" x2="72.9701" y2="37.9998" stroke="white" stroke-opacity="0.5" stroke-width="1.70238"/>
<line x1="78.0775" y1="293.357" x2="78.0775" y2="37.9998" stroke="white" stroke-opacity="0.5" stroke-width="1.70238"/>
<line x1="83.1849" y1="293.357" x2="83.1849" y2="37.9998" stroke="white" stroke-opacity="0.5" stroke-width="1.70238"/>
<line x1="88.2914" y1="293.357" x2="88.2914" y2="37.9998" stroke="white" stroke-opacity="0.5" stroke-width="1.70238"/>
<line x1="93.3988" y1="293.357" x2="93.3988" y2="37.9998" stroke="white" stroke-opacity="0.5" stroke-width="1.70238"/>
<line x1="98.5062" y1="293.357" x2="98.5062" y2="37.9998" stroke="white" stroke-opacity="0.5" stroke-width="1.70238"/>
<line x1="103.613" y1="293.357" x2="103.613" y2="37.9998" stroke="white" stroke-opacity="0.5" stroke-width="1.70238"/>
<line x1="108.72" y1="293.357" x2="108.72" y2="37.9998" stroke="white" stroke-opacity="0.5" stroke-width="1.70238"/>
<line x1="113.828" y1="293.357" x2="113.828" y2="37.9998" stroke="white" stroke-opacity="0.5" stroke-width="1.70238"/>
<line x1="118.935" y1="293.357" x2="118.935" y2="37.9998" stroke="white" stroke-opacity="0.5" stroke-width="1.70238"/>
<line x1="124.041" y1="293.357" x2="124.041" y2="37.9998" stroke="white" stroke-opacity="0.5" stroke-width="1.70238"/>
<line x1="129.149" y1="293.357" x2="129.149" y2="37.9998" stroke="white" stroke-opacity="0.5" stroke-width="1.70238"/>
<line x1="134.256" y1="293.357" x2="134.256" y2="37.9998" stroke="white" stroke-opacity="0.5" stroke-width="1.70238"/>
<line x1="139.364" y1="293.357" x2="139.364" y2="37.9998" stroke="white" stroke-opacity="0.5" stroke-width="1.70238"/>
<line x1="144.47" y1="293.357" x2="144.47" y2="37.9998" stroke="white" stroke-opacity="0.5" stroke-width="1.70238"/>
<line x1="149.578" y1="293.357" x2="149.578" y2="37.9998" stroke="white" stroke-opacity="0.5" stroke-width="1.70238"/>
<line x1="154.685" y1="293.357" x2="154.685" y2="37.9998" stroke="white" stroke-opacity="0.5" stroke-width="1.70238"/>
<line x1="159.791" y1="293.357" x2="159.791" y2="37.9998" stroke="white" stroke-opacity="0.5" stroke-width="1.70238"/>
<line x1="164.899" y1="293.357" x2="164.899" y2="37.9998" stroke="white" stroke-opacity="0.5" stroke-width="1.70238"/>
<line x1="170.006" y1="293.357" x2="170.006" y2="37.9998" stroke="white" stroke-opacity="0.5" stroke-width="1.70238"/>
<line x1="175.114" y1="293.357" x2="175.114" y2="37.9998" stroke="white" stroke-opacity="0.5" stroke-width="1.70238"/>
<line x1="180.22" y1="293.357" x2="180.22" y2="37.9998" stroke="white" stroke-opacity="0.5" stroke-width="1.70238"/>
<line x1="185.328" y1="293.357" x2="185.328" y2="37.9998" stroke="white" stroke-opacity="0.5" stroke-width="1.70238"/>
<line x1="190.435" y1="293.357" x2="190.435" y2="37.9998" stroke="white" stroke-opacity="0.5" stroke-width="1.70238"/>
<line x1="195.541" y1="293.357" x2="195.541" y2="37.9998" stroke="white" stroke-opacity="0.5" stroke-width="1.70238"/>
<line x1="200.649" y1="293.357" x2="200.649" y2="37.9998" stroke="white" stroke-opacity="0.5" stroke-width="1.70238"/>
<line x1="205.756" y1="293.357" x2="205.756" y2="37.9998" stroke="white" stroke-opacity="0.5" stroke-width="1.70238"/>
<line x1="210.864" y1="293.357" x2="210.864" y2="37.9998" stroke="white" stroke-opacity="0.5" stroke-width="1.70238"/>
<line x1="215.97" y1="293.357" x2="215.97" y2="37.9998" stroke="white" stroke-opacity="0.5" stroke-width="1.70238"/>
<line x1="221.078" y1="293.357" x2="221.078" y2="37.9998" stroke="white" stroke-opacity="0.5" stroke-width="1.70238"/>
<line x1="226.185" y1="293.357" x2="226.185" y2="37.9998" stroke="white" stroke-opacity="0.5" stroke-width="1.70238"/>
<line x1="231.291" y1="293.357" x2="231.291" y2="37.9998" stroke="white" stroke-opacity="0.5" stroke-width="1.70238"/>
<line x1="236.399" y1="293.357" x2="236.399" y2="37.9998" stroke="white" stroke-opacity="0.5" stroke-width="1.70238"/>
<line x1="241.506" y1="293.357" x2="241.506" y2="37.9998" stroke="white" stroke-opacity="0.5" stroke-width="1.70238"/>
<line x1="246.614" y1="293.357" x2="246.614" y2="37.9998" stroke="white" stroke-opacity="0.5" stroke-width="1.70238"/>
<line x1="251.72" y1="293.357" x2="251.72" y2="37.9998" stroke="white" stroke-opacity="0.5" stroke-width="1.70238"/>
<line x1="256.828" y1="293.357" x2="256.828" y2="37.9998" stroke="white" stroke-opacity="0.5" stroke-width="1.70238"/>
<line x1="261.935" y1="293.357" x2="261.935" y2="37.9998" stroke="white" stroke-opacity="0.5" stroke-width="1.70238"/>
<line x1="267.041" y1="293.357" x2="267.041" y2="37.9998" stroke="white" stroke-opacity="0.5" stroke-width="1.70238"/>
<line x1="272.149" y1="293.357" x2="272.149" y2="37.9998" stroke="white" stroke-opacity="0.5" stroke-width="1.70238"/>
<line x1="277.256" y1="293.357" x2="277.256" y2="37.9998" stroke="white" stroke-opacity="0.5" stroke-width="1.70238"/>
<line x1="282.364" y1="293.357" x2="282.364" y2="37.9998" stroke="white" stroke-opacity="0.5" stroke-width="1.70238"/>
<line x1="287.47" y1="293.357" x2="287.47" y2="37.9998" stroke="white" stroke-opacity="0.5" stroke-width="1.70238"/>
<line x1="292.578" y1="293.357" x2="292.578" y2="37.9998" stroke="white" stroke-opacity="0.5" stroke-width="1.70238"/>
<line x1="297.685" y1="293.357" x2="297.685" y2="37.9998" stroke="white" stroke-opacity="0.5" stroke-width="1.70238"/>
<line x1="302.791" y1="293.357" x2="302.791" y2="37.9998" stroke="white" stroke-opacity="0.5" stroke-width="1.70238"/>
<line x1="307.899" y1="293.357" x2="307.899" y2="37.9998" stroke="white" stroke-opacity="0.5" stroke-width="1.70238"/>
<line x1="313.006" y1="293.357" x2="313.006" y2="37.9998" stroke="white" stroke-opacity="0.5" stroke-width="1.70238"/>
<line x1="318.114" y1="293.357" x2="318.114" y2="37.9998" stroke="white" stroke-opacity="0.5" stroke-width="1.70238"/>
<line x1="323.22" y1="293.357" x2="323.22" y2="37.9998" stroke="white" stroke-opacity="0.5" stroke-width="1.70238"/>
<line x1="328.328" y1="293.357" x2="328.328" y2="37.9998" stroke="white" stroke-opacity="0.5" stroke-width="1.70238"/>
<line x1="333.435" y1="293.357" x2="333.435" y2="37.9998" stroke="white" stroke-opacity="0.5" stroke-width="1.70238"/>
<line x1="338.542" y1="293.357" x2="338.542" y2="37.9998" stroke="white" stroke-opacity="0.5" stroke-width="1.70238"/>
<line x1="343.649" y1="293.357" x2="343.649" y2="37.9998" stroke="white" stroke-opacity="0.5" stroke-width="1.70238"/>
<line x1="348.756" y1="293.357" x2="348.756" y2="37.9998" stroke="white" stroke-opacity="0.5" stroke-width="1.70238"/>
<line x1="353.864" y1="293.357" x2="353.864" y2="37.9998" stroke="white" stroke-opacity="0.5" stroke-width="1.70238"/>
</g>
<path d="M251.141 161.06C251.698 159.98 253.337 160.641 252.988 161.806L224.81 255.76C224.683 256.183 224.294 256.472 223.852 256.473L203.64 256.474C202.892 256.474 202.409 255.682 202.751 255.016L251.141 161.06Z" fill="#8298AB"/>
</svg>
