<svg width="403" height="305" viewBox="0 0 403 305" fill="none" xmlns="http://www.w3.org/2000/svg">
<path d="M201.498 174.585L200.92 174.175L200.341 174.585C199.819 174.956 199.273 175.294 198.708 175.597L199.18 176.479C197.983 177.121 196.702 177.617 195.369 177.946L195.129 176.975C194.511 177.128 193.88 177.242 193.241 177.315C192.622 177.387 192.004 177.466 191.389 177.555L191.531 178.545C190.315 178.719 189.106 178.927 187.905 179.168L187.708 178.187C186.486 178.433 185.273 178.712 184.069 179.024L184.32 179.992C183.132 180.3 181.953 180.64 180.786 181.013L180.482 180.061C179.295 180.44 178.12 180.852 176.958 181.296L177.314 182.23C176.169 182.668 175.035 183.137 173.916 183.638L173.508 182.725C172.371 183.233 171.249 183.773 170.142 184.343L170.601 185.232C169.511 185.794 168.437 186.386 167.379 187.008L166.872 186.146C165.8 186.777 164.745 187.438 163.707 188.128L164.261 188.961C163.242 189.639 162.24 190.347 161.257 191.084L160.657 190.283C160.16 190.656 159.667 191.036 159.179 191.424C158.674 191.824 158.148 192.189 157.602 192.518L158.12 193.374C156.944 194.084 155.688 194.639 154.387 195.032L154.098 194.074C153.484 194.26 152.859 194.406 152.227 194.514L151.528 194.633L151.409 195.332C151.302 195.963 151.155 196.588 150.97 197.203L151.927 197.491C151.534 198.793 150.98 200.049 150.269 201.224L149.414 200.707C149.084 201.252 148.719 201.779 148.319 202.283C147.887 202.826 147.464 203.376 147.051 203.932L147.853 204.529C147.036 205.627 146.254 206.748 145.509 207.89L144.672 207.344C143.913 208.507 143.192 209.692 142.509 210.897L143.378 211.39C142.704 212.58 142.067 213.789 141.468 215.016L140.57 214.577C139.961 215.824 139.392 217.089 138.862 218.37L139.786 218.752C139.264 220.015 138.782 221.293 138.339 222.586L137.393 222.262C136.944 223.573 136.535 224.899 136.167 226.237L137.131 226.502C136.77 227.818 136.449 229.146 136.169 230.485L135.19 230.28C134.907 231.636 134.665 233.002 134.465 234.376L135.455 234.52C135.259 235.869 135.105 237.227 134.992 238.591L133.996 238.509C133.939 239.2 133.892 239.892 133.857 240.585C133.824 241.228 133.75 241.864 133.637 242.49L134.621 242.668C134.377 244.02 133.963 245.328 133.399 246.562L132.489 246.146C131.955 247.314 131.278 248.411 130.475 249.409L131.254 250.036C130.402 251.096 129.417 252.052 128.319 252.872L127.72 252.071C126.706 252.828 125.59 253.462 124.389 253.946L124.762 254.874C123.525 255.372 122.202 255.721 120.812 255.895L120.687 254.903C120.063 254.981 119.423 255.021 118.769 255.021H116.82V256.021H112.923V255.021H109.026V256.021H105.128V255.021H101.231V256.021H97.3338V255.021H93.4365V256.021H89.5391V255.021H85.6418V256.021L81.7445 256.021V255.021H77.8472V256.021H73.9498V255.021H70.0525V256.021H66.1552V255.021H62.2579L62.2578 256.021H58.3605V255.021H54.4632L54.4632 256.021H50.5659V255.021H48.6172C47.9472 255.021 47.2858 254.977 46.636 254.89L46.5038 255.881C45.0835 255.692 43.7148 255.314 42.4272 254.772L42.8151 253.851C41.5873 253.334 40.438 252.658 39.3965 251.847L38.7819 252.635C37.6683 251.768 36.6705 250.755 35.8198 249.622L36.6194 249.022C35.831 247.972 35.1781 246.813 34.6885 245.569L33.7579 245.935C33.2509 244.646 32.9077 243.271 32.7557 241.831L33.7502 241.726C33.6818 241.078 33.6547 240.415 33.6719 239.74C33.6886 239.089 33.709 238.438 33.7332 237.788L32.7339 237.751C32.7827 236.442 32.8467 235.134 32.9259 233.829L33.924 233.889C34.0029 232.589 34.0968 231.292 34.2058 229.996L33.2093 229.912C33.3191 228.607 33.444 227.304 33.584 226.004L34.5782 226.111C34.7176 224.816 34.872 223.524 35.0413 222.235L34.0498 222.105C34.2204 220.806 34.406 219.51 34.6066 218.218L35.5948 218.371C35.7944 217.084 36.0089 215.801 36.2383 214.521L35.2539 214.345C35.4849 213.055 35.7308 211.77 35.9915 210.488L36.9714 210.687C37.2309 209.411 37.5051 208.139 37.7939 206.871L36.8189 206.649C37.1098 205.372 37.4154 204.099 37.7357 202.831L38.7053 203.075C39.0239 201.813 39.3572 200.555 39.705 199.302L38.7414 199.035C39.0914 197.773 39.4561 196.516 39.8353 195.263L40.7924 195.553C41.1696 194.307 41.5611 193.066 41.967 191.83L41.017 191.518C41.4254 190.275 41.8484 189.036 42.2856 187.802L43.2282 188.136C43.6629 186.91 44.1119 185.688 44.5751 184.473L43.6406 184.117C44.1066 182.893 44.5869 181.676 45.0812 180.464L46.0072 180.841C46.4986 179.636 47.0041 178.437 47.5235 177.244L46.6066 176.845C47.1291 175.645 47.6656 174.451 48.216 173.263L49.1233 173.684C49.6704 172.503 50.2312 171.329 50.8058 170.161L49.9085 169.72C50.4863 168.546 51.0779 167.378 51.6832 166.217L52.57 166.679C53.1714 165.526 53.7864 164.379 54.4149 163.239L53.5392 162.756C54.1711 161.61 54.8165 160.472 55.4754 159.34L56.3396 159.843C56.9941 158.719 57.6619 157.602 58.343 156.493L57.4908 155.97C58.1753 154.855 58.8732 153.747 59.5842 152.648L60.424 153.191C61.1301 152.098 61.8493 151.014 62.5815 149.938L61.7546 149.375C62.4903 148.294 63.2391 147.22 64.0008 146.154L64.8143 146.736C65.5705 145.678 66.3395 144.628 67.1212 143.587L66.3215 142.987C67.1068 141.941 67.9049 140.903 68.7156 139.874L69.5011 140.493C70.3057 139.472 71.1228 138.459 71.9525 137.455L71.1816 136.818C72.0148 135.81 72.8604 134.811 73.7183 133.821L74.4741 134.476C74.9001 133.984 75.3292 133.495 75.7614 133.008C76.3273 132.37 76.9309 131.795 77.5647 131.282L76.9355 130.504C78.355 129.355 79.9206 128.494 81.5601 127.913L81.8939 128.856C82.6819 128.577 83.4884 128.367 84.3043 128.226L84.9989 128.106L85.1191 127.411C85.2604 126.595 85.4703 125.789 85.7494 125.001L84.8068 124.667C85.3875 123.027 86.2493 121.462 87.3985 120.042L88.1757 120.672C88.6888 120.038 89.2638 119.434 89.9018 118.868C90.3982 118.428 90.897 117.991 91.3981 117.557L90.7435 116.801C91.7528 115.927 92.7716 115.066 93.7995 114.218L94.4359 114.989C95.4595 114.144 96.4923 113.312 97.5339 112.494L96.9159 111.708C97.9655 110.883 99.024 110.071 100.091 109.272L100.69 110.073C101.753 109.278 102.824 108.496 103.904 107.728L103.324 106.913C104.411 106.139 105.507 105.379 106.612 104.632L107.172 105.46C108.271 104.716 109.378 103.987 110.493 103.27L109.953 102.429C111.076 101.708 112.206 101 113.345 100.306L113.865 101.16C114.998 100.47 116.139 99.7937 117.287 99.1311L116.787 98.265C117.943 97.598 119.106 96.945 120.276 96.3061L120.756 97.1839C121.92 96.5484 123.091 95.927 124.27 95.3197L123.812 94.4308C124.998 93.8195 126.191 93.2226 127.39 92.6399L127.827 93.5394C129.02 92.9601 130.22 92.395 131.426 91.8443L131.011 90.9346C132.224 90.3805 133.444 89.8409 134.67 89.3159L135.064 90.2352C136.283 89.7132 137.508 89.2058 138.739 88.713L138.367 87.7846C139.606 87.2888 140.85 86.8078 142.1 86.3416L142.449 87.2785C143.692 86.8151 144.94 86.3665 146.193 85.9326L145.866 84.9877C147.126 84.5514 148.392 84.13 149.663 83.7236L149.967 84.6761C151.23 84.2724 152.498 83.8835 153.77 83.5097L153.489 82.5503C154.768 82.1744 156.052 81.8137 157.341 81.4682L157.6 82.4341C158.88 82.0908 160.165 81.7627 161.454 81.4498L161.218 80.478C162.514 80.1634 163.814 79.8642 165.118 79.5802L165.331 80.5574C166.626 80.2754 167.925 80.0087 169.228 79.7574L169.038 78.7755C170.347 78.5229 171.66 78.2858 172.977 78.0642L173.143 79.0503C174.449 78.8303 175.76 78.6257 177.073 78.4365L176.931 77.4468C178.25 77.2568 179.572 77.0824 180.898 76.9236L181.017 77.9165C182.332 77.7589 183.65 77.6169 184.972 77.4904L184.876 76.4949C186.203 76.3679 187.532 76.2566 188.864 76.161L188.936 77.1584C189.597 77.111 190.259 77.0674 190.921 77.0278C191.772 76.9768 192.606 76.9971 193.417 77.0824L193.521 76.0879C195.338 76.2791 197.054 76.7768 198.624 77.5254L198.193 78.4281C198.948 78.7879 199.667 79.2098 200.343 79.6869L200.92 80.0931L201.496 79.6869C202.173 79.2098 202.891 78.7879 203.646 78.428L203.215 77.5254C204.785 76.7767 206.502 76.279 208.318 76.0878L208.422 77.0823C209.233 76.9969 210.067 76.9767 210.918 77.0276C211.581 77.0672 212.242 77.1108 212.904 77.1582L212.975 76.1608C214.307 76.2564 215.637 76.3677 216.963 76.4947L216.868 77.4902C218.189 77.6166 219.508 77.7587 220.823 77.9163L220.942 76.9234C222.268 77.0822 223.591 77.2566 224.91 77.4466L224.767 78.4363C226.081 78.6255 227.392 78.8301 228.698 79.0501L228.864 78.064C230.181 78.2857 231.494 78.5228 232.803 78.7754L232.614 79.7573C233.917 80.0086 235.216 80.2754 236.511 80.5573L236.724 79.5802C238.028 79.8642 239.328 80.1635 240.624 80.478L240.388 81.4498C241.677 81.7628 242.962 82.091 244.243 82.4343L244.501 81.4684C245.791 81.8139 247.075 82.1747 248.355 82.5506L248.073 83.5101C249.345 83.8839 250.613 84.2728 251.876 84.6766L252.181 83.7241C253.452 84.1305 254.718 84.552 255.978 84.9883L255.651 85.9333C256.904 86.3672 258.152 86.8159 259.395 87.2794L259.744 86.3424C260.994 86.8087 262.239 87.2898 263.477 87.7856L263.106 88.714C264.337 89.2069 265.562 89.7144 266.781 90.2365L267.175 89.3172C268.401 89.8423 269.621 90.382 270.835 90.9362L270.419 91.8458C271.626 92.3966 272.826 92.9618 274.019 93.5413L274.455 92.6417C275.655 93.2245 276.848 93.8215 278.035 94.4329L277.576 95.3218C278.755 95.9292 279.926 96.5507 281.091 97.1863L281.57 96.3085C282.741 96.9475 283.904 97.6006 285.06 98.2677L284.56 99.1338C285.708 99.7965 286.849 100.473 287.982 101.163L288.502 100.309C289.641 101.003 290.772 101.711 291.895 102.432L291.354 103.274C292.469 103.99 293.577 104.72 294.676 105.464L295.236 104.635C296.34 105.382 297.436 106.143 298.524 106.917L297.944 107.732C299.024 108.501 300.095 109.282 301.158 110.078L301.757 109.277C302.824 110.076 303.883 110.887 304.932 111.712L304.314 112.499C305.356 113.317 306.389 114.149 307.413 114.994L308.049 114.223C309.077 115.071 310.096 115.933 311.105 116.807L310.451 117.563C310.952 117.997 311.451 118.434 311.947 118.874C312.585 119.44 313.16 120.044 313.673 120.678L314.45 120.049C315.599 121.468 316.461 123.034 317.042 124.673L316.099 125.007C316.378 125.795 316.588 126.601 316.729 127.417L316.849 128.112L317.544 128.232C318.36 128.373 319.166 128.583 319.954 128.862L320.288 127.92C321.928 128.5 323.493 129.362 324.913 130.511L324.283 131.288C324.917 131.802 325.521 132.377 326.087 133.014C326.519 133.502 326.948 133.991 327.374 134.483L328.13 133.828C328.987 134.818 329.833 135.817 330.666 136.825L329.895 137.462C330.725 138.466 331.542 139.478 332.346 140.5L333.132 139.881C333.942 140.91 334.74 141.947 335.525 142.993L334.726 143.594C335.507 144.635 336.276 145.684 337.032 146.742L337.846 146.161C338.607 147.226 339.356 148.3 340.092 149.381L339.265 149.944C339.997 151.02 340.716 152.104 341.422 153.197L342.262 152.654C342.973 153.753 343.67 154.861 344.355 155.976L343.503 156.499C344.184 157.608 344.851 158.725 345.506 159.849L346.37 159.346C347.029 160.477 347.674 161.616 348.306 162.762L347.43 163.245C348.059 164.384 348.673 165.531 349.275 166.685L350.162 166.222C350.767 167.383 351.358 168.551 351.936 169.725L351.039 170.166C351.613 171.334 352.174 172.508 352.721 173.689L353.628 173.268C354.179 174.456 354.715 175.65 355.237 176.85L354.321 177.249C354.84 178.442 355.345 179.641 355.837 180.846L356.763 180.468C357.257 181.68 357.737 182.898 358.203 184.121L357.268 184.477C357.732 185.692 358.181 186.914 358.615 188.14L359.558 187.806C359.995 189.04 360.418 190.278 360.826 191.522L359.876 191.834C360.282 193.07 360.674 194.311 361.051 195.556L362.008 195.267C362.387 196.519 362.751 197.776 363.102 199.038L362.138 199.305C362.486 200.558 362.819 201.816 363.137 203.078L364.107 202.833C364.427 204.102 364.733 205.375 365.024 206.652L364.049 206.874C364.337 208.142 364.612 209.414 364.871 210.689L365.851 210.49C366.112 211.772 366.358 213.057 366.588 214.347L365.604 214.523C365.833 215.803 366.048 217.086 366.247 218.373L367.236 218.219C367.436 219.512 367.622 220.807 367.792 222.106L366.801 222.236C366.97 223.525 367.125 224.817 367.264 226.112L368.258 226.005C368.398 227.305 368.523 228.608 368.633 229.913L367.636 229.997C367.745 231.292 367.839 232.59 367.918 233.89L368.916 233.829C368.995 235.135 369.059 236.442 369.108 237.751L368.109 237.788C368.133 238.439 368.153 239.089 368.17 239.74C368.187 240.415 368.16 241.078 368.092 241.727L369.086 241.831C368.934 243.271 368.591 244.646 368.084 245.935L367.154 245.569C366.664 246.813 366.011 247.972 365.223 249.022L366.022 249.622C365.172 250.755 364.174 251.768 363.06 252.635L362.446 251.847C361.404 252.658 360.255 253.334 359.027 253.851L359.415 254.772C358.127 255.314 356.759 255.692 355.338 255.881L355.206 254.89C354.556 254.977 353.895 255.021 353.225 255.021H351.276V256.021H347.379V255.021H343.482V256.021H339.584V255.021H335.687V256.021H331.79V255.021H327.892V256.021H323.995V255.021H320.098V256.021H316.2V255.021H312.303V256.021H308.406V255.021H304.508V256.021H300.611V255.021H296.714V256.021H292.816V255.021H288.919V256.021H285.022V255.021H283.073C282.419 255.021 281.779 254.981 281.154 254.903L281.03 255.895C279.64 255.721 278.317 255.372 277.08 254.874L277.453 253.946C276.252 253.462 275.136 252.828 274.122 252.071L273.523 252.872C272.425 252.052 271.44 251.096 270.588 250.036L271.367 249.409C270.564 248.411 269.887 247.314 269.353 246.146L268.443 246.562C267.878 245.328 267.465 244.02 267.221 242.668L268.205 242.49C268.092 241.864 268.018 241.228 267.985 240.585C267.95 239.892 267.903 239.2 267.846 238.51L266.85 238.592C266.738 237.227 266.583 235.87 266.387 234.521L267.377 234.377C267.177 233.003 266.936 231.637 266.652 230.282L265.674 230.487C265.394 229.148 265.073 227.82 264.711 226.504L265.675 226.239C265.308 224.901 264.899 223.576 264.45 222.265L263.504 222.589C263.061 221.296 262.579 220.018 262.057 218.756L262.981 218.374C262.452 217.093 261.882 215.828 261.274 214.581L260.376 215.02C259.777 213.793 259.14 212.584 258.466 211.395L259.336 210.901C258.653 209.697 257.932 208.512 257.173 207.349L256.336 207.895C255.591 206.753 254.81 205.632 253.993 204.534L254.795 203.937C254.381 203.381 253.959 202.832 253.527 202.288C253.128 201.784 252.762 201.257 252.433 200.712L251.577 201.229C250.867 200.054 250.312 198.798 249.92 197.496L250.877 197.208C250.692 196.593 250.545 195.968 250.438 195.337L250.319 194.638L249.62 194.519C248.988 194.411 248.363 194.264 247.749 194.079L247.46 195.036C246.159 194.644 244.903 194.089 243.727 193.379L244.245 192.523C243.699 192.193 243.173 191.828 242.669 191.428C242.181 191.04 241.688 190.66 241.19 190.287L240.59 191.087C239.607 190.351 238.605 189.643 237.585 188.964L238.139 188.131C237.102 187.44 236.046 186.779 234.974 186.149L234.467 187.011C233.409 186.388 232.334 185.796 231.245 185.234L231.703 184.345C230.596 183.774 229.473 183.234 228.337 182.726L227.929 183.639C226.809 183.138 225.675 182.669 224.529 182.231L224.886 181.297C223.723 180.852 222.548 180.44 221.361 180.061L221.057 181.014C219.889 180.641 218.71 180.3 217.522 179.992L217.773 179.024C216.569 178.711 215.355 178.432 214.133 178.187L213.936 179.168C212.735 178.927 211.526 178.719 210.31 178.544L210.452 177.554C209.836 177.466 209.218 177.386 208.599 177.315C207.96 177.242 207.329 177.127 206.71 176.975L206.471 177.946C205.138 177.617 203.857 177.121 202.659 176.479L203.132 175.597C202.567 175.294 202.021 174.956 201.498 174.585Z" fill="#AD2022" stroke="#FB9090" stroke-width="2" stroke-dasharray="4 4"/>
<path fill-rule="evenodd" clip-rule="evenodd" d="M249.507 182.809C251.157 184.119 253.538 184.048 255.028 182.559L304.78 132.81C306.379 131.211 306.339 128.602 304.647 127.101C278.458 103.868 245.21 90.0963 210.262 88.0056C208.004 87.8706 206.13 89.6874 206.13 91.9488V162.305C206.13 164.41 207.765 166.144 209.857 166.385C224.345 168.052 238.084 173.743 249.507 182.809ZM191.984 166.385C194.075 166.144 195.71 164.41 195.71 162.305V91.9489C195.71 89.6875 193.836 87.8707 191.578 88.0057C156.634 90.0966 123.389 103.866 97.2007 127.096C95.5089 128.596 95.4684 131.206 97.0675 132.805L146.82 182.555C148.309 184.043 150.691 184.114 152.34 182.805C163.762 173.742 177.499 168.052 191.984 166.385ZM200.473 87.7272H201.369C201.22 87.7268 201.07 87.7266 200.921 87.7266C200.772 87.7266 200.622 87.7268 200.473 87.7272ZM262.144 195.448C260.835 193.799 260.906 191.417 262.395 189.928L312.148 140.178C313.747 138.579 316.357 138.62 317.858 140.312C342.267 167.828 356.23 203.136 357.174 240.019C357.23 242.227 355.434 244.019 353.225 244.019H283.073C280.864 244.019 279.084 242.226 278.971 240.02C278.137 223.736 272.23 208.158 262.144 195.448ZM83.9895 140.306C85.4902 138.614 88.0999 138.574 89.6989 140.173L139.452 189.922C140.941 191.411 141.011 193.793 139.702 195.442C129.614 208.153 123.705 223.733 122.871 240.02C122.758 242.226 120.978 244.019 118.769 244.019L48.6172 244.019C46.408 244.019 44.6118 242.227 44.6683 240.019C45.6117 203.133 59.577 167.823 83.9895 140.306Z" fill="#F4AB3E"/>
<mask id="mask0_418_2462" style="mask-type:alpha" maskUnits="userSpaceOnUse" x="44" y="87" width="314" height="158">
<path fill-rule="evenodd" clip-rule="evenodd" d="M249.507 182.809C251.157 184.119 253.538 184.048 255.028 182.559L304.78 132.81C306.379 131.211 306.339 128.602 304.647 127.101C278.458 103.868 245.21 90.0963 210.262 88.0056C208.004 87.8706 206.13 89.6874 206.13 91.9488V162.305C206.13 164.41 207.765 166.144 209.857 166.385C224.345 168.052 238.084 173.743 249.507 182.809ZM191.984 166.385C194.075 166.144 195.71 164.41 195.71 162.305V91.9489C195.71 89.6875 193.836 87.8707 191.578 88.0057C156.634 90.0966 123.389 103.866 97.2007 127.096C95.5089 128.596 95.4684 131.206 97.0675 132.805L146.82 182.555C148.309 184.043 150.691 184.114 152.34 182.805C163.762 173.742 177.499 168.052 191.984 166.385ZM200.473 87.7272H201.369C201.22 87.7268 201.07 87.7266 200.921 87.7266C200.772 87.7266 200.622 87.7268 200.473 87.7272ZM262.144 195.448C260.835 193.799 260.906 191.417 262.395 189.928L312.148 140.178C313.747 138.579 316.357 138.62 317.858 140.312C342.267 167.828 356.23 203.136 357.174 240.019C357.23 242.227 355.434 244.019 353.225 244.019H283.073C280.864 244.019 279.084 242.226 278.971 240.02C278.137 223.736 272.23 208.158 262.144 195.448ZM83.9895 140.306C85.4902 138.614 88.0999 138.574 89.6989 140.173L139.452 189.922C140.941 191.411 141.011 193.793 139.702 195.442C129.614 208.153 123.705 223.733 122.871 240.02C122.758 242.226 120.978 244.019 118.769 244.019L48.6172 244.019C46.408 244.019 44.6118 242.227 44.6683 240.019C45.6117 203.133 59.577 167.823 83.9895 140.306Z" fill="#FB9090"/>
</mask>
<g mask="url(#mask0_418_2462)">
<rect width="429" height="255.357" transform="translate(-13.333 38)" fill="#FB9090"/>
<line x1="47.1016" y1="293.357" x2="47.1016" y2="38.0003" stroke="white" stroke-opacity="0.5" stroke-width="1.70238"/>
<line x1="52.2086" y1="293.357" x2="52.2086" y2="38.0003" stroke="white" stroke-opacity="0.5" stroke-width="1.70238"/>
<line x1="57.3158" y1="293.357" x2="57.3158" y2="38.0003" stroke="white" stroke-opacity="0.5" stroke-width="1.70238"/>
<line x1="62.423" y1="293.357" x2="62.423" y2="38.0003" stroke="white" stroke-opacity="0.5" stroke-width="1.70238"/>
<line x1="67.5302" y1="293.357" x2="67.5302" y2="38.0003" stroke="white" stroke-opacity="0.5" stroke-width="1.70238"/>
<line x1="72.6372" y1="293.357" x2="72.6372" y2="38.0003" stroke="white" stroke-opacity="0.5" stroke-width="1.70238"/>
<line x1="77.7444" y1="293.357" x2="77.7444" y2="38.0003" stroke="white" stroke-opacity="0.5" stroke-width="1.70238"/>
<line x1="82.8516" y1="293.357" x2="82.8516" y2="38.0003" stroke="white" stroke-opacity="0.5" stroke-width="1.70238"/>
<line x1="87.9587" y1="293.357" x2="87.9587" y2="38.0003" stroke="white" stroke-opacity="0.5" stroke-width="1.70238"/>
<line x1="93.0658" y1="293.357" x2="93.0658" y2="38.0003" stroke="white" stroke-opacity="0.5" stroke-width="1.70238"/>
<line x1="98.173" y1="293.357" x2="98.173" y2="38.0003" stroke="white" stroke-opacity="0.5" stroke-width="1.70238"/>
<line x1="103.28" y1="293.357" x2="103.28" y2="38.0003" stroke="white" stroke-opacity="0.5" stroke-width="1.70238"/>
<line x1="108.387" y1="293.357" x2="108.387" y2="38.0003" stroke="white" stroke-opacity="0.5" stroke-width="1.70238"/>
<line x1="113.494" y1="293.357" x2="113.494" y2="38.0003" stroke="white" stroke-opacity="0.5" stroke-width="1.70238"/>
<line x1="118.602" y1="293.357" x2="118.602" y2="38.0003" stroke="white" stroke-opacity="0.5" stroke-width="1.70238"/>
<line x1="123.709" y1="293.357" x2="123.709" y2="38.0003" stroke="white" stroke-opacity="0.5" stroke-width="1.70238"/>
<line x1="128.816" y1="293.357" x2="128.816" y2="38.0003" stroke="white" stroke-opacity="0.5" stroke-width="1.70238"/>
<line x1="133.923" y1="293.357" x2="133.923" y2="38.0003" stroke="white" stroke-opacity="0.5" stroke-width="1.70238"/>
<line x1="139.03" y1="293.357" x2="139.03" y2="38.0003" stroke="white" stroke-opacity="0.5" stroke-width="1.70238"/>
<line x1="144.137" y1="293.357" x2="144.137" y2="38.0003" stroke="white" stroke-opacity="0.5" stroke-width="1.70238"/>
<line x1="149.245" y1="293.357" x2="149.245" y2="38.0003" stroke="white" stroke-opacity="0.5" stroke-width="1.70238"/>
<line x1="154.352" y1="293.357" x2="154.352" y2="38.0003" stroke="white" stroke-opacity="0.5" stroke-width="1.70238"/>
<line x1="159.459" y1="293.357" x2="159.459" y2="38.0003" stroke="white" stroke-opacity="0.5" stroke-width="1.70238"/>
<line x1="164.566" y1="293.357" x2="164.566" y2="38.0003" stroke="white" stroke-opacity="0.5" stroke-width="1.70238"/>
<line x1="169.673" y1="293.357" x2="169.673" y2="38.0003" stroke="white" stroke-opacity="0.5" stroke-width="1.70238"/>
<line x1="174.78" y1="293.357" x2="174.78" y2="38.0003" stroke="white" stroke-opacity="0.5" stroke-width="1.70238"/>
<line x1="179.887" y1="293.357" x2="179.887" y2="38.0003" stroke="white" stroke-opacity="0.5" stroke-width="1.70238"/>
<line x1="184.995" y1="293.357" x2="184.995" y2="38.0003" stroke="white" stroke-opacity="0.5" stroke-width="1.70238"/>
<line x1="190.102" y1="293.357" x2="190.102" y2="38.0003" stroke="white" stroke-opacity="0.5" stroke-width="1.70238"/>
<line x1="195.209" y1="293.357" x2="195.209" y2="38.0003" stroke="white" stroke-opacity="0.5" stroke-width="1.70238"/>
<line x1="200.316" y1="293.357" x2="200.316" y2="38.0003" stroke="white" stroke-opacity="0.5" stroke-width="1.70238"/>
<line x1="205.423" y1="293.357" x2="205.423" y2="38.0003" stroke="white" stroke-opacity="0.5" stroke-width="1.70238"/>
<line x1="210.53" y1="293.357" x2="210.53" y2="38.0003" stroke="white" stroke-opacity="0.5" stroke-width="1.70238"/>
<line x1="215.637" y1="293.357" x2="215.637" y2="38.0003" stroke="white" stroke-opacity="0.5" stroke-width="1.70238"/>
<line x1="220.745" y1="293.357" x2="220.745" y2="38.0003" stroke="white" stroke-opacity="0.5" stroke-width="1.70238"/>
<line x1="225.852" y1="293.357" x2="225.852" y2="38.0003" stroke="white" stroke-opacity="0.5" stroke-width="1.70238"/>
<line x1="230.959" y1="293.357" x2="230.959" y2="38.0003" stroke="white" stroke-opacity="0.5" stroke-width="1.70238"/>
<line x1="236.066" y1="293.357" x2="236.066" y2="38.0003" stroke="white" stroke-opacity="0.5" stroke-width="1.70238"/>
<line x1="241.173" y1="293.357" x2="241.173" y2="38.0003" stroke="white" stroke-opacity="0.5" stroke-width="1.70238"/>
<line x1="246.28" y1="293.357" x2="246.28" y2="38.0003" stroke="white" stroke-opacity="0.5" stroke-width="1.70238"/>
<line x1="251.387" y1="293.357" x2="251.387" y2="38.0003" stroke="white" stroke-opacity="0.5" stroke-width="1.70238"/>
<line x1="256.495" y1="293.357" x2="256.495" y2="38.0003" stroke="white" stroke-opacity="0.5" stroke-width="1.70238"/>
<line x1="261.602" y1="293.357" x2="261.602" y2="38.0003" stroke="white" stroke-opacity="0.5" stroke-width="1.70238"/>
<line x1="266.709" y1="293.357" x2="266.709" y2="38.0003" stroke="white" stroke-opacity="0.5" stroke-width="1.70238"/>
<line x1="271.816" y1="293.357" x2="271.816" y2="38.0003" stroke="white" stroke-opacity="0.5" stroke-width="1.70238"/>
<line x1="276.923" y1="293.357" x2="276.923" y2="38.0003" stroke="white" stroke-opacity="0.5" stroke-width="1.70238"/>
<line x1="282.03" y1="293.357" x2="282.03" y2="38.0003" stroke="white" stroke-opacity="0.5" stroke-width="1.70238"/>
<line x1="287.137" y1="293.357" x2="287.137" y2="38.0003" stroke="white" stroke-opacity="0.5" stroke-width="1.70238"/>
<line x1="292.245" y1="293.357" x2="292.245" y2="38.0003" stroke="white" stroke-opacity="0.5" stroke-width="1.70238"/>
<line x1="297.352" y1="293.357" x2="297.352" y2="38.0003" stroke="white" stroke-opacity="0.5" stroke-width="1.70238"/>
<line x1="302.459" y1="293.357" x2="302.459" y2="38.0003" stroke="white" stroke-opacity="0.5" stroke-width="1.70238"/>
<line x1="307.566" y1="293.357" x2="307.566" y2="38.0003" stroke="white" stroke-opacity="0.5" stroke-width="1.70238"/>
<line x1="312.673" y1="293.357" x2="312.673" y2="38.0003" stroke="white" stroke-opacity="0.5" stroke-width="1.70238"/>
<line x1="317.78" y1="293.357" x2="317.78" y2="38.0003" stroke="white" stroke-opacity="0.5" stroke-width="1.70238"/>
<line x1="322.887" y1="293.357" x2="322.887" y2="38.0003" stroke="white" stroke-opacity="0.5" stroke-width="1.70238"/>
<line x1="327.995" y1="293.357" x2="327.995" y2="38.0003" stroke="white" stroke-opacity="0.5" stroke-width="1.70238"/>
<line x1="333.102" y1="293.357" x2="333.102" y2="38.0003" stroke="white" stroke-opacity="0.5" stroke-width="1.70238"/>
<line x1="338.209" y1="293.357" x2="338.209" y2="38.0003" stroke="white" stroke-opacity="0.5" stroke-width="1.70238"/>
<line x1="343.316" y1="293.357" x2="343.316" y2="38.0003" stroke="white" stroke-opacity="0.5" stroke-width="1.70238"/>
<line x1="348.423" y1="293.357" x2="348.423" y2="38.0003" stroke="white" stroke-opacity="0.5" stroke-width="1.70238"/>
<line x1="353.53" y1="293.357" x2="353.53" y2="38.0003" stroke="white" stroke-opacity="0.5" stroke-width="1.70238"/>
</g>
<path d="M250.808 161.06C251.365 159.98 253.004 160.641 252.655 161.806L224.477 255.76C224.35 256.183 223.961 256.472 223.519 256.473L203.307 256.474C202.559 256.474 202.076 255.682 202.418 255.016L250.808 161.06Z" fill="#8298AB"/>
</svg>
