<svg width="486" height="332" viewBox="0 0 486 332" fill="none" xmlns="http://www.w3.org/2000/svg">
<path d="M239.293 146.293C239.683 145.902 240.317 145.902 240.707 146.293L247.071 152.657C247.462 153.047 247.462 153.681 247.071 154.071C246.681 154.462 246.047 154.462 245.657 154.071L240 148.414L234.343 154.071C233.953 154.462 233.319 154.462 232.929 154.071C232.538 153.681 232.538 153.047 232.929 152.657L239.293 146.293ZM74.7071 228.563C74.3166 228.953 73.6834 228.953 73.2929 228.563L66.9289 222.199C66.5384 221.808 66.5384 221.175 66.9289 220.785C67.3195 220.394 67.9526 220.394 68.3431 220.785L74 226.442L79.6569 220.785C80.0474 220.394 80.6805 220.394 81.0711 220.785C81.4616 221.175 81.4616 221.808 81.0711 222.199L74.7071 228.563ZM241 147V148.859H239V147H241ZM241 152.576V156.294H239V152.576H241ZM241 160.011V163.729H239V160.011H241ZM241 167.446V171.164H239V167.446H241ZM241 174.881V176.74H239V174.881H241ZM241 176.74C241 177.416 240.865 178.063 240.62 178.654L238.773 177.888C238.919 177.536 239 177.148 239 176.74H241ZM237.914 181.36C237.323 181.605 236.676 181.74 236 181.74V179.74C236.409 179.74 236.796 179.659 237.148 179.513L237.914 181.36ZM236 181.74H234.025V179.74H236V181.74ZM230.075 181.74H226.125V179.74H230.075V181.74ZM222.175 181.74H218.225V179.74H222.175V181.74ZM214.275 181.74H210.325V179.74H214.275V181.74ZM206.375 181.74H202.425V179.74H206.375V181.74ZM198.475 181.74H194.525V179.74H198.475V181.74ZM190.575 181.74H186.625V179.74H190.575V181.74ZM182.675 181.74H178.725V179.74H182.675V181.74ZM174.775 181.74H170.825V179.74H174.775V181.74ZM166.875 181.74H162.925V179.74H166.875V181.74ZM158.975 181.74H155.025V179.74H158.975V181.74ZM151.075 181.74H147.125V179.74H151.075V181.74ZM143.175 181.74H139.225V179.74H143.175V181.74ZM135.275 181.74H131.325V179.74H135.275V181.74ZM127.375 181.74H123.425V179.74H127.375V181.74ZM119.475 181.74H115.525V179.74H119.475V181.74ZM111.575 181.74H107.625V179.74H111.575V181.74ZM103.675 181.74H99.7251V179.74H103.675V181.74ZM95.7751 181.74H91.8251V179.74H95.7751V181.74ZM87.8751 181.74H83.9251V179.74H87.8751V181.74ZM79.9751 181.74H78V179.74H79.9751V181.74ZM78 181.74C77.5914 181.74 77.2042 181.821 76.8519 181.967L76.0858 180.12C76.6767 179.875 77.3239 179.74 78 179.74V181.74ZM75.2272 183.592C75.0811 183.944 75 184.331 75 184.74H73C73 184.064 73.1347 183.417 73.3798 182.826L75.2272 183.592ZM75 184.74V186.896H73V184.74H75ZM75 191.207V195.519H73V191.207H75ZM75 199.83V204.142H73V199.83H75ZM75 208.454V212.765H73V208.454H75ZM75 217.077V221.388H73V217.077H75ZM75 225.7V227.856H73V225.7H75Z" fill="#8298AB"/>
<path d="M452.293 228.563C452.683 228.953 453.317 228.953 453.707 228.563L460.071 222.199C460.462 221.808 460.462 221.175 460.071 220.784C459.681 220.394 459.047 220.394 458.657 220.784L453 226.441L447.343 220.784C446.953 220.394 446.319 220.394 445.929 220.784C445.538 221.175 445.538 221.808 445.929 222.199L452.293 228.563ZM239 125.855V128.007H241V125.855H239ZM239 132.311V136.615H241V132.311H239ZM239 140.918V145.222H241V140.918H239ZM239 149.526V153.829H241V149.526H239ZM239 158.133V162.437H241V158.133H239ZM239 166.74V171.044H241V166.74H239ZM239 175.348V177.5H241V175.348H239ZM239 177.5C239 178.176 239.135 178.823 239.38 179.414L241.227 178.648C241.081 178.295 241 177.908 241 177.5H239ZM242.086 182.12C242.677 182.365 243.324 182.5 244 182.5V180.5C243.591 180.5 243.204 180.418 242.852 180.272L242.086 182.12ZM244 182.5H245.971V180.5H244V182.5ZM249.913 182.5H253.856V180.5H249.913V182.5ZM257.798 182.5H261.74V180.5H257.798V182.5ZM265.683 182.5H269.625V180.5H265.683V182.5ZM273.567 182.5H277.51V180.5H273.567V182.5ZM281.452 182.5H285.394V180.5H281.452V182.5ZM289.337 182.5H293.279V180.5H289.337V182.5ZM297.221 182.5H301.163V180.5H297.221V182.5ZM305.106 182.5H309.048V180.5H305.106V182.5ZM312.99 182.5H316.933V180.5H312.99V182.5ZM320.875 182.5H324.817V180.5H320.875V182.5ZM328.76 182.5H332.702V180.5H328.76V182.5ZM336.644 182.5H340.587V180.5H336.644V182.5ZM344.529 182.5H348.471V180.5H344.529V182.5ZM352.413 182.5H356.356V180.5H352.413V182.5ZM360.298 182.5H364.24V180.5H360.298V182.5ZM368.183 182.5H372.125V180.5H368.183V182.5ZM376.067 182.5H380.01V180.5H376.067V182.5ZM383.952 182.5H387.894V180.5H383.952V182.5ZM391.837 182.5H395.779V180.5H391.837V182.5ZM399.721 182.5H403.663V180.5H399.721V182.5ZM407.606 182.5H411.548V180.5H407.606V182.5ZM415.49 182.5H419.433V180.5H415.49V182.5ZM423.375 182.5H427.317V180.5H423.375V182.5ZM431.26 182.5H435.202V180.5H431.26V182.5ZM439.144 182.5H443.087V180.5H439.144V182.5ZM447.029 182.5H449V180.5H447.029V182.5ZM449 182.5C449.409 182.5 449.796 182.581 450.148 182.727L450.914 180.879C450.323 180.634 449.676 180.5 449 180.5V182.5ZM451.773 184.352C451.919 184.704 452 185.091 452 185.5H454C454 184.823 453.865 184.176 453.62 183.585L451.773 184.352ZM452 185.5V187.617H454V185.5H452ZM452 191.853V196.089H454V191.853H452ZM452 200.324V204.56H454V200.324H452ZM452 208.795V213.031H454V208.795H452ZM452 217.267V221.502H454V217.267H452ZM452 225.738V227.855H454V225.738H452Z" fill="#8298AB"/>
<path d="M240.707 49.2929C240.317 48.9024 239.683 48.9024 239.293 49.2929L232.929 55.6569C232.538 56.0474 232.538 56.6805 232.929 57.0711C233.319 57.4616 233.953 57.4616 234.343 57.0711L240 51.4142L245.657 57.0711C246.047 57.4616 246.681 57.4616 247.071 57.0711C247.462 56.6805 247.462 56.0474 247.071 55.6569L240.707 49.2929ZM239.293 117.209C239.683 117.6 240.317 117.6 240.707 117.209L247.071 110.845C247.462 110.454 247.462 109.821 247.071 109.431C246.681 109.04 246.047 109.04 245.657 109.431L240 115.088L234.343 109.431C233.953 109.04 233.319 109.04 232.929 109.431C232.538 109.821 232.538 110.454 232.929 110.845L239.293 117.209ZM239 50V52.0782H241V50H239ZM239 56.2346V60.3909H241V56.2346H239ZM239 64.5473V68.7037H241V64.5473H239ZM239 72.86V77.0164H241V72.86H239ZM239 81.1728V85.3291H241V81.1728H239ZM239 89.4855V93.6419H241V89.4855H239ZM239 97.7982V101.955H241V97.7982H239ZM239 106.111V110.267H241V106.111H239ZM239 114.424V116.502H241V114.424H239Z" fill="#8298AB"/>
<path d="M239.293 228.209C239.683 228.6 240.317 228.6 240.707 228.209L247.071 221.845C247.462 221.454 247.462 220.821 247.071 220.431C246.681 220.04 246.047 220.04 245.657 220.431L240 226.088L234.343 220.431C233.953 220.04 233.319 220.04 232.929 220.431C232.538 220.821 232.538 221.454 232.929 221.845L239.293 228.209ZM239 161V163.078H241V161H239ZM239 167.235V171.391H241V167.235H239ZM239 175.547V179.704H241V175.547H239ZM239 183.86V188.016H241V183.86H239ZM239 192.173V196.329H241V192.173H239ZM239 200.485V204.642H241V200.485H239ZM239 208.798V212.955H241V208.798H239ZM239 217.111V221.267H241V217.111H239ZM239 225.424V227.502H241V225.424H239Z" fill="#8298AB"/>
<rect x="145" y="120" width="195" height="25" rx="12.5" fill="white"/>
<rect x="145" y="120" width="195" height="25" rx="12.5" stroke="#8298AB" stroke-width="2" stroke-dasharray="4 4"/>
<path d="M211.788 138.24C208.524 138.24 205.948 135.616 205.948 132.24C205.948 128.88 208.524 126.272 211.788 126.272C214.94 126.272 217.372 128.368 217.74 131.408H214.54C214.3 129.968 213.228 128.976 211.82 128.976C210.124 128.976 209.052 130.288 209.052 132.24C209.052 134.208 210.124 135.536 211.82 135.536C213.212 135.536 214.284 134.544 214.54 133.088H217.74C217.356 136.16 214.94 138.24 211.788 138.24ZM224.124 138V137.168C223.516 137.856 222.764 138.16 221.66 138.16C219.868 138.16 218.668 137.088 218.668 135.456C218.668 133.776 220.028 132.864 222.492 132.864C222.956 132.864 223.388 132.896 223.756 132.96V132.544C223.756 131.792 223.324 131.376 222.556 131.376C221.804 131.376 221.356 131.792 221.26 132.544H218.796C218.956 130.544 220.444 129.232 222.572 129.232C224.94 129.232 226.332 130.512 226.332 132.688V138H224.124ZM221.244 135.376C221.244 135.936 221.628 136.272 222.299 136.272C223.212 136.272 223.756 135.84 223.756 135.136V134.592C223.34 134.512 223.02 134.48 222.668 134.48C221.74 134.48 221.244 134.784 221.244 135.376ZM233.656 135.312V137.696C233.048 138.032 232.472 138.16 231.704 138.16C229.768 138.16 228.632 137.008 228.632 135.04V131.776H227.032V129.392H228.632V126.864H231.368V129.392H233.72V131.776H231.368V134.4C231.368 135.232 231.72 135.616 232.472 135.616C232.92 135.616 233.352 135.504 233.656 135.312ZM239.983 138V137.168C239.375 137.856 238.623 138.16 237.519 138.16C235.727 138.16 234.527 137.088 234.527 135.456C234.527 133.776 235.887 132.864 238.351 132.864C238.815 132.864 239.247 132.896 239.615 132.96V132.544C239.615 131.792 239.183 131.376 238.415 131.376C237.663 131.376 237.215 131.792 237.119 132.544H234.655C234.815 130.544 236.303 129.232 238.431 129.232C240.799 129.232 242.191 130.512 242.191 132.688V138H239.983ZM237.103 135.376C237.103 135.936 237.487 136.272 238.159 136.272C239.071 136.272 239.615 135.84 239.615 135.136V134.592C239.199 134.512 238.879 134.48 238.527 134.48C237.599 134.48 237.103 134.784 237.103 135.376ZM246.664 138H243.896V126.512H246.664V138ZM256.731 129.392L252.635 141.088H249.643L250.843 137.904L247.482 129.392H250.459L252.315 134.72L253.979 129.392H256.731ZM264.95 135.072C264.95 136.976 263.542 138.16 260.95 138.16C258.358 138.16 256.95 136.944 256.774 134.96H259.398C259.398 135.68 260.054 136.144 260.998 136.144C261.622 136.144 262.182 136 262.182 135.552C262.182 135.168 261.894 135.008 261.302 134.896L259.606 134.592C258.102 134.32 257.142 133.456 257.142 132.064C257.142 130.4 258.55 129.232 260.806 129.232C263.062 129.232 264.63 130.432 264.79 132.352H262.166C262.102 131.664 261.574 131.248 260.822 131.248C260.182 131.248 259.766 131.424 259.766 131.808C259.766 132.176 260.038 132.288 260.582 132.384L262.406 132.72C264.07 133.024 264.95 133.84 264.95 135.072ZM269.375 127.392C269.375 128.288 268.655 128.944 267.615 128.944C266.575 128.944 265.855 128.288 265.855 127.392C265.855 126.48 266.575 125.824 267.615 125.824C268.655 125.824 269.375 126.48 269.375 127.392ZM269.007 138H266.271V129.392H269.007V138ZM278.434 135.072C278.434 136.976 277.026 138.16 274.434 138.16C271.842 138.16 270.434 136.944 270.258 134.96H272.882C272.882 135.68 273.538 136.144 274.482 136.144C275.106 136.144 275.666 136 275.666 135.552C275.666 135.168 275.378 135.008 274.786 134.896L273.09 134.592C271.586 134.32 270.626 133.456 270.626 132.064C270.626 130.4 272.034 129.232 274.29 129.232C276.546 129.232 278.114 130.432 278.274 132.352H275.65C275.586 131.664 275.058 131.248 274.306 131.248C273.666 131.248 273.25 131.424 273.25 131.808C273.25 132.176 273.522 132.288 274.066 132.384L275.89 132.72C277.554 133.024 278.434 133.84 278.434 135.072Z" fill="#8298AB"/>
<g clip-path="url(#clip0_418_841)">
<rect x="138" width="203" height="50" rx="4" fill="#82C5F5"/>
<rect x="146" y="8" width="187" height="34" rx="4" fill="#B5E0FF"/>
<line x1="137.506" y1="152.357" x2="137.506" y2="-103" stroke="white" stroke-opacity="0.5" stroke-width="1.70238"/>
<line x1="142.613" y1="152.357" x2="142.613" y2="-103" stroke="white" stroke-opacity="0.5" stroke-width="1.70238"/>
<line x1="147.72" y1="152.357" x2="147.72" y2="-103" stroke="white" stroke-opacity="0.5" stroke-width="1.70238"/>
<line x1="152.828" y1="152.357" x2="152.828" y2="-103" stroke="white" stroke-opacity="0.5" stroke-width="1.70238"/>
<line x1="157.935" y1="152.357" x2="157.935" y2="-103" stroke="white" stroke-opacity="0.5" stroke-width="1.70238"/>
<line x1="163.042" y1="152.357" x2="163.042" y2="-103" stroke="white" stroke-opacity="0.5" stroke-width="1.70238"/>
<line x1="168.149" y1="152.357" x2="168.149" y2="-103" stroke="white" stroke-opacity="0.5" stroke-width="1.70238"/>
<line x1="173.256" y1="152.357" x2="173.256" y2="-103" stroke="white" stroke-opacity="0.5" stroke-width="1.70238"/>
<line x1="178.363" y1="152.357" x2="178.363" y2="-103" stroke="white" stroke-opacity="0.5" stroke-width="1.70238"/>
<line x1="183.47" y1="152.357" x2="183.47" y2="-103" stroke="white" stroke-opacity="0.5" stroke-width="1.70238"/>
<line x1="188.578" y1="152.357" x2="188.578" y2="-103" stroke="white" stroke-opacity="0.5" stroke-width="1.70238"/>
<line x1="193.685" y1="152.357" x2="193.685" y2="-103" stroke="white" stroke-opacity="0.5" stroke-width="1.70238"/>
<line x1="198.792" y1="152.357" x2="198.792" y2="-103" stroke="white" stroke-opacity="0.5" stroke-width="1.70238"/>
<line x1="203.899" y1="152.357" x2="203.899" y2="-103" stroke="white" stroke-opacity="0.5" stroke-width="1.70238"/>
<line x1="209.006" y1="152.357" x2="209.006" y2="-103" stroke="white" stroke-opacity="0.5" stroke-width="1.70238"/>
<line x1="214.113" y1="152.357" x2="214.113" y2="-103" stroke="white" stroke-opacity="0.5" stroke-width="1.70238"/>
<line x1="219.22" y1="152.357" x2="219.22" y2="-103" stroke="white" stroke-opacity="0.5" stroke-width="1.70238"/>
<line x1="224.328" y1="152.357" x2="224.328" y2="-103" stroke="white" stroke-opacity="0.5" stroke-width="1.70238"/>
<line x1="229.435" y1="152.357" x2="229.435" y2="-103" stroke="white" stroke-opacity="0.5" stroke-width="1.70238"/>
<line x1="234.542" y1="152.357" x2="234.542" y2="-103" stroke="white" stroke-opacity="0.5" stroke-width="1.70238"/>
<line x1="239.649" y1="152.357" x2="239.649" y2="-103" stroke="white" stroke-opacity="0.5" stroke-width="1.70238"/>
<line x1="244.756" y1="152.357" x2="244.756" y2="-103" stroke="white" stroke-opacity="0.5" stroke-width="1.70238"/>
<line x1="249.863" y1="152.357" x2="249.863" y2="-103" stroke="white" stroke-opacity="0.5" stroke-width="1.70238"/>
<line x1="254.97" y1="152.357" x2="254.97" y2="-103" stroke="white" stroke-opacity="0.5" stroke-width="1.70238"/>
<line x1="260.078" y1="152.357" x2="260.078" y2="-103" stroke="white" stroke-opacity="0.5" stroke-width="1.70238"/>
<line x1="265.185" y1="152.357" x2="265.185" y2="-103" stroke="white" stroke-opacity="0.5" stroke-width="1.70238"/>
<line x1="270.292" y1="152.357" x2="270.292" y2="-103" stroke="white" stroke-opacity="0.5" stroke-width="1.70238"/>
<line x1="275.399" y1="152.357" x2="275.399" y2="-103" stroke="white" stroke-opacity="0.5" stroke-width="1.70238"/>
<line x1="280.506" y1="152.357" x2="280.506" y2="-103" stroke="white" stroke-opacity="0.5" stroke-width="1.70238"/>
<line x1="285.613" y1="152.357" x2="285.613" y2="-103" stroke="white" stroke-opacity="0.5" stroke-width="1.70238"/>
<line x1="290.72" y1="152.357" x2="290.72" y2="-103" stroke="white" stroke-opacity="0.5" stroke-width="1.70238"/>
<line x1="295.828" y1="152.357" x2="295.828" y2="-103" stroke="white" stroke-opacity="0.5" stroke-width="1.70238"/>
<line x1="300.935" y1="152.357" x2="300.935" y2="-103" stroke="white" stroke-opacity="0.5" stroke-width="1.70238"/>
<line x1="306.042" y1="152.357" x2="306.042" y2="-103" stroke="white" stroke-opacity="0.5" stroke-width="1.70238"/>
<line x1="311.149" y1="152.357" x2="311.149" y2="-103" stroke="white" stroke-opacity="0.5" stroke-width="1.70238"/>
<line x1="316.256" y1="152.357" x2="316.256" y2="-103" stroke="white" stroke-opacity="0.5" stroke-width="1.70238"/>
<line x1="321.363" y1="152.357" x2="321.363" y2="-103" stroke="white" stroke-opacity="0.5" stroke-width="1.70238"/>
<line x1="326.47" y1="152.357" x2="326.47" y2="-103" stroke="white" stroke-opacity="0.5" stroke-width="1.70238"/>
<line x1="331.578" y1="152.357" x2="331.578" y2="-103" stroke="white" stroke-opacity="0.5" stroke-width="1.70238"/>
<line x1="336.685" y1="152.357" x2="336.685" y2="-103" stroke="white" stroke-opacity="0.5" stroke-width="1.70238"/>
<line x1="341.792" y1="152.357" x2="341.792" y2="-103" stroke="white" stroke-opacity="0.5" stroke-width="1.70238"/>
<path d="M216.464 30L211.888 22.832V30H209.12V18.512H212.368L216.608 25.152V18.512H219.376V30H216.464ZM225.284 30.144C222.628 30.144 220.852 28.352 220.852 25.68C220.852 23.104 222.708 21.232 225.268 21.232C228.116 21.232 230.02 23.552 229.524 26.384H223.684C223.828 27.472 224.34 28.016 225.22 28.016C225.988 28.016 226.5 27.696 226.74 27.072H229.476C228.948 29.04 227.428 30.144 225.284 30.144ZM225.204 23.248C224.388 23.248 223.908 23.712 223.716 24.672H226.596C226.564 23.808 226.02 23.248 225.204 23.248ZM236.547 27.312V29.696C235.939 30.032 235.363 30.16 234.595 30.16C232.659 30.16 231.523 29.008 231.523 27.04V23.776H229.923V21.392H231.523V18.864H234.259V21.392H236.611V23.776H234.259V26.4C234.259 27.232 234.611 27.616 235.363 27.616C235.811 27.616 236.243 27.504 236.547 27.312ZM244.826 30L243.498 25.12L242.17 30H239.434L237.018 21.392H239.69L240.89 26.112L242.154 21.392H244.89L246.09 26.112L247.29 21.392H249.978L247.546 30H244.826ZM254.676 30.16C252.132 30.16 250.18 28.16 250.18 25.696C250.18 23.232 252.132 21.232 254.676 21.232C257.22 21.232 259.172 23.232 259.172 25.696C259.172 28.16 257.22 30.16 254.676 30.16ZM254.676 27.712C255.524 27.712 256.324 27.04 256.324 25.696C256.324 24.352 255.524 23.696 254.676 23.696C253.828 23.696 253.028 24.352 253.028 25.696C253.028 27.04 253.828 27.712 254.676 27.712ZM263.163 26.032V30H260.427V21.392H262.939V22.912C263.595 21.904 264.955 21.328 266.331 21.328V24.176C264.395 23.984 263.163 24.128 263.163 26.032ZM270.116 30H267.38V18.512H270.116V24.88L272.788 21.392H275.94L272.756 25.472L276.388 30H272.9L270.116 26.08V30Z" fill="#8298AB"/>
</g>
<rect x="1" y="230" width="150" height="101" rx="7" fill="#CFEBFF"/>
<rect x="1" y="230" width="150" height="101" rx="7" stroke="#82C5F5" stroke-width="2" stroke-dasharray="4 4"/>
<g clip-path="url(#clip1_418_841)">
<rect x="8" y="237" width="67" height="60" rx="4" fill="#82C5F5"/>
<line x1="11.006" y1="394.357" x2="11.006" y2="139" stroke="white" stroke-opacity="0.5" stroke-width="1.70238"/>
<line x1="16.1132" y1="394.357" x2="16.1132" y2="139" stroke="white" stroke-opacity="0.5" stroke-width="1.70238"/>
<line x1="21.2203" y1="394.357" x2="21.2203" y2="139" stroke="white" stroke-opacity="0.5" stroke-width="1.70238"/>
<line x1="26.3275" y1="394.357" x2="26.3275" y2="139" stroke="white" stroke-opacity="0.5" stroke-width="1.70238"/>
<line x1="31.4347" y1="394.357" x2="31.4347" y2="139" stroke="white" stroke-opacity="0.5" stroke-width="1.70238"/>
<line x1="36.5419" y1="394.357" x2="36.5419" y2="139" stroke="white" stroke-opacity="0.5" stroke-width="1.70238"/>
<line x1="41.6491" y1="394.357" x2="41.6491" y2="139" stroke="white" stroke-opacity="0.5" stroke-width="1.70238"/>
<line x1="46.756" y1="394.357" x2="46.756" y2="139" stroke="white" stroke-opacity="0.5" stroke-width="1.70238"/>
<line x1="51.8632" y1="394.357" x2="51.8632" y2="139" stroke="white" stroke-opacity="0.5" stroke-width="1.70238"/>
<line x1="56.9703" y1="394.357" x2="56.9703" y2="139" stroke="white" stroke-opacity="0.5" stroke-width="1.70238"/>
<line x1="62.0775" y1="394.357" x2="62.0775" y2="139" stroke="white" stroke-opacity="0.5" stroke-width="1.70238"/>
<line x1="67.1847" y1="394.357" x2="67.1847" y2="139" stroke="white" stroke-opacity="0.5" stroke-width="1.70238"/>
<line x1="72.2919" y1="394.357" x2="72.2919" y2="139" stroke="white" stroke-opacity="0.5" stroke-width="1.70238"/>
<path d="M31.1469 263.032V265H25.0509V256.384H31.0629V258.352H27.3189V259.588H30.7149V261.556H27.3189V263.032H31.1469ZM34.6055 257.044C34.6055 257.716 34.0655 258.208 33.2855 258.208C32.5055 258.208 31.9655 257.716 31.9655 257.044C31.9655 256.36 32.5055 255.868 33.2855 255.868C34.0655 255.868 34.6055 256.36 34.6055 257.044ZM34.3295 265H32.2775V258.544H34.3295V265ZM38.5559 267.436C36.7679 267.436 35.5439 266.452 35.4719 264.952H37.4639C37.5359 265.528 37.9079 265.84 38.5439 265.84C39.3119 265.84 39.7079 265.432 39.7079 264.652V263.896C39.3719 264.376 38.7599 264.664 38.0639 264.664C36.4919 264.664 35.2679 263.308 35.2679 261.544C35.2679 259.72 36.3959 258.424 37.9799 258.424C38.7959 258.424 39.3839 258.664 39.8759 259.204V258.544H41.7599V264.628C41.7599 266.368 40.5359 267.436 38.5559 267.436ZM37.3439 261.556C37.3439 262.36 37.7879 262.876 38.4839 262.876C39.2039 262.876 39.6839 262.336 39.6839 261.544C39.6839 260.74 39.2039 260.212 38.4839 260.212C37.7879 260.212 37.3439 260.74 37.3439 261.556ZM46.0216 265.108C44.0296 265.108 42.6976 263.764 42.6976 261.76C42.6976 259.828 44.0896 258.424 46.0096 258.424C48.1456 258.424 49.5736 260.164 49.2016 262.288H44.8216C44.9296 263.104 45.3136 263.512 45.9736 263.512C46.5496 263.512 46.9336 263.272 47.1136 262.804H49.1656C48.7696 264.28 47.6296 265.108 46.0216 265.108ZM45.9616 259.936C45.3496 259.936 44.9896 260.284 44.8456 261.004H47.0056C46.9816 260.356 46.5736 259.936 45.9616 259.936ZM52.2474 261.604V265H50.1954V258.544H52.0794V259.324C52.5834 258.76 53.1834 258.424 53.9994 258.424C55.2714 258.424 56.1714 259.276 56.1714 260.848V265H54.1194V261.532C54.1194 260.716 53.8314 260.272 53.2074 260.272C52.7034 260.272 52.2474 260.632 52.2474 261.604ZM31.0015 279H25.1095V270.384H27.3775V276.948H31.0015V279ZM35.8114 279V278.376C35.3554 278.892 34.7914 279.12 33.9634 279.12C32.6194 279.12 31.7194 278.316 31.7194 277.092C31.7194 275.832 32.7394 275.148 34.5874 275.148C34.9354 275.148 35.2594 275.172 35.5354 275.22V274.908C35.5354 274.344 35.2114 274.032 34.6354 274.032C34.0714 274.032 33.7354 274.344 33.6634 274.908H31.8154C31.9354 273.408 33.0514 272.424 34.6474 272.424C36.4234 272.424 37.4674 273.384 37.4674 275.016V279H35.8114ZM33.6514 277.032C33.6514 277.452 33.9394 277.704 34.4434 277.704C35.1274 277.704 35.5354 277.38 35.5354 276.852V276.444C35.2234 276.384 34.9834 276.36 34.7194 276.36C34.0234 276.36 33.6514 276.588 33.6514 277.032ZM44.7158 272.544L41.6438 281.316H39.3998L40.2998 278.928L37.7798 272.544H40.0118L41.4038 276.54L42.6518 272.544H44.7158ZM48.0138 279.108C46.0218 279.108 44.6898 277.764 44.6898 275.76C44.6898 273.828 46.0818 272.424 48.0018 272.424C50.1378 272.424 51.5658 274.164 51.1938 276.288H46.8138C46.9218 277.104 47.3058 277.512 47.9658 277.512C48.5418 277.512 48.9258 277.272 49.1058 276.804H51.1578C50.7618 278.28 49.6218 279.108 48.0138 279.108ZM47.9538 273.936C47.3418 273.936 46.9818 274.284 46.8378 275.004H48.9978C48.9738 274.356 48.5658 273.936 47.9538 273.936ZM54.2396 276.024V279H52.1876V272.544H54.0716V273.684C54.5636 272.928 55.5836 272.496 56.6156 272.496V274.632C55.1636 274.488 54.2396 274.596 54.2396 276.024Z" fill="#8298AB"/>
</g>
<g clip-path="url(#clip2_418_841)">
<rect x="78" y="237" width="67" height="60" rx="4" fill="#82C5F5"/>
<line x1="81.006" y1="394.357" x2="81.006" y2="139" stroke="white" stroke-opacity="0.5" stroke-width="1.70238"/>
<line x1="86.1132" y1="394.357" x2="86.1132" y2="139" stroke="white" stroke-opacity="0.5" stroke-width="1.70238"/>
<line x1="91.2203" y1="394.357" x2="91.2203" y2="139" stroke="white" stroke-opacity="0.5" stroke-width="1.70238"/>
<line x1="96.3275" y1="394.357" x2="96.3275" y2="139" stroke="white" stroke-opacity="0.5" stroke-width="1.70238"/>
<line x1="101.435" y1="394.357" x2="101.435" y2="139" stroke="white" stroke-opacity="0.5" stroke-width="1.70238"/>
<line x1="106.542" y1="394.357" x2="106.542" y2="139" stroke="white" stroke-opacity="0.5" stroke-width="1.70238"/>
<line x1="111.649" y1="394.357" x2="111.649" y2="139" stroke="white" stroke-opacity="0.5" stroke-width="1.70238"/>
<line x1="116.756" y1="394.357" x2="116.756" y2="139" stroke="white" stroke-opacity="0.5" stroke-width="1.70238"/>
<line x1="121.863" y1="394.357" x2="121.863" y2="139" stroke="white" stroke-opacity="0.5" stroke-width="1.70238"/>
<line x1="126.97" y1="394.357" x2="126.97" y2="139" stroke="white" stroke-opacity="0.5" stroke-width="1.70238"/>
<line x1="132.078" y1="394.357" x2="132.078" y2="139" stroke="white" stroke-opacity="0.5" stroke-width="1.70238"/>
<line x1="137.185" y1="394.357" x2="137.185" y2="139" stroke="white" stroke-opacity="0.5" stroke-width="1.70238"/>
<line x1="142.292" y1="394.357" x2="142.292" y2="139" stroke="white" stroke-opacity="0.5" stroke-width="1.70238"/>
<path d="M89.781 269.18C89.781 270.956 88.365 272.12 86.121 272.12C83.877 272.12 82.437 270.932 82.281 269.024H84.573C84.597 269.84 85.137 270.356 86.073 270.356C86.853 270.356 87.369 270.056 87.369 269.516C87.369 269.144 86.997 268.868 86.493 268.772L84.921 268.472C83.541 268.208 82.629 267.404 82.629 266.012C82.629 264.404 84.045 263.276 85.977 263.276C88.029 263.276 89.505 264.452 89.637 266.312H87.345C87.285 265.532 86.757 265.028 86.001 265.028C85.329 265.028 84.921 265.388 84.921 265.856C84.921 266.24 85.305 266.468 85.761 266.552L87.429 266.876C88.965 267.176 89.781 267.932 89.781 269.18ZM96.9795 265.544L93.9075 274.316H91.6635L92.5635 271.928L90.0435 265.544H92.2755L93.6675 269.54L94.9155 265.544H96.9795ZM99.6478 272H97.5958V265.544H99.4798V266.336C99.9718 265.76 100.5 265.424 101.34 265.424C102.156 265.424 102.804 265.772 103.164 266.42C103.716 265.796 104.292 265.424 105.24 265.424C106.524 265.424 107.424 266.276 107.424 267.848V272H105.372V268.484C105.372 267.74 105.072 267.272 104.484 267.272C103.968 267.272 103.536 267.632 103.536 268.496V272H101.484V268.484C101.484 267.74 101.184 267.272 100.596 267.272C100.068 267.272 99.6478 267.632 99.6478 268.496V272ZM115.389 268.772C115.389 270.62 114.249 272.12 112.509 272.12C111.753 272.12 111.117 271.82 110.589 271.268V272H108.705V263.384H110.757V266.144C111.261 265.664 111.837 265.424 112.509 265.424C114.249 265.424 115.389 266.9 115.389 268.772ZM113.253 268.772C113.253 267.74 112.641 267.272 112.017 267.272C111.393 267.272 110.781 267.728 110.781 268.76C110.781 269.78 111.381 270.272 112.017 270.272C112.641 270.272 113.253 269.78 113.253 268.772ZM118.65 264.044C118.65 264.716 118.11 265.208 117.33 265.208C116.55 265.208 116.01 264.716 116.01 264.044C116.01 263.36 116.55 262.868 117.33 262.868C118.11 262.868 118.65 263.36 118.65 264.044ZM118.374 272H116.322V265.544H118.374V272ZM122.685 272.12C120.777 272.12 119.313 270.62 119.313 268.772C119.313 266.924 120.777 265.424 122.685 265.424C124.593 265.424 126.057 266.924 126.057 268.772C126.057 270.62 124.593 272.12 122.685 272.12ZM122.685 270.284C123.321 270.284 123.921 269.78 123.921 268.772C123.921 267.764 123.321 267.272 122.685 267.272C122.049 267.272 121.449 267.764 121.449 268.772C121.449 269.78 122.049 270.284 122.685 270.284ZM131.213 269.984V271.772C130.757 272.024 130.325 272.12 129.749 272.12C128.297 272.12 127.445 271.256 127.445 269.78V267.332H126.245V265.544H127.445V263.648H129.497V265.544H131.261V267.332H129.497V269.3C129.497 269.924 129.761 270.212 130.325 270.212C130.661 270.212 130.985 270.128 131.213 269.984ZM134.506 264.044C134.506 264.716 133.966 265.208 133.186 265.208C132.406 265.208 131.866 264.716 131.866 264.044C131.866 263.36 132.406 262.868 133.186 262.868C133.966 262.868 134.506 263.36 134.506 264.044ZM134.23 272H132.178V265.544H134.23V272ZM138.42 272.12C136.5 272.12 135.168 270.74 135.168 268.772C135.168 266.852 136.56 265.424 138.42 265.424C140.196 265.424 141.516 266.624 141.696 268.424H139.512C139.476 267.716 139.056 267.272 138.432 267.272C137.712 267.272 137.292 267.824 137.292 268.772C137.292 269.744 137.7 270.284 138.432 270.284C139.068 270.284 139.464 269.852 139.512 269.12H141.696C141.516 270.968 140.256 272.12 138.42 272.12Z" fill="#8298AB"/>
</g>
<path d="M50.2055 316.032V318H44.1095V309.384H50.1215V311.352H46.3775V312.588H49.7735V314.556H46.3775V316.032H50.2055ZM55.7521 318H53.4841V311.436H50.8441V309.384H58.3921V311.436H55.7521V318ZM61.6822 318H59.4142V309.384H61.6822V312.588H64.8622V309.384H67.1302V318H64.8622V314.556H61.6822V318ZM74.9087 316.032V318H68.8127V309.384H74.8247V311.352H71.0807V312.588H74.4767V314.556H71.0807V316.032H74.9087ZM78.4752 318H76.2072V309.384H79.7352C82.0632 309.384 83.3952 310.428 83.3952 312.264C83.3952 313.368 82.7352 314.28 81.5712 314.772L83.6832 318H80.9832L79.2192 315.132H78.4752V318ZM78.4752 311.256V313.26H79.6392C80.6472 313.26 81.1152 312.948 81.1152 312.264C81.1152 311.58 80.6472 311.256 79.6392 311.256H78.4752ZM90.7993 316.032V318H84.7033V309.384H90.7153V311.352H86.9713V312.588H90.3673V314.556H86.9713V316.032H90.7993ZM99.5498 309.384V314.568C99.5498 316.656 98.2418 318.18 95.8178 318.18C93.3698 318.18 92.0738 316.656 92.0738 314.568V309.384H94.3418V314.604C94.3418 315.504 94.6658 316.152 95.8178 316.152C96.9578 316.152 97.2818 315.504 97.2818 314.604V309.384H99.5498ZM105.103 318L103.255 313.032V318H101.203V309.384H103.879L106.051 315.228L108.211 309.384H110.887V318H108.835V312.972L106.975 318H105.103Z" fill="#8298AB"/>
<rect x="168" y="229" width="150" height="101" rx="7" fill="#CFEBFF"/>
<rect x="168" y="229" width="150" height="101" rx="7" stroke="#82C5F5" stroke-width="2" stroke-dasharray="4 4"/>
<g clip-path="url(#clip3_418_841)">
<rect x="175" y="236" width="67" height="60" rx="4" fill="#82C5F5"/>
<line x1="178.006" y1="393.357" x2="178.006" y2="138" stroke="white" stroke-opacity="0.5" stroke-width="1.70238"/>
<line x1="183.113" y1="393.357" x2="183.113" y2="138" stroke="white" stroke-opacity="0.5" stroke-width="1.70238"/>
<line x1="188.22" y1="393.357" x2="188.22" y2="138" stroke="white" stroke-opacity="0.5" stroke-width="1.70238"/>
<line x1="193.328" y1="393.357" x2="193.328" y2="138" stroke="white" stroke-opacity="0.5" stroke-width="1.70238"/>
<line x1="198.435" y1="393.357" x2="198.435" y2="138" stroke="white" stroke-opacity="0.5" stroke-width="1.70238"/>
<line x1="203.542" y1="393.357" x2="203.542" y2="138" stroke="white" stroke-opacity="0.5" stroke-width="1.70238"/>
<line x1="208.649" y1="393.357" x2="208.649" y2="138" stroke="white" stroke-opacity="0.5" stroke-width="1.70238"/>
<line x1="213.756" y1="393.357" x2="213.756" y2="138" stroke="white" stroke-opacity="0.5" stroke-width="1.70238"/>
<line x1="218.863" y1="393.357" x2="218.863" y2="138" stroke="white" stroke-opacity="0.5" stroke-width="1.70238"/>
<line x1="223.97" y1="393.357" x2="223.97" y2="138" stroke="white" stroke-opacity="0.5" stroke-width="1.70238"/>
<line x1="229.078" y1="393.357" x2="229.078" y2="138" stroke="white" stroke-opacity="0.5" stroke-width="1.70238"/>
<line x1="234.185" y1="393.357" x2="234.185" y2="138" stroke="white" stroke-opacity="0.5" stroke-width="1.70238"/>
<line x1="239.292" y1="393.357" x2="239.292" y2="138" stroke="white" stroke-opacity="0.5" stroke-width="1.70238"/>
<path d="M198.147 262.032V264H192.051V255.384H198.063V257.352H194.319V258.588H197.715V260.556H194.319V262.032H198.147ZM201.605 256.044C201.605 256.716 201.065 257.208 200.285 257.208C199.505 257.208 198.965 256.716 198.965 256.044C198.965 255.36 199.505 254.868 200.285 254.868C201.065 254.868 201.605 255.36 201.605 256.044ZM201.329 264H199.277V257.544H201.329V264ZM205.556 266.436C203.768 266.436 202.544 265.452 202.472 263.952H204.464C204.536 264.528 204.908 264.84 205.544 264.84C206.312 264.84 206.708 264.432 206.708 263.652V262.896C206.372 263.376 205.76 263.664 205.064 263.664C203.492 263.664 202.268 262.308 202.268 260.544C202.268 258.72 203.396 257.424 204.98 257.424C205.796 257.424 206.384 257.664 206.876 258.204V257.544H208.76V263.628C208.76 265.368 207.536 266.436 205.556 266.436ZM204.344 260.556C204.344 261.36 204.788 261.876 205.484 261.876C206.204 261.876 206.684 261.336 206.684 260.544C206.684 259.74 206.204 259.212 205.484 259.212C204.788 259.212 204.344 259.74 204.344 260.556ZM213.022 264.108C211.03 264.108 209.698 262.764 209.698 260.76C209.698 258.828 211.09 257.424 213.01 257.424C215.146 257.424 216.574 259.164 216.202 261.288H211.822C211.93 262.104 212.314 262.512 212.974 262.512C213.55 262.512 213.934 262.272 214.114 261.804H216.166C215.77 263.28 214.63 264.108 213.022 264.108ZM212.962 258.936C212.35 258.936 211.99 259.284 211.846 260.004H214.006C213.982 259.356 213.574 258.936 212.962 258.936ZM219.247 260.604V264H217.195V257.544H219.079V258.324C219.583 257.76 220.183 257.424 220.999 257.424C222.271 257.424 223.171 258.276 223.171 259.848V264H221.119V260.532C221.119 259.716 220.831 259.272 220.207 259.272C219.703 259.272 219.247 259.632 219.247 260.604ZM198.002 278H192.11V269.384H194.378V275.948H198.002V278ZM202.811 278V277.376C202.355 277.892 201.791 278.12 200.963 278.12C199.619 278.12 198.719 277.316 198.719 276.092C198.719 274.832 199.739 274.148 201.587 274.148C201.935 274.148 202.259 274.172 202.535 274.22V273.908C202.535 273.344 202.211 273.032 201.635 273.032C201.071 273.032 200.735 273.344 200.663 273.908H198.815C198.935 272.408 200.051 271.424 201.647 271.424C203.423 271.424 204.467 272.384 204.467 274.016V278H202.811ZM200.651 276.032C200.651 276.452 200.939 276.704 201.443 276.704C202.127 276.704 202.535 276.38 202.535 275.852V275.444C202.223 275.384 201.983 275.36 201.719 275.36C201.023 275.36 200.651 275.588 200.651 276.032ZM211.716 271.544L208.644 280.316H206.4L207.3 277.928L204.78 271.544H207.012L208.404 275.54L209.652 271.544H211.716ZM215.014 278.108C213.022 278.108 211.69 276.764 211.69 274.76C211.69 272.828 213.082 271.424 215.002 271.424C217.138 271.424 218.566 273.164 218.194 275.288H213.814C213.922 276.104 214.306 276.512 214.966 276.512C215.542 276.512 215.926 276.272 216.106 275.804H218.158C217.762 277.28 216.622 278.108 215.014 278.108ZM214.954 272.936C214.342 272.936 213.982 273.284 213.838 274.004H215.998C215.974 273.356 215.566 272.936 214.954 272.936ZM221.24 275.024V278H219.188V271.544H221.072V272.684C221.564 271.928 222.584 271.496 223.616 271.496V273.632C222.164 273.488 221.24 273.596 221.24 275.024Z" fill="#8298AB"/>
</g>
<g clip-path="url(#clip4_418_841)">
<rect x="245" y="236" width="67" height="60" rx="4" fill="#82C5F5"/>
<line x1="248.006" y1="393.357" x2="248.006" y2="138" stroke="white" stroke-opacity="0.5" stroke-width="1.70238"/>
<line x1="253.113" y1="393.357" x2="253.113" y2="138" stroke="white" stroke-opacity="0.5" stroke-width="1.70238"/>
<line x1="258.22" y1="393.357" x2="258.22" y2="138" stroke="white" stroke-opacity="0.5" stroke-width="1.70238"/>
<line x1="263.328" y1="393.357" x2="263.328" y2="138" stroke="white" stroke-opacity="0.5" stroke-width="1.70238"/>
<line x1="268.435" y1="393.357" x2="268.435" y2="138" stroke="white" stroke-opacity="0.5" stroke-width="1.70238"/>
<line x1="273.542" y1="393.357" x2="273.542" y2="138" stroke="white" stroke-opacity="0.5" stroke-width="1.70238"/>
<line x1="278.649" y1="393.357" x2="278.649" y2="138" stroke="white" stroke-opacity="0.5" stroke-width="1.70238"/>
<line x1="283.756" y1="393.357" x2="283.756" y2="138" stroke="white" stroke-opacity="0.5" stroke-width="1.70238"/>
<line x1="288.863" y1="393.357" x2="288.863" y2="138" stroke="white" stroke-opacity="0.5" stroke-width="1.70238"/>
<line x1="293.97" y1="393.357" x2="293.97" y2="138" stroke="white" stroke-opacity="0.5" stroke-width="1.70238"/>
<line x1="299.078" y1="393.357" x2="299.078" y2="138" stroke="white" stroke-opacity="0.5" stroke-width="1.70238"/>
<line x1="304.185" y1="393.357" x2="304.185" y2="138" stroke="white" stroke-opacity="0.5" stroke-width="1.70238"/>
<line x1="309.292" y1="393.357" x2="309.292" y2="138" stroke="white" stroke-opacity="0.5" stroke-width="1.70238"/>
<path d="M256.781 268.18C256.781 269.956 255.365 271.12 253.121 271.12C250.877 271.12 249.437 269.932 249.281 268.024H251.573C251.597 268.84 252.137 269.356 253.073 269.356C253.853 269.356 254.369 269.056 254.369 268.516C254.369 268.144 253.997 267.868 253.493 267.772L251.921 267.472C250.541 267.208 249.629 266.404 249.629 265.012C249.629 263.404 251.045 262.276 252.977 262.276C255.029 262.276 256.505 263.452 256.637 265.312H254.345C254.285 264.532 253.757 264.028 253.001 264.028C252.329 264.028 251.921 264.388 251.921 264.856C251.921 265.24 252.305 265.468 252.761 265.552L254.429 265.876C255.965 266.176 256.781 266.932 256.781 268.18ZM263.98 264.544L260.908 273.316H258.664L259.564 270.928L257.044 264.544H259.276L260.668 268.54L261.916 264.544H263.98ZM266.648 271H264.596V264.544H266.48V265.336C266.972 264.76 267.5 264.424 268.34 264.424C269.156 264.424 269.804 264.772 270.164 265.42C270.716 264.796 271.292 264.424 272.24 264.424C273.524 264.424 274.424 265.276 274.424 266.848V271H272.372V267.484C272.372 266.74 272.072 266.272 271.484 266.272C270.968 266.272 270.536 266.632 270.536 267.496V271H268.484V267.484C268.484 266.74 268.184 266.272 267.596 266.272C267.068 266.272 266.648 266.632 266.648 267.496V271ZM282.389 267.772C282.389 269.62 281.249 271.12 279.509 271.12C278.753 271.12 278.117 270.82 277.589 270.268V271H275.705V262.384H277.757V265.144C278.261 264.664 278.837 264.424 279.509 264.424C281.249 264.424 282.389 265.9 282.389 267.772ZM280.253 267.772C280.253 266.74 279.641 266.272 279.017 266.272C278.393 266.272 277.781 266.728 277.781 267.76C277.781 268.78 278.381 269.272 279.017 269.272C279.641 269.272 280.253 268.78 280.253 267.772ZM285.65 263.044C285.65 263.716 285.11 264.208 284.33 264.208C283.55 264.208 283.01 263.716 283.01 263.044C283.01 262.36 283.55 261.868 284.33 261.868C285.11 261.868 285.65 262.36 285.65 263.044ZM285.374 271H283.322V264.544H285.374V271ZM289.685 271.12C287.777 271.12 286.313 269.62 286.313 267.772C286.313 265.924 287.777 264.424 289.685 264.424C291.593 264.424 293.057 265.924 293.057 267.772C293.057 269.62 291.593 271.12 289.685 271.12ZM289.685 269.284C290.321 269.284 290.921 268.78 290.921 267.772C290.921 266.764 290.321 266.272 289.685 266.272C289.049 266.272 288.449 266.764 288.449 267.772C288.449 268.78 289.049 269.284 289.685 269.284ZM298.213 268.984V270.772C297.757 271.024 297.325 271.12 296.749 271.12C295.297 271.12 294.445 270.256 294.445 268.78V266.332H293.245V264.544H294.445V262.648H296.497V264.544H298.261V266.332H296.497V268.3C296.497 268.924 296.761 269.212 297.325 269.212C297.661 269.212 297.985 269.128 298.213 268.984ZM301.506 263.044C301.506 263.716 300.966 264.208 300.186 264.208C299.406 264.208 298.866 263.716 298.866 263.044C298.866 262.36 299.406 261.868 300.186 261.868C300.966 261.868 301.506 262.36 301.506 263.044ZM301.23 271H299.178V264.544H301.23V271ZM305.42 271.12C303.5 271.12 302.168 269.74 302.168 267.772C302.168 265.852 303.56 264.424 305.42 264.424C307.196 264.424 308.516 265.624 308.696 267.424H306.512C306.476 266.716 306.056 266.272 305.432 266.272C304.712 266.272 304.292 266.824 304.292 267.772C304.292 268.744 304.7 269.284 305.432 269.284C306.068 269.284 306.464 268.852 306.512 268.12H308.696C308.516 269.968 307.256 271.12 305.42 271.12Z" fill="#8298AB"/>
</g>
<path d="M217.206 315.032V317H211.11V308.384H217.122V310.352H213.378V311.588H216.774V313.556H213.378V315.032H217.206ZM222.752 317H220.484V310.436H217.844V308.384H225.392V310.436H222.752V317ZM228.682 317H226.414V308.384H228.682V311.588H231.862V308.384H234.13V317H231.862V313.556H228.682V317ZM241.909 315.032V317H235.813V308.384H241.825V310.352H238.081V311.588H241.477V313.556H238.081V315.032H241.909ZM245.475 317H243.207V308.384H246.735C249.063 308.384 250.395 309.428 250.395 311.264C250.395 312.368 249.735 313.28 248.571 313.772L250.683 317H247.983L246.219 314.132H245.475V317ZM245.475 310.256V312.26H246.639C247.647 312.26 248.115 311.948 248.115 311.264C248.115 310.58 247.647 310.256 246.639 310.256H245.475ZM257.799 315.032V317H251.703V308.384H257.715V310.352H253.971V311.588H257.367V313.556H253.971V315.032H257.799ZM266.55 308.384V313.568C266.55 315.656 265.242 317.18 262.818 317.18C260.37 317.18 259.074 315.656 259.074 313.568V308.384H261.342V313.604C261.342 314.504 261.666 315.152 262.818 315.152C263.958 315.152 264.282 314.504 264.282 313.604V308.384H266.55ZM272.103 317L270.255 312.032V317H268.203V308.384H270.879L273.051 314.228L275.211 308.384H277.887V317H275.835V311.972L273.975 317H272.103Z" fill="#8298AB"/>
<rect x="335" y="229" width="150" height="101" rx="7" fill="#CFEBFF"/>
<rect x="335" y="229" width="150" height="101" rx="7" stroke="#82C5F5" stroke-width="2" stroke-dasharray="4 4"/>
<g clip-path="url(#clip5_418_841)">
<rect x="342" y="236" width="67" height="60" rx="4" fill="#82C5F5"/>
<line x1="345.006" y1="393.357" x2="345.006" y2="138" stroke="white" stroke-opacity="0.5" stroke-width="1.70238"/>
<line x1="350.113" y1="393.357" x2="350.113" y2="138" stroke="white" stroke-opacity="0.5" stroke-width="1.70238"/>
<line x1="355.22" y1="393.357" x2="355.22" y2="138" stroke="white" stroke-opacity="0.5" stroke-width="1.70238"/>
<line x1="360.328" y1="393.357" x2="360.328" y2="138" stroke="white" stroke-opacity="0.5" stroke-width="1.70238"/>
<line x1="365.435" y1="393.357" x2="365.435" y2="138" stroke="white" stroke-opacity="0.5" stroke-width="1.70238"/>
<line x1="370.542" y1="393.357" x2="370.542" y2="138" stroke="white" stroke-opacity="0.5" stroke-width="1.70238"/>
<line x1="375.649" y1="393.357" x2="375.649" y2="138" stroke="white" stroke-opacity="0.5" stroke-width="1.70238"/>
<line x1="380.756" y1="393.357" x2="380.756" y2="138" stroke="white" stroke-opacity="0.5" stroke-width="1.70238"/>
<line x1="385.863" y1="393.357" x2="385.863" y2="138" stroke="white" stroke-opacity="0.5" stroke-width="1.70238"/>
<line x1="390.97" y1="393.357" x2="390.97" y2="138" stroke="white" stroke-opacity="0.5" stroke-width="1.70238"/>
<line x1="396.078" y1="393.357" x2="396.078" y2="138" stroke="white" stroke-opacity="0.5" stroke-width="1.70238"/>
<line x1="401.185" y1="393.357" x2="401.185" y2="138" stroke="white" stroke-opacity="0.5" stroke-width="1.70238"/>
<line x1="406.292" y1="393.357" x2="406.292" y2="138" stroke="white" stroke-opacity="0.5" stroke-width="1.70238"/>
<path d="M365.147 262.032V264H359.051V255.384H365.063V257.352H361.319V258.588H364.715V260.556H361.319V262.032H365.147ZM368.605 256.044C368.605 256.716 368.065 257.208 367.285 257.208C366.505 257.208 365.965 256.716 365.965 256.044C365.965 255.36 366.505 254.868 367.285 254.868C368.065 254.868 368.605 255.36 368.605 256.044ZM368.329 264H366.277V257.544H368.329V264ZM372.556 266.436C370.768 266.436 369.544 265.452 369.472 263.952H371.464C371.536 264.528 371.908 264.84 372.544 264.84C373.312 264.84 373.708 264.432 373.708 263.652V262.896C373.372 263.376 372.76 263.664 372.064 263.664C370.492 263.664 369.268 262.308 369.268 260.544C369.268 258.72 370.396 257.424 371.98 257.424C372.796 257.424 373.384 257.664 373.876 258.204V257.544H375.76V263.628C375.76 265.368 374.536 266.436 372.556 266.436ZM371.344 260.556C371.344 261.36 371.788 261.876 372.484 261.876C373.204 261.876 373.684 261.336 373.684 260.544C373.684 259.74 373.204 259.212 372.484 259.212C371.788 259.212 371.344 259.74 371.344 260.556ZM380.022 264.108C378.03 264.108 376.698 262.764 376.698 260.76C376.698 258.828 378.09 257.424 380.01 257.424C382.146 257.424 383.574 259.164 383.202 261.288H378.822C378.93 262.104 379.314 262.512 379.974 262.512C380.55 262.512 380.934 262.272 381.114 261.804H383.166C382.77 263.28 381.63 264.108 380.022 264.108ZM379.962 258.936C379.35 258.936 378.99 259.284 378.846 260.004H381.006C380.982 259.356 380.574 258.936 379.962 258.936ZM386.247 260.604V264H384.195V257.544H386.079V258.324C386.583 257.76 387.183 257.424 387.999 257.424C389.271 257.424 390.171 258.276 390.171 259.848V264H388.119V260.532C388.119 259.716 387.831 259.272 387.207 259.272C386.703 259.272 386.247 259.632 386.247 260.604ZM365.002 278H359.11V269.384H361.378V275.948H365.002V278ZM369.811 278V277.376C369.355 277.892 368.791 278.12 367.963 278.12C366.619 278.12 365.719 277.316 365.719 276.092C365.719 274.832 366.739 274.148 368.587 274.148C368.935 274.148 369.259 274.172 369.535 274.22V273.908C369.535 273.344 369.211 273.032 368.635 273.032C368.071 273.032 367.735 273.344 367.663 273.908H365.815C365.935 272.408 367.051 271.424 368.647 271.424C370.423 271.424 371.467 272.384 371.467 274.016V278H369.811ZM367.651 276.032C367.651 276.452 367.939 276.704 368.443 276.704C369.127 276.704 369.535 276.38 369.535 275.852V275.444C369.223 275.384 368.983 275.36 368.719 275.36C368.023 275.36 367.651 275.588 367.651 276.032ZM378.716 271.544L375.644 280.316H373.4L374.3 277.928L371.78 271.544H374.012L375.404 275.54L376.652 271.544H378.716ZM382.014 278.108C380.022 278.108 378.69 276.764 378.69 274.76C378.69 272.828 380.082 271.424 382.002 271.424C384.138 271.424 385.566 273.164 385.194 275.288H380.814C380.922 276.104 381.306 276.512 381.966 276.512C382.542 276.512 382.926 276.272 383.106 275.804H385.158C384.762 277.28 383.622 278.108 382.014 278.108ZM381.954 272.936C381.342 272.936 380.982 273.284 380.838 274.004H382.998C382.974 273.356 382.566 272.936 381.954 272.936ZM388.24 275.024V278H386.188V271.544H388.072V272.684C388.564 271.928 389.584 271.496 390.616 271.496V273.632C389.164 273.488 388.24 273.596 388.24 275.024Z" fill="#8298AB"/>
</g>
<g clip-path="url(#clip6_418_841)">
<rect x="412" y="236" width="67" height="60" rx="4" fill="#82C5F5"/>
<line x1="415.006" y1="393.357" x2="415.006" y2="138" stroke="white" stroke-opacity="0.5" stroke-width="1.70238"/>
<line x1="420.113" y1="393.357" x2="420.113" y2="138" stroke="white" stroke-opacity="0.5" stroke-width="1.70238"/>
<line x1="425.22" y1="393.357" x2="425.22" y2="138" stroke="white" stroke-opacity="0.5" stroke-width="1.70238"/>
<line x1="430.328" y1="393.357" x2="430.328" y2="138" stroke="white" stroke-opacity="0.5" stroke-width="1.70238"/>
<line x1="435.435" y1="393.357" x2="435.435" y2="138" stroke="white" stroke-opacity="0.5" stroke-width="1.70238"/>
<line x1="440.542" y1="393.357" x2="440.542" y2="138" stroke="white" stroke-opacity="0.5" stroke-width="1.70238"/>
<line x1="445.649" y1="393.357" x2="445.649" y2="138" stroke="white" stroke-opacity="0.5" stroke-width="1.70238"/>
<line x1="450.756" y1="393.357" x2="450.756" y2="138" stroke="white" stroke-opacity="0.5" stroke-width="1.70238"/>
<line x1="455.863" y1="393.357" x2="455.863" y2="138" stroke="white" stroke-opacity="0.5" stroke-width="1.70238"/>
<line x1="460.97" y1="393.357" x2="460.97" y2="138" stroke="white" stroke-opacity="0.5" stroke-width="1.70238"/>
<line x1="466.078" y1="393.357" x2="466.078" y2="138" stroke="white" stroke-opacity="0.5" stroke-width="1.70238"/>
<line x1="471.185" y1="393.357" x2="471.185" y2="138" stroke="white" stroke-opacity="0.5" stroke-width="1.70238"/>
<line x1="476.292" y1="393.357" x2="476.292" y2="138" stroke="white" stroke-opacity="0.5" stroke-width="1.70238"/>
<path d="M423.781 268.18C423.781 269.956 422.365 271.12 420.121 271.12C417.877 271.12 416.437 269.932 416.281 268.024H418.573C418.597 268.84 419.137 269.356 420.073 269.356C420.853 269.356 421.369 269.056 421.369 268.516C421.369 268.144 420.997 267.868 420.493 267.772L418.921 267.472C417.541 267.208 416.629 266.404 416.629 265.012C416.629 263.404 418.045 262.276 419.977 262.276C422.029 262.276 423.505 263.452 423.637 265.312H421.345C421.285 264.532 420.757 264.028 420.001 264.028C419.329 264.028 418.921 264.388 418.921 264.856C418.921 265.24 419.305 265.468 419.761 265.552L421.429 265.876C422.965 266.176 423.781 266.932 423.781 268.18ZM430.98 264.544L427.908 273.316H425.664L426.564 270.928L424.044 264.544H426.276L427.668 268.54L428.916 264.544H430.98ZM433.648 271H431.596V264.544H433.48V265.336C433.972 264.76 434.5 264.424 435.34 264.424C436.156 264.424 436.804 264.772 437.164 265.42C437.716 264.796 438.292 264.424 439.24 264.424C440.524 264.424 441.424 265.276 441.424 266.848V271H439.372V267.484C439.372 266.74 439.072 266.272 438.484 266.272C437.968 266.272 437.536 266.632 437.536 267.496V271H435.484V267.484C435.484 266.74 435.184 266.272 434.596 266.272C434.068 266.272 433.648 266.632 433.648 267.496V271ZM449.389 267.772C449.389 269.62 448.249 271.12 446.509 271.12C445.753 271.12 445.117 270.82 444.589 270.268V271H442.705V262.384H444.757V265.144C445.261 264.664 445.837 264.424 446.509 264.424C448.249 264.424 449.389 265.9 449.389 267.772ZM447.253 267.772C447.253 266.74 446.641 266.272 446.017 266.272C445.393 266.272 444.781 266.728 444.781 267.76C444.781 268.78 445.381 269.272 446.017 269.272C446.641 269.272 447.253 268.78 447.253 267.772ZM452.65 263.044C452.65 263.716 452.11 264.208 451.33 264.208C450.55 264.208 450.01 263.716 450.01 263.044C450.01 262.36 450.55 261.868 451.33 261.868C452.11 261.868 452.65 262.36 452.65 263.044ZM452.374 271H450.322V264.544H452.374V271ZM456.685 271.12C454.777 271.12 453.313 269.62 453.313 267.772C453.313 265.924 454.777 264.424 456.685 264.424C458.593 264.424 460.057 265.924 460.057 267.772C460.057 269.62 458.593 271.12 456.685 271.12ZM456.685 269.284C457.321 269.284 457.921 268.78 457.921 267.772C457.921 266.764 457.321 266.272 456.685 266.272C456.049 266.272 455.449 266.764 455.449 267.772C455.449 268.78 456.049 269.284 456.685 269.284ZM465.213 268.984V270.772C464.757 271.024 464.325 271.12 463.749 271.12C462.297 271.12 461.445 270.256 461.445 268.78V266.332H460.245V264.544H461.445V262.648H463.497V264.544H465.261V266.332H463.497V268.3C463.497 268.924 463.761 269.212 464.325 269.212C464.661 269.212 464.985 269.128 465.213 268.984ZM468.506 263.044C468.506 263.716 467.966 264.208 467.186 264.208C466.406 264.208 465.866 263.716 465.866 263.044C465.866 262.36 466.406 261.868 467.186 261.868C467.966 261.868 468.506 262.36 468.506 263.044ZM468.23 271H466.178V264.544H468.23V271ZM472.42 271.12C470.5 271.12 469.168 269.74 469.168 267.772C469.168 265.852 470.56 264.424 472.42 264.424C474.196 264.424 475.516 265.624 475.696 267.424H473.512C473.476 266.716 473.056 266.272 472.432 266.272C471.712 266.272 471.292 266.824 471.292 267.772C471.292 268.744 471.7 269.284 472.432 269.284C473.068 269.284 473.464 268.852 473.512 268.12H475.696C475.516 269.968 474.256 271.12 472.42 271.12Z" fill="#8298AB"/>
</g>
<path d="M384.206 315.032V317H378.11V308.384H384.122V310.352H380.378V311.588H383.774V313.556H380.378V315.032H384.206ZM389.752 317H387.484V310.436H384.844V308.384H392.392V310.436H389.752V317ZM395.682 317H393.414V308.384H395.682V311.588H398.862V308.384H401.13V317H398.862V313.556H395.682V317ZM408.909 315.032V317H402.813V308.384H408.825V310.352H405.081V311.588H408.477V313.556H405.081V315.032H408.909ZM412.475 317H410.207V308.384H413.735C416.063 308.384 417.395 309.428 417.395 311.264C417.395 312.368 416.735 313.28 415.571 313.772L417.683 317H414.983L413.219 314.132H412.475V317ZM412.475 310.256V312.26H413.639C414.647 312.26 415.115 311.948 415.115 311.264C415.115 310.58 414.647 310.256 413.639 310.256H412.475ZM424.799 315.032V317H418.703V308.384H424.715V310.352H420.971V311.588H424.367V313.556H420.971V315.032H424.799ZM433.55 308.384V313.568C433.55 315.656 432.242 317.18 429.818 317.18C427.37 317.18 426.074 315.656 426.074 313.568V308.384H428.342V313.604C428.342 314.504 428.666 315.152 429.818 315.152C430.958 315.152 431.282 314.504 431.282 313.604V308.384H433.55ZM439.103 317L437.255 312.032V317H435.203V308.384H437.879L440.051 314.228L442.211 308.384H444.887V317H442.835V311.972L440.975 317H439.103Z" fill="#8298AB"/>
<defs>
<clipPath id="clip0_418_841">
<rect x="138" width="203" height="50" rx="4" fill="white"/>
</clipPath>
<clipPath id="clip1_418_841">
<rect x="8" y="237" width="67" height="60" rx="4" fill="white"/>
</clipPath>
<clipPath id="clip2_418_841">
<rect x="78" y="237" width="67" height="60" rx="4" fill="white"/>
</clipPath>
<clipPath id="clip3_418_841">
<rect x="175" y="236" width="67" height="60" rx="4" fill="white"/>
</clipPath>
<clipPath id="clip4_418_841">
<rect x="245" y="236" width="67" height="60" rx="4" fill="white"/>
</clipPath>
<clipPath id="clip5_418_841">
<rect x="342" y="236" width="67" height="60" rx="4" fill="white"/>
</clipPath>
<clipPath id="clip6_418_841">
<rect x="412" y="236" width="67" height="60" rx="4" fill="white"/>
</clipPath>
</defs>
</svg>
