<svg width="331" height="546" viewBox="0 0 331 546" fill="none" xmlns="http://www.w3.org/2000/svg">
<g clip-path="url(#clip0_418_1478)">
<rect x="4" y="16" width="72" height="501" rx="4" fill="#E598F8"/>
<rect x="12" y="24" width="56" height="485" rx="4" fill="#F9E1FF"/>
<line x1="4.22034" y1="235.357" x2="4.22034" y2="-19.9997" stroke="white" stroke-opacity="0.5" stroke-width="1.70238"/>
<line x1="9.32752" y1="235.357" x2="9.32752" y2="-19.9997" stroke="white" stroke-opacity="0.5" stroke-width="1.70238"/>
<line x1="14.4347" y1="235.357" x2="14.4347" y2="-19.9997" stroke="white" stroke-opacity="0.5" stroke-width="1.70238"/>
<line x1="19.5418" y1="235.357" x2="19.5418" y2="-19.9997" stroke="white" stroke-opacity="0.5" stroke-width="1.70238"/>
<line x1="24.6489" y1="235.357" x2="24.6489" y2="-19.9997" stroke="white" stroke-opacity="0.5" stroke-width="1.70238"/>
<line x1="29.7561" y1="235.357" x2="29.7561" y2="-19.9997" stroke="white" stroke-opacity="0.5" stroke-width="1.70238"/>
<line x1="34.8633" y1="235.357" x2="34.8633" y2="-19.9997" stroke="white" stroke-opacity="0.5" stroke-width="1.70238"/>
<line x1="39.9703" y1="235.357" x2="39.9703" y2="-19.9997" stroke="white" stroke-opacity="0.5" stroke-width="1.70238"/>
<line x1="45.0775" y1="235.357" x2="45.0775" y2="-19.9997" stroke="white" stroke-opacity="0.5" stroke-width="1.70238"/>
<line x1="50.1847" y1="235.357" x2="50.1847" y2="-19.9997" stroke="white" stroke-opacity="0.5" stroke-width="1.70238"/>
<line x1="55.2919" y1="235.357" x2="55.2919" y2="-19.9997" stroke="white" stroke-opacity="0.5" stroke-width="1.70238"/>
<line x1="60.3989" y1="235.357" x2="60.3989" y2="-19.9997" stroke="white" stroke-opacity="0.5" stroke-width="1.70238"/>
<line x1="65.5061" y1="235.357" x2="65.5061" y2="-19.9997" stroke="white" stroke-opacity="0.5" stroke-width="1.70238"/>
<line x1="70.6133" y1="235.357" x2="70.6133" y2="-19.9997" stroke="white" stroke-opacity="0.5" stroke-width="1.70238"/>
<line x1="75.7203" y1="235.357" x2="75.7203" y2="-19.9997" stroke="white" stroke-opacity="0.5" stroke-width="1.70238"/>
<line x1="4.00611" y1="490.357" x2="4.00611" y2="235" stroke="white" stroke-opacity="0.5" stroke-width="1.70238"/>
<line x1="9.11316" y1="490.357" x2="9.11316" y2="235" stroke="white" stroke-opacity="0.5" stroke-width="1.70238"/>
<line x1="14.2203" y1="490.357" x2="14.2203" y2="235" stroke="white" stroke-opacity="0.5" stroke-width="1.70238"/>
<line x1="19.3275" y1="490.357" x2="19.3275" y2="235" stroke="white" stroke-opacity="0.5" stroke-width="1.70238"/>
<line x1="24.4347" y1="490.357" x2="24.4347" y2="235" stroke="white" stroke-opacity="0.5" stroke-width="1.70238"/>
<line x1="29.5418" y1="490.357" x2="29.5418" y2="235" stroke="white" stroke-opacity="0.5" stroke-width="1.70238"/>
<line x1="34.6489" y1="490.357" x2="34.6489" y2="235" stroke="white" stroke-opacity="0.5" stroke-width="1.70238"/>
<line x1="39.7561" y1="490.357" x2="39.7561" y2="235" stroke="white" stroke-opacity="0.5" stroke-width="1.70238"/>
<line x1="44.8633" y1="490.357" x2="44.8633" y2="235" stroke="white" stroke-opacity="0.5" stroke-width="1.70238"/>
<line x1="49.9703" y1="490.357" x2="49.9703" y2="235" stroke="white" stroke-opacity="0.5" stroke-width="1.70238"/>
<line x1="55.0775" y1="490.357" x2="55.0775" y2="235" stroke="white" stroke-opacity="0.5" stroke-width="1.70238"/>
<line x1="60.1847" y1="490.357" x2="60.1847" y2="235" stroke="white" stroke-opacity="0.5" stroke-width="1.70238"/>
<line x1="65.2919" y1="490.357" x2="65.2919" y2="235" stroke="white" stroke-opacity="0.5" stroke-width="1.70238"/>
<line x1="70.3989" y1="490.357" x2="70.3989" y2="235" stroke="white" stroke-opacity="0.5" stroke-width="1.70238"/>
<line x1="75.5061" y1="490.357" x2="75.5061" y2="235" stroke="white" stroke-opacity="0.5" stroke-width="1.70238"/>
<line x1="4.00611" y1="745.357" x2="4.00611" y2="490" stroke="white" stroke-opacity="0.5" stroke-width="1.70238"/>
<line x1="9.11316" y1="745.357" x2="9.11316" y2="490" stroke="white" stroke-opacity="0.5" stroke-width="1.70238"/>
<line x1="14.2203" y1="745.357" x2="14.2203" y2="490" stroke="white" stroke-opacity="0.5" stroke-width="1.70238"/>
<line x1="19.3275" y1="745.357" x2="19.3275" y2="490" stroke="white" stroke-opacity="0.5" stroke-width="1.70238"/>
<line x1="24.4347" y1="745.357" x2="24.4347" y2="490" stroke="white" stroke-opacity="0.5" stroke-width="1.70238"/>
<line x1="29.5418" y1="745.357" x2="29.5418" y2="490" stroke="white" stroke-opacity="0.5" stroke-width="1.70238"/>
<line x1="34.6489" y1="745.357" x2="34.6489" y2="490" stroke="white" stroke-opacity="0.5" stroke-width="1.70238"/>
<line x1="39.7561" y1="745.357" x2="39.7561" y2="490" stroke="white" stroke-opacity="0.5" stroke-width="1.70238"/>
<line x1="44.8633" y1="745.357" x2="44.8633" y2="490" stroke="white" stroke-opacity="0.5" stroke-width="1.70238"/>
<line x1="49.9703" y1="745.357" x2="49.9703" y2="490" stroke="white" stroke-opacity="0.5" stroke-width="1.70238"/>
<line x1="55.0775" y1="745.357" x2="55.0775" y2="490" stroke="white" stroke-opacity="0.5" stroke-width="1.70238"/>
<line x1="60.1847" y1="745.357" x2="60.1847" y2="490" stroke="white" stroke-opacity="0.5" stroke-width="1.70238"/>
<line x1="65.2919" y1="745.357" x2="65.2919" y2="490" stroke="white" stroke-opacity="0.5" stroke-width="1.70238"/>
<line x1="70.3989" y1="745.357" x2="70.3989" y2="490" stroke="white" stroke-opacity="0.5" stroke-width="1.70238"/>
<line x1="75.5061" y1="745.357" x2="75.5061" y2="490" stroke="white" stroke-opacity="0.5" stroke-width="1.70238"/>
<circle cx="40" cy="59" r="14" fill="#E598F8"/>
</g>
<g clip-path="url(#clip1_418_1478)">
<rect x="246" y="16" width="72" height="501" rx="4" fill="#E598F8"/>
<rect x="254" y="24" width="56" height="485" rx="4" fill="#F9E1FF"/>
<line x1="246.22" y1="235.357" x2="246.22" y2="-19.9997" stroke="white" stroke-opacity="0.5" stroke-width="1.70238"/>
<line x1="251.328" y1="235.357" x2="251.328" y2="-19.9997" stroke="white" stroke-opacity="0.5" stroke-width="1.70238"/>
<line x1="256.435" y1="235.357" x2="256.435" y2="-19.9997" stroke="white" stroke-opacity="0.5" stroke-width="1.70238"/>
<line x1="261.542" y1="235.357" x2="261.542" y2="-19.9997" stroke="white" stroke-opacity="0.5" stroke-width="1.70238"/>
<line x1="266.649" y1="235.357" x2="266.649" y2="-19.9997" stroke="white" stroke-opacity="0.5" stroke-width="1.70238"/>
<line x1="271.756" y1="235.357" x2="271.756" y2="-19.9997" stroke="white" stroke-opacity="0.5" stroke-width="1.70238"/>
<line x1="276.863" y1="235.357" x2="276.863" y2="-19.9997" stroke="white" stroke-opacity="0.5" stroke-width="1.70238"/>
<line x1="281.97" y1="235.357" x2="281.97" y2="-19.9997" stroke="white" stroke-opacity="0.5" stroke-width="1.70238"/>
<line x1="287.078" y1="235.357" x2="287.078" y2="-19.9997" stroke="white" stroke-opacity="0.5" stroke-width="1.70238"/>
<line x1="292.185" y1="235.357" x2="292.185" y2="-19.9997" stroke="white" stroke-opacity="0.5" stroke-width="1.70238"/>
<line x1="297.292" y1="235.357" x2="297.292" y2="-19.9997" stroke="white" stroke-opacity="0.5" stroke-width="1.70238"/>
<line x1="302.399" y1="235.357" x2="302.399" y2="-19.9997" stroke="white" stroke-opacity="0.5" stroke-width="1.70238"/>
<line x1="307.506" y1="235.357" x2="307.506" y2="-19.9997" stroke="white" stroke-opacity="0.5" stroke-width="1.70238"/>
<line x1="312.613" y1="235.357" x2="312.613" y2="-19.9997" stroke="white" stroke-opacity="0.5" stroke-width="1.70238"/>
<line x1="317.72" y1="235.357" x2="317.72" y2="-19.9997" stroke="white" stroke-opacity="0.5" stroke-width="1.70238"/>
<line x1="246.006" y1="490.357" x2="246.006" y2="235" stroke="white" stroke-opacity="0.5" stroke-width="1.70238"/>
<line x1="251.113" y1="490.357" x2="251.113" y2="235" stroke="white" stroke-opacity="0.5" stroke-width="1.70238"/>
<line x1="256.22" y1="490.357" x2="256.22" y2="235" stroke="white" stroke-opacity="0.5" stroke-width="1.70238"/>
<line x1="261.328" y1="490.357" x2="261.328" y2="235" stroke="white" stroke-opacity="0.5" stroke-width="1.70238"/>
<line x1="266.435" y1="490.357" x2="266.435" y2="235" stroke="white" stroke-opacity="0.5" stroke-width="1.70238"/>
<line x1="271.542" y1="490.357" x2="271.542" y2="235" stroke="white" stroke-opacity="0.5" stroke-width="1.70238"/>
<line x1="276.649" y1="490.357" x2="276.649" y2="235" stroke="white" stroke-opacity="0.5" stroke-width="1.70238"/>
<line x1="281.756" y1="490.357" x2="281.756" y2="235" stroke="white" stroke-opacity="0.5" stroke-width="1.70238"/>
<line x1="286.863" y1="490.357" x2="286.863" y2="235" stroke="white" stroke-opacity="0.5" stroke-width="1.70238"/>
<line x1="291.97" y1="490.357" x2="291.97" y2="235" stroke="white" stroke-opacity="0.5" stroke-width="1.70238"/>
<line x1="297.078" y1="490.357" x2="297.078" y2="235" stroke="white" stroke-opacity="0.5" stroke-width="1.70238"/>
<line x1="302.185" y1="490.357" x2="302.185" y2="235" stroke="white" stroke-opacity="0.5" stroke-width="1.70238"/>
<line x1="307.292" y1="490.357" x2="307.292" y2="235" stroke="white" stroke-opacity="0.5" stroke-width="1.70238"/>
<line x1="312.399" y1="490.357" x2="312.399" y2="235" stroke="white" stroke-opacity="0.5" stroke-width="1.70238"/>
<line x1="317.506" y1="490.357" x2="317.506" y2="235" stroke="white" stroke-opacity="0.5" stroke-width="1.70238"/>
<line x1="246.006" y1="745.357" x2="246.006" y2="490" stroke="white" stroke-opacity="0.5" stroke-width="1.70238"/>
<line x1="251.113" y1="745.357" x2="251.113" y2="490" stroke="white" stroke-opacity="0.5" stroke-width="1.70238"/>
<line x1="256.22" y1="745.357" x2="256.22" y2="490" stroke="white" stroke-opacity="0.5" stroke-width="1.70238"/>
<line x1="261.328" y1="745.357" x2="261.328" y2="490" stroke="white" stroke-opacity="0.5" stroke-width="1.70238"/>
<line x1="266.435" y1="745.357" x2="266.435" y2="490" stroke="white" stroke-opacity="0.5" stroke-width="1.70238"/>
<line x1="271.542" y1="745.357" x2="271.542" y2="490" stroke="white" stroke-opacity="0.5" stroke-width="1.70238"/>
<line x1="276.649" y1="745.357" x2="276.649" y2="490" stroke="white" stroke-opacity="0.5" stroke-width="1.70238"/>
<line x1="281.756" y1="745.357" x2="281.756" y2="490" stroke="white" stroke-opacity="0.5" stroke-width="1.70238"/>
<line x1="286.863" y1="745.357" x2="286.863" y2="490" stroke="white" stroke-opacity="0.5" stroke-width="1.70238"/>
<line x1="291.97" y1="745.357" x2="291.97" y2="490" stroke="white" stroke-opacity="0.5" stroke-width="1.70238"/>
<line x1="297.078" y1="745.357" x2="297.078" y2="490" stroke="white" stroke-opacity="0.5" stroke-width="1.70238"/>
<line x1="302.185" y1="745.357" x2="302.185" y2="490" stroke="white" stroke-opacity="0.5" stroke-width="1.70238"/>
<line x1="307.292" y1="745.357" x2="307.292" y2="490" stroke="white" stroke-opacity="0.5" stroke-width="1.70238"/>
<line x1="312.399" y1="745.357" x2="312.399" y2="490" stroke="white" stroke-opacity="0.5" stroke-width="1.70238"/>
<line x1="317.506" y1="745.357" x2="317.506" y2="490" stroke="white" stroke-opacity="0.5" stroke-width="1.70238"/>
<circle cx="281" cy="53" r="14" fill="#E598F8"/>
</g>
<circle cx="40" cy="200" r="14" fill="#E598F8"/>
<circle cx="281" cy="194" r="14" fill="#E598F8"/>
<circle cx="157" cy="157" r="14" fill="#E598F8"/>
<path d="M53.5 203L143 150.5" stroke="#8298AB" stroke-width="2" stroke-dasharray="2 2"/>
<path d="M269 203L171 248.5" stroke="#8298AB" stroke-width="2" stroke-dasharray="2 2"/>
<path d="M266.5 197L170.5 150" stroke="#8298AB" stroke-width="2" stroke-dasharray="2 2"/>
<path d="M52 209L146 248.5" stroke="#8298AB" stroke-width="2" stroke-dasharray="2 2"/>
<circle cx="157" cy="245" r="14" fill="#E598F8"/>
<circle cx="40" cy="57" r="14" fill="#E598F8"/>
<circle cx="281" cy="51" r="14" fill="#E598F8"/>
<circle cx="157" cy="14" r="14" fill="#E598F8"/>
<path d="M53.5 60L143 7.5" stroke="#8298AB" stroke-width="2" stroke-dasharray="2 2"/>
<path d="M269 60L171 105.5" stroke="#8298AB" stroke-width="2" stroke-dasharray="2 2"/>
<path d="M266.5 54L170.5 7" stroke="#8298AB" stroke-width="2" stroke-dasharray="2 2"/>
<path d="M52 66L146 105.5" stroke="#8298AB" stroke-width="2" stroke-dasharray="2 2"/>
<circle cx="157" cy="102" r="14" fill="#E598F8"/>
<circle cx="40" cy="343" r="14" fill="#E598F8"/>
<circle cx="281" cy="337" r="14" fill="#E598F8"/>
<circle cx="157" cy="300" r="14" fill="#E598F8"/>
<path d="M53.5 346L143 293.5" stroke="#8298AB" stroke-width="2" stroke-dasharray="2 2"/>
<path d="M269 346L171 391.5" stroke="#8298AB" stroke-width="2" stroke-dasharray="2 2"/>
<path d="M266.5 340L170.5 293" stroke="#8298AB" stroke-width="2" stroke-dasharray="2 2"/>
<path d="M52 352L146 391.5" stroke="#8298AB" stroke-width="2" stroke-dasharray="2 2"/>
<circle cx="157" cy="388" r="14" fill="#E598F8"/>
<circle cx="40" cy="486" r="14" fill="#E598F8"/>
<circle cx="281" cy="480" r="14" fill="#E598F8"/>
<circle cx="157" cy="443" r="14" fill="#E598F8"/>
<path d="M53.5 489L143 436.5" stroke="#8298AB" stroke-width="2" stroke-dasharray="2 2"/>
<path d="M269 489L171 534.5" stroke="#8298AB" stroke-width="2" stroke-dasharray="2 2"/>
<path d="M266.5 483L170.5 436" stroke="#8298AB" stroke-width="2" stroke-dasharray="2 2"/>
<path d="M52 495L146 534.5" stroke="#8298AB" stroke-width="2" stroke-dasharray="2 2"/>
<circle cx="157" cy="531" r="14" fill="#E598F8"/>
<path d="M8.464 542L3.888 534.832V542H1.12V530.512H4.368L8.608 537.152V530.512H11.376V542H8.464ZM17.348 542.16C14.804 542.16 12.852 540.16 12.852 537.696C12.852 535.232 14.804 533.232 17.348 533.232C19.892 533.232 21.844 535.232 21.844 537.696C21.844 540.16 19.892 542.16 17.348 542.16ZM17.348 539.712C18.196 539.712 18.996 539.04 18.996 537.696C18.996 536.352 18.196 535.696 17.348 535.696C16.5 535.696 15.7 536.352 15.7 537.696C15.7 539.04 16.5 539.712 17.348 539.712ZM22.5551 537.696C22.5551 535.2 24.0751 533.232 26.3951 533.232C27.2911 533.232 28.0591 533.552 28.7311 534.192V530.512H31.4671V542H28.9551V541.024C28.2511 541.76 27.4031 542.16 26.3951 542.16C24.0751 542.16 22.5551 540.16 22.5551 537.696ZM25.4031 537.696C25.4031 539.04 26.2191 539.696 27.0511 539.696C27.8991 539.696 28.6991 539.04 28.6991 537.68C28.6991 536.304 27.8831 535.696 27.0511 535.696C26.2191 535.696 25.4031 536.32 25.4031 537.696ZM37.1434 542.144C34.4874 542.144 32.7114 540.352 32.7114 537.68C32.7114 535.104 34.5674 533.232 37.1274 533.232C39.9754 533.232 41.8794 535.552 41.3834 538.384H35.5434C35.6874 539.472 36.1994 540.016 37.0794 540.016C37.8474 540.016 38.3594 539.696 38.5994 539.072H41.3354C40.8074 541.04 39.2874 542.144 37.1434 542.144ZM37.0634 535.248C36.2474 535.248 35.7674 535.712 35.5754 536.672H38.4554C38.4234 535.808 37.8794 535.248 37.0634 535.248ZM50.0043 542.16C47.4603 542.16 45.5083 540.16 45.5083 537.696C45.5083 535.232 47.4603 533.232 50.0043 533.232C52.5483 533.232 54.5003 535.232 54.5003 537.696C54.5003 540.16 52.5483 542.16 50.0043 542.16ZM50.0043 539.712C50.8523 539.712 51.6523 539.04 51.6523 537.696C51.6523 536.352 50.8523 535.696 50.0043 535.696C49.1562 535.696 48.3563 536.352 48.3563 537.696C48.3563 539.04 49.1562 539.712 50.0043 539.712ZM64.6674 537.696C64.6674 540.192 63.1474 542.16 60.8274 542.16C59.9314 542.16 59.1634 541.84 58.4914 541.2V545.088H55.7554V533.392H58.2674V534.368C58.9714 533.632 59.8194 533.232 60.8274 533.232C63.1474 533.232 64.6674 535.232 64.6674 537.696ZM61.8194 537.696C61.8194 536.352 61.0034 535.696 60.1714 535.696C59.3234 535.696 58.5234 536.352 58.5234 537.712C58.5234 539.088 59.3394 539.696 60.1714 539.696C61.0034 539.696 61.8194 539.072 61.8194 537.696ZM68.8556 542H66.7756L67.2556 539.312H66.1356V537.264H67.6236L67.8796 535.808H66.7756V533.728H68.2476L68.6956 531.184H70.7756L70.3276 533.728H71.3036L71.7516 531.184H73.8156L73.3676 533.728H74.4556V535.808H72.9996L72.7436 537.264H73.8156V539.312H72.3756L71.8956 542H69.8316L70.3116 539.312H69.3356L68.8556 542ZM69.9596 535.808L69.7036 537.264H70.6796L70.9356 535.808H69.9596ZM80.6661 542H77.8981V533.568H75.8981V531.184H80.6661V542Z" fill="#8298AB"/>
<path d="M254.464 542L249.888 534.832V542H247.12V530.512H250.368L254.608 537.152V530.512H257.376V542H254.464ZM263.348 542.16C260.804 542.16 258.852 540.16 258.852 537.696C258.852 535.232 260.804 533.232 263.348 533.232C265.892 533.232 267.844 535.232 267.844 537.696C267.844 540.16 265.892 542.16 263.348 542.16ZM263.348 539.712C264.196 539.712 264.996 539.04 264.996 537.696C264.996 536.352 264.196 535.696 263.348 535.696C262.5 535.696 261.7 536.352 261.7 537.696C261.7 539.04 262.5 539.712 263.348 539.712ZM268.555 537.696C268.555 535.2 270.075 533.232 272.395 533.232C273.291 533.232 274.059 533.552 274.731 534.192V530.512H277.467V542H274.955V541.024C274.251 541.76 273.403 542.16 272.395 542.16C270.075 542.16 268.555 540.16 268.555 537.696ZM271.403 537.696C271.403 539.04 272.219 539.696 273.051 539.696C273.899 539.696 274.699 539.04 274.699 537.68C274.699 536.304 273.883 535.696 273.051 535.696C272.219 535.696 271.403 536.32 271.403 537.696ZM283.143 542.144C280.487 542.144 278.711 540.352 278.711 537.68C278.711 535.104 280.567 533.232 283.127 533.232C285.975 533.232 287.879 535.552 287.383 538.384H281.543C281.687 539.472 282.199 540.016 283.079 540.016C283.847 540.016 284.359 539.696 284.599 539.072H287.335C286.807 541.04 285.287 542.144 283.143 542.144ZM283.063 535.248C282.247 535.248 281.767 535.712 281.575 536.672H284.455C284.423 535.808 283.879 535.248 283.063 535.248ZM296.004 542.16C293.46 542.16 291.508 540.16 291.508 537.696C291.508 535.232 293.46 533.232 296.004 533.232C298.548 533.232 300.5 535.232 300.5 537.696C300.5 540.16 298.548 542.16 296.004 542.16ZM296.004 539.712C296.852 539.712 297.652 539.04 297.652 537.696C297.652 536.352 296.852 535.696 296.004 535.696C295.156 535.696 294.356 536.352 294.356 537.696C294.356 539.04 295.156 539.712 296.004 539.712ZM310.667 537.696C310.667 540.192 309.147 542.16 306.827 542.16C305.931 542.16 305.163 541.84 304.491 541.2V545.088H301.755V533.392H304.267V534.368C304.971 533.632 305.819 533.232 306.827 533.232C309.147 533.232 310.667 535.232 310.667 537.696ZM307.819 537.696C307.819 536.352 307.003 535.696 306.171 535.696C305.323 535.696 304.523 536.352 304.523 537.712C304.523 539.088 305.339 539.696 306.171 539.696C307.003 539.696 307.819 539.072 307.819 537.696ZM314.856 542H312.776L313.256 539.312H312.136V537.264H313.624L313.88 535.808H312.776V533.728H314.248L314.696 531.184H316.776L316.328 533.728H317.304L317.752 531.184H319.816L319.368 533.728H320.456V535.808H319L318.744 537.264H319.816V539.312H318.376L317.896 542H315.832L316.312 539.312H315.336L314.856 542ZM315.96 535.808L315.704 537.264H316.68L316.936 535.808H315.96ZM326.106 542.144C323.674 542.144 321.93 540.72 321.93 538.72H324.618C324.682 539.52 325.242 539.984 326.138 539.984C327.098 539.984 327.642 539.536 327.642 538.752C327.642 537.984 326.986 537.552 325.818 537.552H324.602V535.392H325.658C326.634 535.392 327.162 535.008 327.162 534.288C327.162 533.584 326.73 533.184 325.962 533.184C325.226 533.184 324.778 533.664 324.778 534.448H322.106C322.106 532.496 323.85 531.024 326.106 531.024C328.538 531.024 329.994 532.288 329.994 534.064C329.994 534.992 329.466 535.728 328.49 536.304C329.77 536.752 330.474 537.568 330.474 538.688C330.474 540.752 328.714 542.144 326.106 542.144Z" fill="#8298AB"/>
<path d="M125.717 55.376V58H117.589V46.512H125.605V49.136H120.613V50.784H125.141V53.408H120.613V55.376H125.717ZM130.328 47.392C130.328 48.288 129.608 48.944 128.568 48.944C127.528 48.944 126.808 48.288 126.808 47.392C126.808 46.48 127.528 45.824 128.568 45.824C129.608 45.824 130.328 46.48 130.328 47.392ZM129.96 58H127.224V49.392H129.96V58ZM135.595 61.248C133.211 61.248 131.579 59.936 131.483 57.936H134.139C134.235 58.704 134.731 59.12 135.579 59.12C136.603 59.12 137.131 58.576 137.131 57.536V56.528C136.683 57.168 135.867 57.552 134.939 57.552C132.843 57.552 131.211 55.744 131.211 53.392C131.211 50.96 132.715 49.232 134.827 49.232C135.915 49.232 136.699 49.552 137.355 50.272V49.392H139.867V57.504C139.867 59.824 138.235 61.248 135.595 61.248ZM133.979 53.408C133.979 54.48 134.571 55.168 135.499 55.168C136.459 55.168 137.099 54.448 137.099 53.392C137.099 52.32 136.459 51.616 135.499 51.616C134.571 51.616 133.979 52.32 133.979 53.408ZM145.55 58.144C142.894 58.144 141.118 56.352 141.118 53.68C141.118 51.104 142.974 49.232 145.534 49.232C148.382 49.232 150.286 51.552 149.79 54.384H143.95C144.094 55.472 144.606 56.016 145.486 56.016C146.254 56.016 146.766 55.696 147.006 55.072H149.742C149.214 57.04 147.694 58.144 145.55 58.144ZM145.47 51.248C144.654 51.248 144.174 51.712 143.982 52.672H146.862C146.83 51.808 146.286 51.248 145.47 51.248ZM153.851 53.472V58H151.115V49.392H153.627V50.432C154.299 49.68 155.099 49.232 156.187 49.232C157.883 49.232 159.083 50.368 159.083 52.464V58H156.347V53.376C156.347 52.288 155.963 51.696 155.131 51.696C154.459 51.696 153.851 52.176 153.851 53.472ZM172.226 58H164.37V46.512H167.394V55.264H172.226V58ZM178.639 58V57.168C178.031 57.856 177.279 58.16 176.175 58.16C174.383 58.16 173.183 57.088 173.183 55.456C173.183 53.776 174.543 52.864 177.007 52.864C177.471 52.864 177.903 52.896 178.271 52.96V52.544C178.271 51.792 177.839 51.376 177.071 51.376C176.319 51.376 175.871 51.792 175.775 52.544H173.311C173.471 50.544 174.959 49.232 177.087 49.232C179.455 49.232 180.847 50.512 180.847 52.688V58H178.639ZM175.759 55.376C175.759 55.936 176.143 56.272 176.815 56.272C177.727 56.272 178.271 55.84 178.271 55.136V54.592C177.855 54.512 177.535 54.48 177.183 54.48C176.255 54.48 175.759 54.784 175.759 55.376ZM190.512 49.392L186.416 61.088H183.424L184.624 57.904L181.264 49.392H184.24L186.096 54.72L187.76 49.392H190.512ZM194.909 58.144C192.253 58.144 190.477 56.352 190.477 53.68C190.477 51.104 192.333 49.232 194.893 49.232C197.741 49.232 199.645 51.552 199.149 54.384H193.309C193.453 55.472 193.965 56.016 194.845 56.016C195.613 56.016 196.125 55.696 196.365 55.072H199.101C198.573 57.04 197.053 58.144 194.909 58.144ZM194.829 51.248C194.013 51.248 193.533 51.712 193.341 52.672H196.221C196.189 51.808 195.645 51.248 194.829 51.248ZM203.21 54.032V58H200.474V49.392H202.986V50.912C203.642 49.904 205.002 49.328 206.378 49.328V52.176C204.442 51.984 203.21 52.128 203.21 54.032Z" fill="#8298AB"/>
<path d="M139.32 198.24C139.32 200.608 137.432 202.16 134.44 202.16C131.448 202.16 129.528 200.576 129.32 198.032H132.376C132.408 199.12 133.128 199.808 134.376 199.808C135.416 199.808 136.104 199.408 136.104 198.688C136.104 198.192 135.608 197.824 134.936 197.696L132.84 197.296C131 196.944 129.784 195.872 129.784 194.016C129.784 191.872 131.672 190.368 134.248 190.368C136.984 190.368 138.952 191.936 139.128 194.416H136.072C135.992 193.376 135.288 192.704 134.28 192.704C133.384 192.704 132.84 193.184 132.84 193.808C132.84 194.32 133.352 194.624 133.96 194.736L136.184 195.168C138.232 195.568 139.32 196.576 139.32 198.24ZM145.686 202V201.168C145.078 201.856 144.326 202.16 143.222 202.16C141.43 202.16 140.23 201.088 140.23 199.456C140.23 197.776 141.59 196.864 144.054 196.864C144.518 196.864 144.95 196.896 145.318 196.96V196.544C145.318 195.792 144.886 195.376 144.118 195.376C143.366 195.376 142.918 195.792 142.822 196.544H140.358C140.518 194.544 142.006 193.232 144.134 193.232C146.502 193.232 147.894 194.512 147.894 196.688V202H145.686ZM142.806 199.376C142.806 199.936 143.19 200.272 143.862 200.272C144.774 200.272 145.318 199.84 145.318 199.136V198.592C144.902 198.512 144.582 198.48 144.23 198.48C143.302 198.48 142.806 198.784 142.806 199.376ZM155.219 199.312V201.696C154.611 202.032 154.035 202.16 153.267 202.16C151.331 202.16 150.195 201.008 150.195 199.04V195.776H148.595V193.392H150.195V190.864H152.931V193.392H155.283V195.776H152.931V198.4C152.931 199.232 153.283 199.616 154.035 199.616C154.483 199.616 154.915 199.504 155.219 199.312ZM159.273 202H156.505V190.512H159.273V202ZM166.108 202V201.168C165.5 201.856 164.748 202.16 163.644 202.16C161.852 202.16 160.652 201.088 160.652 199.456C160.652 197.776 162.012 196.864 164.476 196.864C164.94 196.864 165.372 196.896 165.74 196.96V196.544C165.74 195.792 165.308 195.376 164.54 195.376C163.788 195.376 163.34 195.792 163.244 196.544H160.78C160.94 194.544 162.428 193.232 164.556 193.232C166.924 193.232 168.316 194.512 168.316 196.688V202H166.108ZM163.228 199.376C163.228 199.936 163.612 200.272 164.284 200.272C165.196 200.272 165.74 199.84 165.74 199.136V198.592C165.324 198.512 165.004 198.48 164.652 198.48C163.724 198.48 163.228 198.784 163.228 199.376ZM177.981 193.392L173.885 205.088H170.893L172.093 201.904L168.732 193.392H171.709L173.565 198.72L175.229 193.392H177.981ZM182.378 202.144C179.722 202.144 177.946 200.352 177.946 197.68C177.946 195.104 179.802 193.232 182.362 193.232C185.21 193.232 187.114 195.552 186.618 198.384H180.778C180.922 199.472 181.434 200.016 182.314 200.016C183.082 200.016 183.594 199.696 183.834 199.072H186.57C186.042 201.04 184.522 202.144 182.378 202.144ZM182.298 195.248C181.482 195.248 181.002 195.712 180.81 196.672H183.69C183.658 195.808 183.114 195.248 182.298 195.248ZM190.679 198.032V202H187.943V193.392H190.455V194.912C191.111 193.904 192.471 193.328 193.847 193.328V196.176C191.911 195.984 190.679 196.128 190.679 198.032Z" fill="#8298AB"/>
<path d="M154.57 339.512V346.712C154.57 349.272 153.034 351.24 149.946 351.24C146.874 351.24 145.322 349.272 145.322 346.712H148.362C148.362 347.736 148.586 348.536 149.946 348.536C151.29 348.536 151.53 347.736 151.53 346.76V339.512H154.57ZM159.617 340.392C159.617 341.288 158.897 341.944 157.857 341.944C156.817 341.944 156.097 341.288 156.097 340.392C156.097 339.48 156.817 338.824 157.857 338.824C158.897 338.824 159.617 339.48 159.617 340.392ZM159.249 351H156.513V342.392H159.249V351ZM166.82 348.312V350.696C166.212 351.032 165.636 351.16 164.868 351.16C162.932 351.16 161.796 350.008 161.796 348.04V344.776H160.196V342.392H161.796V339.864H164.532V342.392H166.884V344.776H164.532V347.4C164.532 348.232 164.884 348.616 165.636 348.616C166.084 348.616 166.516 348.504 166.82 348.312ZM171.903 351.16C169.359 351.16 167.407 349.16 167.407 346.696C167.407 344.232 169.359 342.232 171.903 342.232C174.447 342.232 176.399 344.232 176.399 346.696C176.399 349.16 174.447 351.16 171.903 351.16ZM171.903 348.712C172.751 348.712 173.551 348.04 173.551 346.696C173.551 345.352 172.751 344.696 171.903 344.696C171.055 344.696 170.255 345.352 170.255 346.696C170.255 348.04 171.055 348.712 171.903 348.712Z" fill="#8298AB"/>
<path d="M131.375 496.24C131.375 498.608 129.487 500.16 126.495 500.16C123.503 500.16 121.583 498.576 121.375 496.032H124.431C124.463 497.12 125.183 497.808 126.431 497.808C127.471 497.808 128.159 497.408 128.159 496.688C128.159 496.192 127.663 495.824 126.991 495.696L124.895 495.296C123.055 494.944 121.839 493.872 121.839 492.016C121.839 489.872 123.727 488.368 126.303 488.368C129.039 488.368 131.007 489.936 131.183 492.416H128.127C128.047 491.376 127.343 490.704 126.335 490.704C125.439 490.704 124.895 491.184 124.895 491.808C124.895 492.32 125.407 492.624 126.015 492.736L128.239 493.168C130.287 493.568 131.375 494.576 131.375 496.24ZM140.973 491.392L136.877 503.088H133.885L135.085 499.904L131.725 491.392H134.701L136.557 496.72L138.221 491.392H140.973ZM144.53 500H141.794V491.392H144.306V492.448C144.962 491.68 145.666 491.232 146.786 491.232C147.874 491.232 148.738 491.696 149.218 492.56C149.954 491.728 150.722 491.232 151.986 491.232C153.698 491.232 154.898 492.368 154.898 494.464V500H152.162V495.312C152.162 494.32 151.762 493.696 150.978 493.696C150.29 493.696 149.714 494.176 149.714 495.328V500H146.978V495.312C146.978 494.32 146.578 493.696 145.794 493.696C145.09 493.696 144.53 494.176 144.53 495.328V500ZM165.519 495.696C165.519 498.16 163.999 500.16 161.679 500.16C160.671 500.16 159.823 499.76 159.119 499.024V500H156.607V488.512H159.343V492.192C160.015 491.552 160.783 491.232 161.679 491.232C163.999 491.232 165.519 493.2 165.519 495.696ZM162.671 495.696C162.671 494.32 161.855 493.696 161.023 493.696C160.191 493.696 159.375 494.304 159.375 495.68C159.375 497.04 160.175 497.696 161.023 497.696C161.855 497.696 162.671 497.04 162.671 495.696ZM169.867 489.392C169.867 490.288 169.147 490.944 168.107 490.944C167.067 490.944 166.347 490.288 166.347 489.392C166.347 488.48 167.067 487.824 168.107 487.824C169.147 487.824 169.867 488.48 169.867 489.392ZM169.499 500H166.763V491.392H169.499V500ZM175.246 500.16C172.702 500.16 170.75 498.16 170.75 495.696C170.75 493.232 172.702 491.232 175.246 491.232C177.79 491.232 179.742 493.232 179.742 495.696C179.742 498.16 177.79 500.16 175.246 500.16ZM175.246 497.712C176.094 497.712 176.894 497.04 176.894 495.696C176.894 494.352 176.094 493.696 175.246 493.696C174.398 493.696 173.598 494.352 173.598 495.696C173.598 497.04 174.398 497.712 175.246 497.712ZM186.617 497.312V499.696C186.009 500.032 185.433 500.16 184.665 500.16C182.729 500.16 181.593 499.008 181.593 497.04V493.776H179.993V491.392H181.593V488.864H184.329V491.392H186.681V493.776H184.329V496.4C184.329 497.232 184.681 497.616 185.433 497.616C185.881 497.616 186.313 497.504 186.617 497.312ZM191.008 489.392C191.008 490.288 190.288 490.944 189.248 490.944C188.208 490.944 187.488 490.288 187.488 489.392C187.488 488.48 188.208 487.824 189.248 487.824C190.288 487.824 191.008 488.48 191.008 489.392ZM190.64 500H187.904V491.392H190.64V500ZM196.227 500.16C193.667 500.16 191.891 498.32 191.891 495.696C191.891 493.136 193.747 491.232 196.227 491.232C198.595 491.232 200.355 492.832 200.595 495.232H197.683C197.635 494.288 197.075 493.696 196.243 493.696C195.283 493.696 194.723 494.432 194.723 495.696C194.723 496.992 195.267 497.712 196.243 497.712C197.091 497.712 197.619 497.136 197.683 496.16H200.595C200.355 498.624 198.675 500.16 196.227 500.16Z" fill="#8298AB"/>
<defs>
<clipPath id="clip0_418_1478">
<rect x="4" y="16" width="72" height="501" rx="4" fill="white"/>
</clipPath>
<clipPath id="clip1_418_1478">
<rect x="246" y="16" width="72" height="501" rx="4" fill="white"/>
</clipPath>
</defs>
</svg>
