<svg width="559" height="369" viewBox="0 0 559 369" fill="none" xmlns="http://www.w3.org/2000/svg">
<line y1="5.5" x2="200" y2="5.5" stroke="#8298AB"/>
<path d="M217.723 11L216.085 4.742L214.447 11H211.773L209.225 0.947999H211.815L213.173 6.94L214.769 0.947999H217.443L218.983 6.968L220.355 0.947999H222.945L220.383 11H217.723ZM226.531 1.718C226.531 2.502 225.901 3.076 224.991 3.076C224.081 3.076 223.451 2.502 223.451 1.718C223.451 0.92 224.081 0.345999 224.991 0.345999C225.901 0.345999 226.531 0.92 226.531 1.718ZM226.209 11H223.815V3.468H226.209V11ZM232.834 8.648V10.734C232.302 11.028 231.798 11.14 231.126 11.14C229.432 11.14 228.438 10.132 228.438 8.41V5.554H227.038V3.468H228.438V1.256H230.832V3.468H232.89V5.554H230.832V7.85C230.832 8.578 231.14 8.914 231.798 8.914C232.19 8.914 232.568 8.816 232.834 8.648ZM236.354 7.038V11H233.96V0.947999H236.354V4.28C236.9 3.692 237.446 3.328 238.398 3.328C239.882 3.328 240.932 4.322 240.932 6.156V11H238.538V6.954C238.538 6.002 238.202 5.484 237.474 5.484C236.886 5.484 236.354 5.904 236.354 7.038ZM245.894 11.14C243.668 11.14 241.96 9.39 241.96 7.234C241.96 5.078 243.668 3.328 245.894 3.328C248.12 3.328 249.828 5.078 249.828 7.234C249.828 9.39 248.12 11.14 245.894 11.14ZM245.894 8.998C246.636 8.998 247.336 8.41 247.336 7.234C247.336 6.058 246.636 5.484 245.894 5.484C245.152 5.484 244.452 6.058 244.452 7.234C244.452 8.41 245.152 8.998 245.894 8.998ZM255.393 7.766V3.468H257.787V11H255.589V10.188C255.169 10.748 254.371 11.14 253.489 11.14C251.991 11.14 250.857 10.202 250.857 8.214V3.468H253.251V7.766C253.251 8.592 253.657 8.998 254.329 8.998C254.805 8.998 255.393 8.62 255.393 7.766ZM264.402 8.648V10.734C263.87 11.028 263.366 11.14 262.694 11.14C261 11.14 260.006 10.132 260.006 8.41V5.554H258.606V3.468H260.006V1.256H262.4V3.468H264.458V5.554H262.4V7.85C262.4 8.578 262.708 8.914 263.366 8.914C263.758 8.914 264.136 8.816 264.402 8.648ZM273.172 11.21C270.316 11.21 268.062 8.914 268.062 5.96C268.062 3.02 270.316 0.737999 273.172 0.737999C275.93 0.737999 278.058 2.572 278.38 5.232H275.58C275.37 3.972 274.432 3.104 273.2 3.104C271.716 3.104 270.778 4.252 270.778 5.96C270.778 7.682 271.716 8.844 273.2 8.844C274.418 8.844 275.356 7.976 275.58 6.702H278.38C278.044 9.39 275.93 11.21 273.172 11.21ZM283.965 11V10.272C283.433 10.874 282.775 11.14 281.809 11.14C280.241 11.14 279.191 10.202 279.191 8.774C279.191 7.304 280.381 6.506 282.537 6.506C282.943 6.506 283.321 6.534 283.643 6.59V6.226C283.643 5.568 283.265 5.204 282.593 5.204C281.935 5.204 281.543 5.568 281.459 6.226H279.303C279.443 4.476 280.745 3.328 282.607 3.328C284.679 3.328 285.897 4.448 285.897 6.352V11H283.965ZM281.445 8.704C281.445 9.194 281.781 9.488 282.369 9.488C283.167 9.488 283.643 9.11 283.643 8.494V8.018C283.279 7.948 282.999 7.92 282.691 7.92C281.879 7.92 281.445 8.186 281.445 8.704ZM292.307 8.648V10.734C291.775 11.028 291.271 11.14 290.599 11.14C288.905 11.14 287.911 10.132 287.911 8.41V5.554H286.511V3.468H287.911V1.256H290.305V3.468H292.363V5.554H290.305V7.85C290.305 8.578 290.613 8.914 291.271 8.914C291.663 8.914 292.041 8.816 292.307 8.648ZM297.842 11V10.272C297.31 10.874 296.652 11.14 295.686 11.14C294.118 11.14 293.068 10.202 293.068 8.774C293.068 7.304 294.258 6.506 296.414 6.506C296.82 6.506 297.198 6.534 297.52 6.59V6.226C297.52 5.568 297.142 5.204 296.47 5.204C295.812 5.204 295.42 5.568 295.336 6.226H293.18C293.32 4.476 294.622 3.328 296.484 3.328C298.556 3.328 299.774 4.448 299.774 6.352V11H297.842ZM295.322 8.704C295.322 9.194 295.658 9.488 296.246 9.488C297.044 9.488 297.52 9.11 297.52 8.494V8.018C297.156 7.948 296.876 7.92 296.568 7.92C295.756 7.92 295.322 8.186 295.322 8.704ZM303.688 11H301.266V0.947999H303.688V11ZM312.497 3.468L308.913 13.702H306.295L307.345 10.916L304.405 3.468H307.009L308.633 8.13L310.089 3.468H312.497ZM319.689 8.438C319.689 10.104 318.457 11.14 316.189 11.14C313.921 11.14 312.689 10.076 312.535 8.34H314.831C314.831 8.97 315.405 9.376 316.231 9.376C316.777 9.376 317.267 9.25 317.267 8.858C317.267 8.522 317.015 8.382 316.497 8.284L315.013 8.018C313.697 7.78 312.857 7.024 312.857 5.806C312.857 4.35 314.089 3.328 316.063 3.328C318.037 3.328 319.409 4.378 319.549 6.058H317.253C317.197 5.456 316.735 5.092 316.077 5.092C315.517 5.092 315.153 5.246 315.153 5.582C315.153 5.904 315.391 6.002 315.867 6.086L317.463 6.38C318.919 6.646 319.689 7.36 319.689 8.438ZM323.561 1.718C323.561 2.502 322.931 3.076 322.021 3.076C321.111 3.076 320.481 2.502 320.481 1.718C320.481 0.92 321.111 0.345999 322.021 0.345999C322.931 0.345999 323.561 0.92 323.561 1.718ZM323.239 11H320.845V3.468H323.239V11ZM331.487 8.438C331.487 10.104 330.255 11.14 327.987 11.14C325.719 11.14 324.487 10.076 324.333 8.34H326.629C326.629 8.97 327.203 9.376 328.029 9.376C328.575 9.376 329.065 9.25 329.065 8.858C329.065 8.522 328.813 8.382 328.295 8.284L326.811 8.018C325.495 7.78 324.655 7.024 324.655 5.806C324.655 4.35 325.887 3.328 327.861 3.328C329.835 3.328 331.207 4.378 331.347 6.058H329.051C328.995 5.456 328.533 5.092 327.875 5.092C327.315 5.092 326.951 5.246 326.951 5.582C326.951 5.904 327.189 6.002 327.665 6.086L329.261 6.38C330.717 6.646 331.487 7.36 331.487 8.438Z" fill="#8298AB"/>
<line x1="341" y1="5.5" x2="557" y2="5.5" stroke="#8298AB"/>
<g clip-path="url(#clip0_418_2062)">
<rect y="123" width="256" height="51" rx="4" fill="#F4AB3E"/>
<rect x="6" y="127" width="245" height="43" rx="4" fill="#FFE1B5"/>
<line x1="-0.0296573" y1="276.357" x2="-0.0296573" y2="21.0003" stroke="white" stroke-opacity="0.5" stroke-width="1.70238"/>
<line x1="5.07752" y1="276.357" x2="5.07752" y2="21.0003" stroke="white" stroke-opacity="0.5" stroke-width="1.70238"/>
<line x1="10.1845" y1="276.357" x2="10.1845" y2="21.0003" stroke="white" stroke-opacity="0.5" stroke-width="1.70238"/>
<line x1="15.2916" y1="276.357" x2="15.2916" y2="21.0003" stroke="white" stroke-opacity="0.5" stroke-width="1.70238"/>
<line x1="20.3988" y1="276.357" x2="20.3988" y2="21.0003" stroke="white" stroke-opacity="0.5" stroke-width="1.70238"/>
<line x1="25.506" y1="276.357" x2="25.506" y2="21.0003" stroke="white" stroke-opacity="0.5" stroke-width="1.70238"/>
<line x1="30.6132" y1="276.357" x2="30.6132" y2="21.0003" stroke="white" stroke-opacity="0.5" stroke-width="1.70238"/>
<line x1="35.7203" y1="276.357" x2="35.7203" y2="21.0003" stroke="white" stroke-opacity="0.5" stroke-width="1.70238"/>
<line x1="40.8275" y1="276.357" x2="40.8275" y2="21.0003" stroke="white" stroke-opacity="0.5" stroke-width="1.70238"/>
<line x1="45.9347" y1="276.357" x2="45.9347" y2="21.0003" stroke="white" stroke-opacity="0.5" stroke-width="1.70238"/>
<line x1="51.0416" y1="276.357" x2="51.0416" y2="21.0003" stroke="white" stroke-opacity="0.5" stroke-width="1.70238"/>
<line x1="56.1488" y1="276.357" x2="56.1488" y2="21.0003" stroke="white" stroke-opacity="0.5" stroke-width="1.70238"/>
<line x1="61.256" y1="276.357" x2="61.256" y2="21.0003" stroke="white" stroke-opacity="0.5" stroke-width="1.70238"/>
<line x1="66.3632" y1="276.357" x2="66.3632" y2="21.0003" stroke="white" stroke-opacity="0.5" stroke-width="1.70238"/>
<line x1="71.4703" y1="276.357" x2="71.4703" y2="21.0003" stroke="white" stroke-opacity="0.5" stroke-width="1.70238"/>
<line x1="76.5775" y1="276.357" x2="76.5775" y2="21.0003" stroke="white" stroke-opacity="0.5" stroke-width="1.70238"/>
<line x1="81.6847" y1="276.357" x2="81.6847" y2="21.0003" stroke="white" stroke-opacity="0.5" stroke-width="1.70238"/>
<line x1="86.7919" y1="276.357" x2="86.7919" y2="21.0003" stroke="white" stroke-opacity="0.5" stroke-width="1.70238"/>
<line x1="91.8988" y1="276.357" x2="91.8988" y2="21.0003" stroke="white" stroke-opacity="0.5" stroke-width="1.70238"/>
<line x1="97.006" y1="276.357" x2="97.006" y2="21.0003" stroke="white" stroke-opacity="0.5" stroke-width="1.70238"/>
<line x1="102.113" y1="276.357" x2="102.113" y2="21.0003" stroke="white" stroke-opacity="0.5" stroke-width="1.70238"/>
<line x1="107.22" y1="276.357" x2="107.22" y2="21.0003" stroke="white" stroke-opacity="0.5" stroke-width="1.70238"/>
<line x1="112.328" y1="276.357" x2="112.328" y2="21.0003" stroke="white" stroke-opacity="0.5" stroke-width="1.70238"/>
<line x1="117.435" y1="276.357" x2="117.435" y2="21.0003" stroke="white" stroke-opacity="0.5" stroke-width="1.70238"/>
<line x1="122.542" y1="276.357" x2="122.542" y2="21.0003" stroke="white" stroke-opacity="0.5" stroke-width="1.70238"/>
<line x1="127.649" y1="276.357" x2="127.649" y2="21.0003" stroke="white" stroke-opacity="0.5" stroke-width="1.70238"/>
<line x1="132.756" y1="276.357" x2="132.756" y2="21.0003" stroke="white" stroke-opacity="0.5" stroke-width="1.70238"/>
<line x1="137.863" y1="276.357" x2="137.863" y2="21.0003" stroke="white" stroke-opacity="0.5" stroke-width="1.70238"/>
<line x1="142.97" y1="276.357" x2="142.97" y2="21.0003" stroke="white" stroke-opacity="0.5" stroke-width="1.70238"/>
<line x1="148.078" y1="276.357" x2="148.078" y2="21.0003" stroke="white" stroke-opacity="0.5" stroke-width="1.70238"/>
<line x1="153.185" y1="276.357" x2="153.185" y2="21.0003" stroke="white" stroke-opacity="0.5" stroke-width="1.70238"/>
<line x1="158.292" y1="276.357" x2="158.292" y2="21.0003" stroke="white" stroke-opacity="0.5" stroke-width="1.70238"/>
<line x1="163.399" y1="276.357" x2="163.399" y2="21.0003" stroke="white" stroke-opacity="0.5" stroke-width="1.70238"/>
<line x1="168.506" y1="276.357" x2="168.506" y2="21.0003" stroke="white" stroke-opacity="0.5" stroke-width="1.70238"/>
<line x1="173.613" y1="276.357" x2="173.613" y2="21.0003" stroke="white" stroke-opacity="0.5" stroke-width="1.70238"/>
<line x1="178.72" y1="276.357" x2="178.72" y2="21.0003" stroke="white" stroke-opacity="0.5" stroke-width="1.70238"/>
<line x1="183.828" y1="276.357" x2="183.828" y2="21.0003" stroke="white" stroke-opacity="0.5" stroke-width="1.70238"/>
<line x1="188.935" y1="276.357" x2="188.935" y2="21.0003" stroke="white" stroke-opacity="0.5" stroke-width="1.70238"/>
<line x1="194.042" y1="276.357" x2="194.042" y2="21.0003" stroke="white" stroke-opacity="0.5" stroke-width="1.70238"/>
<line x1="199.149" y1="276.357" x2="199.149" y2="21.0003" stroke="white" stroke-opacity="0.5" stroke-width="1.70238"/>
<line x1="204.256" y1="276.357" x2="204.256" y2="21.0003" stroke="white" stroke-opacity="0.5" stroke-width="1.70238"/>
<line x1="209.363" y1="276.357" x2="209.363" y2="21.0003" stroke="white" stroke-opacity="0.5" stroke-width="1.70238"/>
<line x1="214.47" y1="276.357" x2="214.47" y2="21.0003" stroke="white" stroke-opacity="0.5" stroke-width="1.70238"/>
<line x1="219.578" y1="276.357" x2="219.578" y2="21.0003" stroke="white" stroke-opacity="0.5" stroke-width="1.70238"/>
<line x1="224.685" y1="276.357" x2="224.685" y2="21.0003" stroke="white" stroke-opacity="0.5" stroke-width="1.70238"/>
<line x1="229.792" y1="276.357" x2="229.792" y2="21.0003" stroke="white" stroke-opacity="0.5" stroke-width="1.70238"/>
<line x1="234.899" y1="276.357" x2="234.899" y2="21.0003" stroke="white" stroke-opacity="0.5" stroke-width="1.70238"/>
<line x1="240.006" y1="276.357" x2="240.006" y2="21.0003" stroke="white" stroke-opacity="0.5" stroke-width="1.70238"/>
<line x1="245.113" y1="276.357" x2="245.113" y2="21.0003" stroke="white" stroke-opacity="0.5" stroke-width="1.70238"/>
<line x1="250.22" y1="276.357" x2="250.22" y2="21.0003" stroke="white" stroke-opacity="0.5" stroke-width="1.70238"/>
<line x1="255.328" y1="276.357" x2="255.328" y2="21.0003" stroke="white" stroke-opacity="0.5" stroke-width="1.70238"/>
<path d="M101.092 151.704V154H93.98V143.948H100.994V146.244H96.626V147.686H100.588V149.982H96.626V151.704H101.092ZM105.127 144.718C105.127 145.502 104.497 146.076 103.587 146.076C102.677 146.076 102.047 145.502 102.047 144.718C102.047 143.92 102.677 143.346 103.587 143.346C104.497 143.346 105.127 143.92 105.127 144.718ZM104.805 154H102.411V146.468H104.805V154ZM109.736 156.842C107.65 156.842 106.222 155.694 106.138 153.944H108.462C108.546 154.616 108.98 154.98 109.722 154.98C110.618 154.98 111.08 154.504 111.08 153.594V152.712C110.688 153.272 109.974 153.608 109.162 153.608C107.328 153.608 105.9 152.026 105.9 149.968C105.9 147.84 107.216 146.328 109.064 146.328C110.016 146.328 110.702 146.608 111.276 147.238V146.468H113.474V153.566C113.474 155.596 112.046 156.842 109.736 156.842ZM108.322 149.982C108.322 150.92 108.84 151.522 109.652 151.522C110.492 151.522 111.052 150.892 111.052 149.968C111.052 149.03 110.492 148.414 109.652 148.414C108.84 148.414 108.322 149.03 108.322 149.982ZM118.446 154.126C116.122 154.126 114.568 152.558 114.568 150.22C114.568 147.966 116.192 146.328 118.432 146.328C120.924 146.328 122.59 148.358 122.156 150.836H117.046C117.172 151.788 117.62 152.264 118.39 152.264C119.062 152.264 119.51 151.984 119.72 151.438H122.114C121.652 153.16 120.322 154.126 118.446 154.126ZM118.376 148.092C117.662 148.092 117.242 148.498 117.074 149.338H119.594C119.566 148.582 119.09 148.092 118.376 148.092ZM125.709 150.038V154H123.315V146.468H125.513V147.378C126.101 146.72 126.801 146.328 127.753 146.328C129.237 146.328 130.287 147.322 130.287 149.156V154H127.893V149.954C127.893 149.002 127.557 148.484 126.829 148.484C126.241 148.484 125.709 148.904 125.709 150.038ZM141.788 154H134.914V143.948H137.56V151.606H141.788V154ZM147.399 154V153.272C146.867 153.874 146.209 154.14 145.243 154.14C143.675 154.14 142.625 153.202 142.625 151.774C142.625 150.304 143.815 149.506 145.971 149.506C146.377 149.506 146.755 149.534 147.077 149.59V149.226C147.077 148.568 146.699 148.204 146.027 148.204C145.369 148.204 144.977 148.568 144.893 149.226H142.737C142.877 147.476 144.179 146.328 146.041 146.328C148.113 146.328 149.331 147.448 149.331 149.352V154H147.399ZM144.879 151.704C144.879 152.194 145.215 152.488 145.803 152.488C146.601 152.488 147.077 152.11 147.077 151.494V151.018C146.713 150.948 146.433 150.92 146.125 150.92C145.313 150.92 144.879 151.186 144.879 151.704ZM157.788 146.468L154.204 156.702H151.586L152.636 153.916L149.696 146.468H152.3L153.924 151.13L155.38 146.468H157.788ZM161.635 154.126C159.311 154.126 157.757 152.558 157.757 150.22C157.757 147.966 159.381 146.328 161.621 146.328C164.113 146.328 165.779 148.358 165.345 150.836H160.235C160.361 151.788 160.809 152.264 161.579 152.264C162.251 152.264 162.699 151.984 162.909 151.438H165.303C164.841 153.16 163.511 154.126 161.635 154.126ZM161.565 148.092C160.851 148.092 160.431 148.498 160.263 149.338H162.783C162.755 148.582 162.279 148.092 161.565 148.092ZM168.899 150.528V154H166.505V146.468H168.703V147.798C169.277 146.916 170.467 146.412 171.671 146.412V148.904C169.977 148.736 168.899 148.862 168.899 150.528Z" fill="#8298AB"/>
</g>
<path d="M116.915 58.3437L118.972 54.7813L119.838 55.2812L120 55L120.162 55.2812L121.028 54.7813L123.085 58.3437L122.219 58.8438L124.276 62.4062L125.142 61.9062L127.199 65.4688L126.333 65.9688L128.39 69.5312L129.256 69.0312L131.312 72.5938L130.446 73.0938L132.503 76.6562L133.369 76.1562L135.426 79.7188L134.56 80.2188L136.617 83.7812L137.483 83.2812L139.54 86.8438L138.674 87.3438L140.73 90.9062L141.597 90.4062L143.653 93.9688L142.787 94.4688L144.844 98.0312L145.71 97.5312L147.767 101.094L146.901 101.594L148.958 105.156L149.824 104.656L151.881 108.219L151.015 108.719L151.177 109H150.852V110H146.739V109H142.625V110H138.511V109H134.398V110H130.284V109H126.17V110H122.057V109H117.943V110H113.83V109H109.716V110H105.602V109H101.489V110H97.3751V109H93.2615V110H89.1478V109H88.8231L88.9855 108.719L88.1194 108.219L90.1762 104.656L91.0423 105.156L93.0991 101.594L92.2331 101.094L94.2899 97.5312L95.1559 98.0312L97.2127 94.4688L96.3467 93.9688L98.4035 90.4062L99.2695 90.9062L101.326 87.3438L100.46 86.8438L102.517 83.2812L103.383 83.7812L105.44 80.2188L104.574 79.7188L106.631 76.1562L107.497 76.6562L109.554 73.0938L108.688 72.5938L110.744 69.0312L111.61 69.5312L113.667 65.9688L112.801 65.4688L114.858 61.9062L115.724 62.4062L117.781 58.8438L116.915 58.3437Z" fill="#FFE1B5" stroke="#F4AB3E" stroke-width="2" stroke-dasharray="4 4"/>
<rect x="14" y="48" width="43" height="65" fill="#FFE1B5" stroke="#F4AB3E" stroke-width="2" stroke-dasharray="4 4"/>
<rect x="183" y="60" width="53" height="53" fill="#FFE1B5" stroke="#F4AB3E" stroke-width="2" stroke-dasharray="4 4"/>
<path d="M24.38 102L23.94 100.67H21.42L20.97 102H19.06L21.72 94.82H23.79L26.42 102H24.38ZM22.7 96.9L21.93 99.18H23.45L22.7 96.9ZM32.547 94.82L29.987 102H27.927L25.387 94.82H27.437L29.017 99.79L30.647 94.82H32.547ZM38.702 99.65C38.702 101.13 37.522 102.1 35.652 102.1C33.782 102.1 32.582 101.11 32.452 99.52H34.362C34.382 100.2 34.832 100.63 35.612 100.63C36.262 100.63 36.692 100.38 36.692 99.93C36.692 99.62 36.382 99.39 35.962 99.31L34.652 99.06C33.502 98.84 32.742 98.17 32.742 97.01C32.742 95.67 33.922 94.73 35.532 94.73C37.242 94.73 38.472 95.71 38.582 97.26H36.672C36.622 96.61 36.182 96.19 35.552 96.19C34.992 96.19 34.652 96.49 34.652 96.88C34.652 97.2 34.972 97.39 35.352 97.46L36.742 97.73C38.022 97.98 38.702 98.61 38.702 99.65ZM43.4605 102H42.1605L42.4605 100.32H41.7605V99.04H42.6905L42.8505 98.13H42.1605V96.83H43.0805L43.3605 95.24H44.6605L44.3805 96.83H44.9905L45.2705 95.24H46.5605L46.2805 96.83H46.9605V98.13H46.0505L45.8905 99.04H46.5605V100.32H45.6605L45.3605 102H44.0705L44.3705 100.32H43.7605L43.4605 102ZM44.1505 98.13L43.9905 99.04H44.6005L44.7605 98.13H44.1505ZM50.8421 102H49.1121V96.73H47.8621V95.24H50.8421V102Z" fill="#8298AB"/>
<path d="M108.38 102L107.94 100.67H105.42L104.97 102H103.06L105.72 94.82H107.79L110.42 102H108.38ZM106.7 96.9L105.93 99.18H107.45L106.7 96.9ZM116.547 94.82L113.987 102H111.927L109.387 94.82H111.437L113.017 99.79L114.647 94.82H116.547ZM122.702 99.65C122.702 101.13 121.522 102.1 119.652 102.1C117.782 102.1 116.582 101.11 116.452 99.52H118.362C118.382 100.2 118.832 100.63 119.612 100.63C120.262 100.63 120.692 100.38 120.692 99.93C120.692 99.62 120.382 99.39 119.962 99.31L118.652 99.06C117.502 98.84 116.742 98.17 116.742 97.01C116.742 95.67 117.922 94.73 119.532 94.73C121.242 94.73 122.472 95.71 122.582 97.26H120.672C120.622 96.61 120.182 96.19 119.552 96.19C118.992 96.19 118.652 96.49 118.652 96.88C118.652 97.2 118.972 97.39 119.352 97.46L120.742 97.73C122.022 97.98 122.702 98.61 122.702 99.65ZM127.461 102H126.161L126.461 100.32H125.761V99.04H126.691L126.851 98.13H126.161V96.83H127.081L127.361 95.24H128.661L128.381 96.83H128.991L129.271 95.24H130.561L130.281 96.83H130.961V98.13H130.051L129.891 99.04H130.561V100.32H129.661L129.361 102H128.071L128.371 100.32H127.761L127.461 102ZM128.151 98.13L127.991 99.04H128.601L128.761 98.13H128.151ZM137.132 100.46V102H132.102V101.02L134.112 99.08C134.862 98.35 135.212 97.97 135.212 97.41C135.212 96.95 134.932 96.68 134.442 96.68C133.872 96.68 133.552 97.01 133.552 97.58H131.882C131.882 96.15 132.972 95.14 134.532 95.14C135.952 95.14 137.012 96.02 137.012 97.19C137.012 98.04 136.702 98.55 135.452 99.76L134.732 100.46H137.132Z" fill="#8298AB"/>
<path d="M198.38 102L197.94 100.67H195.42L194.97 102H193.06L195.72 94.82H197.79L200.42 102H198.38ZM196.7 96.9L195.93 99.18H197.45L196.7 96.9ZM206.547 94.82L203.987 102H201.927L199.387 94.82H201.437L203.017 99.79L204.647 94.82H206.547ZM212.702 99.65C212.702 101.13 211.522 102.1 209.652 102.1C207.782 102.1 206.582 101.11 206.452 99.52H208.362C208.382 100.2 208.832 100.63 209.612 100.63C210.262 100.63 210.692 100.38 210.692 99.93C210.692 99.62 210.382 99.39 209.962 99.31L208.652 99.06C207.502 98.84 206.742 98.17 206.742 97.01C206.742 95.67 207.922 94.73 209.532 94.73C211.242 94.73 212.472 95.71 212.582 97.26H210.672C210.622 96.61 210.182 96.19 209.552 96.19C208.992 96.19 208.652 96.49 208.652 96.88C208.652 97.2 208.972 97.39 209.352 97.46L210.742 97.73C212.022 97.98 212.702 98.61 212.702 99.65ZM217.461 102H216.161L216.461 100.32H215.761V99.04H216.691L216.851 98.13H216.161V96.83H217.081L217.361 95.24H218.661L218.381 96.83H218.991L219.271 95.24H220.561L220.281 96.83H220.961V98.13H220.051L219.891 99.04H220.561V100.32H219.661L219.361 102H218.071L218.371 100.32H217.761L217.461 102ZM218.151 98.13L217.991 99.04H218.601L218.761 98.13H218.151ZM224.492 102.09C222.972 102.09 221.882 101.2 221.882 99.95H223.562C223.602 100.45 223.952 100.74 224.512 100.74C225.112 100.74 225.452 100.46 225.452 99.97C225.452 99.49 225.042 99.22 224.312 99.22H223.552V97.87H224.212C224.822 97.87 225.152 97.63 225.152 97.18C225.152 96.74 224.882 96.49 224.402 96.49C223.942 96.49 223.662 96.79 223.662 97.28H221.992C221.992 96.06 223.082 95.14 224.492 95.14C226.012 95.14 226.922 95.93 226.922 97.04C226.922 97.62 226.592 98.08 225.982 98.44C226.782 98.72 227.222 99.23 227.222 99.93C227.222 101.22 226.122 102.09 224.492 102.09Z" fill="#8298AB"/>
<g clip-path="url(#clip1_418_2062)">
<rect x="290" y="123" width="256" height="51" rx="4" fill="#F4AB3E"/>
<rect x="296" y="127" width="245" height="43" rx="4" fill="#FFE1B5"/>
<line x1="289.97" y1="276.357" x2="289.97" y2="21.0003" stroke="white" stroke-opacity="0.5" stroke-width="1.70238"/>
<line x1="295.077" y1="276.357" x2="295.077" y2="21.0003" stroke="white" stroke-opacity="0.5" stroke-width="1.70238"/>
<line x1="300.185" y1="276.357" x2="300.185" y2="21.0003" stroke="white" stroke-opacity="0.5" stroke-width="1.70238"/>
<line x1="305.292" y1="276.357" x2="305.292" y2="21.0003" stroke="white" stroke-opacity="0.5" stroke-width="1.70238"/>
<line x1="310.399" y1="276.357" x2="310.399" y2="21.0003" stroke="white" stroke-opacity="0.5" stroke-width="1.70238"/>
<line x1="315.506" y1="276.357" x2="315.506" y2="21.0003" stroke="white" stroke-opacity="0.5" stroke-width="1.70238"/>
<line x1="320.613" y1="276.357" x2="320.613" y2="21.0003" stroke="white" stroke-opacity="0.5" stroke-width="1.70238"/>
<line x1="325.72" y1="276.357" x2="325.72" y2="21.0003" stroke="white" stroke-opacity="0.5" stroke-width="1.70238"/>
<line x1="330.827" y1="276.357" x2="330.827" y2="21.0003" stroke="white" stroke-opacity="0.5" stroke-width="1.70238"/>
<line x1="335.935" y1="276.357" x2="335.935" y2="21.0003" stroke="white" stroke-opacity="0.5" stroke-width="1.70238"/>
<line x1="341.042" y1="276.357" x2="341.042" y2="21.0003" stroke="white" stroke-opacity="0.5" stroke-width="1.70238"/>
<line x1="346.149" y1="276.357" x2="346.149" y2="21.0003" stroke="white" stroke-opacity="0.5" stroke-width="1.70238"/>
<line x1="351.256" y1="276.357" x2="351.256" y2="21.0003" stroke="white" stroke-opacity="0.5" stroke-width="1.70238"/>
<line x1="356.363" y1="276.357" x2="356.363" y2="21.0003" stroke="white" stroke-opacity="0.5" stroke-width="1.70238"/>
<line x1="361.47" y1="276.357" x2="361.47" y2="21.0003" stroke="white" stroke-opacity="0.5" stroke-width="1.70238"/>
<line x1="366.578" y1="276.357" x2="366.578" y2="21.0003" stroke="white" stroke-opacity="0.5" stroke-width="1.70238"/>
<line x1="371.685" y1="276.357" x2="371.685" y2="21.0003" stroke="white" stroke-opacity="0.5" stroke-width="1.70238"/>
<line x1="376.792" y1="276.357" x2="376.792" y2="21.0003" stroke="white" stroke-opacity="0.5" stroke-width="1.70238"/>
<line x1="381.899" y1="276.357" x2="381.899" y2="21.0003" stroke="white" stroke-opacity="0.5" stroke-width="1.70238"/>
<line x1="387.006" y1="276.357" x2="387.006" y2="21.0003" stroke="white" stroke-opacity="0.5" stroke-width="1.70238"/>
<line x1="392.113" y1="276.357" x2="392.113" y2="21.0003" stroke="white" stroke-opacity="0.5" stroke-width="1.70238"/>
<line x1="397.22" y1="276.357" x2="397.22" y2="21.0003" stroke="white" stroke-opacity="0.5" stroke-width="1.70238"/>
<line x1="402.328" y1="276.357" x2="402.328" y2="21.0003" stroke="white" stroke-opacity="0.5" stroke-width="1.70238"/>
<line x1="407.435" y1="276.357" x2="407.435" y2="21.0003" stroke="white" stroke-opacity="0.5" stroke-width="1.70238"/>
<line x1="412.542" y1="276.357" x2="412.542" y2="21.0003" stroke="white" stroke-opacity="0.5" stroke-width="1.70238"/>
<line x1="417.649" y1="276.357" x2="417.649" y2="21.0003" stroke="white" stroke-opacity="0.5" stroke-width="1.70238"/>
<line x1="422.756" y1="276.357" x2="422.756" y2="21.0003" stroke="white" stroke-opacity="0.5" stroke-width="1.70238"/>
<line x1="427.863" y1="276.357" x2="427.863" y2="21.0003" stroke="white" stroke-opacity="0.5" stroke-width="1.70238"/>
<line x1="432.97" y1="276.357" x2="432.97" y2="21.0003" stroke="white" stroke-opacity="0.5" stroke-width="1.70238"/>
<line x1="438.078" y1="276.357" x2="438.078" y2="21.0003" stroke="white" stroke-opacity="0.5" stroke-width="1.70238"/>
<line x1="443.185" y1="276.357" x2="443.185" y2="21.0003" stroke="white" stroke-opacity="0.5" stroke-width="1.70238"/>
<line x1="448.292" y1="276.357" x2="448.292" y2="21.0003" stroke="white" stroke-opacity="0.5" stroke-width="1.70238"/>
<line x1="453.399" y1="276.357" x2="453.399" y2="21.0003" stroke="white" stroke-opacity="0.5" stroke-width="1.70238"/>
<line x1="458.506" y1="276.357" x2="458.506" y2="21.0003" stroke="white" stroke-opacity="0.5" stroke-width="1.70238"/>
<line x1="463.613" y1="276.357" x2="463.613" y2="21.0003" stroke="white" stroke-opacity="0.5" stroke-width="1.70238"/>
<line x1="468.72" y1="276.357" x2="468.72" y2="21.0003" stroke="white" stroke-opacity="0.5" stroke-width="1.70238"/>
<line x1="473.828" y1="276.357" x2="473.828" y2="21.0003" stroke="white" stroke-opacity="0.5" stroke-width="1.70238"/>
<line x1="478.935" y1="276.357" x2="478.935" y2="21.0003" stroke="white" stroke-opacity="0.5" stroke-width="1.70238"/>
<line x1="484.042" y1="276.357" x2="484.042" y2="21.0003" stroke="white" stroke-opacity="0.5" stroke-width="1.70238"/>
<line x1="489.149" y1="276.357" x2="489.149" y2="21.0003" stroke="white" stroke-opacity="0.5" stroke-width="1.70238"/>
<line x1="494.256" y1="276.357" x2="494.256" y2="21.0003" stroke="white" stroke-opacity="0.5" stroke-width="1.70238"/>
<line x1="499.363" y1="276.357" x2="499.363" y2="21.0003" stroke="white" stroke-opacity="0.5" stroke-width="1.70238"/>
<line x1="504.47" y1="276.357" x2="504.47" y2="21.0003" stroke="white" stroke-opacity="0.5" stroke-width="1.70238"/>
<line x1="509.578" y1="276.357" x2="509.578" y2="21.0003" stroke="white" stroke-opacity="0.5" stroke-width="1.70238"/>
<line x1="514.685" y1="276.357" x2="514.685" y2="21.0003" stroke="white" stroke-opacity="0.5" stroke-width="1.70238"/>
<line x1="519.792" y1="276.357" x2="519.792" y2="21.0003" stroke="white" stroke-opacity="0.5" stroke-width="1.70238"/>
<line x1="524.899" y1="276.357" x2="524.899" y2="21.0003" stroke="white" stroke-opacity="0.5" stroke-width="1.70238"/>
<line x1="530.006" y1="276.357" x2="530.006" y2="21.0003" stroke="white" stroke-opacity="0.5" stroke-width="1.70238"/>
<line x1="535.113" y1="276.357" x2="535.113" y2="21.0003" stroke="white" stroke-opacity="0.5" stroke-width="1.70238"/>
<line x1="540.22" y1="276.357" x2="540.22" y2="21.0003" stroke="white" stroke-opacity="0.5" stroke-width="1.70238"/>
<line x1="545.328" y1="276.357" x2="545.328" y2="21.0003" stroke="white" stroke-opacity="0.5" stroke-width="1.70238"/>
<path d="M393.078 150.71C393.078 152.782 391.426 154.14 388.808 154.14C386.19 154.14 384.51 152.754 384.328 150.528H387.002C387.03 151.48 387.66 152.082 388.752 152.082C389.662 152.082 390.264 151.732 390.264 151.102C390.264 150.668 389.83 150.346 389.242 150.234L387.408 149.884C385.798 149.576 384.734 148.638 384.734 147.014C384.734 145.138 386.386 143.822 388.64 143.822C391.034 143.822 392.756 145.194 392.91 147.364H390.236C390.166 146.454 389.55 145.866 388.668 145.866C387.884 145.866 387.408 146.286 387.408 146.832C387.408 147.28 387.856 147.546 388.388 147.644L390.334 148.022C392.126 148.372 393.078 149.254 393.078 150.71ZM401.476 146.468L397.892 156.702H395.274L396.324 153.916L393.384 146.468H395.988L397.612 151.13L399.068 146.468H401.476ZM404.589 154H402.195V146.468H404.393V147.392C404.967 146.72 405.583 146.328 406.563 146.328C407.515 146.328 408.271 146.734 408.691 147.49C409.335 146.762 410.007 146.328 411.113 146.328C412.611 146.328 413.661 147.322 413.661 149.156V154H411.267V149.898C411.267 149.03 410.917 148.484 410.231 148.484C409.629 148.484 409.125 148.904 409.125 149.912V154H406.731V149.898C406.731 149.03 406.381 148.484 405.695 148.484C405.079 148.484 404.589 148.904 404.589 149.912V154ZM422.954 150.234C422.954 152.39 421.624 154.14 419.594 154.14C418.712 154.14 417.97 153.79 417.354 153.146V154H415.156V143.948H417.55V147.168C418.138 146.608 418.81 146.328 419.594 146.328C421.624 146.328 422.954 148.05 422.954 150.234ZM420.462 150.234C420.462 149.03 419.748 148.484 419.02 148.484C418.292 148.484 417.578 149.016 417.578 150.22C417.578 151.41 418.278 151.984 419.02 151.984C419.748 151.984 420.462 151.41 420.462 150.234ZM426.759 144.718C426.759 145.502 426.129 146.076 425.219 146.076C424.309 146.076 423.679 145.502 423.679 144.718C423.679 143.92 424.309 143.346 425.219 143.346C426.129 143.346 426.759 143.92 426.759 144.718ZM426.437 154H424.043V146.468H426.437V154ZM431.466 154.14C429.24 154.14 427.532 152.39 427.532 150.234C427.532 148.078 429.24 146.328 431.466 146.328C433.692 146.328 435.4 148.078 435.4 150.234C435.4 152.39 433.692 154.14 431.466 154.14ZM431.466 151.998C432.208 151.998 432.908 151.41 432.908 150.234C432.908 149.058 432.208 148.484 431.466 148.484C430.724 148.484 430.024 149.058 430.024 150.234C430.024 151.41 430.724 151.998 431.466 151.998ZM441.415 151.648V153.734C440.883 154.028 440.379 154.14 439.707 154.14C438.013 154.14 437.019 153.132 437.019 151.41V148.554H435.619V146.468H437.019V144.256H439.413V146.468H441.471V148.554H439.413V150.85C439.413 151.578 439.721 151.914 440.379 151.914C440.771 151.914 441.149 151.816 441.415 151.648ZM445.257 144.718C445.257 145.502 444.627 146.076 443.717 146.076C442.807 146.076 442.177 145.502 442.177 144.718C442.177 143.92 442.807 143.346 443.717 143.346C444.627 143.346 445.257 143.92 445.257 144.718ZM444.935 154H442.541V146.468H444.935V154ZM449.824 154.14C447.584 154.14 446.03 152.53 446.03 150.234C446.03 147.994 447.654 146.328 449.824 146.328C451.896 146.328 453.436 147.728 453.646 149.828H451.098C451.056 149.002 450.566 148.484 449.838 148.484C448.998 148.484 448.508 149.128 448.508 150.234C448.508 151.368 448.984 151.998 449.838 151.998C450.58 151.998 451.042 151.494 451.098 150.64H453.646C453.436 152.796 451.966 154.14 449.824 154.14Z" fill="#8298AB"/>
</g>
<path d="M406.915 58.3437L408.972 54.7813L409.838 55.2812L410 55L410.162 55.2812L411.028 54.7813L413.085 58.3437L412.219 58.8438L414.276 62.4062L415.142 61.9062L417.199 65.4688L416.333 65.9688L418.39 69.5312L419.256 69.0312L421.312 72.5938L420.446 73.0938L422.503 76.6562L423.369 76.1562L425.426 79.7188L424.56 80.2188L426.617 83.7812L427.483 83.2812L429.54 86.8438L428.674 87.3438L430.73 90.9062L431.597 90.4062L433.653 93.9688L432.787 94.4688L434.844 98.0312L435.71 97.5312L437.767 101.094L436.901 101.594L438.958 105.156L439.824 104.656L441.881 108.219L441.015 108.719L441.177 109H440.852V110H436.739V109H432.625V110H428.511V109H424.398V110H420.284V109H416.17V110H412.057V109H407.943V110H403.83V109H399.716V110H395.602V109H391.489V110H387.375V109H383.261V110H379.148V109H378.823L378.985 108.719L378.119 108.219L380.176 104.656L381.042 105.156L383.099 101.594L382.233 101.094L384.29 97.5312L385.156 98.0312L387.213 94.4688L386.347 93.9688L388.403 90.4062L389.27 90.9062L391.326 87.3438L390.46 86.8438L392.517 83.2812L393.383 83.7812L395.44 80.2188L394.574 79.7188L396.631 76.1562L397.497 76.6562L399.554 73.0938L398.688 72.5938L400.744 69.0312L401.61 69.5312L403.667 65.9688L402.801 65.4688L404.858 61.9062L405.724 62.4062L407.781 58.8438L406.915 58.3437Z" fill="#FFE1B5" stroke="#F4AB3E" stroke-width="2" stroke-dasharray="4 4"/>
<rect x="304" y="48" width="43" height="65" fill="#FFE1B5" stroke="#F4AB3E" stroke-width="2" stroke-dasharray="4 4"/>
<rect x="473" y="60" width="53" height="53" fill="#FFE1B5" stroke="#F4AB3E" stroke-width="2" stroke-dasharray="4 4"/>
<path d="M314.38 102L313.94 100.67H311.42L310.97 102H309.06L311.72 94.82H313.79L316.42 102H314.38ZM312.7 96.9L311.93 99.18H313.45L312.7 96.9ZM322.547 94.82L319.987 102H317.927L315.387 94.82H317.437L319.017 99.79L320.647 94.82H322.547ZM328.702 99.65C328.702 101.13 327.522 102.1 325.652 102.1C323.782 102.1 322.582 101.11 322.452 99.52H324.362C324.382 100.2 324.832 100.63 325.612 100.63C326.262 100.63 326.692 100.38 326.692 99.93C326.692 99.62 326.382 99.39 325.962 99.31L324.652 99.06C323.502 98.84 322.742 98.17 322.742 97.01C322.742 95.67 323.922 94.73 325.532 94.73C327.242 94.73 328.472 95.71 328.582 97.26H326.672C326.622 96.61 326.182 96.19 325.552 96.19C324.992 96.19 324.652 96.49 324.652 96.88C324.652 97.2 324.972 97.39 325.352 97.46L326.742 97.73C328.022 97.98 328.702 98.61 328.702 99.65ZM333.461 102H332.161L332.461 100.32H331.761V99.04H332.691L332.851 98.13H332.161V96.83H333.081L333.361 95.24H334.661L334.381 96.83H334.991L335.271 95.24H336.561L336.281 96.83H336.961V98.13H336.051L335.891 99.04H336.561V100.32H335.661L335.361 102H334.071L334.371 100.32H333.761L333.461 102ZM334.151 98.13L333.991 99.04H334.601L334.761 98.13H334.151ZM340.842 102H339.112V96.73H337.862V95.24H340.842V102Z" fill="#8298AB"/>
<path d="M398.38 102L397.94 100.67H395.42L394.97 102H393.06L395.72 94.82H397.79L400.42 102H398.38ZM396.7 96.9L395.93 99.18H397.45L396.7 96.9ZM406.547 94.82L403.987 102H401.927L399.387 94.82H401.437L403.017 99.79L404.647 94.82H406.547ZM412.702 99.65C412.702 101.13 411.522 102.1 409.652 102.1C407.782 102.1 406.582 101.11 406.452 99.52H408.362C408.382 100.2 408.832 100.63 409.612 100.63C410.262 100.63 410.692 100.38 410.692 99.93C410.692 99.62 410.382 99.39 409.962 99.31L408.652 99.06C407.502 98.84 406.742 98.17 406.742 97.01C406.742 95.67 407.922 94.73 409.532 94.73C411.242 94.73 412.472 95.71 412.582 97.26H410.672C410.622 96.61 410.182 96.19 409.552 96.19C408.992 96.19 408.652 96.49 408.652 96.88C408.652 97.2 408.972 97.39 409.352 97.46L410.742 97.73C412.022 97.98 412.702 98.61 412.702 99.65ZM417.461 102H416.161L416.461 100.32H415.761V99.04H416.691L416.851 98.13H416.161V96.83H417.081L417.361 95.24H418.661L418.381 96.83H418.991L419.271 95.24H420.561L420.281 96.83H420.961V98.13H420.051L419.891 99.04H420.561V100.32H419.661L419.361 102H418.071L418.371 100.32H417.761L417.461 102ZM418.151 98.13L417.991 99.04H418.601L418.761 98.13H418.151ZM427.132 100.46V102H422.102V101.02L424.112 99.08C424.862 98.35 425.212 97.97 425.212 97.41C425.212 96.95 424.932 96.68 424.442 96.68C423.872 96.68 423.552 97.01 423.552 97.58H421.882C421.882 96.15 422.972 95.14 424.532 95.14C425.952 95.14 427.012 96.02 427.012 97.19C427.012 98.04 426.702 98.55 425.452 99.76L424.732 100.46H427.132Z" fill="#8298AB"/>
<path d="M488.38 102L487.94 100.67H485.42L484.97 102H483.06L485.72 94.82H487.79L490.42 102H488.38ZM486.7 96.9L485.93 99.18H487.45L486.7 96.9ZM496.547 94.82L493.987 102H491.927L489.387 94.82H491.437L493.017 99.79L494.647 94.82H496.547ZM502.702 99.65C502.702 101.13 501.522 102.1 499.652 102.1C497.782 102.1 496.582 101.11 496.452 99.52H498.362C498.382 100.2 498.832 100.63 499.612 100.63C500.262 100.63 500.692 100.38 500.692 99.93C500.692 99.62 500.382 99.39 499.962 99.31L498.652 99.06C497.502 98.84 496.742 98.17 496.742 97.01C496.742 95.67 497.922 94.73 499.532 94.73C501.242 94.73 502.472 95.71 502.582 97.26H500.672C500.622 96.61 500.182 96.19 499.552 96.19C498.992 96.19 498.652 96.49 498.652 96.88C498.652 97.2 498.972 97.39 499.352 97.46L500.742 97.73C502.022 97.98 502.702 98.61 502.702 99.65ZM507.461 102H506.161L506.461 100.32H505.761V99.04H506.691L506.851 98.13H506.161V96.83H507.081L507.361 95.24H508.661L508.381 96.83H508.991L509.271 95.24H510.561L510.281 96.83H510.961V98.13H510.051L509.891 99.04H510.561V100.32H509.661L509.361 102H508.071L508.371 100.32H507.761L507.461 102ZM508.151 98.13L507.991 99.04H508.601L508.761 98.13H508.151ZM514.492 102.09C512.972 102.09 511.882 101.2 511.882 99.95H513.562C513.602 100.45 513.952 100.74 514.512 100.74C515.112 100.74 515.452 100.46 515.452 99.97C515.452 99.49 515.042 99.22 514.312 99.22H513.552V97.87H514.212C514.822 97.87 515.152 97.63 515.152 97.18C515.152 96.74 514.882 96.49 514.402 96.49C513.942 96.49 513.662 96.79 513.662 97.28H511.992C511.992 96.06 513.082 95.14 514.492 95.14C516.012 95.14 516.922 95.93 516.922 97.04C516.922 97.62 516.592 98.08 515.982 98.44C516.782 98.72 517.222 99.23 517.222 99.93C517.222 101.22 516.122 102.09 514.492 102.09Z" fill="#8298AB"/>
<line y1="212.5" x2="207" y2="212.5" stroke="#8298AB"/>
<path d="M224.769 218L223.131 211.742L221.493 218H218.819L216.271 207.948H218.861L220.219 213.94L221.815 207.948H224.489L226.029 213.968L227.401 207.948H229.991L227.429 218H224.769ZM233.577 208.718C233.577 209.502 232.947 210.076 232.037 210.076C231.127 210.076 230.497 209.502 230.497 208.718C230.497 207.92 231.127 207.346 232.037 207.346C232.947 207.346 233.577 207.92 233.577 208.718ZM233.255 218H230.861V210.468H233.255V218ZM239.88 215.648V217.734C239.348 218.028 238.844 218.14 238.172 218.14C236.478 218.14 235.484 217.132 235.484 215.41V212.554H234.084V210.468H235.484V208.256H237.878V210.468H239.936V212.554H237.878V214.85C237.878 215.578 238.186 215.914 238.844 215.914C239.236 215.914 239.614 215.816 239.88 215.648ZM243.4 214.038V218H241.006V207.948H243.4V211.28C243.946 210.692 244.492 210.328 245.444 210.328C246.928 210.328 247.978 211.322 247.978 213.156V218H245.584V213.954C245.584 213.002 245.248 212.484 244.52 212.484C243.932 212.484 243.4 212.904 243.4 214.038ZM257.126 218.21C254.27 218.21 252.016 215.914 252.016 212.96C252.016 210.02 254.27 207.738 257.126 207.738C259.884 207.738 262.012 209.572 262.334 212.232H259.534C259.324 210.972 258.386 210.104 257.154 210.104C255.67 210.104 254.732 211.252 254.732 212.96C254.732 214.682 255.67 215.844 257.154 215.844C258.372 215.844 259.31 214.976 259.534 213.702H262.334C261.998 216.39 259.884 218.21 257.126 218.21ZM267.92 218V217.272C267.388 217.874 266.73 218.14 265.764 218.14C264.196 218.14 263.146 217.202 263.146 215.774C263.146 214.304 264.336 213.506 266.492 213.506C266.898 213.506 267.276 213.534 267.598 213.59V213.226C267.598 212.568 267.22 212.204 266.548 212.204C265.89 212.204 265.498 212.568 265.414 213.226H263.258C263.398 211.476 264.7 210.328 266.562 210.328C268.634 210.328 269.852 211.448 269.852 213.352V218H267.92ZM265.4 215.704C265.4 216.194 265.736 216.488 266.324 216.488C267.122 216.488 267.598 216.11 267.598 215.494V215.018C267.234 214.948 266.954 214.92 266.646 214.92C265.834 214.92 265.4 215.186 265.4 215.704ZM276.261 215.648V217.734C275.729 218.028 275.225 218.14 274.553 218.14C272.859 218.14 271.865 217.132 271.865 215.41V212.554H270.465V210.468H271.865V208.256H274.259V210.468H276.317V212.554H274.259V214.85C274.259 215.578 274.567 215.914 275.225 215.914C275.617 215.914 275.995 215.816 276.261 215.648ZM281.797 218V217.272C281.265 217.874 280.607 218.14 279.641 218.14C278.073 218.14 277.023 217.202 277.023 215.774C277.023 214.304 278.213 213.506 280.369 213.506C280.775 213.506 281.153 213.534 281.475 213.59V213.226C281.475 212.568 281.097 212.204 280.425 212.204C279.767 212.204 279.375 212.568 279.291 213.226H277.135C277.275 211.476 278.577 210.328 280.439 210.328C282.511 210.328 283.729 211.448 283.729 213.352V218H281.797ZM279.277 215.704C279.277 216.194 279.613 216.488 280.201 216.488C280.999 216.488 281.475 216.11 281.475 215.494V215.018C281.111 214.948 280.831 214.92 280.523 214.92C279.711 214.92 279.277 215.186 279.277 215.704ZM287.643 218H285.221V207.948H287.643V218ZM296.451 210.468L292.867 220.702H290.249L291.299 217.916L288.359 210.468H290.963L292.587 215.13L294.043 210.468H296.451ZM303.643 215.438C303.643 217.104 302.411 218.14 300.143 218.14C297.875 218.14 296.643 217.076 296.489 215.34H298.785C298.785 215.97 299.359 216.376 300.185 216.376C300.731 216.376 301.221 216.25 301.221 215.858C301.221 215.522 300.969 215.382 300.451 215.284L298.967 215.018C297.651 214.78 296.811 214.024 296.811 212.806C296.811 211.35 298.043 210.328 300.017 210.328C301.991 210.328 303.363 211.378 303.503 213.058H301.207C301.151 212.456 300.689 212.092 300.031 212.092C299.471 212.092 299.107 212.246 299.107 212.582C299.107 212.904 299.345 213.002 299.821 213.086L301.417 213.38C302.873 213.646 303.643 214.36 303.643 215.438ZM307.515 208.718C307.515 209.502 306.885 210.076 305.975 210.076C305.065 210.076 304.435 209.502 304.435 208.718C304.435 207.92 305.065 207.346 305.975 207.346C306.885 207.346 307.515 207.92 307.515 208.718ZM307.193 218H304.799V210.468H307.193V218ZM315.441 215.438C315.441 217.104 314.209 218.14 311.941 218.14C309.673 218.14 308.441 217.076 308.287 215.34H310.583C310.583 215.97 311.157 216.376 311.983 216.376C312.529 216.376 313.019 216.25 313.019 215.858C313.019 215.522 312.767 215.382 312.249 215.284L310.765 215.018C309.449 214.78 308.609 214.024 308.609 212.806C308.609 211.35 309.841 210.328 311.815 210.328C313.789 210.328 315.161 211.378 315.301 213.058H313.005C312.949 212.456 312.487 212.092 311.829 212.092C311.269 212.092 310.905 212.246 310.905 212.582C310.905 212.904 311.143 213.002 311.619 213.086L313.215 213.38C314.671 213.646 315.441 214.36 315.441 215.438Z" fill="#8298AB"/>
<line x1="325.002" y1="212" x2="559.002" y2="213" stroke="#8298AB"/>
<g clip-path="url(#clip2_418_2062)">
<rect y="318" width="256" height="51" rx="4" fill="#F4AB3E"/>
<rect x="6" y="322" width="245" height="43" rx="4" fill="#FFE1B5"/>
<line x1="-0.0296573" y1="471.357" x2="-0.0296573" y2="216" stroke="white" stroke-opacity="0.5" stroke-width="1.70238"/>
<line x1="5.07752" y1="471.357" x2="5.07752" y2="216" stroke="white" stroke-opacity="0.5" stroke-width="1.70238"/>
<line x1="10.1845" y1="471.357" x2="10.1845" y2="216" stroke="white" stroke-opacity="0.5" stroke-width="1.70238"/>
<line x1="15.2916" y1="471.357" x2="15.2916" y2="216" stroke="white" stroke-opacity="0.5" stroke-width="1.70238"/>
<line x1="20.3988" y1="471.357" x2="20.3988" y2="216" stroke="white" stroke-opacity="0.5" stroke-width="1.70238"/>
<line x1="25.506" y1="471.357" x2="25.506" y2="216" stroke="white" stroke-opacity="0.5" stroke-width="1.70238"/>
<line x1="30.6132" y1="471.357" x2="30.6132" y2="216" stroke="white" stroke-opacity="0.5" stroke-width="1.70238"/>
<line x1="35.7203" y1="471.357" x2="35.7203" y2="216" stroke="white" stroke-opacity="0.5" stroke-width="1.70238"/>
<line x1="40.8275" y1="471.357" x2="40.8275" y2="216" stroke="white" stroke-opacity="0.5" stroke-width="1.70238"/>
<line x1="45.9347" y1="471.357" x2="45.9347" y2="216" stroke="white" stroke-opacity="0.5" stroke-width="1.70238"/>
<line x1="51.0416" y1="471.357" x2="51.0416" y2="216" stroke="white" stroke-opacity="0.5" stroke-width="1.70238"/>
<line x1="56.1488" y1="471.357" x2="56.1488" y2="216" stroke="white" stroke-opacity="0.5" stroke-width="1.70238"/>
<line x1="61.256" y1="471.357" x2="61.256" y2="216" stroke="white" stroke-opacity="0.5" stroke-width="1.70238"/>
<line x1="66.3632" y1="471.357" x2="66.3632" y2="216" stroke="white" stroke-opacity="0.5" stroke-width="1.70238"/>
<line x1="71.4703" y1="471.357" x2="71.4703" y2="216" stroke="white" stroke-opacity="0.5" stroke-width="1.70238"/>
<line x1="76.5775" y1="471.357" x2="76.5775" y2="216" stroke="white" stroke-opacity="0.5" stroke-width="1.70238"/>
<line x1="81.6847" y1="471.357" x2="81.6847" y2="216" stroke="white" stroke-opacity="0.5" stroke-width="1.70238"/>
<line x1="86.7919" y1="471.357" x2="86.7919" y2="216" stroke="white" stroke-opacity="0.5" stroke-width="1.70238"/>
<line x1="91.8988" y1="471.357" x2="91.8988" y2="216" stroke="white" stroke-opacity="0.5" stroke-width="1.70238"/>
<line x1="97.006" y1="471.357" x2="97.006" y2="216" stroke="white" stroke-opacity="0.5" stroke-width="1.70238"/>
<line x1="102.113" y1="471.357" x2="102.113" y2="216" stroke="white" stroke-opacity="0.5" stroke-width="1.70238"/>
<line x1="107.22" y1="471.357" x2="107.22" y2="216" stroke="white" stroke-opacity="0.5" stroke-width="1.70238"/>
<line x1="112.328" y1="471.357" x2="112.328" y2="216" stroke="white" stroke-opacity="0.5" stroke-width="1.70238"/>
<line x1="117.435" y1="471.357" x2="117.435" y2="216" stroke="white" stroke-opacity="0.5" stroke-width="1.70238"/>
<line x1="122.542" y1="471.357" x2="122.542" y2="216" stroke="white" stroke-opacity="0.5" stroke-width="1.70238"/>
<line x1="127.649" y1="471.357" x2="127.649" y2="216" stroke="white" stroke-opacity="0.5" stroke-width="1.70238"/>
<line x1="132.756" y1="471.357" x2="132.756" y2="216" stroke="white" stroke-opacity="0.5" stroke-width="1.70238"/>
<line x1="137.863" y1="471.357" x2="137.863" y2="216" stroke="white" stroke-opacity="0.5" stroke-width="1.70238"/>
<line x1="142.97" y1="471.357" x2="142.97" y2="216" stroke="white" stroke-opacity="0.5" stroke-width="1.70238"/>
<line x1="148.078" y1="471.357" x2="148.078" y2="216" stroke="white" stroke-opacity="0.5" stroke-width="1.70238"/>
<line x1="153.185" y1="471.357" x2="153.185" y2="216" stroke="white" stroke-opacity="0.5" stroke-width="1.70238"/>
<line x1="158.292" y1="471.357" x2="158.292" y2="216" stroke="white" stroke-opacity="0.5" stroke-width="1.70238"/>
<line x1="163.399" y1="471.357" x2="163.399" y2="216" stroke="white" stroke-opacity="0.5" stroke-width="1.70238"/>
<line x1="168.506" y1="471.357" x2="168.506" y2="216" stroke="white" stroke-opacity="0.5" stroke-width="1.70238"/>
<line x1="173.613" y1="471.357" x2="173.613" y2="216" stroke="white" stroke-opacity="0.5" stroke-width="1.70238"/>
<line x1="178.72" y1="471.357" x2="178.72" y2="216" stroke="white" stroke-opacity="0.5" stroke-width="1.70238"/>
<line x1="183.828" y1="471.357" x2="183.828" y2="216" stroke="white" stroke-opacity="0.5" stroke-width="1.70238"/>
<line x1="188.935" y1="471.357" x2="188.935" y2="216" stroke="white" stroke-opacity="0.5" stroke-width="1.70238"/>
<line x1="194.042" y1="471.357" x2="194.042" y2="216" stroke="white" stroke-opacity="0.5" stroke-width="1.70238"/>
<line x1="199.149" y1="471.357" x2="199.149" y2="216" stroke="white" stroke-opacity="0.5" stroke-width="1.70238"/>
<line x1="204.256" y1="471.357" x2="204.256" y2="216" stroke="white" stroke-opacity="0.5" stroke-width="1.70238"/>
<line x1="209.363" y1="471.357" x2="209.363" y2="216" stroke="white" stroke-opacity="0.5" stroke-width="1.70238"/>
<line x1="214.47" y1="471.357" x2="214.47" y2="216" stroke="white" stroke-opacity="0.5" stroke-width="1.70238"/>
<line x1="219.578" y1="471.357" x2="219.578" y2="216" stroke="white" stroke-opacity="0.5" stroke-width="1.70238"/>
<line x1="224.685" y1="471.357" x2="224.685" y2="216" stroke="white" stroke-opacity="0.5" stroke-width="1.70238"/>
<line x1="229.792" y1="471.357" x2="229.792" y2="216" stroke="white" stroke-opacity="0.5" stroke-width="1.70238"/>
<line x1="234.899" y1="471.357" x2="234.899" y2="216" stroke="white" stroke-opacity="0.5" stroke-width="1.70238"/>
<line x1="240.006" y1="471.357" x2="240.006" y2="216" stroke="white" stroke-opacity="0.5" stroke-width="1.70238"/>
<line x1="245.113" y1="471.357" x2="245.113" y2="216" stroke="white" stroke-opacity="0.5" stroke-width="1.70238"/>
<line x1="250.22" y1="471.357" x2="250.22" y2="216" stroke="white" stroke-opacity="0.5" stroke-width="1.70238"/>
<line x1="255.328" y1="471.357" x2="255.328" y2="216" stroke="white" stroke-opacity="0.5" stroke-width="1.70238"/>
<path d="M103.078 345.71C103.078 347.782 101.426 349.14 98.8079 349.14C96.1899 349.14 94.5099 347.754 94.3279 345.528H97.0019C97.0299 346.48 97.6599 347.082 98.7519 347.082C99.6619 347.082 100.264 346.732 100.264 346.102C100.264 345.668 99.8299 345.346 99.2419 345.234L97.4079 344.884C95.7979 344.576 94.7339 343.638 94.7339 342.014C94.7339 340.138 96.3859 338.822 98.6399 338.822C101.034 338.822 102.756 340.194 102.91 342.364H100.236C100.166 341.454 99.5499 340.866 98.6679 340.866C97.8839 340.866 97.4079 341.286 97.4079 341.832C97.4079 342.28 97.8559 342.546 98.3879 342.644L100.334 343.022C102.126 343.372 103.078 344.254 103.078 345.71ZM111.476 341.468L107.892 351.702H105.274L106.324 348.916L103.384 341.468H105.988L107.612 346.13L109.068 341.468H111.476ZM114.589 349H112.195V341.468H114.393V342.392C114.967 341.72 115.583 341.328 116.563 341.328C117.515 341.328 118.271 341.734 118.691 342.49C119.335 341.762 120.007 341.328 121.113 341.328C122.611 341.328 123.661 342.322 123.661 344.156V349H121.267V344.898C121.267 344.03 120.917 343.484 120.231 343.484C119.629 343.484 119.125 343.904 119.125 344.912V349H116.731V344.898C116.731 344.03 116.381 343.484 115.695 343.484C115.079 343.484 114.589 343.904 114.589 344.912V349ZM132.954 345.234C132.954 347.39 131.624 349.14 129.594 349.14C128.712 349.14 127.97 348.79 127.354 348.146V349H125.156V338.948H127.55V342.168C128.138 341.608 128.81 341.328 129.594 341.328C131.624 341.328 132.954 343.05 132.954 345.234ZM130.462 345.234C130.462 344.03 129.748 343.484 129.02 343.484C128.292 343.484 127.578 344.016 127.578 345.22C127.578 346.41 128.278 346.984 129.02 346.984C129.748 346.984 130.462 346.41 130.462 345.234ZM136.759 339.718C136.759 340.502 136.129 341.076 135.219 341.076C134.309 341.076 133.679 340.502 133.679 339.718C133.679 338.92 134.309 338.346 135.219 338.346C136.129 338.346 136.759 338.92 136.759 339.718ZM136.437 349H134.043V341.468H136.437V349ZM141.466 349.14C139.24 349.14 137.532 347.39 137.532 345.234C137.532 343.078 139.24 341.328 141.466 341.328C143.692 341.328 145.4 343.078 145.4 345.234C145.4 347.39 143.692 349.14 141.466 349.14ZM141.466 346.998C142.208 346.998 142.908 346.41 142.908 345.234C142.908 344.058 142.208 343.484 141.466 343.484C140.724 343.484 140.024 344.058 140.024 345.234C140.024 346.41 140.724 346.998 141.466 346.998ZM151.415 346.648V348.734C150.883 349.028 150.379 349.14 149.707 349.14C148.013 349.14 147.019 348.132 147.019 346.41V343.554H145.619V341.468H147.019V339.256H149.413V341.468H151.471V343.554H149.413V345.85C149.413 346.578 149.721 346.914 150.379 346.914C150.771 346.914 151.149 346.816 151.415 346.648ZM155.257 339.718C155.257 340.502 154.627 341.076 153.717 341.076C152.807 341.076 152.177 340.502 152.177 339.718C152.177 338.92 152.807 338.346 153.717 338.346C154.627 338.346 155.257 338.92 155.257 339.718ZM154.935 349H152.541V341.468H154.935V349ZM159.824 349.14C157.584 349.14 156.03 347.53 156.03 345.234C156.03 342.994 157.654 341.328 159.824 341.328C161.896 341.328 163.436 342.728 163.646 344.828H161.098C161.056 344.002 160.566 343.484 159.838 343.484C158.998 343.484 158.508 344.128 158.508 345.234C158.508 346.368 158.984 346.998 159.838 346.998C160.58 346.998 161.042 346.494 161.098 345.64H163.646C163.436 347.796 161.966 349.14 159.824 349.14Z" fill="#8298AB"/>
</g>
<rect x="183" y="255" width="53" height="53" fill="#FFE1B5" stroke="#F4AB3E" stroke-width="2" stroke-dasharray="4 4"/>
<rect x="98" y="255" width="53" height="53" fill="#FFE1B5" stroke="#F4AB3E" stroke-width="2" stroke-dasharray="4 4"/>
<rect x="13" y="255" width="53" height="53" fill="#FFE1B5" stroke="#F4AB3E" stroke-width="2" stroke-dasharray="4 4"/>
<path d="M198.38 297L197.94 295.67H195.42L194.97 297H193.06L195.72 289.82H197.79L200.42 297H198.38ZM196.7 291.9L195.93 294.18H197.45L196.7 291.9ZM206.547 289.82L203.987 297H201.927L199.387 289.82H201.437L203.017 294.79L204.647 289.82H206.547ZM212.702 294.65C212.702 296.13 211.522 297.1 209.652 297.1C207.782 297.1 206.582 296.11 206.452 294.52H208.362C208.382 295.2 208.832 295.63 209.612 295.63C210.262 295.63 210.692 295.38 210.692 294.93C210.692 294.62 210.382 294.39 209.962 294.31L208.652 294.06C207.502 293.84 206.742 293.17 206.742 292.01C206.742 290.67 207.922 289.73 209.532 289.73C211.242 289.73 212.472 290.71 212.582 292.26H210.672C210.622 291.61 210.182 291.19 209.552 291.19C208.992 291.19 208.652 291.49 208.652 291.88C208.652 292.2 208.972 292.39 209.352 292.46L210.742 292.73C212.022 292.98 212.702 293.61 212.702 294.65ZM217.461 297H216.161L216.461 295.32H215.761V294.04H216.691L216.851 293.13H216.161V291.83H217.081L217.361 290.24H218.661L218.381 291.83H218.991L219.271 290.24H220.561L220.281 291.83H220.961V293.13H220.051L219.891 294.04H220.561V295.32H219.661L219.361 297H218.071L218.371 295.32H217.761L217.461 297ZM218.151 293.13L217.991 294.04H218.601L218.761 293.13H218.151ZM224.492 297.09C222.972 297.09 221.882 296.2 221.882 294.95H223.562C223.602 295.45 223.952 295.74 224.512 295.74C225.112 295.74 225.452 295.46 225.452 294.97C225.452 294.49 225.042 294.22 224.312 294.22H223.552V292.87H224.212C224.822 292.87 225.152 292.63 225.152 292.18C225.152 291.74 224.882 291.49 224.402 291.49C223.942 291.49 223.662 291.79 223.662 292.28H221.992C221.992 291.06 223.082 290.14 224.492 290.14C226.012 290.14 226.922 290.93 226.922 292.04C226.922 292.62 226.592 293.08 225.982 293.44C226.782 293.72 227.222 294.23 227.222 294.93C227.222 296.22 226.122 297.09 224.492 297.09Z" fill="#8298AB"/>
<path d="M113.38 297L112.94 295.67H110.42L109.97 297H108.06L110.72 289.82H112.79L115.42 297H113.38ZM111.7 291.9L110.93 294.18H112.45L111.7 291.9ZM121.547 289.82L118.987 297H116.927L114.387 289.82H116.437L118.017 294.79L119.647 289.82H121.547ZM127.702 294.65C127.702 296.13 126.522 297.1 124.652 297.1C122.782 297.1 121.582 296.11 121.452 294.52H123.362C123.382 295.2 123.832 295.63 124.612 295.63C125.262 295.63 125.692 295.38 125.692 294.93C125.692 294.62 125.382 294.39 124.962 294.31L123.652 294.06C122.502 293.84 121.742 293.17 121.742 292.01C121.742 290.67 122.922 289.73 124.532 289.73C126.242 289.73 127.472 290.71 127.582 292.26H125.672C125.622 291.61 125.182 291.19 124.552 291.19C123.992 291.19 123.652 291.49 123.652 291.88C123.652 292.2 123.972 292.39 124.352 292.46L125.742 292.73C127.022 292.98 127.702 293.61 127.702 294.65ZM132.461 297H131.161L131.461 295.32H130.761V294.04H131.691L131.851 293.13H131.161V291.83H132.081L132.361 290.24H133.661L133.381 291.83H133.991L134.271 290.24H135.561L135.281 291.83H135.961V293.13H135.051L134.891 294.04H135.561V295.32H134.661L134.361 297H133.071L133.371 295.32H132.761L132.461 297ZM133.151 293.13L132.991 294.04H133.601L133.761 293.13H133.151ZM142.132 295.46V297H137.102V296.02L139.112 294.08C139.862 293.35 140.212 292.97 140.212 292.41C140.212 291.95 139.932 291.68 139.442 291.68C138.872 291.68 138.552 292.01 138.552 292.58H136.882C136.882 291.15 137.972 290.14 139.532 290.14C140.952 290.14 142.012 291.02 142.012 292.19C142.012 293.04 141.702 293.55 140.452 294.76L139.732 295.46H142.132Z" fill="#8298AB"/>
<path d="M28.38 297L27.94 295.67H25.42L24.97 297H23.06L25.72 289.82H27.79L30.42 297H28.38ZM26.7 291.9L25.93 294.18H27.45L26.7 291.9ZM36.547 289.82L33.987 297H31.927L29.387 289.82H31.437L33.017 294.79L34.647 289.82H36.547ZM42.702 294.65C42.702 296.13 41.522 297.1 39.652 297.1C37.782 297.1 36.582 296.11 36.452 294.52H38.362C38.382 295.2 38.832 295.63 39.612 295.63C40.262 295.63 40.692 295.38 40.692 294.93C40.692 294.62 40.382 294.39 39.962 294.31L38.652 294.06C37.502 293.84 36.742 293.17 36.742 292.01C36.742 290.67 37.922 289.73 39.532 289.73C41.242 289.73 42.472 290.71 42.582 292.26H40.672C40.622 291.61 40.182 291.19 39.552 291.19C38.992 291.19 38.652 291.49 38.652 291.88C38.652 292.2 38.972 292.39 39.352 292.46L40.742 292.73C42.022 292.98 42.702 293.61 42.702 294.65ZM47.4605 297H46.1605L46.4605 295.32H45.7605V294.04H46.6905L46.8505 293.13H46.1605V291.83H47.0805L47.3605 290.24H48.6605L48.3805 291.83H48.9905L49.2705 290.24H50.5605L50.2805 291.83H50.9605V293.13H50.0505L49.8905 294.04H50.5605V295.32H49.6605L49.3605 297H48.0705L48.3705 295.32H47.7605L47.4605 297ZM48.1505 293.13L47.9905 294.04H48.6005L48.7605 293.13H48.1505ZM54.8421 297H53.1121V291.73H51.8621V290.24H54.8421V297Z" fill="#8298AB"/>
<g clip-path="url(#clip3_418_2062)">
<rect x="290" y="318" width="256" height="51" rx="4" fill="#F4AB3E"/>
<rect x="296" y="322" width="245" height="43" rx="4" fill="#FFE1B5"/>
<line x1="289.97" y1="471.357" x2="289.97" y2="216" stroke="white" stroke-opacity="0.5" stroke-width="1.70238"/>
<line x1="295.077" y1="471.357" x2="295.077" y2="216" stroke="white" stroke-opacity="0.5" stroke-width="1.70238"/>
<line x1="300.185" y1="471.357" x2="300.185" y2="216" stroke="white" stroke-opacity="0.5" stroke-width="1.70238"/>
<line x1="305.292" y1="471.357" x2="305.292" y2="216" stroke="white" stroke-opacity="0.5" stroke-width="1.70238"/>
<line x1="310.399" y1="471.357" x2="310.399" y2="216" stroke="white" stroke-opacity="0.5" stroke-width="1.70238"/>
<line x1="315.506" y1="471.357" x2="315.506" y2="216" stroke="white" stroke-opacity="0.5" stroke-width="1.70238"/>
<line x1="320.613" y1="471.357" x2="320.613" y2="216" stroke="white" stroke-opacity="0.5" stroke-width="1.70238"/>
<line x1="325.72" y1="471.357" x2="325.72" y2="216" stroke="white" stroke-opacity="0.5" stroke-width="1.70238"/>
<line x1="330.827" y1="471.357" x2="330.827" y2="216" stroke="white" stroke-opacity="0.5" stroke-width="1.70238"/>
<line x1="335.935" y1="471.357" x2="335.935" y2="216" stroke="white" stroke-opacity="0.5" stroke-width="1.70238"/>
<line x1="341.042" y1="471.357" x2="341.042" y2="216" stroke="white" stroke-opacity="0.5" stroke-width="1.70238"/>
<line x1="346.149" y1="471.357" x2="346.149" y2="216" stroke="white" stroke-opacity="0.5" stroke-width="1.70238"/>
<line x1="351.256" y1="471.357" x2="351.256" y2="216" stroke="white" stroke-opacity="0.5" stroke-width="1.70238"/>
<line x1="356.363" y1="471.357" x2="356.363" y2="216" stroke="white" stroke-opacity="0.5" stroke-width="1.70238"/>
<line x1="361.47" y1="471.357" x2="361.47" y2="216" stroke="white" stroke-opacity="0.5" stroke-width="1.70238"/>
<line x1="366.578" y1="471.357" x2="366.578" y2="216" stroke="white" stroke-opacity="0.5" stroke-width="1.70238"/>
<line x1="371.685" y1="471.357" x2="371.685" y2="216" stroke="white" stroke-opacity="0.5" stroke-width="1.70238"/>
<line x1="376.792" y1="471.357" x2="376.792" y2="216" stroke="white" stroke-opacity="0.5" stroke-width="1.70238"/>
<line x1="381.899" y1="471.357" x2="381.899" y2="216" stroke="white" stroke-opacity="0.5" stroke-width="1.70238"/>
<line x1="387.006" y1="471.357" x2="387.006" y2="216" stroke="white" stroke-opacity="0.5" stroke-width="1.70238"/>
<line x1="392.113" y1="471.357" x2="392.113" y2="216" stroke="white" stroke-opacity="0.5" stroke-width="1.70238"/>
<line x1="397.22" y1="471.357" x2="397.22" y2="216" stroke="white" stroke-opacity="0.5" stroke-width="1.70238"/>
<line x1="402.328" y1="471.357" x2="402.328" y2="216" stroke="white" stroke-opacity="0.5" stroke-width="1.70238"/>
<line x1="407.435" y1="471.357" x2="407.435" y2="216" stroke="white" stroke-opacity="0.5" stroke-width="1.70238"/>
<line x1="412.542" y1="471.357" x2="412.542" y2="216" stroke="white" stroke-opacity="0.5" stroke-width="1.70238"/>
<line x1="417.649" y1="471.357" x2="417.649" y2="216" stroke="white" stroke-opacity="0.5" stroke-width="1.70238"/>
<line x1="422.756" y1="471.357" x2="422.756" y2="216" stroke="white" stroke-opacity="0.5" stroke-width="1.70238"/>
<line x1="427.863" y1="471.357" x2="427.863" y2="216" stroke="white" stroke-opacity="0.5" stroke-width="1.70238"/>
<line x1="432.97" y1="471.357" x2="432.97" y2="216" stroke="white" stroke-opacity="0.5" stroke-width="1.70238"/>
<line x1="438.078" y1="471.357" x2="438.078" y2="216" stroke="white" stroke-opacity="0.5" stroke-width="1.70238"/>
<line x1="443.185" y1="471.357" x2="443.185" y2="216" stroke="white" stroke-opacity="0.5" stroke-width="1.70238"/>
<line x1="448.292" y1="471.357" x2="448.292" y2="216" stroke="white" stroke-opacity="0.5" stroke-width="1.70238"/>
<line x1="453.399" y1="471.357" x2="453.399" y2="216" stroke="white" stroke-opacity="0.5" stroke-width="1.70238"/>
<line x1="458.506" y1="471.357" x2="458.506" y2="216" stroke="white" stroke-opacity="0.5" stroke-width="1.70238"/>
<line x1="463.613" y1="471.357" x2="463.613" y2="216" stroke="white" stroke-opacity="0.5" stroke-width="1.70238"/>
<line x1="468.72" y1="471.357" x2="468.72" y2="216" stroke="white" stroke-opacity="0.5" stroke-width="1.70238"/>
<line x1="473.828" y1="471.357" x2="473.828" y2="216" stroke="white" stroke-opacity="0.5" stroke-width="1.70238"/>
<line x1="478.935" y1="471.357" x2="478.935" y2="216" stroke="white" stroke-opacity="0.5" stroke-width="1.70238"/>
<line x1="484.042" y1="471.357" x2="484.042" y2="216" stroke="white" stroke-opacity="0.5" stroke-width="1.70238"/>
<line x1="489.149" y1="471.357" x2="489.149" y2="216" stroke="white" stroke-opacity="0.5" stroke-width="1.70238"/>
<line x1="494.256" y1="471.357" x2="494.256" y2="216" stroke="white" stroke-opacity="0.5" stroke-width="1.70238"/>
<line x1="499.363" y1="471.357" x2="499.363" y2="216" stroke="white" stroke-opacity="0.5" stroke-width="1.70238"/>
<line x1="504.47" y1="471.357" x2="504.47" y2="216" stroke="white" stroke-opacity="0.5" stroke-width="1.70238"/>
<line x1="509.578" y1="471.357" x2="509.578" y2="216" stroke="white" stroke-opacity="0.5" stroke-width="1.70238"/>
<line x1="514.685" y1="471.357" x2="514.685" y2="216" stroke="white" stroke-opacity="0.5" stroke-width="1.70238"/>
<line x1="519.792" y1="471.357" x2="519.792" y2="216" stroke="white" stroke-opacity="0.5" stroke-width="1.70238"/>
<line x1="524.899" y1="471.357" x2="524.899" y2="216" stroke="white" stroke-opacity="0.5" stroke-width="1.70238"/>
<line x1="530.006" y1="471.357" x2="530.006" y2="216" stroke="white" stroke-opacity="0.5" stroke-width="1.70238"/>
<line x1="535.113" y1="471.357" x2="535.113" y2="216" stroke="white" stroke-opacity="0.5" stroke-width="1.70238"/>
<line x1="540.22" y1="471.357" x2="540.22" y2="216" stroke="white" stroke-opacity="0.5" stroke-width="1.70238"/>
<line x1="545.328" y1="471.357" x2="545.328" y2="216" stroke="white" stroke-opacity="0.5" stroke-width="1.70238"/>
<path d="M393.078 345.71C393.078 347.782 391.426 349.14 388.808 349.14C386.19 349.14 384.51 347.754 384.328 345.528H387.002C387.03 346.48 387.66 347.082 388.752 347.082C389.662 347.082 390.264 346.732 390.264 346.102C390.264 345.668 389.83 345.346 389.242 345.234L387.408 344.884C385.798 344.576 384.734 343.638 384.734 342.014C384.734 340.138 386.386 338.822 388.64 338.822C391.034 338.822 392.756 340.194 392.91 342.364H390.236C390.166 341.454 389.55 340.866 388.668 340.866C387.884 340.866 387.408 341.286 387.408 341.832C387.408 342.28 387.856 342.546 388.388 342.644L390.334 343.022C392.126 343.372 393.078 344.254 393.078 345.71ZM401.476 341.468L397.892 351.702H395.274L396.324 348.916L393.384 341.468H395.988L397.612 346.13L399.068 341.468H401.476ZM404.589 349H402.195V341.468H404.393V342.392C404.967 341.72 405.583 341.328 406.563 341.328C407.515 341.328 408.271 341.734 408.691 342.49C409.335 341.762 410.007 341.328 411.113 341.328C412.611 341.328 413.661 342.322 413.661 344.156V349H411.267V344.898C411.267 344.03 410.917 343.484 410.231 343.484C409.629 343.484 409.125 343.904 409.125 344.912V349H406.731V344.898C406.731 344.03 406.381 343.484 405.695 343.484C405.079 343.484 404.589 343.904 404.589 344.912V349ZM422.954 345.234C422.954 347.39 421.624 349.14 419.594 349.14C418.712 349.14 417.97 348.79 417.354 348.146V349H415.156V338.948H417.55V342.168C418.138 341.608 418.81 341.328 419.594 341.328C421.624 341.328 422.954 343.05 422.954 345.234ZM420.462 345.234C420.462 344.03 419.748 343.484 419.02 343.484C418.292 343.484 417.578 344.016 417.578 345.22C417.578 346.41 418.278 346.984 419.02 346.984C419.748 346.984 420.462 346.41 420.462 345.234ZM426.759 339.718C426.759 340.502 426.129 341.076 425.219 341.076C424.309 341.076 423.679 340.502 423.679 339.718C423.679 338.92 424.309 338.346 425.219 338.346C426.129 338.346 426.759 338.92 426.759 339.718ZM426.437 349H424.043V341.468H426.437V349ZM431.466 349.14C429.24 349.14 427.532 347.39 427.532 345.234C427.532 343.078 429.24 341.328 431.466 341.328C433.692 341.328 435.4 343.078 435.4 345.234C435.4 347.39 433.692 349.14 431.466 349.14ZM431.466 346.998C432.208 346.998 432.908 346.41 432.908 345.234C432.908 344.058 432.208 343.484 431.466 343.484C430.724 343.484 430.024 344.058 430.024 345.234C430.024 346.41 430.724 346.998 431.466 346.998ZM441.415 346.648V348.734C440.883 349.028 440.379 349.14 439.707 349.14C438.013 349.14 437.019 348.132 437.019 346.41V343.554H435.619V341.468H437.019V339.256H439.413V341.468H441.471V343.554H439.413V345.85C439.413 346.578 439.721 346.914 440.379 346.914C440.771 346.914 441.149 346.816 441.415 346.648ZM445.257 339.718C445.257 340.502 444.627 341.076 443.717 341.076C442.807 341.076 442.177 340.502 442.177 339.718C442.177 338.92 442.807 338.346 443.717 338.346C444.627 338.346 445.257 338.92 445.257 339.718ZM444.935 349H442.541V341.468H444.935V349ZM449.824 349.14C447.584 349.14 446.03 347.53 446.03 345.234C446.03 342.994 447.654 341.328 449.824 341.328C451.896 341.328 453.436 342.728 453.646 344.828H451.098C451.056 344.002 450.566 343.484 449.838 343.484C448.998 343.484 448.508 344.128 448.508 345.234C448.508 346.368 448.984 346.998 449.838 346.998C450.58 346.998 451.042 346.494 451.098 345.64H453.646C453.436 347.796 451.966 349.14 449.824 349.14Z" fill="#8298AB"/>
</g>
<rect x="473" y="255" width="53" height="53" fill="#FFE1B5" stroke="#F4AB3E" stroke-width="2" stroke-dasharray="4 4"/>
<rect x="388" y="255" width="53" height="53" fill="#FFE1B5" stroke="#F4AB3E" stroke-width="2" stroke-dasharray="4 4"/>
<rect x="303" y="255" width="53" height="53" fill="#FFE1B5" stroke="#F4AB3E" stroke-width="2" stroke-dasharray="4 4"/>
<path d="M488.38 297L487.94 295.67H485.42L484.97 297H483.06L485.72 289.82H487.79L490.42 297H488.38ZM486.7 291.9L485.93 294.18H487.45L486.7 291.9ZM496.547 289.82L493.987 297H491.927L489.387 289.82H491.437L493.017 294.79L494.647 289.82H496.547ZM502.702 294.65C502.702 296.13 501.522 297.1 499.652 297.1C497.782 297.1 496.582 296.11 496.452 294.52H498.362C498.382 295.2 498.832 295.63 499.612 295.63C500.262 295.63 500.692 295.38 500.692 294.93C500.692 294.62 500.382 294.39 499.962 294.31L498.652 294.06C497.502 293.84 496.742 293.17 496.742 292.01C496.742 290.67 497.922 289.73 499.532 289.73C501.242 289.73 502.472 290.71 502.582 292.26H500.672C500.622 291.61 500.182 291.19 499.552 291.19C498.992 291.19 498.652 291.49 498.652 291.88C498.652 292.2 498.972 292.39 499.352 292.46L500.742 292.73C502.022 292.98 502.702 293.61 502.702 294.65ZM507.461 297H506.161L506.461 295.32H505.761V294.04H506.691L506.851 293.13H506.161V291.83H507.081L507.361 290.24H508.661L508.381 291.83H508.991L509.271 290.24H510.561L510.281 291.83H510.961V293.13H510.051L509.891 294.04H510.561V295.32H509.661L509.361 297H508.071L508.371 295.32H507.761L507.461 297ZM508.151 293.13L507.991 294.04H508.601L508.761 293.13H508.151ZM514.492 297.09C512.972 297.09 511.882 296.2 511.882 294.95H513.562C513.602 295.45 513.952 295.74 514.512 295.74C515.112 295.74 515.452 295.46 515.452 294.97C515.452 294.49 515.042 294.22 514.312 294.22H513.552V292.87H514.212C514.822 292.87 515.152 292.63 515.152 292.18C515.152 291.74 514.882 291.49 514.402 291.49C513.942 291.49 513.662 291.79 513.662 292.28H511.992C511.992 291.06 513.082 290.14 514.492 290.14C516.012 290.14 516.922 290.93 516.922 292.04C516.922 292.62 516.592 293.08 515.982 293.44C516.782 293.72 517.222 294.23 517.222 294.93C517.222 296.22 516.122 297.09 514.492 297.09Z" fill="#8298AB"/>
<path d="M403.38 297L402.94 295.67H400.42L399.97 297H398.06L400.72 289.82H402.79L405.42 297H403.38ZM401.7 291.9L400.93 294.18H402.45L401.7 291.9ZM411.547 289.82L408.987 297H406.927L404.387 289.82H406.437L408.017 294.79L409.647 289.82H411.547ZM417.702 294.65C417.702 296.13 416.522 297.1 414.652 297.1C412.782 297.1 411.582 296.11 411.452 294.52H413.362C413.382 295.2 413.832 295.63 414.612 295.63C415.262 295.63 415.692 295.38 415.692 294.93C415.692 294.62 415.382 294.39 414.962 294.31L413.652 294.06C412.502 293.84 411.742 293.17 411.742 292.01C411.742 290.67 412.922 289.73 414.532 289.73C416.242 289.73 417.472 290.71 417.582 292.26H415.672C415.622 291.61 415.182 291.19 414.552 291.19C413.992 291.19 413.652 291.49 413.652 291.88C413.652 292.2 413.972 292.39 414.352 292.46L415.742 292.73C417.022 292.98 417.702 293.61 417.702 294.65ZM422.461 297H421.161L421.461 295.32H420.761V294.04H421.691L421.851 293.13H421.161V291.83H422.081L422.361 290.24H423.661L423.381 291.83H423.991L424.271 290.24H425.561L425.281 291.83H425.961V293.13H425.051L424.891 294.04H425.561V295.32H424.661L424.361 297H423.071L423.371 295.32H422.761L422.461 297ZM423.151 293.13L422.991 294.04H423.601L423.761 293.13H423.151ZM432.132 295.46V297H427.102V296.02L429.112 294.08C429.862 293.35 430.212 292.97 430.212 292.41C430.212 291.95 429.932 291.68 429.442 291.68C428.872 291.68 428.552 292.01 428.552 292.58H426.882C426.882 291.15 427.972 290.14 429.532 290.14C430.952 290.14 432.012 291.02 432.012 292.19C432.012 293.04 431.702 293.55 430.452 294.76L429.732 295.46H432.132Z" fill="#8298AB"/>
<path d="M318.38 297L317.94 295.67H315.42L314.97 297H313.06L315.72 289.82H317.79L320.42 297H318.38ZM316.7 291.9L315.93 294.18H317.45L316.7 291.9ZM326.547 289.82L323.987 297H321.927L319.387 289.82H321.437L323.017 294.79L324.647 289.82H326.547ZM332.702 294.65C332.702 296.13 331.522 297.1 329.652 297.1C327.782 297.1 326.582 296.11 326.452 294.52H328.362C328.382 295.2 328.832 295.63 329.612 295.63C330.262 295.63 330.692 295.38 330.692 294.93C330.692 294.62 330.382 294.39 329.962 294.31L328.652 294.06C327.502 293.84 326.742 293.17 326.742 292.01C326.742 290.67 327.922 289.73 329.532 289.73C331.242 289.73 332.472 290.71 332.582 292.26H330.672C330.622 291.61 330.182 291.19 329.552 291.19C328.992 291.19 328.652 291.49 328.652 291.88C328.652 292.2 328.972 292.39 329.352 292.46L330.742 292.73C332.022 292.98 332.702 293.61 332.702 294.65ZM337.461 297H336.161L336.461 295.32H335.761V294.04H336.691L336.851 293.13H336.161V291.83H337.081L337.361 290.24H338.661L338.381 291.83H338.991L339.271 290.24H340.561L340.281 291.83H340.961V293.13H340.051L339.891 294.04H340.561V295.32H339.661L339.361 297H338.071L338.371 295.32H337.761L337.461 297ZM338.151 293.13L337.991 294.04H338.601L338.761 293.13H338.151ZM344.842 297H343.112V291.73H341.862V290.24H344.842V297Z" fill="#8298AB"/>
<defs>
<clipPath id="clip0_418_2062">
<rect y="123" width="256" height="51" rx="4" fill="white"/>
</clipPath>
<clipPath id="clip1_418_2062">
<rect x="290" y="123" width="256" height="51" rx="4" fill="white"/>
</clipPath>
<clipPath id="clip2_418_2062">
<rect y="318" width="256" height="51" rx="4" fill="white"/>
</clipPath>
<clipPath id="clip3_418_2062">
<rect x="290" y="318" width="256" height="51" rx="4" fill="white"/>
</clipPath>
</defs>
</svg>
