<svg width="341" height="268" viewBox="0 0 341 268" fill="none" xmlns="http://www.w3.org/2000/svg">
<path d="M253.707 38.7071C254.098 38.3166 254.098 37.6834 253.707 37.2929L247.343 30.9289C246.953 30.5384 246.319 30.5384 245.929 30.9289C245.538 31.3195 245.538 31.9526 245.929 32.3431L251.586 38L245.929 43.6569C245.538 44.0474 245.538 44.6805 245.929 45.0711C246.319 45.4616 246.953 45.4616 247.343 45.0711L253.707 38.7071ZM72 135H73.9531V133H72V135ZM77.8594 135H81.7656V133H77.8594V135ZM85.6719 135H89.5781V133H85.6719V135ZM93.4844 135H97.3906V133H93.4844V135ZM101.297 135H105.203V133H101.297V135ZM109.109 135H113.016V133H109.109V135ZM116.922 135H120.828V133H116.922V135ZM124.734 135H128.641V133H124.734V135ZM132.547 135H136.453V133H132.547V135ZM140.359 135H144.266V133H140.359V135ZM148.172 135H152.078V133H148.172V135ZM155.984 135H159.891V133H155.984V135ZM163.797 135H167.703V133H163.797V135ZM171.609 135H175.516V133H171.609V135ZM179.422 135H183.328V133H179.422V135ZM187.234 135H191.141V133H187.234V135ZM195.047 135H197V133H195.047V135ZM197 135C197.676 135 198.323 134.865 198.914 134.62L198.148 132.773C197.796 132.919 197.409 133 197 133V135ZM201.62 131.914C201.865 131.323 202 130.676 202 130H200C200 130.409 199.919 130.796 199.773 131.148L201.62 131.914ZM202 130V128H200V130H202ZM202 124V120H200V124H202ZM202 116V112H200V116H202ZM202 108V104H200V108H202ZM202 100V96H200V100H202ZM202 92V88H200V92H202ZM202 84V80H200V84H202ZM202 76V72H200V76H202ZM202 68V64H200V68H202ZM202 60V56H200V60H202ZM202 52V48H200V52H202ZM202 44V42H200V44H202ZM202 42C202 41.5914 202.081 41.2042 202.227 40.8519L200.38 40.0858C200.135 40.6767 200 41.3239 200 42H202ZM203.852 39.2272C204.204 39.0811 204.591 39 205 39V37C204.324 37 203.677 37.1347 203.086 37.3798L203.852 39.2272ZM205 39H207V37H205V39ZM211 39H215V37H211V39ZM219 39H223V37H219V39ZM227 39H231V37H227V39ZM235 39H239V37H235V39ZM243 39H247V37H243V39ZM251 39H253V37H251V39Z" fill="#8298AB"/>
<path d="M253.707 229.293C254.098 229.683 254.098 230.317 253.707 230.707L247.343 237.071C246.953 237.462 246.319 237.462 245.929 237.071C245.538 236.681 245.538 236.047 245.929 235.657L251.586 230L245.929 224.343C245.538 223.953 245.538 223.319 245.929 222.929C246.319 222.538 246.953 222.538 247.343 222.929L253.707 229.293ZM72 133H73.9531V135H72V133ZM77.8594 133H81.7656V135H77.8594V133ZM85.6719 133H89.5781V135H85.6719V133ZM93.4844 133H97.3906V135H93.4844V133ZM101.297 133H105.203V135H101.297V133ZM109.109 133H113.016V135H109.109V133ZM116.922 133H120.828V135H116.922V133ZM124.734 133H128.641V135H124.734V133ZM132.547 133H136.453V135H132.547V133ZM140.359 133H144.266V135H140.359V133ZM148.172 133H152.078V135H148.172V133ZM155.984 133H159.891V135H155.984V133ZM163.797 133H167.703V135H163.797V133ZM171.609 133H175.516V135H171.609V133ZM179.422 133H183.328V135H179.422V133ZM187.234 133H191.141V135H187.234V133ZM195.047 133H197V135H195.047V133ZM197 133C197.676 133 198.323 133.135 198.914 133.38L198.148 135.227C197.796 135.081 197.409 135 197 135V133ZM201.62 136.086C201.865 136.677 202 137.324 202 138H200C200 137.591 199.919 137.204 199.773 136.852L201.62 136.086ZM202 138V140H200V138H202ZM202 144V148H200V144H202ZM202 152V156H200V152H202ZM202 160V164H200V160H202ZM202 168V172H200V168H202ZM202 176V180H200V176H202ZM202 184V188H200V184H202ZM202 192V196H200V192H202ZM202 200V204H200V200H202ZM202 208V212H200V208H202ZM202 216V220H200V216H202ZM202 224V226H200V224H202ZM202 226C202 226.409 202.081 226.796 202.227 227.148L200.38 227.914C200.135 227.323 200 226.676 200 226H202ZM203.852 228.773C204.204 228.919 204.591 229 205 229V231C204.324 231 203.677 230.865 203.086 230.62L203.852 228.773ZM205 229H207V231H205V229ZM211 229H215V231H211V229ZM219 229H223V231H219V229ZM227 229H231V231H227V229ZM235 229H239V231H235V229ZM243 229H247V231H243V229ZM251 229H253V231H251V229Z" fill="#8298AB"/>
<path d="M253.707 134.707C254.098 134.317 254.098 133.683 253.707 133.293L247.343 126.929C246.953 126.538 246.319 126.538 245.929 126.929C245.538 127.319 245.538 127.953 245.929 128.343L251.586 134L245.929 139.657C245.538 140.047 245.538 140.681 245.929 141.071C246.319 141.462 246.953 141.462 247.343 141.071L253.707 134.707ZM72 135H73.9674V133H72V135ZM77.9022 135H81.837V133H77.9022V135ZM85.7717 135H89.7065V133H85.7717V135ZM93.6413 135H97.5761V133H93.6413V135ZM101.511 135H105.446V133H101.511V135ZM109.38 135H113.315V133H109.38V135ZM117.25 135H121.185V133H117.25V135ZM125.12 135H129.054V133H125.12V135ZM132.989 135H136.924V133H132.989V135ZM140.859 135H144.793V133H140.859V135ZM148.728 135H152.663V133H148.728V135ZM156.598 135H160.533V133H156.598V135ZM164.467 135H168.402V133H164.467V135ZM172.337 135H176.272V133H172.337V135ZM180.207 135H184.141V133H180.207V135ZM188.076 135H192.011V133H188.076V135ZM195.946 135H199.88V133H195.946V135ZM203.815 135H207.75V133H203.815V135ZM211.685 135H215.62V133H211.685V135ZM219.554 135H223.489V133H219.554V135ZM227.424 135H231.359V133H227.424V135ZM235.294 135H239.228V133H235.294V135ZM243.163 135H247.098V133H243.163V135ZM251.033 135H253V133H251.033V135Z" fill="#8298AB"/>
<rect x="92" y="121" width="86" height="26" rx="13" fill="white"/>
<rect x="92" y="121" width="86" height="26" rx="13" stroke="#8298AB" stroke-width="2" stroke-dasharray="4 4"/>
<path d="M112.232 137.272C112.349 137.272 112.453 137.317 112.544 137.408L113.392 138.328C112.923 138.909 112.344 139.355 111.656 139.664C110.973 139.973 110.152 140.128 109.192 140.128C108.333 140.128 107.56 139.981 106.872 139.688C106.189 139.395 105.605 138.987 105.12 138.464C104.635 137.941 104.261 137.317 104 136.592C103.744 135.867 103.616 135.075 103.616 134.216C103.616 133.347 103.755 132.552 104.032 131.832C104.309 131.107 104.699 130.483 105.2 129.96C105.707 129.437 106.309 129.032 107.008 128.744C107.707 128.451 108.48 128.304 109.328 128.304C110.171 128.304 110.917 128.443 111.568 128.72C112.224 128.997 112.781 129.36 113.24 129.808L112.52 130.808C112.477 130.872 112.421 130.928 112.352 130.976C112.288 131.024 112.197 131.048 112.08 131.048C112 131.048 111.917 131.027 111.832 130.984C111.747 130.936 111.653 130.88 111.552 130.816C111.451 130.747 111.333 130.672 111.2 130.592C111.067 130.512 110.912 130.44 110.736 130.376C110.56 130.307 110.355 130.251 110.12 130.208C109.891 130.16 109.624 130.136 109.32 130.136C108.803 130.136 108.328 130.229 107.896 130.416C107.469 130.597 107.101 130.864 106.792 131.216C106.483 131.563 106.243 131.989 106.072 132.496C105.901 132.997 105.816 133.571 105.816 134.216C105.816 134.867 105.907 135.445 106.088 135.952C106.275 136.459 106.525 136.885 106.84 137.232C107.155 137.579 107.525 137.845 107.952 138.032C108.379 138.213 108.837 138.304 109.328 138.304C109.621 138.304 109.885 138.288 110.12 138.256C110.36 138.224 110.579 138.173 110.776 138.104C110.979 138.035 111.168 137.947 111.344 137.84C111.525 137.728 111.704 137.592 111.88 137.432C111.933 137.384 111.989 137.347 112.048 137.32C112.107 137.288 112.168 137.272 112.232 137.272ZM118.89 136.496C118.319 136.523 117.839 136.573 117.45 136.648C117.061 136.717 116.749 136.808 116.514 136.92C116.279 137.032 116.111 137.163 116.01 137.312C115.909 137.461 115.858 137.624 115.858 137.8C115.858 138.147 115.959 138.395 116.162 138.544C116.37 138.693 116.639 138.768 116.97 138.768C117.375 138.768 117.725 138.696 118.018 138.552C118.317 138.403 118.607 138.179 118.89 137.88V136.496ZM114.362 132.936C115.306 132.072 116.442 131.64 117.77 131.64C118.25 131.64 118.679 131.72 119.058 131.88C119.437 132.035 119.757 132.253 120.018 132.536C120.279 132.813 120.477 133.147 120.61 133.536C120.749 133.925 120.818 134.352 120.818 134.816V140H119.922C119.735 140 119.591 139.973 119.49 139.92C119.389 139.861 119.309 139.747 119.25 139.576L119.074 138.984C118.866 139.171 118.663 139.336 118.466 139.48C118.269 139.619 118.063 139.736 117.85 139.832C117.637 139.928 117.407 140 117.162 140.048C116.922 140.101 116.655 140.128 116.362 140.128C116.015 140.128 115.695 140.083 115.402 139.992C115.109 139.896 114.855 139.755 114.642 139.568C114.429 139.381 114.263 139.149 114.146 138.872C114.029 138.595 113.97 138.272 113.97 137.904C113.97 137.696 114.005 137.491 114.074 137.288C114.143 137.08 114.255 136.883 114.41 136.696C114.57 136.509 114.775 136.333 115.026 136.168C115.277 136.003 115.583 135.859 115.946 135.736C116.314 135.613 116.741 135.515 117.226 135.44C117.711 135.36 118.266 135.312 118.89 135.296V134.816C118.89 134.267 118.773 133.861 118.538 133.6C118.303 133.333 117.965 133.2 117.522 133.2C117.202 133.2 116.935 133.237 116.722 133.312C116.514 133.387 116.33 133.472 116.17 133.568C116.01 133.659 115.863 133.741 115.73 133.816C115.602 133.891 115.458 133.928 115.298 133.928C115.159 133.928 115.042 133.893 114.946 133.824C114.85 133.749 114.773 133.664 114.714 133.568L114.362 132.936ZM125.306 140.128C124.591 140.128 124.042 139.928 123.658 139.528C123.279 139.123 123.09 138.565 123.09 137.856V133.272H122.25C122.143 133.272 122.052 133.237 121.978 133.168C121.903 133.099 121.866 132.995 121.866 132.856V132.072L123.186 131.856L123.602 129.616C123.628 129.509 123.679 129.427 123.754 129.368C123.828 129.309 123.924 129.28 124.042 129.28H125.066V131.864H127.258V133.272H125.066V137.72C125.066 137.976 125.127 138.176 125.25 138.32C125.378 138.464 125.551 138.536 125.77 138.536C125.892 138.536 125.994 138.523 126.074 138.496C126.159 138.464 126.231 138.432 126.29 138.4C126.354 138.368 126.41 138.339 126.458 138.312C126.506 138.28 126.554 138.264 126.602 138.264C126.66 138.264 126.708 138.28 126.746 138.312C126.783 138.339 126.823 138.381 126.866 138.44L127.458 139.4C127.17 139.64 126.839 139.821 126.466 139.944C126.092 140.067 125.706 140.128 125.306 140.128ZM132.859 136.496C132.288 136.523 131.808 136.573 131.419 136.648C131.03 136.717 130.718 136.808 130.483 136.92C130.248 137.032 130.08 137.163 129.979 137.312C129.878 137.461 129.827 137.624 129.827 137.8C129.827 138.147 129.928 138.395 130.131 138.544C130.339 138.693 130.608 138.768 130.939 138.768C131.344 138.768 131.694 138.696 131.987 138.552C132.286 138.403 132.576 138.179 132.859 137.88V136.496ZM128.331 132.936C129.275 132.072 130.411 131.64 131.739 131.64C132.219 131.64 132.648 131.72 133.027 131.88C133.406 132.035 133.726 132.253 133.987 132.536C134.248 132.813 134.446 133.147 134.579 133.536C134.718 133.925 134.787 134.352 134.787 134.816V140H133.891C133.704 140 133.56 139.973 133.459 139.92C133.358 139.861 133.278 139.747 133.219 139.576L133.043 138.984C132.835 139.171 132.632 139.336 132.435 139.48C132.238 139.619 132.032 139.736 131.819 139.832C131.606 139.928 131.376 140 131.131 140.048C130.891 140.101 130.624 140.128 130.331 140.128C129.984 140.128 129.664 140.083 129.371 139.992C129.078 139.896 128.824 139.755 128.611 139.568C128.398 139.381 128.232 139.149 128.115 138.872C127.998 138.595 127.939 138.272 127.939 137.904C127.939 137.696 127.974 137.491 128.043 137.288C128.112 137.08 128.224 136.883 128.379 136.696C128.539 136.509 128.744 136.333 128.995 136.168C129.246 136.003 129.552 135.859 129.915 135.736C130.283 135.613 130.71 135.515 131.195 135.44C131.68 135.36 132.235 135.312 132.859 135.296V134.816C132.859 134.267 132.742 133.861 132.507 133.6C132.272 133.333 131.934 133.2 131.491 133.2C131.171 133.2 130.904 133.237 130.691 133.312C130.483 133.387 130.299 133.472 130.139 133.568C129.979 133.659 129.832 133.741 129.699 133.816C129.571 133.891 129.427 133.928 129.267 133.928C129.128 133.928 129.011 133.893 128.915 133.824C128.819 133.749 128.742 133.664 128.683 133.568L128.331 132.936ZM138.648 128.112V140H136.672V128.112H138.648ZM148.073 131.792L143.601 142.256C143.542 142.395 143.465 142.499 143.369 142.568C143.278 142.643 143.137 142.68 142.945 142.68H141.473L143.009 139.384L139.689 131.792H141.425C141.579 131.792 141.699 131.829 141.785 131.904C141.875 131.979 141.942 132.064 141.985 132.16L143.729 136.416C143.787 136.56 143.835 136.704 143.873 136.848C143.915 136.992 143.955 137.139 143.993 137.288C144.041 137.139 144.089 136.992 144.137 136.848C144.185 136.699 144.238 136.552 144.297 136.408L145.945 132.16C145.987 132.053 146.057 131.965 146.153 131.896C146.254 131.827 146.366 131.792 146.489 131.792H148.073ZM153.89 133.392C153.837 133.477 153.781 133.539 153.722 133.576C153.664 133.608 153.589 133.624 153.498 133.624C153.402 133.624 153.298 133.597 153.186 133.544C153.08 133.491 152.954 133.432 152.81 133.368C152.666 133.299 152.501 133.237 152.314 133.184C152.133 133.131 151.917 133.104 151.666 133.104C151.277 133.104 150.97 133.187 150.746 133.352C150.528 133.517 150.418 133.733 150.418 134C150.418 134.176 150.474 134.325 150.586 134.448C150.704 134.565 150.856 134.669 151.042 134.76C151.234 134.851 151.45 134.933 151.69 135.008C151.93 135.077 152.173 135.155 152.418 135.24C152.669 135.325 152.914 135.424 153.154 135.536C153.394 135.643 153.608 135.781 153.794 135.952C153.986 136.117 154.138 136.317 154.25 136.552C154.368 136.787 154.426 137.069 154.426 137.4C154.426 137.795 154.354 138.16 154.21 138.496C154.072 138.827 153.864 139.115 153.586 139.36C153.309 139.6 152.965 139.789 152.554 139.928C152.149 140.061 151.68 140.128 151.146 140.128C150.864 140.128 150.586 140.101 150.314 140.048C150.048 140 149.789 139.931 149.538 139.84C149.293 139.749 149.064 139.643 148.85 139.52C148.642 139.397 148.458 139.264 148.298 139.12L148.754 138.368C148.813 138.277 148.882 138.208 148.962 138.16C149.042 138.112 149.144 138.088 149.266 138.088C149.389 138.088 149.504 138.123 149.61 138.192C149.722 138.261 149.85 138.336 149.994 138.416C150.138 138.496 150.306 138.571 150.498 138.64C150.696 138.709 150.944 138.744 151.242 138.744C151.477 138.744 151.677 138.717 151.842 138.664C152.013 138.605 152.152 138.531 152.258 138.44C152.37 138.349 152.45 138.245 152.498 138.128C152.552 138.005 152.578 137.88 152.578 137.752C152.578 137.56 152.52 137.403 152.402 137.28C152.29 137.157 152.138 137.051 151.946 136.96C151.76 136.869 151.544 136.789 151.298 136.72C151.058 136.645 150.81 136.565 150.554 136.48C150.304 136.395 150.056 136.296 149.81 136.184C149.57 136.067 149.354 135.92 149.162 135.744C148.976 135.568 148.824 135.352 148.706 135.096C148.594 134.84 148.538 134.531 148.538 134.168C148.538 133.832 148.605 133.512 148.738 133.208C148.872 132.904 149.066 132.64 149.322 132.416C149.584 132.187 149.906 132.005 150.29 131.872C150.68 131.733 151.128 131.664 151.634 131.664C152.2 131.664 152.714 131.757 153.178 131.944C153.642 132.131 154.029 132.376 154.338 132.68L153.89 133.392ZM157.962 131.792V140H155.978V131.792H157.962ZM158.234 129.4C158.234 129.571 158.199 129.731 158.13 129.88C158.06 130.029 157.967 130.16 157.85 130.272C157.738 130.384 157.604 130.475 157.45 130.544C157.295 130.608 157.13 130.64 156.954 130.64C156.783 130.64 156.62 130.608 156.466 130.544C156.316 130.475 156.186 130.384 156.074 130.272C155.962 130.16 155.871 130.029 155.802 129.88C155.738 129.731 155.706 129.571 155.706 129.4C155.706 129.224 155.738 129.059 155.802 128.904C155.871 128.749 155.962 128.616 156.074 128.504C156.186 128.392 156.316 128.304 156.466 128.24C156.62 128.171 156.783 128.136 156.954 128.136C157.13 128.136 157.295 128.171 157.45 128.24C157.604 128.304 157.738 128.392 157.85 128.504C157.967 128.616 158.06 128.749 158.13 128.904C158.199 129.059 158.234 129.224 158.234 129.4ZM164.984 133.392C164.931 133.477 164.875 133.539 164.816 133.576C164.757 133.608 164.683 133.624 164.592 133.624C164.496 133.624 164.392 133.597 164.28 133.544C164.173 133.491 164.048 133.432 163.904 133.368C163.76 133.299 163.595 133.237 163.408 133.184C163.227 133.131 163.011 133.104 162.76 133.104C162.371 133.104 162.064 133.187 161.84 133.352C161.621 133.517 161.512 133.733 161.512 134C161.512 134.176 161.568 134.325 161.68 134.448C161.797 134.565 161.949 134.669 162.136 134.76C162.328 134.851 162.544 134.933 162.784 135.008C163.024 135.077 163.267 135.155 163.512 135.24C163.763 135.325 164.008 135.424 164.248 135.536C164.488 135.643 164.701 135.781 164.888 135.952C165.08 136.117 165.232 136.317 165.344 136.552C165.461 136.787 165.52 137.069 165.52 137.4C165.52 137.795 165.448 138.16 165.304 138.496C165.165 138.827 164.957 139.115 164.68 139.36C164.403 139.6 164.059 139.789 163.648 139.928C163.243 140.061 162.773 140.128 162.24 140.128C161.957 140.128 161.68 140.101 161.408 140.048C161.141 140 160.883 139.931 160.632 139.84C160.387 139.749 160.157 139.643 159.944 139.52C159.736 139.397 159.552 139.264 159.392 139.12L159.848 138.368C159.907 138.277 159.976 138.208 160.056 138.16C160.136 138.112 160.237 138.088 160.36 138.088C160.483 138.088 160.597 138.123 160.704 138.192C160.816 138.261 160.944 138.336 161.088 138.416C161.232 138.496 161.4 138.571 161.592 138.64C161.789 138.709 162.037 138.744 162.336 138.744C162.571 138.744 162.771 138.717 162.936 138.664C163.107 138.605 163.245 138.531 163.352 138.44C163.464 138.349 163.544 138.245 163.592 138.128C163.645 138.005 163.672 137.88 163.672 137.752C163.672 137.56 163.613 137.403 163.496 137.28C163.384 137.157 163.232 137.051 163.04 136.96C162.853 136.869 162.637 136.789 162.392 136.72C162.152 136.645 161.904 136.565 161.648 136.48C161.397 136.395 161.149 136.296 160.904 136.184C160.664 136.067 160.448 135.92 160.256 135.744C160.069 135.568 159.917 135.352 159.8 135.096C159.688 134.84 159.632 134.531 159.632 134.168C159.632 133.832 159.699 133.512 159.832 133.208C159.965 132.904 160.16 132.64 160.416 132.416C160.677 132.187 161 132.005 161.384 131.872C161.773 131.733 162.221 131.664 162.728 131.664C163.293 131.664 163.808 131.757 164.272 131.944C164.736 132.131 165.123 132.376 165.432 132.68L164.984 133.392Z" fill="#8298AB"/>
<g clip-path="url(#clip0_139_5836)">
<rect y="98" width="72" height="72" rx="4" fill="#82C5F5"/>
<rect x="8" y="106" width="56" height="56" rx="4" fill="#B5E0FF"/>
<line x1="-0.101191" y1="261.357" x2="-0.101191" y2="5.99977" stroke="white" stroke-opacity="0.5" stroke-width="1.70238"/>
<line x1="5.00623" y1="261.357" x2="5.00623" y2="5.99977" stroke="white" stroke-opacity="0.5" stroke-width="1.70238"/>
<line x1="10.1132" y1="261.357" x2="10.1132" y2="5.99977" stroke="white" stroke-opacity="0.5" stroke-width="1.70238"/>
<line x1="15.2206" y1="261.357" x2="15.2206" y2="5.99977" stroke="white" stroke-opacity="0.5" stroke-width="1.70238"/>
<line x1="20.3275" y1="261.357" x2="20.3275" y2="5.99977" stroke="white" stroke-opacity="0.5" stroke-width="1.70238"/>
<line x1="25.4345" y1="261.357" x2="25.4345" y2="5.99977" stroke="white" stroke-opacity="0.5" stroke-width="1.70238"/>
<line x1="30.5419" y1="261.357" x2="30.5419" y2="5.99977" stroke="white" stroke-opacity="0.5" stroke-width="1.70238"/>
<line x1="35.6488" y1="261.357" x2="35.6488" y2="5.99977" stroke="white" stroke-opacity="0.5" stroke-width="1.70238"/>
<line x1="40.7562" y1="261.357" x2="40.7562" y2="5.99977" stroke="white" stroke-opacity="0.5" stroke-width="1.70238"/>
<line x1="45.8632" y1="261.357" x2="45.8632" y2="5.99977" stroke="white" stroke-opacity="0.5" stroke-width="1.70238"/>
<line x1="50.9706" y1="261.357" x2="50.9706" y2="5.99977" stroke="white" stroke-opacity="0.5" stroke-width="1.70238"/>
<line x1="56.0775" y1="261.357" x2="56.0775" y2="5.99977" stroke="white" stroke-opacity="0.5" stroke-width="1.70238"/>
<line x1="61.1845" y1="261.357" x2="61.1845" y2="5.99977" stroke="white" stroke-opacity="0.5" stroke-width="1.70238"/>
<line x1="66.2919" y1="261.357" x2="66.2919" y2="5.99977" stroke="white" stroke-opacity="0.5" stroke-width="1.70238"/>
<line x1="71.3988" y1="261.357" x2="71.3988" y2="5.99977" stroke="white" stroke-opacity="0.5" stroke-width="1.70238"/>
</g>
<rect x="254" y="1" width="86" height="74" rx="7" fill="#CFEBFF"/>
<rect x="254" y="1" width="86" height="74" rx="7" stroke="#82C5F5" stroke-width="2" stroke-dasharray="4 4"/>
<g clip-path="url(#clip1_139_5836)">
<rect x="261" y="8" width="72" height="60" rx="4" fill="#82C5F5"/>
<line x1="260.899" y1="165.357" x2="260.899" y2="-90.0002" stroke="white" stroke-opacity="0.5" stroke-width="1.70238"/>
<line x1="266.006" y1="165.357" x2="266.006" y2="-90.0002" stroke="white" stroke-opacity="0.5" stroke-width="1.70238"/>
<line x1="271.113" y1="165.357" x2="271.113" y2="-90.0002" stroke="white" stroke-opacity="0.5" stroke-width="1.70238"/>
<line x1="276.221" y1="165.357" x2="276.221" y2="-90.0002" stroke="white" stroke-opacity="0.5" stroke-width="1.70238"/>
<line x1="281.328" y1="165.357" x2="281.328" y2="-90.0002" stroke="white" stroke-opacity="0.5" stroke-width="1.70238"/>
<line x1="286.434" y1="165.357" x2="286.434" y2="-90.0002" stroke="white" stroke-opacity="0.5" stroke-width="1.70238"/>
<line x1="291.542" y1="165.357" x2="291.542" y2="-90.0002" stroke="white" stroke-opacity="0.5" stroke-width="1.70238"/>
<line x1="296.649" y1="165.357" x2="296.649" y2="-90.0002" stroke="white" stroke-opacity="0.5" stroke-width="1.70238"/>
<line x1="301.756" y1="165.357" x2="301.756" y2="-90.0002" stroke="white" stroke-opacity="0.5" stroke-width="1.70238"/>
<line x1="306.864" y1="165.357" x2="306.864" y2="-90.0002" stroke="white" stroke-opacity="0.5" stroke-width="1.70238"/>
<line x1="311.97" y1="165.357" x2="311.97" y2="-90.0002" stroke="white" stroke-opacity="0.5" stroke-width="1.70238"/>
<line x1="317.078" y1="165.357" x2="317.078" y2="-90.0002" stroke="white" stroke-opacity="0.5" stroke-width="1.70238"/>
<line x1="322.185" y1="165.357" x2="322.185" y2="-90.0002" stroke="white" stroke-opacity="0.5" stroke-width="1.70238"/>
<line x1="327.291" y1="165.357" x2="327.291" y2="-90.0002" stroke="white" stroke-opacity="0.5" stroke-width="1.70238"/>
<line x1="332.399" y1="165.357" x2="332.399" y2="-90.0002" stroke="white" stroke-opacity="0.5" stroke-width="1.70238"/>
</g>
<rect x="254" y="193" width="86" height="74" rx="7" fill="#CFEBFF"/>
<rect x="254" y="193" width="86" height="74" rx="7" stroke="#82C5F5" stroke-width="2" stroke-dasharray="4 4"/>
<g clip-path="url(#clip2_139_5836)">
<rect x="261" y="200" width="72" height="60" rx="4" fill="#82C5F5"/>
<line x1="260.899" y1="357.357" x2="260.899" y2="102" stroke="white" stroke-opacity="0.5" stroke-width="1.70238"/>
<line x1="266.006" y1="357.357" x2="266.006" y2="102" stroke="white" stroke-opacity="0.5" stroke-width="1.70238"/>
<line x1="271.113" y1="357.357" x2="271.113" y2="102" stroke="white" stroke-opacity="0.5" stroke-width="1.70238"/>
<line x1="276.221" y1="357.357" x2="276.221" y2="102" stroke="white" stroke-opacity="0.5" stroke-width="1.70238"/>
<line x1="281.328" y1="357.357" x2="281.328" y2="102" stroke="white" stroke-opacity="0.5" stroke-width="1.70238"/>
<line x1="286.434" y1="357.357" x2="286.434" y2="102" stroke="white" stroke-opacity="0.5" stroke-width="1.70238"/>
<line x1="291.542" y1="357.357" x2="291.542" y2="102" stroke="white" stroke-opacity="0.5" stroke-width="1.70238"/>
<line x1="296.649" y1="357.357" x2="296.649" y2="102" stroke="white" stroke-opacity="0.5" stroke-width="1.70238"/>
<line x1="301.756" y1="357.357" x2="301.756" y2="102" stroke="white" stroke-opacity="0.5" stroke-width="1.70238"/>
<line x1="306.864" y1="357.357" x2="306.864" y2="102" stroke="white" stroke-opacity="0.5" stroke-width="1.70238"/>
<line x1="311.97" y1="357.357" x2="311.97" y2="102" stroke="white" stroke-opacity="0.5" stroke-width="1.70238"/>
<line x1="317.078" y1="357.357" x2="317.078" y2="102" stroke="white" stroke-opacity="0.5" stroke-width="1.70238"/>
<line x1="322.185" y1="357.357" x2="322.185" y2="102" stroke="white" stroke-opacity="0.5" stroke-width="1.70238"/>
<line x1="327.291" y1="357.357" x2="327.291" y2="102" stroke="white" stroke-opacity="0.5" stroke-width="1.70238"/>
<line x1="332.399" y1="357.357" x2="332.399" y2="102" stroke="white" stroke-opacity="0.5" stroke-width="1.70238"/>
</g>
<rect x="254" y="97" width="86" height="74" rx="7" fill="#CFEBFF"/>
<rect x="254" y="97" width="86" height="74" rx="7" stroke="#82C5F5" stroke-width="2" stroke-dasharray="4 4"/>
<g clip-path="url(#clip3_139_5836)">
<rect x="261" y="104" width="72" height="60" rx="4" fill="#82C5F5"/>
<line x1="260.899" y1="261.357" x2="260.899" y2="5.99977" stroke="white" stroke-opacity="0.5" stroke-width="1.70238"/>
<line x1="266.006" y1="261.357" x2="266.006" y2="5.99977" stroke="white" stroke-opacity="0.5" stroke-width="1.70238"/>
<line x1="271.113" y1="261.357" x2="271.113" y2="5.99977" stroke="white" stroke-opacity="0.5" stroke-width="1.70238"/>
<line x1="276.221" y1="261.357" x2="276.221" y2="5.99977" stroke="white" stroke-opacity="0.5" stroke-width="1.70238"/>
<line x1="281.328" y1="261.357" x2="281.328" y2="5.99977" stroke="white" stroke-opacity="0.5" stroke-width="1.70238"/>
<line x1="286.434" y1="261.357" x2="286.434" y2="5.99977" stroke="white" stroke-opacity="0.5" stroke-width="1.70238"/>
<line x1="291.542" y1="261.357" x2="291.542" y2="5.99977" stroke="white" stroke-opacity="0.5" stroke-width="1.70238"/>
<line x1="296.649" y1="261.357" x2="296.649" y2="5.99977" stroke="white" stroke-opacity="0.5" stroke-width="1.70238"/>
<line x1="301.756" y1="261.357" x2="301.756" y2="5.99977" stroke="white" stroke-opacity="0.5" stroke-width="1.70238"/>
<line x1="306.864" y1="261.357" x2="306.864" y2="5.99977" stroke="white" stroke-opacity="0.5" stroke-width="1.70238"/>
<line x1="311.97" y1="261.357" x2="311.97" y2="5.99977" stroke="white" stroke-opacity="0.5" stroke-width="1.70238"/>
<line x1="317.078" y1="261.357" x2="317.078" y2="5.99977" stroke="white" stroke-opacity="0.5" stroke-width="1.70238"/>
<line x1="322.185" y1="261.357" x2="322.185" y2="5.99977" stroke="white" stroke-opacity="0.5" stroke-width="1.70238"/>
<line x1="327.291" y1="261.357" x2="327.291" y2="5.99977" stroke="white" stroke-opacity="0.5" stroke-width="1.70238"/>
<line x1="332.399" y1="261.357" x2="332.399" y2="5.99977" stroke="white" stroke-opacity="0.5" stroke-width="1.70238"/>
</g>
<defs>
<clipPath id="clip0_139_5836">
<rect y="98" width="72" height="72" rx="4" fill="white"/>
</clipPath>
<clipPath id="clip1_139_5836">
<rect x="261" y="8" width="72" height="60" rx="4" fill="white"/>
</clipPath>
<clipPath id="clip2_139_5836">
<rect x="261" y="200" width="72" height="60" rx="4" fill="white"/>
</clipPath>
<clipPath id="clip3_139_5836">
<rect x="261" y="104" width="72" height="60" rx="4" fill="white"/>
</clipPath>
</defs>
</svg>
