<svg width="272" height="273" viewBox="0 0 272 273" fill="none" xmlns="http://www.w3.org/2000/svg">
<rect x="1" y="137.062" width="270" height="134" rx="11" fill="#F9E1FF"/>
<rect x="1" y="137.062" width="270" height="134" rx="11" stroke="#E598F8" stroke-width="2" stroke-dasharray="4 4"/>
<g clip-path="url(#clip0_139_6199)">
<rect x="12" y="148.062" width="248" height="112" rx="4" fill="#E598F8"/>
<path d="M20 160.063C20 157.853 21.7909 156.062 24 156.062H68C70.2091 156.062 72 157.853 72 160.062V248.062C72 250.272 70.2091 252.062 68 252.062H24C21.7909 252.062 20 250.272 20 248.062V160.063Z" fill="#F6D0FF"/>
<path d="M80 160.063C80 157.853 81.7909 156.062 84 156.062H128C130.209 156.062 132 157.853 132 160.062V248.062C132 250.272 130.209 252.062 128 252.062H84C81.7909 252.062 80 250.272 80 248.062V160.063Z" fill="#F6D0FF"/>
<rect x="140" y="156.062" width="52" height="96" rx="4" fill="#F6D0FF"/>
<path d="M200 160.063C200 157.853 201.791 156.062 204 156.062H248C250.209 156.062 252 157.853 252 160.062V248.062C252 250.272 250.209 252.062 248 252.062H204C201.791 252.062 200 250.272 200 248.062V160.063Z" fill="#F6D0FF"/>
<line x1="13.0775" y1="331.419" x2="13.0775" y2="76.0623" stroke="white" stroke-opacity="0.5" stroke-width="1.70238"/>
<line x1="18.1849" y1="331.419" x2="18.1849" y2="76.0623" stroke="white" stroke-opacity="0.5" stroke-width="1.70238"/>
<line x1="23.2914" y1="331.419" x2="23.2914" y2="76.0623" stroke="white" stroke-opacity="0.5" stroke-width="1.70238"/>
<line x1="28.3988" y1="331.419" x2="28.3988" y2="76.0623" stroke="white" stroke-opacity="0.5" stroke-width="1.70238"/>
<line x1="33.5062" y1="331.419" x2="33.5062" y2="76.0623" stroke="white" stroke-opacity="0.5" stroke-width="1.70238"/>
<line x1="38.6127" y1="331.419" x2="38.6127" y2="76.0623" stroke="white" stroke-opacity="0.5" stroke-width="1.70238"/>
<line x1="43.7201" y1="331.419" x2="43.7201" y2="76.0623" stroke="white" stroke-opacity="0.5" stroke-width="1.70238"/>
<line x1="48.8275" y1="331.419" x2="48.8275" y2="76.0623" stroke="white" stroke-opacity="0.5" stroke-width="1.70238"/>
<line x1="53.9349" y1="331.419" x2="53.9349" y2="76.0623" stroke="white" stroke-opacity="0.5" stroke-width="1.70238"/>
<line x1="59.0414" y1="331.419" x2="59.0414" y2="76.0623" stroke="white" stroke-opacity="0.5" stroke-width="1.70238"/>
<line x1="64.1488" y1="331.419" x2="64.1488" y2="76.0623" stroke="white" stroke-opacity="0.5" stroke-width="1.70238"/>
<line x1="69.2562" y1="331.419" x2="69.2562" y2="76.0623" stroke="white" stroke-opacity="0.5" stroke-width="1.70238"/>
<line x1="74.3637" y1="331.419" x2="74.3637" y2="76.0623" stroke="white" stroke-opacity="0.5" stroke-width="1.70238"/>
<line x1="79.4701" y1="331.419" x2="79.4701" y2="76.0623" stroke="white" stroke-opacity="0.5" stroke-width="1.70238"/>
<line x1="84.5775" y1="331.419" x2="84.5775" y2="76.0623" stroke="white" stroke-opacity="0.5" stroke-width="1.70238"/>
<line x1="89.6849" y1="331.419" x2="89.6849" y2="76.0623" stroke="white" stroke-opacity="0.5" stroke-width="1.70238"/>
<line x1="94.7914" y1="331.419" x2="94.7914" y2="76.0623" stroke="white" stroke-opacity="0.5" stroke-width="1.70238"/>
<line x1="99.8988" y1="331.419" x2="99.8988" y2="76.0623" stroke="white" stroke-opacity="0.5" stroke-width="1.70238"/>
<line x1="105.006" y1="331.419" x2="105.006" y2="76.0623" stroke="white" stroke-opacity="0.5" stroke-width="1.70238"/>
<line x1="110.114" y1="331.419" x2="110.114" y2="76.0623" stroke="white" stroke-opacity="0.5" stroke-width="1.70238"/>
<line x1="115.22" y1="331.419" x2="115.22" y2="76.0623" stroke="white" stroke-opacity="0.5" stroke-width="1.70238"/>
<line x1="120.328" y1="331.419" x2="120.328" y2="76.0623" stroke="white" stroke-opacity="0.5" stroke-width="1.70238"/>
<line x1="125.435" y1="331.419" x2="125.435" y2="76.0623" stroke="white" stroke-opacity="0.5" stroke-width="1.70238"/>
<line x1="130.541" y1="331.419" x2="130.541" y2="76.0623" stroke="white" stroke-opacity="0.5" stroke-width="1.70238"/>
<line x1="135.649" y1="331.419" x2="135.649" y2="76.0623" stroke="white" stroke-opacity="0.5" stroke-width="1.70238"/>
<line x1="140.756" y1="331.419" x2="140.756" y2="76.0623" stroke="white" stroke-opacity="0.5" stroke-width="1.70238"/>
<line x1="145.864" y1="331.419" x2="145.864" y2="76.0623" stroke="white" stroke-opacity="0.5" stroke-width="1.70238"/>
<line x1="150.97" y1="331.419" x2="150.97" y2="76.0623" stroke="white" stroke-opacity="0.5" stroke-width="1.70238"/>
<line x1="156.078" y1="331.419" x2="156.078" y2="76.0623" stroke="white" stroke-opacity="0.5" stroke-width="1.70238"/>
<line x1="161.185" y1="331.419" x2="161.185" y2="76.0623" stroke="white" stroke-opacity="0.5" stroke-width="1.70238"/>
<line x1="166.291" y1="331.419" x2="166.291" y2="76.0623" stroke="white" stroke-opacity="0.5" stroke-width="1.70238"/>
<line x1="171.399" y1="331.419" x2="171.399" y2="76.0623" stroke="white" stroke-opacity="0.5" stroke-width="1.70238"/>
<line x1="176.506" y1="331.419" x2="176.506" y2="76.0623" stroke="white" stroke-opacity="0.5" stroke-width="1.70238"/>
<line x1="181.614" y1="331.419" x2="181.614" y2="76.0623" stroke="white" stroke-opacity="0.5" stroke-width="1.70238"/>
<line x1="186.72" y1="331.419" x2="186.72" y2="76.0623" stroke="white" stroke-opacity="0.5" stroke-width="1.70238"/>
<line x1="191.828" y1="331.419" x2="191.828" y2="76.0623" stroke="white" stroke-opacity="0.5" stroke-width="1.70238"/>
<line x1="196.935" y1="331.419" x2="196.935" y2="76.0623" stroke="white" stroke-opacity="0.5" stroke-width="1.70238"/>
<line x1="202.041" y1="331.419" x2="202.041" y2="76.0623" stroke="white" stroke-opacity="0.5" stroke-width="1.70238"/>
<line x1="207.149" y1="331.419" x2="207.149" y2="76.0623" stroke="white" stroke-opacity="0.5" stroke-width="1.70238"/>
<line x1="212.256" y1="331.419" x2="212.256" y2="76.0623" stroke="white" stroke-opacity="0.5" stroke-width="1.70238"/>
<line x1="217.364" y1="331.419" x2="217.364" y2="76.0623" stroke="white" stroke-opacity="0.5" stroke-width="1.70238"/>
<line x1="222.47" y1="331.419" x2="222.47" y2="76.0623" stroke="white" stroke-opacity="0.5" stroke-width="1.70238"/>
<line x1="227.578" y1="331.419" x2="227.578" y2="76.0623" stroke="white" stroke-opacity="0.5" stroke-width="1.70238"/>
<line x1="232.685" y1="331.419" x2="232.685" y2="76.0623" stroke="white" stroke-opacity="0.5" stroke-width="1.70238"/>
<line x1="237.791" y1="331.419" x2="237.791" y2="76.0623" stroke="white" stroke-opacity="0.5" stroke-width="1.70238"/>
<line x1="242.899" y1="331.419" x2="242.899" y2="76.0623" stroke="white" stroke-opacity="0.5" stroke-width="1.70238"/>
<line x1="248.006" y1="331.419" x2="248.006" y2="76.0623" stroke="white" stroke-opacity="0.5" stroke-width="1.70238"/>
<line x1="253.114" y1="331.419" x2="253.114" y2="76.0623" stroke="white" stroke-opacity="0.5" stroke-width="1.70238"/>
<line x1="258.22" y1="331.419" x2="258.22" y2="76.0623" stroke="white" stroke-opacity="0.5" stroke-width="1.70238"/>
</g>
<path d="M231.293 136.77C231.683 137.16 232.317 137.16 232.707 136.77L239.071 130.406C239.462 130.015 239.462 129.382 239.071 128.991C238.681 128.601 238.047 128.601 237.657 128.991L232 134.648L226.343 128.991C225.953 128.601 225.319 128.601 224.929 128.991C224.538 129.382 224.538 130.015 224.929 130.406L231.293 136.77ZM135 89.5625V91.4275H137V89.5625H135ZM135 95.1575V98.8874H137V95.1575H135ZM135 102.617V104.482H137V102.617H135ZM135 104.482C135 105.159 135.135 105.806 135.38 106.397L137.227 105.63C137.081 105.278 137 104.891 137 104.482H135ZM138.086 109.103C138.677 109.348 139.324 109.482 140 109.482V107.482C139.591 107.482 139.204 107.401 138.852 107.255L138.086 109.103ZM140 109.482H142V107.482H140V109.482ZM146 109.482H150V107.482H146V109.482ZM154 109.482H158V107.482H154V109.482ZM162 109.482H166V107.482H162V109.482ZM170 109.482H174V107.482H170V109.482ZM178 109.482H182V107.482H178V109.482ZM186 109.482H190V107.482H186V109.482ZM194 109.482H198V107.482H194V109.482ZM202 109.482H206V107.482H202V109.482ZM210 109.482H214V107.482H210V109.482ZM218 109.482H222V107.482H218V109.482ZM226 109.482H228V107.482H226V109.482ZM228 109.482C228.409 109.482 228.796 109.564 229.148 109.71L229.914 107.862C229.323 107.617 228.676 107.482 228 107.482V109.482ZM230.773 111.334C230.919 111.687 231 112.074 231 112.482H233C233 111.806 232.865 111.159 232.62 110.568L230.773 111.334ZM231 112.482V114.447H233V112.482H231ZM231 118.377V122.307H233V118.377H231ZM231 126.237V130.167H233V126.237H231ZM231 134.097V136.062H233V134.097H231Z" fill="#8298AB"/>
<path d="M40.7071 136.77C40.3166 137.16 39.6834 137.16 39.2929 136.77L32.9289 130.406C32.5384 130.015 32.5384 129.382 32.9289 128.991C33.3195 128.601 33.9526 128.601 34.3431 128.991L40 134.648L45.6569 128.991C46.0474 128.601 46.6805 128.601 47.0711 128.991C47.4616 129.382 47.4616 130.015 47.0711 130.406L40.7071 136.77ZM137 89.5625V91.4275H135V89.5625H137ZM137 95.1575V98.8874H135V95.1575H137ZM137 102.617V104.482H135V102.617H137ZM137 104.482C137 105.159 136.865 105.806 136.62 106.397L134.773 105.63C134.919 105.278 135 104.891 135 104.482H137ZM133.914 109.103C133.323 109.348 132.676 109.482 132 109.482V107.482C132.409 107.482 132.796 107.401 133.148 107.255L133.914 109.103ZM132 109.482H130.167V107.482H132V109.482ZM126.5 109.482H122.833V107.482H126.5V109.482ZM119.167 109.482H115.5V107.482H119.167V109.482ZM111.833 109.482H108.167V107.482H111.833V109.482ZM104.5 109.482H100.833V107.482H104.5V109.482ZM97.1667 109.482H93.5V107.482H97.1667V109.482ZM89.8333 109.482H88V107.482H89.8333V109.482ZM88 109.482H86.1667V107.482H88V109.482ZM82.5 109.482H78.8333V107.482H82.5V109.482ZM75.1667 109.482H71.5V107.482H75.1667V109.482ZM67.8333 109.482H64.1667V107.482H67.8333V109.482ZM60.5 109.482H56.8333V107.482H60.5V109.482ZM53.1667 109.482H49.5V107.482H53.1667V109.482ZM45.8333 109.482H44V107.482H45.8333V109.482ZM44 109.482C43.5914 109.482 43.2042 109.564 42.8519 109.71L42.0858 107.862C42.6767 107.617 43.3239 107.482 44 107.482V109.482ZM41.2272 111.334C41.0811 111.687 41 112.074 41 112.482H39C39 111.806 39.1347 111.159 39.3798 110.568L41.2272 111.334ZM41 112.482V114.447H39V112.482H41ZM41 118.377V122.307H39V118.377H41ZM41 126.237V130.167H39V126.237H41ZM41 134.097V136.062H39V134.097H41Z" fill="#8298AB"/>
<path d="M135.293 136.77C135.683 137.16 136.317 137.16 136.707 136.77L143.071 130.406C143.462 130.015 143.462 129.382 143.071 128.991C142.681 128.601 142.047 128.601 141.657 128.991L136 134.648L130.343 128.991C129.953 128.601 129.319 128.601 128.929 128.991C128.538 129.382 128.538 130.015 128.929 130.406L135.293 136.77ZM135 28.0625V29.9911H137V28.0625H135ZM135 33.8482V37.7054H137V33.8482H135ZM135 41.5625V45.4196H137V41.5625H135ZM135 49.2768V53.1339H137V49.2768H135ZM135 56.9911V60.8482H137V56.9911H135ZM135 64.7054V68.5625H137V64.7054H135ZM135 72.4196V76.2768H137V72.4196H135ZM135 80.1339V83.9911H137V80.1339H135ZM135 87.8482V91.7054H137V87.8482H135ZM135 95.5625V99.4196H137V95.5625H135ZM135 103.277V107.134H137V103.277H135ZM135 110.991V114.848H137V110.991H135ZM135 118.705V122.562H137V118.705H135ZM135 126.42V130.277H137V126.42H135ZM135 134.134V136.063H137V134.134H135Z" fill="#8298AB"/>
<rect x="93" y="61.0625" width="86" height="26" rx="13" fill="white"/>
<rect x="93" y="61.0625" width="86" height="26" rx="13" stroke="#8298AB" stroke-width="2" stroke-dasharray="4 4"/>
<path d="M113.232 77.3345C113.349 77.3345 113.453 77.3798 113.544 77.4705L114.392 78.3905C113.923 78.9718 113.344 79.4172 112.656 79.7265C111.973 80.0358 111.152 80.1905 110.192 80.1905C109.333 80.1905 108.56 80.0438 107.872 79.7505C107.189 79.4572 106.605 79.0492 106.12 78.5265C105.635 78.0038 105.261 77.3798 105 76.6545C104.744 75.9292 104.616 75.1372 104.616 74.2785C104.616 73.4092 104.755 72.6145 105.032 71.8945C105.309 71.1692 105.699 70.5452 106.2 70.0225C106.707 69.4998 107.309 69.0945 108.008 68.8065C108.707 68.5132 109.48 68.3665 110.328 68.3665C111.171 68.3665 111.917 68.5052 112.568 68.7825C113.224 69.0598 113.781 69.4225 114.24 69.8705L113.52 70.8705C113.477 70.9345 113.421 70.9905 113.352 71.0385C113.288 71.0865 113.197 71.1105 113.08 71.1105C113 71.1105 112.917 71.0892 112.832 71.0465C112.747 70.9985 112.653 70.9425 112.552 70.8785C112.451 70.8092 112.333 70.7345 112.2 70.6545C112.067 70.5745 111.912 70.5025 111.736 70.4385C111.56 70.3692 111.355 70.3132 111.12 70.2705C110.891 70.2225 110.624 70.1985 110.32 70.1985C109.803 70.1985 109.328 70.2918 108.896 70.4785C108.469 70.6598 108.101 70.9265 107.792 71.2785C107.483 71.6252 107.243 72.0518 107.072 72.5585C106.901 73.0598 106.816 73.6332 106.816 74.2785C106.816 74.9292 106.907 75.5078 107.088 76.0145C107.275 76.5212 107.525 76.9478 107.84 77.2945C108.155 77.6412 108.525 77.9078 108.952 78.0945C109.379 78.2758 109.837 78.3665 110.328 78.3665C110.621 78.3665 110.885 78.3505 111.12 78.3185C111.36 78.2865 111.579 78.2358 111.776 78.1665C111.979 78.0972 112.168 78.0092 112.344 77.9025C112.525 77.7905 112.704 77.6545 112.88 77.4945C112.933 77.4465 112.989 77.4092 113.048 77.3825C113.107 77.3505 113.168 77.3345 113.232 77.3345ZM119.89 76.5585C119.319 76.5852 118.839 76.6358 118.45 76.7105C118.061 76.7798 117.749 76.8705 117.514 76.9825C117.279 77.0945 117.111 77.2252 117.01 77.3745C116.909 77.5238 116.858 77.6865 116.858 77.8625C116.858 78.2092 116.959 78.4572 117.162 78.6065C117.37 78.7558 117.639 78.8305 117.97 78.8305C118.375 78.8305 118.725 78.7585 119.018 78.6145C119.317 78.4652 119.607 78.2412 119.89 77.9425V76.5585ZM115.362 72.9985C116.306 72.1345 117.442 71.7025 118.77 71.7025C119.25 71.7025 119.679 71.7825 120.058 71.9425C120.437 72.0972 120.757 72.3158 121.018 72.5985C121.279 72.8758 121.477 73.2092 121.61 73.5985C121.749 73.9878 121.818 74.4145 121.818 74.8785V80.0625H120.922C120.735 80.0625 120.591 80.0358 120.49 79.9825C120.389 79.9238 120.309 79.8092 120.25 79.6385L120.074 79.0465C119.866 79.2332 119.663 79.3985 119.466 79.5425C119.269 79.6812 119.063 79.7985 118.85 79.8945C118.637 79.9905 118.407 80.0625 118.162 80.1105C117.922 80.1638 117.655 80.1905 117.362 80.1905C117.015 80.1905 116.695 80.1452 116.402 80.0545C116.109 79.9585 115.855 79.8172 115.642 79.6305C115.429 79.4438 115.263 79.2118 115.146 78.9345C115.029 78.6572 114.97 78.3345 114.97 77.9665C114.97 77.7585 115.005 77.5532 115.074 77.3505C115.143 77.1425 115.255 76.9452 115.41 76.7585C115.57 76.5718 115.775 76.3958 116.026 76.2305C116.277 76.0652 116.583 75.9212 116.946 75.7985C117.314 75.6758 117.741 75.5772 118.226 75.5025C118.711 75.4225 119.266 75.3745 119.89 75.3585V74.8785C119.89 74.3292 119.773 73.9238 119.538 73.6625C119.303 73.3958 118.965 73.2625 118.522 73.2625C118.202 73.2625 117.935 73.2998 117.722 73.3745C117.514 73.4492 117.33 73.5345 117.17 73.6305C117.01 73.7212 116.863 73.8038 116.73 73.8785C116.602 73.9532 116.458 73.9905 116.298 73.9905C116.159 73.9905 116.042 73.9558 115.946 73.8865C115.85 73.8118 115.773 73.7265 115.714 73.6305L115.362 72.9985ZM126.306 80.1905C125.591 80.1905 125.042 79.9905 124.658 79.5905C124.279 79.1852 124.09 78.6278 124.09 77.9185V73.3345H123.25C123.143 73.3345 123.052 73.2998 122.978 73.2305C122.903 73.1612 122.866 73.0572 122.866 72.9185V72.1345L124.186 71.9185L124.602 69.6785C124.628 69.5718 124.679 69.4892 124.754 69.4305C124.828 69.3718 124.924 69.3425 125.042 69.3425H126.066V71.9265H128.258V73.3345H126.066V77.7825C126.066 78.0385 126.127 78.2385 126.25 78.3825C126.378 78.5265 126.551 78.5985 126.77 78.5985C126.892 78.5985 126.994 78.5852 127.074 78.5585C127.159 78.5265 127.231 78.4945 127.29 78.4625C127.354 78.4305 127.41 78.4012 127.458 78.3745C127.506 78.3425 127.554 78.3265 127.602 78.3265C127.66 78.3265 127.708 78.3425 127.746 78.3745C127.783 78.4012 127.823 78.4438 127.866 78.5025L128.458 79.4625C128.17 79.7025 127.839 79.8838 127.466 80.0065C127.092 80.1292 126.706 80.1905 126.306 80.1905ZM133.859 76.5585C133.288 76.5852 132.808 76.6358 132.419 76.7105C132.03 76.7798 131.718 76.8705 131.483 76.9825C131.248 77.0945 131.08 77.2252 130.979 77.3745C130.878 77.5238 130.827 77.6865 130.827 77.8625C130.827 78.2092 130.928 78.4572 131.131 78.6065C131.339 78.7558 131.608 78.8305 131.939 78.8305C132.344 78.8305 132.694 78.7585 132.987 78.6145C133.286 78.4652 133.576 78.2412 133.859 77.9425V76.5585ZM129.331 72.9985C130.275 72.1345 131.411 71.7025 132.739 71.7025C133.219 71.7025 133.648 71.7825 134.027 71.9425C134.406 72.0972 134.726 72.3158 134.987 72.5985C135.248 72.8758 135.446 73.2092 135.579 73.5985C135.718 73.9878 135.787 74.4145 135.787 74.8785V80.0625H134.891C134.704 80.0625 134.56 80.0358 134.459 79.9825C134.358 79.9238 134.278 79.8092 134.219 79.6385L134.043 79.0465C133.835 79.2332 133.632 79.3985 133.435 79.5425C133.238 79.6812 133.032 79.7985 132.819 79.8945C132.606 79.9905 132.376 80.0625 132.131 80.1105C131.891 80.1638 131.624 80.1905 131.331 80.1905C130.984 80.1905 130.664 80.1452 130.371 80.0545C130.078 79.9585 129.824 79.8172 129.611 79.6305C129.398 79.4438 129.232 79.2118 129.115 78.9345C128.998 78.6572 128.939 78.3345 128.939 77.9665C128.939 77.7585 128.974 77.5532 129.043 77.3505C129.112 77.1425 129.224 76.9452 129.379 76.7585C129.539 76.5718 129.744 76.3958 129.995 76.2305C130.246 76.0652 130.552 75.9212 130.915 75.7985C131.283 75.6758 131.71 75.5772 132.195 75.5025C132.68 75.4225 133.235 75.3745 133.859 75.3585V74.8785C133.859 74.3292 133.742 73.9238 133.507 73.6625C133.272 73.3958 132.934 73.2625 132.491 73.2625C132.171 73.2625 131.904 73.2998 131.691 73.3745C131.483 73.4492 131.299 73.5345 131.139 73.6305C130.979 73.7212 130.832 73.8038 130.699 73.8785C130.571 73.9532 130.427 73.9905 130.267 73.9905C130.128 73.9905 130.011 73.9558 129.915 73.8865C129.819 73.8118 129.742 73.7265 129.683 73.6305L129.331 72.9985ZM139.648 68.1745V80.0625H137.672V68.1745H139.648ZM149.073 71.8545L144.601 82.3185C144.542 82.4572 144.465 82.5612 144.369 82.6305C144.278 82.7052 144.137 82.7425 143.945 82.7425H142.473L144.009 79.4465L140.689 71.8545H142.425C142.579 71.8545 142.699 71.8918 142.785 71.9665C142.875 72.0412 142.942 72.1265 142.985 72.2225L144.729 76.4785C144.787 76.6225 144.835 76.7665 144.873 76.9105C144.915 77.0545 144.955 77.2012 144.993 77.3505C145.041 77.2012 145.089 77.0545 145.137 76.9105C145.185 76.7612 145.238 76.6145 145.297 76.4705L146.945 72.2225C146.987 72.1158 147.057 72.0278 147.153 71.9585C147.254 71.8892 147.366 71.8545 147.489 71.8545H149.073ZM154.89 73.4545C154.837 73.5398 154.781 73.6012 154.722 73.6385C154.664 73.6705 154.589 73.6865 154.498 73.6865C154.402 73.6865 154.298 73.6598 154.186 73.6065C154.08 73.5532 153.954 73.4945 153.81 73.4305C153.666 73.3612 153.501 73.2998 153.314 73.2465C153.133 73.1932 152.917 73.1665 152.666 73.1665C152.277 73.1665 151.97 73.2492 151.746 73.4145C151.528 73.5798 151.418 73.7958 151.418 74.0625C151.418 74.2385 151.474 74.3878 151.586 74.5105C151.704 74.6278 151.856 74.7318 152.042 74.8225C152.234 74.9132 152.45 74.9958 152.69 75.0705C152.93 75.1398 153.173 75.2172 153.418 75.3025C153.669 75.3878 153.914 75.4865 154.154 75.5985C154.394 75.7052 154.608 75.8438 154.794 76.0145C154.986 76.1798 155.138 76.3798 155.25 76.6145C155.368 76.8492 155.426 77.1318 155.426 77.4625C155.426 77.8572 155.354 78.2225 155.21 78.5585C155.072 78.8892 154.864 79.1772 154.586 79.4225C154.309 79.6625 153.965 79.8518 153.554 79.9905C153.149 80.1238 152.68 80.1905 152.146 80.1905C151.864 80.1905 151.586 80.1638 151.314 80.1105C151.048 80.0625 150.789 79.9932 150.538 79.9025C150.293 79.8118 150.064 79.7052 149.85 79.5825C149.642 79.4598 149.458 79.3265 149.298 79.1825L149.754 78.4305C149.813 78.3398 149.882 78.2705 149.962 78.2225C150.042 78.1745 150.144 78.1505 150.266 78.1505C150.389 78.1505 150.504 78.1852 150.61 78.2545C150.722 78.3238 150.85 78.3985 150.994 78.4785C151.138 78.5585 151.306 78.6332 151.498 78.7025C151.696 78.7718 151.944 78.8065 152.242 78.8065C152.477 78.8065 152.677 78.7798 152.842 78.7265C153.013 78.6678 153.152 78.5932 153.258 78.5025C153.37 78.4118 153.45 78.3078 153.498 78.1905C153.552 78.0678 153.578 77.9425 153.578 77.8145C153.578 77.6225 153.52 77.4652 153.402 77.3425C153.29 77.2198 153.138 77.1132 152.946 77.0225C152.76 76.9318 152.544 76.8518 152.298 76.7825C152.058 76.7078 151.81 76.6278 151.554 76.5425C151.304 76.4572 151.056 76.3585 150.81 76.2465C150.57 76.1292 150.354 75.9825 150.162 75.8065C149.976 75.6305 149.824 75.4145 149.706 75.1585C149.594 74.9025 149.538 74.5932 149.538 74.2305C149.538 73.8945 149.605 73.5745 149.738 73.2705C149.872 72.9665 150.066 72.7025 150.322 72.4785C150.584 72.2492 150.906 72.0678 151.29 71.9345C151.68 71.7958 152.128 71.7265 152.634 71.7265C153.2 71.7265 153.714 71.8198 154.178 72.0065C154.642 72.1932 155.029 72.4385 155.338 72.7425L154.89 73.4545ZM158.962 71.8545V80.0625H156.978V71.8545H158.962ZM159.234 69.4625C159.234 69.6332 159.199 69.7932 159.13 69.9425C159.06 70.0918 158.967 70.2225 158.85 70.3345C158.738 70.4465 158.604 70.5372 158.45 70.6065C158.295 70.6705 158.13 70.7025 157.954 70.7025C157.783 70.7025 157.62 70.6705 157.466 70.6065C157.316 70.5372 157.186 70.4465 157.074 70.3345C156.962 70.2225 156.871 70.0918 156.802 69.9425C156.738 69.7932 156.706 69.6332 156.706 69.4625C156.706 69.2865 156.738 69.1212 156.802 68.9665C156.871 68.8118 156.962 68.6785 157.074 68.5665C157.186 68.4545 157.316 68.3665 157.466 68.3025C157.62 68.2332 157.783 68.1985 157.954 68.1985C158.13 68.1985 158.295 68.2332 158.45 68.3025C158.604 68.3665 158.738 68.4545 158.85 68.5665C158.967 68.6785 159.06 68.8118 159.13 68.9665C159.199 69.1212 159.234 69.2865 159.234 69.4625ZM165.984 73.4545C165.931 73.5398 165.875 73.6012 165.816 73.6385C165.757 73.6705 165.683 73.6865 165.592 73.6865C165.496 73.6865 165.392 73.6598 165.28 73.6065C165.173 73.5532 165.048 73.4945 164.904 73.4305C164.76 73.3612 164.595 73.2998 164.408 73.2465C164.227 73.1932 164.011 73.1665 163.76 73.1665C163.371 73.1665 163.064 73.2492 162.84 73.4145C162.621 73.5798 162.512 73.7958 162.512 74.0625C162.512 74.2385 162.568 74.3878 162.68 74.5105C162.797 74.6278 162.949 74.7318 163.136 74.8225C163.328 74.9132 163.544 74.9958 163.784 75.0705C164.024 75.1398 164.267 75.2172 164.512 75.3025C164.763 75.3878 165.008 75.4865 165.248 75.5985C165.488 75.7052 165.701 75.8438 165.888 76.0145C166.08 76.1798 166.232 76.3798 166.344 76.6145C166.461 76.8492 166.52 77.1318 166.52 77.4625C166.52 77.8572 166.448 78.2225 166.304 78.5585C166.165 78.8892 165.957 79.1772 165.68 79.4225C165.403 79.6625 165.059 79.8518 164.648 79.9905C164.243 80.1238 163.773 80.1905 163.24 80.1905C162.957 80.1905 162.68 80.1638 162.408 80.1105C162.141 80.0625 161.883 79.9932 161.632 79.9025C161.387 79.8118 161.157 79.7052 160.944 79.5825C160.736 79.4598 160.552 79.3265 160.392 79.1825L160.848 78.4305C160.907 78.3398 160.976 78.2705 161.056 78.2225C161.136 78.1745 161.237 78.1505 161.36 78.1505C161.483 78.1505 161.597 78.1852 161.704 78.2545C161.816 78.3238 161.944 78.3985 162.088 78.4785C162.232 78.5585 162.4 78.6332 162.592 78.7025C162.789 78.7718 163.037 78.8065 163.336 78.8065C163.571 78.8065 163.771 78.7798 163.936 78.7265C164.107 78.6678 164.245 78.5932 164.352 78.5025C164.464 78.4118 164.544 78.3078 164.592 78.1905C164.645 78.0678 164.672 77.9425 164.672 77.8145C164.672 77.6225 164.613 77.4652 164.496 77.3425C164.384 77.2198 164.232 77.1132 164.04 77.0225C163.853 76.9318 163.637 76.8518 163.392 76.7825C163.152 76.7078 162.904 76.6278 162.648 76.5425C162.397 76.4572 162.149 76.3585 161.904 76.2465C161.664 76.1292 161.448 75.9825 161.256 75.8065C161.069 75.6305 160.917 75.4145 160.8 75.1585C160.688 74.9025 160.632 74.5932 160.632 74.2305C160.632 73.8945 160.699 73.5745 160.832 73.2705C160.965 72.9665 161.16 72.7025 161.416 72.4785C161.677 72.2492 162 72.0678 162.384 71.9345C162.773 71.7958 163.221 71.7265 163.728 71.7265C164.293 71.7265 164.808 71.8198 165.272 72.0065C165.736 72.1932 166.123 72.4385 166.432 72.7425L165.984 73.4545Z" fill="#8298AB"/>
<path fill-rule="evenodd" clip-rule="evenodd" d="M117.757 13.4189C115.729 11.3539 112.585 10.8669 110.026 12.2221C107.469 13.5787 106.105 16.4532 106.675 19.2924C107.245 22.1318 109.614 24.2567 112.497 24.5198C115.38 24.7832 118.091 23.12 119.165 20.4315L126.198 22.3737L126.199 22.3751C125.708 24.9123 126.683 27.511 128.72 29.1025L127.191 31.7027C124.711 31.0259 122.113 32.2929 121.118 34.6631C120.12 37.0333 121.036 39.7751 123.255 41.0739C125.475 42.3714 128.313 41.8251 129.889 39.7952C131.468 37.7652 131.298 34.8802 129.493 33.0496C129.414 32.9695 129.334 32.8965 129.252 32.822L130.784 30.2135C134.023 31.3044 137.57 29.8637 139.13 26.8234L146.531 28.8676C146.243 32.2172 148.559 35.2344 151.868 35.8245C155.179 36.413 158.392 34.3802 159.277 31.1373C160.164 27.8941 158.431 24.5107 155.282 23.3342C152.132 22.159 148.605 23.5776 147.149 26.6089L139.831 24.5878L139.83 24.5864C140.061 22.8774 139.644 21.1426 138.66 19.7251L147.127 11.389C149.454 12.5564 152.286 11.7941 153.714 9.61684C155.143 7.4394 154.712 4.53699 152.715 2.8678C150.716 1.19728 147.785 1.28873 145.894 3.08087C144.005 4.87165 143.757 7.79519 145.319 9.87904L137.015 18.0545C135.674 17.094 134.037 16.6438 132.393 16.7857L130.594 9.862C132.991 8.83441 134.239 6.17365 133.497 3.67274C132.751 1.17192 130.252 -0.37279 127.682 0.0779196C125.112 0.528809 123.288 2.83413 123.442 5.43895C123.593 8.04382 125.673 10.1204 128.277 10.2689L130.122 17.3739C128.826 17.9642 127.744 18.9407 127.024 20.1694L119.632 18.1253L119.632 18.1281C119.668 16.3703 118.993 14.6711 117.757 13.4189Z" fill="#E598F8"/>
<defs>
<clipPath id="clip0_139_6199">
<rect x="12" y="148.062" width="248" height="112" rx="4" fill="white"/>
</clipPath>
</defs>
</svg>
