<svg width="133" height="73" viewBox="0 0 133 73" fill="none" xmlns="http://www.w3.org/2000/svg">
<path fill-rule="evenodd" clip-rule="evenodd" d="M80.9467 56.1826H83.7202L83.6193 48.6188H83.6697L87.6031 56.1826H91.2842V45.0858H88.5612L88.6116 52.5998H88.5612L84.7792 45.0858H80.9467V56.1826ZM95.4191 56.1826H98.3943V47.2753H101.168V45.0858H92.6457V47.2753H95.4191V56.1826ZM102.529 56.1826H105.505V51.8036H106.11C107.219 51.8036 107.622 52.3012 108.228 54.1921L108.883 56.1826H112.01L110.9 53.1471C110.345 51.8036 110.295 50.9577 109.286 50.7089V50.659C110.749 50.3107 111.455 49.3155 111.455 47.8724C111.455 45.9815 109.841 45.0858 107.824 45.0858H102.479L102.529 56.1826ZM105.505 47.1758H106.311C107.471 47.1758 108.48 47.3748 108.48 48.4198C108.48 49.6639 107.269 49.7136 106.311 49.7136H105.505V47.1758ZM9.44161 56.1826H12.4672L13.3749 53.7941H17.6107L18.468 56.1826H21.6952L17.3586 45.0858H13.6774C13.7278 45.0858 9.44161 56.1826 9.44161 56.1826ZM16.9048 51.7041H14.0808L15.5432 47.3748H15.5936L16.9048 51.7041ZM0.0118103 56.1826H4.75192C6.76899 56.1826 9.13905 55.6353 9.13905 52.9979C9.13905 51.6544 8.38265 50.8581 6.86985 50.5596V50.5097C8.13051 50.1117 8.83648 49.3155 8.83648 47.9222C8.83648 46.0313 7.27325 45.0858 5.20576 45.0858H0.0118103V56.1826ZM2.98699 51.4552H3.89466C4.9032 51.4552 6.11345 51.5548 6.11345 52.7989C6.11345 53.9434 4.95363 54.0926 3.89466 54.0926H2.98699V51.4552ZM2.98699 47.1758H3.84424C4.85277 47.1758 5.81088 47.2753 5.81088 48.2706C5.81088 49.216 4.80234 49.4648 3.79382 49.4648H2.98699V47.1758ZM22.4013 56.1826H25.1747L25.0738 48.6188H25.1243L29.0576 56.1826H32.7892V45.0858H30.0662L30.1166 52.5998H30.0662L26.2337 45.0858H22.4013V56.1826ZM43.7318 53.595C42.8241 53.9434 41.866 54.1424 40.9079 54.1921C38.7396 54.1921 37.1763 52.8486 37.1763 50.7089C37.1763 48.6188 38.5883 47.126 40.7061 47.126C41.7147 47.126 42.7232 47.3748 43.6309 47.9222L43.8831 45.5337C42.8241 45.1853 41.6642 44.9863 40.5549 44.9365C36.8737 44.9365 34.1002 46.8772 34.1002 50.7089C34.1002 54.8888 37.5797 56.3817 40.5549 56.3817C41.6642 56.3817 42.8241 56.2324 43.8831 55.9338L43.7318 53.595ZM44.1856 50.6093C44.1856 54.1424 46.1523 56.3318 49.8334 56.3318C53.5145 56.3318 55.4812 54.1424 55.4812 50.6093C55.4812 47.0762 53.5649 44.8868 49.8334 44.8868C46.1018 44.8868 44.1856 47.0762 44.1856 50.6093ZM47.2617 50.6093C47.2617 48.6687 47.9676 47.0762 49.7829 47.0762C51.5983 47.0762 52.3043 48.7184 52.3043 50.6093C52.3043 52.4505 51.5983 54.1424 49.7829 54.1424C47.9676 54.1424 47.2617 52.4505 47.2617 50.6093ZM69.8024 53.595C68.8947 53.9434 67.9366 54.1424 66.9785 54.1921C64.8102 54.1921 63.2469 52.8486 63.2469 50.7089C63.2469 48.6188 64.6589 47.126 66.7767 47.126C67.7853 47.126 68.7938 47.3748 69.7015 47.9222L69.9537 45.5337C68.8443 45.1853 67.7349 44.9863 66.5751 44.9365C62.894 44.9365 60.1205 46.8772 60.1205 50.7089C60.1205 54.8888 63.5999 56.3817 66.5751 56.3817C67.6845 56.3817 68.8443 56.2324 69.9032 55.9338L69.8024 53.595ZM71.3152 56.1826H79.4339V54.0926H74.3408V51.6045H78.9801V49.5145H74.3408V47.2255H79.2826V45.1356H71.3656L71.3152 56.1826ZM112.363 56.1826H115.388L116.296 53.7941H120.532L121.389 56.1826H124.666L120.33 45.0858H116.649L112.363 56.1826ZM119.775 51.7041H116.951L118.414 47.3748H118.465L119.775 51.7041ZM125.322 56.1826H132.937V53.9931H128.297V45.0858H125.322V56.1826ZM59.112 39.5125H70.3571L73.887 36.0292H62.6418V29.809H64.7597L68.2895 26.3258H59.8179V18.0156L56.2881 21.4989V23.5888H49.9847V12.492L46.4548 15.9754V27.0722H52.8086V33.2923H59.1624V39.5125H59.112ZM71.769 14.582V6.27189L75.2989 2.78859V11.1485H83.7202L80.1902 14.6318L71.769 14.582ZM62.6418 2.78859H59.8179V11.0988H68.2391L64.7093 14.582H56.2881V12.492H52.7582V9.70543L62.6418 0.00195312V2.78859ZM83.7202 26.3755V23.5888H86.5441L76.6605 33.2923H73.8366V29.809H71.7186V21.4989L75.2485 18.0156V26.3755H83.7202ZM24.9226 72.8029H29.0072C32.8396 72.8029 35.6635 71.3598 35.6635 67.2296C35.6635 62.9502 32.9405 61.7061 29.0072 61.7061H24.9226V72.8029ZM27.8977 63.8957H29.0576C31.2259 63.8957 32.5371 65.0402 32.5371 67.2296C32.5371 69.4191 31.2763 70.5636 29.0576 70.5636H27.8977C27.8977 70.6134 27.8977 63.8957 27.8977 63.8957ZM36.3191 67.2794C36.3191 70.8124 38.2857 73.002 41.9669 73.002C45.648 73.002 47.6146 70.8124 47.6146 67.2794C47.6146 63.7464 45.6984 61.5568 41.9669 61.5568C38.2353 61.5568 36.3191 63.6966 36.3191 67.2794ZM39.3951 67.2794C39.3951 65.3387 40.1011 63.7464 41.9164 63.7464C43.7318 63.7464 44.4378 65.3885 44.4378 67.2794C44.4378 69.1205 43.7318 70.8124 41.9164 70.8124C40.1011 70.8124 39.3951 69.0708 39.3951 67.2794ZM52.7582 72.8029H57.4983C59.5154 72.8029 61.8854 72.2555 61.8854 69.6182C61.8854 68.2746 61.1289 67.4785 59.6162 67.1799V67.1301C60.8769 66.7321 61.5828 65.9358 61.5828 64.5425C61.5828 62.6516 60.0196 61.7061 57.9521 61.7061H52.7582V72.8029ZM55.7838 68.0756H56.6915C57.7 68.0756 58.9102 68.1751 58.9102 69.3694C58.9102 70.5139 57.7505 70.6632 56.6915 70.6632H55.7838V68.0756ZM55.7838 63.7961H56.641C57.6496 63.7961 58.6077 63.8957 58.6077 64.8909C58.6077 65.8363 57.5991 66.0851 56.5906 66.0851H55.7334L55.7838 63.7961ZM63.2469 72.8029H66.2221V68.4239H66.8272C67.9366 68.4239 68.34 68.9215 68.9451 70.8124L69.6007 72.8029H72.7271L71.6177 69.7675C71.063 68.4239 71.0127 67.5779 70.0041 67.3292V67.2794C71.4665 66.9311 72.1724 65.9856 72.1724 64.4928C72.1724 62.6018 70.5588 61.7061 68.5417 61.7061H63.1965L63.2469 72.8029ZM66.2726 63.7961H67.0794C68.2391 63.7961 69.2477 63.9951 69.2477 65.0402C69.2477 66.2841 68.0375 66.334 67.0794 66.334H66.2726V63.7961ZM73.0801 72.8029H76.1057L77.0134 70.4143H81.1988L82.056 72.8029H85.3338L80.9972 61.7061H77.3159L73.0801 72.8029ZM80.5433 68.3244H77.7194L79.1817 63.9951H79.2321L80.5433 68.3244ZM95.4191 72.8029H98.3943V61.7061H95.4191V72.8029ZM100.462 72.8029H108.076V70.6134H103.437V61.7061H100.462V72.8029ZM85.7877 72.5043C86.897 72.8526 88.0064 73.002 89.1158 73.002C91.6371 73.002 94.0576 72.2058 94.0576 69.3196C94.0576 65.3387 88.7628 66.533 88.7628 64.7415C88.7628 63.7961 90.0235 63.6966 90.7799 63.6966C91.6371 63.6966 92.4944 63.8458 93.3013 64.1942L93.5029 61.9052C92.5448 61.6065 91.5867 61.4573 90.5781 61.5071C88.309 61.5071 85.6868 62.2535 85.6868 64.8909C85.6868 68.9215 90.9817 67.6277 90.9817 69.6679C90.9817 70.5636 90.0739 70.7627 89.1158 70.7627C88.0569 70.7627 86.9979 70.5139 86.0398 70.0163L85.7877 72.5043Z" fill="#FDFDFD"/>
</svg>
