<svg width="133" height="74" viewBox="0 0 133 74" fill="none" xmlns="http://www.w3.org/2000/svg">
<path fill-rule="evenodd" clip-rule="evenodd" d="M80.9466 56.6026H83.7201L83.6192 49.0387H83.6696L87.603 56.6026H91.2841V45.5058H88.5611L88.6115 53.0197H88.5611L84.7791 45.5058H80.9466V56.6026ZM95.419 56.6026H98.3942V47.6952H101.168V45.5058H92.6456V47.6952H95.419V56.6026ZM102.529 56.6026H105.504V52.2235H106.11C107.219 52.2235 107.622 52.7211 108.227 54.6121L108.883 56.6026H112.009L110.9 53.567C110.345 52.2235 110.295 51.3776 109.286 51.1288V51.079C110.749 50.7306 111.455 49.7354 111.455 48.2923C111.455 46.4014 109.841 45.5058 107.824 45.5058H102.479L102.529 56.6026ZM105.504 47.5957H106.311C107.471 47.5957 108.48 47.7948 108.48 48.8397C108.48 50.0838 107.269 50.1335 106.311 50.1335H105.504V47.5957ZM9.44152 56.6026H12.4671L13.3748 54.214H17.6106L18.4679 56.6026H21.6952L17.3586 45.5058H13.6773C13.7278 45.5058 9.44152 56.6026 9.44152 56.6026ZM16.9047 52.124H14.0807L15.5431 47.7948H15.5935L16.9047 52.124ZM0.0117188 56.6026H4.75183C6.7689 56.6026 9.13895 56.0552 9.13895 53.4178C9.13895 52.0743 8.38255 51.278 6.86975 50.9795V50.9297C8.13042 50.5316 8.83639 49.7354 8.83639 48.3422C8.83639 46.4512 7.27316 45.5058 5.20567 45.5058H0.0117188V56.6026ZM2.9869 51.8751H3.89457C4.90311 51.8751 6.11335 51.9747 6.11335 53.2188C6.11335 54.3633 4.95354 54.5125 3.89457 54.5125H2.9869V51.8751ZM2.9869 47.5957H3.84414C4.85268 47.5957 5.81079 47.6952 5.81079 48.6905C5.81079 49.636 4.80225 49.8847 3.79373 49.8847H2.9869V47.5957ZM22.4012 56.6026H25.1746L25.0738 49.0387H25.1242L29.0575 56.6026H32.7891V45.5058H30.0661L30.1165 53.0197H30.0661L26.2336 45.5058H22.4012V56.6026ZM43.7317 54.0149C42.824 54.3633 41.8659 54.5623 40.9078 54.6121C38.7395 54.6121 37.1762 53.2685 37.1762 51.1288C37.1762 49.0387 38.5882 47.5459 40.706 47.5459C41.7146 47.5459 42.7231 47.7948 43.6308 48.3422L43.883 45.9536C42.824 45.6052 41.6641 45.4062 40.5548 45.3565C36.8736 45.3565 34.1001 47.2971 34.1001 51.1288C34.1001 55.3087 37.5796 56.8016 40.5548 56.8016C41.6641 56.8016 42.824 56.6523 43.883 56.3537L43.7317 54.0149ZM44.1855 51.0292C44.1855 54.5623 46.1522 56.7518 49.8333 56.7518C53.5144 56.7518 55.4811 54.5623 55.4811 51.0292C55.4811 47.4962 53.5648 45.3067 49.8333 45.3067C46.1017 45.3067 44.1855 47.4962 44.1855 51.0292ZM47.2616 51.0292C47.2616 49.0886 47.9675 47.4962 49.7828 47.4962C51.5982 47.4962 52.3042 49.1383 52.3042 51.0292C52.3042 52.8704 51.5982 54.5623 49.7828 54.5623C47.9675 54.5623 47.2616 52.8704 47.2616 51.0292ZM69.8023 54.0149C68.8946 54.3633 67.9365 54.5623 66.9784 54.6121C64.8101 54.6121 63.2468 53.2685 63.2468 51.1288C63.2468 49.0387 64.6588 47.5459 66.7766 47.5459C67.7852 47.5459 68.7937 47.7948 69.7014 48.3422L69.9536 45.9536C68.8442 45.6052 67.7348 45.4062 66.575 45.3565C62.8939 45.3565 60.1204 47.2971 60.1204 51.1288C60.1204 55.3087 63.5998 56.8016 66.575 56.8016C67.6844 56.8016 68.8442 56.6523 69.9032 56.3537L69.8023 54.0149ZM71.3151 56.6026H79.4338V54.5125H74.3407V52.0244H78.98V49.9345H74.3407V47.6455H79.2825V45.5555H71.3655L71.3151 56.6026ZM112.362 56.6026H115.388L116.296 54.214H120.531L121.389 56.6026H124.666L120.33 45.5058H116.649L112.362 56.6026ZM119.775 52.124H116.951L118.414 47.7948H118.465L119.775 52.124ZM125.322 56.6026H132.937V54.413H128.297V45.5058H125.322V56.6026ZM59.1119 39.9324H70.357L73.8869 36.4491H62.6417V30.2289H64.7596L68.2895 26.7457H59.8178V18.4355L56.288 21.9188V24.0087H49.9846V12.9119L46.4547 16.3953V27.4921H52.8085V33.7123H59.1623V39.9324H59.1119ZM71.7689 15.0019V6.69181L75.2989 3.20851V11.5684H83.7201L80.1902 15.0518L71.7689 15.0019ZM62.6417 3.20851H59.8178V11.5187H68.239L64.7092 15.0019H56.288V12.9119H52.7581V10.1254L62.6417 0.421875V3.20851ZM83.7201 26.7954V24.0087H86.544L76.6604 33.7123H73.8365V30.2289H71.7185V21.9188L75.2484 18.4355V26.7954H83.7201ZM24.9226 73.2228H29.0071C32.8395 73.2228 35.6634 71.7797 35.6634 67.6495C35.6634 63.3701 32.9404 62.126 29.0071 62.126H24.9226V73.2228ZM27.8976 64.3156H29.0575C31.2258 64.3156 32.537 65.4601 32.537 67.6495C32.537 69.8391 31.2763 70.9836 29.0575 70.9836H27.8976C27.8976 71.0333 27.8976 64.3156 27.8976 64.3156ZM36.319 67.6994C36.319 71.2323 38.2857 73.4219 41.9668 73.4219C45.6479 73.4219 47.6146 71.2323 47.6146 67.6994C47.6146 64.1663 45.6983 61.9767 41.9668 61.9767C38.2352 61.9767 36.319 64.1165 36.319 67.6994ZM39.395 67.6994C39.395 65.7586 40.101 64.1663 41.9163 64.1663C43.7317 64.1663 44.4377 65.8084 44.4377 67.6994C44.4377 69.5404 43.7317 71.2323 41.9163 71.2323C40.101 71.2323 39.395 69.4907 39.395 67.6994ZM52.7581 73.2228H57.4982C59.5153 73.2228 61.8853 72.6755 61.8853 70.0381C61.8853 68.6946 61.1288 67.8984 59.6161 67.5998V67.55C60.8768 67.152 61.5827 66.3557 61.5827 64.9624C61.5827 63.0715 60.0195 62.126 57.952 62.126H52.7581V73.2228ZM55.7837 68.4955H56.6914C57.6999 68.4955 58.9101 68.595 58.9101 69.7893C58.9101 70.9338 57.7504 71.0831 56.6914 71.0831H55.7837V68.4955ZM55.7837 64.216H56.6409C57.6495 64.216 58.6076 64.3156 58.6076 65.3108C58.6076 66.2562 57.599 66.505 56.5905 66.505H55.7333L55.7837 64.216ZM63.2468 73.2228H66.222V68.8439H66.8271C67.9365 68.8439 68.3399 69.3414 68.945 71.2323L69.6006 73.2228H72.727L71.6176 70.1874C71.0629 68.8439 71.0126 67.9979 70.004 67.7491V67.6994C71.4664 67.351 72.1723 66.4055 72.1723 64.9127C72.1723 63.0218 70.5587 62.126 68.5416 62.126H63.1964L63.2468 73.2228ZM66.2725 64.216H67.0793C68.239 64.216 69.2476 64.415 69.2476 65.4601C69.2476 66.704 68.0374 66.7539 67.0793 66.7539H66.2725V64.216ZM73.08 73.2228H76.1056L77.0133 70.8343H81.1987L82.0559 73.2228H85.3337L80.9971 62.126H77.3158L73.08 73.2228ZM80.5432 68.7443H77.7193L79.1816 64.415H79.232L80.5432 68.7443ZM95.419 73.2228H98.3942V62.126H95.419V73.2228ZM100.462 73.2228H108.076V71.0333H103.437V62.126H100.462V73.2228ZM85.7876 72.9242C86.8969 73.2726 88.0064 73.4219 89.1157 73.4219C91.637 73.4219 94.0575 72.6257 94.0575 69.7395C94.0575 65.7586 88.7627 66.9529 88.7627 65.1615C88.7627 64.216 90.0235 64.1165 90.7798 64.1165C91.637 64.1165 92.4943 64.2657 93.3012 64.6141L93.5028 62.3251C92.5447 62.0265 91.5866 61.8773 90.5781 61.927C88.3089 61.927 85.6867 62.6734 85.6867 65.3108C85.6867 69.3414 90.9816 68.0476 90.9816 70.0878C90.9816 70.9836 90.0738 71.1826 89.1157 71.1826C88.0568 71.1826 86.9978 70.9338 86.0397 70.4362L85.7876 72.9242Z" fill="#323131"/>
</svg>
