<svg width="156" height="47" viewBox="0 0 156 47" fill="none" xmlns="http://www.w3.org/2000/svg">
<path fill-rule="evenodd" clip-rule="evenodd" d="M5.58545 36.985C4.17287 33.9892 3.38385 30.6469 3.38385 27.1222C3.38385 14.2362 13.9284 3.7902 26.9359 3.7902C34.1786 3.7902 40.6576 7.02916 44.978 12.1245L47.5554 9.98201C42.6179 4.15872 35.2134 0.457031 26.9359 0.457031C12.0703 0.457031 0.0192871 12.3954 0.0192871 27.1222C0.0192871 31.1505 0.920992 34.9703 2.53539 38.394L5.58545 36.985Z" fill="#FDFDFD"/>
<path fill-rule="evenodd" clip-rule="evenodd" d="M26.9362 42.9569C18.1098 42.9569 10.9545 35.8686 10.9545 27.1245C10.9545 18.3805 18.1098 11.2921 26.9362 11.2921C31.8509 11.2921 36.2467 13.4905 39.1784 16.9481L41.7564 14.8051C38.2076 10.6196 32.8856 7.95898 26.9362 7.95898C16.2515 7.95898 7.58984 16.5397 7.58984 27.1245C7.58984 37.7094 16.2515 46.2901 26.9362 46.2901V42.9569Z" fill="#FDFDFD"/>
<path fill-rule="evenodd" clip-rule="evenodd" d="M32.7355 31.9467C31.3469 33.5845 29.2647 34.6258 26.9366 34.6258C22.7557 34.6258 19.3663 31.2682 19.3663 27.1263C19.3663 22.9844 22.7557 19.6267 26.9366 19.6267C29.2647 19.6267 31.3469 20.668 32.7355 22.3059L35.635 19.8957C33.552 17.439 30.4287 15.877 26.9366 15.877C20.6651 15.877 15.5812 20.9135 15.5812 27.1263C15.5812 33.3391 20.6651 38.3756 26.9366 38.3756C30.1369 38.3756 33.0269 37.0631 35.0909 34.9529L32.7355 31.9467Z" fill="#FDFDFD"/>
<path fill-rule="evenodd" clip-rule="evenodd" d="M41.0522 26.7372C41.8108 26.0864 42.7363 25.7602 43.8288 25.7602C44.4153 25.7602 44.9259 25.8557 45.3613 26.0459C45.796 26.2367 46.1549 26.4921 46.4383 26.8124C46.7215 27.1333 46.9287 27.5038 47.0606 27.9248C47.1919 28.3455 47.2579 28.7867 47.2579 29.2474H39.793C39.8735 28.2255 40.2936 27.3888 41.0522 26.7372ZM47.8041 33.5163C47.3991 34.0978 46.8832 34.5535 46.2565 34.8839C45.629 35.2147 44.8604 35.3801 43.9502 35.3801C43.4239 35.3801 42.9184 35.2899 42.433 35.1095C41.9474 34.9291 41.5121 34.6838 41.1281 34.373C40.7436 34.0625 40.4349 33.6918 40.2025 33.2607C39.9698 32.8299 39.8333 32.3542 39.793 31.8328H50.8689C50.8888 31.6727 50.8993 31.5124 50.8993 31.3518V30.8709C50.8993 29.5683 50.722 28.431 50.3682 27.4587C50.0141 26.4869 49.5232 25.6753 48.8964 25.0238C48.2692 24.3728 47.5257 23.8814 46.6661 23.5508C45.806 23.2201 44.8704 23.0547 43.8592 23.0547C42.7667 23.0547 41.7501 23.2403 40.8095 23.611C39.8688 23.9819 39.0543 24.503 38.3666 25.1742C37.6787 25.8458 37.1376 26.6575 36.7432 27.609C36.3486 28.5612 36.1515 29.6186 36.1515 30.7806C36.1515 31.9633 36.3486 33.0201 36.7432 33.9521C37.1376 34.8839 37.6839 35.6707 38.3818 36.312C39.0797 36.9536 39.9038 37.4496 40.8549 37.8C41.8058 38.1504 42.8474 38.3262 43.9805 38.3262C46.4259 38.3262 48.3517 37.5543 49.7592 36.0117L47.8041 33.5163Z" fill="#FDFDFD"/>
<path fill-rule="evenodd" clip-rule="evenodd" d="M53.2036 23.4757H56.6629V25.7903H56.7237C57.0471 25.0689 57.6084 24.4328 58.4078 23.8814C59.2068 23.3305 60.1527 23.0547 61.2451 23.0547C62.1958 23.0547 63.0098 23.2201 63.6879 23.5509C64.3655 23.8814 64.9216 24.3174 65.3567 24.8584C65.7916 25.3997 66.1104 26.0211 66.3127 26.7223C66.5147 27.424 66.6162 28.1455 66.6162 28.8867V37.9052H62.9747V29.9089C62.9747 29.488 62.9444 29.0473 62.8837 28.586C62.823 28.1254 62.6913 27.7096 62.4893 27.3386C62.2868 26.968 62.0084 26.6622 61.6547 26.4218C61.3005 26.1812 60.8301 26.0609 60.2437 26.0609C59.6568 26.0609 59.1512 26.1765 58.7265 26.4067C58.3016 26.6372 57.9526 26.9327 57.6796 27.2935C57.4065 27.6542 57.1988 28.0705 57.0573 28.5409C56.9157 29.0122 56.845 29.488 56.845 29.9691V37.9052H53.2036V23.4757Z" fill="#FDFDFD"/>
<path fill-rule="evenodd" clip-rule="evenodd" d="M68.1628 26.3635V23.4775H70.7118V19.2988H74.2925V23.4775H77.934V26.3635H74.2925V33.0671C74.2925 33.7087 74.4087 34.2396 74.6415 34.6604C74.8739 35.0813 75.3949 35.2917 76.2043 35.2917C76.4471 35.2917 76.7098 35.2669 76.9933 35.2166C77.2764 35.1668 77.529 35.0916 77.752 34.991L77.8733 37.8168C77.5495 37.9371 77.1648 38.032 76.7202 38.1025C76.275 38.1725 75.8502 38.2077 75.4457 38.2077C74.4746 38.2077 73.6857 38.0725 73.0788 37.8018C72.4718 37.5312 71.991 37.1607 71.6374 36.6895C71.2832 36.2191 71.0404 35.6778 70.9091 35.0662C70.7772 34.4552 70.7118 33.7989 70.7118 33.0971V26.3635H68.1628Z" fill="#FDFDFD"/>
<path fill-rule="evenodd" clip-rule="evenodd" d="M80.1205 23.4757H83.6102V25.8805H83.6709C84.0751 25.0388 84.6421 24.3578 85.3703 23.8363C86.0985 23.3154 86.948 23.0547 87.9192 23.0547C88.0604 23.0547 88.2121 23.0598 88.3744 23.0697C88.536 23.0801 88.6777 23.105 88.7991 23.1449V26.4518C88.5562 26.3917 88.3487 26.3517 88.1771 26.3316C88.0049 26.3117 87.838 26.3015 87.6762 26.3015C86.8466 26.3015 86.179 26.4518 85.6738 26.7522C85.1677 27.0529 84.7733 27.4136 84.4902 27.8346C84.2065 28.2556 84.0147 28.6866 83.9137 29.1273C83.8121 29.5683 83.7619 29.919 83.7619 30.1793V37.9052H80.1205V23.4757Z" fill="#FDFDFD"/>
<path fill-rule="evenodd" clip-rule="evenodd" d="M90.4673 37.9022H94.1086V23.4726H90.4673V37.9022ZM89.9514 18.5726C89.9514 17.9915 90.1685 17.4856 90.6036 17.0545C91.0385 16.6236 91.5898 16.4082 92.2577 16.4082C92.9251 16.4082 93.4865 16.6138 93.9417 17.0245C94.3969 17.4354 94.6244 17.9516 94.6244 18.5726C94.6244 19.1938 94.3969 19.7103 93.9417 20.1206C93.4865 20.5318 92.9251 20.737 92.2577 20.737C91.5898 20.737 91.0385 20.5219 90.6036 20.0907C90.1685 19.6599 89.9514 19.154 89.9514 18.5726Z" fill="#FDFDFD"/>
<path fill-rule="evenodd" clip-rule="evenodd" d="M98.8131 26.3576H96.0517V23.4717H98.8131V22.3926C98.8131 21.5312 98.9089 20.7045 99.1015 19.9126C99.2936 19.1211 99.6173 18.4244 100.073 17.8232C100.528 17.2221 101.129 16.7461 101.878 16.3953C102.626 16.0449 103.567 15.8691 104.7 15.8691C105.104 15.8691 105.444 15.8842 105.717 15.9142C105.99 15.9443 106.268 15.9998 106.551 16.0796L106.308 19.1459C106.106 19.0858 105.888 19.0362 105.656 18.9956C105.423 18.9557 105.175 18.9356 104.912 18.9356C104.386 18.9356 103.961 19.0362 103.638 19.2362C103.314 19.4367 103.066 19.6974 102.895 20.0178C102.722 20.3385 102.606 20.6894 102.546 21.07C102.485 21.4508 102.454 21.8215 102.454 22.1821V23.4717H105.823V26.3576H102.454V37.9013H98.8131V26.3576Z" fill="#FDFDFD"/>
<path fill-rule="evenodd" clip-rule="evenodd" d="M121.056 37.9022H117.597V35.5876H117.536C117.213 36.309 116.651 36.9454 115.852 37.4963C115.053 38.0474 114.107 38.3232 113.014 38.3232C112.063 38.3232 111.249 38.1578 110.572 37.827C109.894 37.4963 109.337 37.0605 108.902 36.5195C108.467 35.9782 108.149 35.3574 107.947 34.6556C107.744 33.9542 107.643 33.2328 107.643 32.4912V23.4727H111.285V31.469C111.285 31.8899 111.315 32.3309 111.376 32.7919C111.436 33.253 111.568 33.6687 111.77 34.0393C111.972 34.4105 112.251 34.7156 112.605 34.9561C112.958 35.1967 113.43 35.317 114.016 35.317C114.582 35.317 115.083 35.2018 115.519 34.9712C115.953 34.741 116.308 34.4453 116.58 34.0844C116.854 33.7237 117.06 33.308 117.203 32.837C117.344 32.3662 117.415 31.8899 117.415 31.4088V23.4727H121.056V37.9022Z" fill="#FDFDFD"/>
<path fill-rule="evenodd" clip-rule="evenodd" d="M135.104 32.3082C134.902 32.8577 134.614 33.342 134.239 33.7615C133.864 34.1808 133.41 34.5153 132.873 34.7651C132.337 35.0151 131.736 35.1395 131.068 35.1395C130.421 35.1395 129.839 35.01 129.323 34.7501C128.807 34.4905 128.372 34.1457 128.018 33.7163C127.664 33.2869 127.391 32.8023 127.199 32.263C127.006 31.7238 126.911 31.1649 126.911 30.5852C126.911 29.9465 127.006 29.3471 127.199 28.7876C127.391 28.2282 127.664 27.7438 128.018 27.3344C128.372 26.9247 128.807 26.6002 129.323 26.3605C129.839 26.121 130.431 26.0008 131.098 26.0008C131.766 26.0008 132.363 26.121 132.889 26.3605C133.415 26.6002 133.864 26.9298 134.239 27.3494C134.614 27.7689 134.902 28.2581 135.104 28.8171C135.306 29.3766 135.408 29.9662 135.408 30.5852C135.408 31.1846 135.306 31.7591 135.104 32.3082ZM135.408 23.4757V25.6399H135.346C134.82 24.7583 134.113 24.1068 133.222 23.6862C132.333 23.2652 131.372 23.0547 130.34 23.0547C129.247 23.0547 128.261 23.2553 127.381 23.6561C126.501 24.0571 125.753 24.5982 125.136 25.2794C124.519 25.9609 124.043 26.7627 123.71 27.6842C123.376 28.6063 123.208 29.5885 123.208 30.6303C123.208 31.6524 123.38 32.6196 123.724 33.5312C124.069 34.4435 124.549 35.2401 125.166 35.921C125.783 36.6027 126.536 37.1438 127.427 37.5445C128.317 37.9451 129.308 38.1457 130.4 38.1457C131.413 38.1457 132.328 37.9584 133.147 37.584C133.966 37.2095 134.638 36.668 135.165 35.9592H135.225V37.0151C135.225 37.7395 135.15 38.4031 134.998 39.0066C134.846 39.6098 134.593 40.133 134.239 40.5755C133.885 41.018 133.41 41.3647 132.813 41.6164C132.216 41.8677 131.483 41.9937 130.614 41.9937C129.703 41.9937 128.803 41.8179 127.912 41.4675C127.046 41.126 126.265 40.6368 125.571 40.0009L123.422 42.7452C123.886 43.1257 124.412 43.4667 124.999 43.7673C125.586 44.0678 126.197 44.3182 126.835 44.5188C127.472 44.7189 128.119 44.8693 128.777 44.9697C129.434 45.0697 130.056 45.12 130.643 45.12C132.059 45.12 133.284 44.9194 134.315 44.5188C135.346 44.1176 136.201 43.5516 136.879 42.8203C137.557 42.0886 138.058 41.1969 138.381 40.1449C138.705 39.0927 138.867 37.9151 138.867 36.6125V23.4757H135.408Z" fill="#FDFDFD"/>
<path fill-rule="evenodd" clip-rule="evenodd" d="M146.006 26.7372C146.765 26.0864 147.691 25.7602 148.782 25.7602C149.369 25.7602 149.88 25.8557 150.315 26.0459C150.75 26.2367 151.108 26.4921 151.392 26.8124C151.675 27.1333 151.882 27.5038 152.015 27.9248C152.146 28.3455 152.211 28.7867 152.211 29.2474H144.746C144.827 28.2255 145.248 27.3888 146.006 26.7372ZM152.758 33.5163C152.353 34.0978 151.838 34.5535 151.21 34.8839C150.583 35.2147 149.815 35.3801 148.903 35.3801C148.377 35.3801 147.872 35.2899 147.387 35.1095C146.901 34.9291 146.466 34.6838 146.082 34.373C145.698 34.0625 145.388 33.6918 145.156 33.2607C144.924 32.8299 144.787 32.3542 144.746 31.8328H155.823C155.843 31.6727 155.853 31.5124 155.853 31.3518V30.8709C155.853 29.5683 155.676 28.431 155.323 27.4587C154.968 26.4869 154.477 25.6753 153.85 25.0238C153.223 24.3728 152.479 23.8814 151.62 23.5508C150.759 23.2201 149.825 23.0547 148.813 23.0547C147.721 23.0547 146.704 23.2403 145.763 23.611C144.823 23.9819 144.008 24.503 143.32 25.1742C142.633 25.8458 142.092 26.6575 141.697 27.609C141.303 28.5612 141.105 29.6186 141.105 30.7806C141.105 31.9633 141.303 33.0201 141.697 33.9521C142.092 34.8839 142.638 35.6707 143.336 36.312C144.034 36.9536 144.857 37.4496 145.809 37.8C146.759 38.1504 147.802 38.3262 148.935 38.3262C151.38 38.3262 153.305 37.5543 154.713 36.0117L152.758 33.5163Z" fill="#FDFDFD"/>
</svg>
