<svg width="273" height="39" viewBox="0 0 273 39" fill="none" xmlns="http://www.w3.org/2000/svg">
<path d="M80.0648 26.1883C80.6742 26.427 81.5772 26.5807 82.7741 26.6516V27.1506H69.2672V26.6516C70.4615 26.5807 71.3669 26.427 71.9763 26.1883C72.5856 25.9518 73.0079 25.5711 73.2386 25.0463C73.4692 24.5238 73.5857 23.7506 73.5857 22.7292V6.82625H73.4766L64.2154 27.6139H64.1062L54.1848 6.89955H54.0755V22.7292C54.0755 23.7506 54.1969 24.5238 54.4421 25.0463C54.6849 25.5688 55.1073 25.9494 55.7044 26.1883C56.3016 26.427 57.1998 26.5807 58.3941 26.6516V27.1506H48.0892V26.6516C49.2835 26.5807 50.1817 26.427 50.779 26.1883C51.3761 25.9518 51.7985 25.5711 52.0413 25.0463C52.284 24.5238 52.4078 23.7506 52.4078 22.7292V6.79079C52.4078 5.76937 52.2864 4.99622 52.0413 4.47368C51.7961 3.95115 51.3761 3.57049 50.779 3.33168C50.1793 3.09524 49.2835 2.9392 48.0892 2.86826V2.36938H57.3333L65.7763 20.3222L73.9644 2.36938H82.7741V2.86826C81.5772 2.9392 80.6742 3.09524 80.0648 3.33168C79.4556 3.57049 79.0283 3.95588 78.7832 4.49023C78.5379 5.02458 78.4166 5.79065 78.4166 6.79079V22.7292C78.4166 23.7506 78.5379 24.5238 78.7832 25.0463C79.0283 25.5711 79.4556 25.9494 80.0648 26.1883ZM98.4171 14.1724C99.1721 15.5273 99.5508 17.0593 99.5508 18.7711C99.5508 20.483 99.1721 22.0151 98.4171 23.3699C97.6598 24.7247 96.6062 25.7721 95.2517 26.5075C93.8971 27.2451 92.3532 27.6139 90.6199 27.6139C88.8866 27.6139 87.35 27.2451 86.0075 26.5075C84.6651 25.7721 83.6091 24.7247 82.842 23.3699C82.0724 22.0151 81.689 20.483 81.689 18.7711C81.689 17.0593 82.0724 15.5273 82.842 14.1724C83.6115 12.8176 84.6651 11.7725 86.0075 11.0349C87.35 10.2972 88.8866 9.92832 90.6199 9.92832C92.3532 9.92832 93.8971 10.2972 95.2517 11.0349C96.6062 11.7725 97.6598 12.8176 98.4171 14.1724ZM94.7564 18.7711C94.7564 17.083 94.5913 15.6337 94.2612 14.4207C93.9311 13.2077 93.4553 12.288 92.8338 11.6567C92.2123 11.0278 91.472 10.7109 90.6199 10.7109C89.7654 10.7109 89.0274 11.0254 88.406 11.6567C87.7845 12.288 87.3087 13.2077 86.9786 14.4207C86.6484 15.6337 86.4833 17.083 86.4833 18.7711C86.4833 20.4593 86.6484 21.9087 86.9786 23.1217C87.3087 24.3345 87.7845 25.2542 88.406 25.8856C89.0274 26.5169 89.7654 26.8314 90.6199 26.8314C91.4743 26.8314 92.2123 26.5169 92.8338 25.8856C93.4553 25.2567 93.9311 24.3345 94.2612 23.1217C94.5913 21.9087 94.7564 20.4593 94.7564 18.7711ZM111.963 13.7445C112.596 13.7445 113.171 13.8509 113.684 14.066V10.1435C113.366 10.0016 112.99 9.93069 112.551 9.93069C111.426 9.93069 110.434 10.413 109.567 11.3753C108.7 12.3376 108.025 13.4442 107.399 15.6477H107.317V10.0726H107.171L99.9222 12.1059V12.5694C100.752 12.5694 101.393 12.6474 101.845 12.8011C102.296 12.9548 102.619 13.2053 102.816 13.5506C103.01 13.8958 103.11 14.3639 103.11 14.9597V23.8025C103.11 24.5403 103.037 25.0864 102.891 25.4435C102.745 25.8004 102.476 26.0677 102.085 26.2449C101.694 26.4223 101.073 26.5594 100.218 26.654V27.1529H110.395V26.654C109.54 26.5831 108.899 26.4577 108.472 26.2805C108.045 26.1031 107.746 25.8288 107.576 25.46C107.406 25.0912 107.319 24.5378 107.319 23.8025V16.7946C108.086 15.0377 109.776 13.7445 111.963 13.7445ZM165.381 25.4221C165.235 25.0533 165.162 24.5024 165.162 23.7648V15.6337C165.162 11.8151 162.992 9.92832 160.147 9.92832C157.303 9.92832 155.475 11.8908 154.693 12.9359H154.62V10.0726H154.475L147.225 12.1059V12.5694C148.031 12.5694 148.665 12.6474 149.128 12.8011C149.593 12.9548 149.923 13.1983 150.117 13.5317C150.311 13.8651 150.41 14.3285 150.41 14.9219V23.7624C150.41 24.5001 150.338 25.0533 150.192 25.4198C150.047 25.7887 149.777 26.0605 149.386 26.2402C148.995 26.4176 148.373 26.5547 147.52 26.6493V27.1482H157.037V26.6493C156.38 26.5547 155.873 26.4176 155.518 26.2402C155.164 26.063 154.925 25.7887 154.805 25.4198C154.683 25.051 154.622 24.5001 154.622 23.7624V14.2316C155.465 13.2361 156.455 12.2809 158.064 12.2809C160.276 12.2809 160.956 13.9052 160.956 15.7399V23.7624C160.956 24.5001 160.888 25.0533 160.754 25.4198C160.621 25.7887 160.388 26.0605 160.058 26.2402C159.728 26.4176 159.222 26.5547 158.538 26.6493V27.1482H167.947V26.6493C167.141 26.5547 166.549 26.4176 166.173 26.2402C165.789 26.063 165.529 25.7911 165.381 25.4221ZM257.878 22.2302C257.069 23.9492 254.814 27.6139 250.226 27.6139C245.869 27.6139 242.247 24.1431 242.247 18.9154C242.247 17.2745 242.614 15.766 243.344 14.3876C244.078 13.0091 245.07 11.9215 246.328 11.1247C247.585 10.3279 248.969 9.93069 250.484 9.93069C254.88 9.93069 257.073 12.9476 257.073 16.0923V16.8016H246.165C246.165 16.8654 246.163 16.9269 246.163 16.9908C246.163 20.7738 247.892 24.4079 252.239 24.4079C255.546 24.4079 256.929 22.6251 257.473 21.9844L257.878 22.2302ZM246.24 15.5981H253.081C253.035 13.0139 252.243 10.7582 250.081 10.7488C248.052 10.7417 246.581 12.5859 246.24 15.5981ZM209.325 25.4221C209.179 25.0533 209.107 24.5024 209.107 23.7648V15.6337C209.107 14.397 208.893 13.352 208.466 12.4961C208.038 11.6402 207.445 10.9994 206.69 10.5714C205.933 10.1435 205.067 9.93069 204.091 9.93069C202.967 9.93069 201.974 10.2097 201.107 10.7677C200.241 11.3257 199.418 12.1296 198.636 13.1746H198.563V1.53711H198.418L191.169 3.57049V4.03391C191.975 4.03391 192.608 4.11193 193.073 4.26561C193.536 4.4193 193.866 4.66283 194.06 4.99622C194.254 5.32959 194.353 5.79301 194.353 6.38647V23.7624C194.353 24.5001 194.281 25.0533 194.135 25.4198C193.99 25.7887 193.72 26.0605 193.33 26.2402C192.938 26.4176 192.317 26.5547 191.463 26.6493V27.1482H200.982V26.6493C200.323 26.5547 199.816 26.4176 199.461 26.2402C199.107 26.063 198.87 25.7887 198.748 25.4198C198.627 25.051 198.565 24.5001 198.565 23.7624V14.2316C199.408 13.2361 200.399 12.2809 202.008 12.2809C202.911 12.2809 203.617 12.5718 204.132 13.1534C204.644 13.735 204.902 14.598 204.902 15.7376V23.7624C204.902 24.5001 204.833 25.0533 204.7 25.4198C204.567 25.7887 204.333 26.0605 204.003 26.2402C203.673 26.4176 203.169 26.5547 202.484 26.6493V27.1482H211.893V26.6493C211.087 26.5547 210.495 26.4176 210.118 26.2402C209.732 26.063 209.473 25.7911 209.325 25.4221ZM182.736 25.6113C177.337 25.6468 173.055 21.4193 173.055 14.5602C173.055 7.31095 177.043 3.08342 181.605 3.08342C186.166 3.08342 188.122 7.08633 189.12 11.0183L189.851 11.0065V3.77145C188.137 2.84698 185.326 1.80428 181.24 1.80428C173.36 1.80428 167.413 7.41971 167.413 14.9172C167.413 22.06 172.375 27.7085 180.912 27.6731C185.62 27.6376 188.902 24.902 190.469 22.8048L189.96 22.2728C188.902 23.4456 186.784 25.5759 182.736 25.6113ZM237.086 17.239L234.561 16.0616C232.884 15.331 231.926 14.3639 231.926 13.1746C231.926 11.827 233.192 10.9048 234.964 10.9048C237.545 10.9048 238.883 12.2951 239.437 15.3853H240.198V10.893C239.441 10.6069 237.441 9.93069 235.404 9.93069C231.376 9.93069 228.924 12.3967 228.924 15.2435C228.924 16.3382 229.223 17.2934 229.82 18.1138C230.418 18.9343 231.316 19.6412 232.51 20.2347L235.146 21.5185C236.95 22.3201 237.674 23.1098 237.674 24.2991C237.674 25.6137 236.586 26.6421 234.526 26.6421C231.513 26.6421 230.08 23.8593 229.687 21.6249H228.924V26.2237C230.073 26.9473 232.233 27.6139 234.234 27.6139C238.093 27.6139 240.786 25.311 240.786 22.053C240.783 19.7051 239.497 18.2368 237.086 17.239ZM36.9783 16.3476V22.7292C36.9783 23.7269 37.1239 24.493 37.4177 25.0297C37.7113 25.5641 38.1993 25.9518 38.8815 26.1883C39.5637 26.427 40.6026 26.5807 41.9936 26.6516V27.1506H27.8264V26.6516C29.0207 26.5807 29.9189 26.427 30.5162 26.1883C31.1133 25.9518 31.5358 25.5711 31.7785 25.0463C32.0213 24.5238 32.145 23.7506 32.145 22.7292V6.89955C32.145 3.63906 30.6326 2.97702 28.3362 2.97702C25.8164 2.97702 24.2749 3.63669 24.2749 6.79315V24.5048C24.2749 28.5077 21.6046 32.3144 16.332 32.3144C15.9241 32.3144 15.5212 32.2907 15.123 32.2458V31.8179C16.3756 31.7445 17.3904 31.3308 18.1623 30.5671C19.0169 29.723 19.4441 28.3399 19.4441 26.4128V6.79079C19.4441 5.79301 19.3227 5.02458 19.0775 4.49023C18.8324 3.95588 18.4051 3.57049 17.7958 3.33168C17.1865 3.09524 16.2955 2.9392 15.123 2.86826V2.36938H40.1389C45.8291 2.36938 49.3515 5.14044 49.3515 9.32304C49.3515 14.111 44.5231 16.3476 40.2069 16.3476H36.9783ZM36.9783 15.3901H38.7236C41.6925 15.3901 44.1906 13.6972 44.1906 9.35851C44.1906 4.05518 40.5953 3.32695 38.8135 3.32695H36.9783V15.3901ZM145.75 25.7271C146.354 25.7271 146.885 25.4695 147.223 25.2472V26.0937C146.549 26.7084 145.296 27.6021 143.412 27.6021C141.824 27.6021 140.491 26.6209 140.137 25.1243H140.042C139.424 26.2639 137.532 27.7038 135.469 27.7038C132.992 27.7038 131.17 26.0961 131.17 23.6512C131.17 21.7408 132.512 20.4688 134.745 19.698L140.042 17.8396V15.4444C140.042 13.2668 138.426 12.2619 136.673 12.2619C134.884 12.2619 133.233 12.9997 131.515 14.7068L131 14.2386C132.512 11.86 134.92 9.91651 138.395 9.91651C141.696 9.91651 144.344 12.0279 144.31 15.4444L144.242 23.987C144.237 25.1904 144.754 25.7271 145.75 25.7271ZM140.042 18.9555L137.911 19.7973C136.26 20.4333 135.195 21.171 135.195 22.8781C135.195 24.318 136.227 25.3229 137.671 25.3229C138.428 25.3229 139.528 24.7531 140.045 24.117V18.9555H140.042ZM226.565 25.7271C227.172 25.7271 227.702 25.4671 228.042 25.2472V26.0937C227.366 26.7084 226.114 27.6045 224.227 27.6045C222.639 27.6045 221.307 26.6233 220.953 25.1266H220.857C220.239 26.2663 218.348 27.7061 216.284 27.7061C213.809 27.7061 211.985 26.0984 211.985 23.6536C211.985 21.7432 213.328 20.4712 215.562 19.7003L220.857 17.8419V15.4444C220.857 13.2668 219.241 12.2619 217.489 12.2619C215.699 12.2619 214.049 12.9997 212.33 14.7068L211.813 14.2386C213.325 11.86 215.734 9.91651 219.207 9.91651C222.509 9.91651 225.158 12.0279 225.123 15.4444L225.055 23.987C225.052 25.1904 225.567 25.7271 226.565 25.7271ZM220.855 18.9555L218.724 19.7973C217.073 20.4333 216.008 21.171 216.008 22.8781C216.008 24.318 217.039 25.3229 218.484 25.3229C219.241 25.3229 220.341 24.7531 220.857 24.117V18.9555H220.855ZM126.822 11.1011C128.388 12.2903 129.079 14.0022 129.079 15.4633C129.079 19.3008 125.713 21.2892 121.879 21.2892C120.869 21.2892 119.894 21.1497 119.003 20.8754C118.508 21.2467 118.083 21.7313 118.083 22.2989C118.083 23.5189 120.124 23.7648 121.343 23.8333L125.499 24.1124C128.83 24.3227 130.942 25.4719 130.942 28.3682C130.942 32.0307 126.494 35.0665 120.018 35.0665C116.257 35.0665 113.57 33.8111 113.57 31.5767C113.57 29.6355 114.667 28.5243 117.489 27.2049C115.643 26.6824 115.215 25.6113 115.215 24.5639C115.215 23.1311 116.529 21.8449 118.309 20.6248C116.177 19.75 114.679 18.0169 114.679 15.4586C114.679 11.6212 118.047 9.63279 121.879 9.63279C123.642 9.63279 125.045 10.0229 126.125 10.6353C126.931 9.05824 128.521 7.22346 131.371 7.22346V10.4981C129.849 10.0395 127.992 10.2783 126.822 11.1011ZM116.578 30.0469C116.578 32.0709 118.942 32.9764 122.023 32.9764C124.96 32.9764 128.934 31.6854 128.934 29.626C128.934 28.4391 128.255 28.1601 126.463 28.0207L119.265 27.5005C118.842 27.4698 118.462 27.4225 118.119 27.3586C117.082 28.1459 116.578 28.9546 116.578 30.0469ZM124.637 15.4657C124.637 12.1863 123.528 10.6164 121.879 10.6164C120.232 10.6164 119.122 12.1863 119.122 15.4657C119.122 18.7452 120.232 20.3151 121.879 20.3151C123.528 20.3151 124.637 18.7452 124.637 15.4657Z" fill="#323131"/>
</svg>
