<svg width="273" height="38" viewBox="0 0 273 38" fill="none" xmlns="http://www.w3.org/2000/svg">
<path d="M80.0648 25.7674C80.6742 26.0061 81.5772 26.1598 82.7741 26.2307V26.7297H69.2672V26.2307C70.4615 26.1598 71.3669 26.0061 71.9763 25.7674C72.5856 25.5309 73.0079 25.1502 73.2386 24.6254C73.4692 24.1029 73.5857 23.3297 73.5857 22.3083V6.40535H73.4766L64.2154 27.193H64.1062L54.1848 6.47865H54.0755V22.3083C54.0755 23.3297 54.1969 24.1029 54.4421 24.6254C54.6849 25.1479 55.1073 25.5285 55.7044 25.7674C56.3016 26.0061 57.1998 26.1598 58.3941 26.2307V26.7297H48.0892V26.2307C49.2835 26.1598 50.1817 26.0061 50.779 25.7674C51.3761 25.5309 51.7985 25.1502 52.0413 24.6254C52.284 24.1029 52.4078 23.3297 52.4078 22.3083V6.36989C52.4078 5.34847 52.2864 4.57532 52.0413 4.05278C51.7961 3.53025 51.3761 3.14959 50.779 2.91078C50.1793 2.67435 49.2835 2.5183 48.0892 2.44736V1.94848H57.3333L65.7763 19.9013L73.9644 1.94848H82.7741V2.44736C81.5772 2.5183 80.6742 2.67435 80.0648 2.91078C79.4556 3.14959 79.0283 3.53498 78.7832 4.06934C78.5379 4.60368 78.4166 5.36975 78.4166 6.36989V22.3083C78.4166 23.3297 78.5379 24.1029 78.7832 24.6254C79.0283 25.1502 79.4556 25.5285 80.0648 25.7674ZM98.4171 13.7515C99.1721 15.1064 99.5508 16.6384 99.5508 18.3502C99.5508 20.0621 99.1721 21.5942 98.4171 22.949C97.6598 24.3038 96.6062 25.3512 95.2517 26.0866C93.8971 26.8242 92.3532 27.193 90.6199 27.193C88.8866 27.193 87.35 26.8242 86.0075 26.0866C84.6651 25.3512 83.6091 24.3038 82.842 22.949C82.0724 21.5942 81.689 20.0621 81.689 18.3502C81.689 16.6384 82.0724 15.1064 82.842 13.7515C83.6115 12.3967 84.6651 11.3516 86.0075 10.614C87.35 9.87627 88.8866 9.50743 90.6199 9.50743C92.3532 9.50743 93.8971 9.87627 95.2517 10.614C96.6062 11.3516 97.6598 12.3967 98.4171 13.7515ZM94.7564 18.3502C94.7564 16.6621 94.5913 15.2128 94.2612 13.9998C93.9311 12.7868 93.4553 11.8671 92.8338 11.2358C92.2123 10.6069 91.472 10.29 90.6199 10.29C89.7654 10.29 89.0274 10.6045 88.406 11.2358C87.7845 11.8671 87.3087 12.7868 86.9786 13.9998C86.6484 15.2128 86.4833 16.6621 86.4833 18.3502C86.4833 20.0384 86.6484 21.4878 86.9786 22.7008C87.3087 23.9136 87.7845 24.8334 88.406 25.4647C89.0274 26.096 89.7654 26.4105 90.6199 26.4105C91.4743 26.4105 92.2123 26.096 92.8338 25.4647C93.4553 24.8358 93.9311 23.9136 94.2612 22.7008C94.5913 21.4878 94.7564 20.0384 94.7564 18.3502ZM111.963 13.3236C112.596 13.3236 113.171 13.43 113.684 13.6451V9.72259C113.366 9.58072 112.99 9.5098 112.551 9.5098C111.426 9.5098 110.434 9.99213 109.567 10.9544C108.7 11.9167 108.025 13.0233 107.399 15.2268H107.317V9.65166H107.171L99.9222 11.685V12.1485C100.752 12.1485 101.393 12.2265 101.845 12.3802C102.296 12.5339 102.619 12.7844 102.816 13.1297C103.01 13.4749 103.11 13.943 103.11 14.5388V23.3816C103.11 24.1194 103.037 24.6655 102.891 25.0226C102.745 25.3795 102.476 25.6468 102.085 25.824C101.694 26.0014 101.073 26.1385 100.218 26.2331V26.732H110.395V26.2331C109.54 26.1622 108.899 26.0368 108.472 25.8596C108.045 25.6822 107.746 25.4079 107.576 25.0391C107.406 24.6703 107.319 24.1169 107.319 23.3816V16.3737C108.086 14.6168 109.776 13.3236 111.963 13.3236ZM165.381 25.0012C165.235 24.6324 165.162 24.0815 165.162 23.3439V15.2128C165.162 11.3942 162.992 9.50743 160.147 9.50743C157.303 9.50743 155.475 11.4699 154.693 12.515H154.62V9.65166H154.475L147.225 11.685V12.1485C148.031 12.1485 148.665 12.2265 149.128 12.3802C149.593 12.5339 149.923 12.7774 150.117 13.1108C150.311 13.4442 150.41 13.9076 150.41 14.501V23.3415C150.41 24.0792 150.338 24.6324 150.192 24.9989C150.047 25.3678 149.777 25.6396 149.386 25.8193C148.995 25.9967 148.373 26.1338 147.52 26.2284V26.7273H157.037V26.2284C156.38 26.1338 155.873 25.9967 155.518 25.8193C155.164 25.6421 154.925 25.3678 154.805 24.9989C154.683 24.6301 154.622 24.0792 154.622 23.3415V13.8107C155.465 12.8152 156.455 11.86 158.064 11.86C160.276 11.86 160.956 13.4843 160.956 15.319V23.3415C160.956 24.0792 160.888 24.6324 160.754 24.9989C160.621 25.3678 160.388 25.6396 160.058 25.8193C159.728 25.9967 159.222 26.1338 158.538 26.2284V26.7273H167.947V26.2284C167.141 26.1338 166.549 25.9967 166.173 25.8193C165.789 25.6421 165.529 25.3702 165.381 25.0012ZM257.878 21.8093C257.069 23.5283 254.814 27.193 250.226 27.193C245.869 27.193 242.247 23.7222 242.247 18.4945C242.247 16.8536 242.614 15.3451 243.344 13.9667C244.078 12.5882 245.07 11.5006 246.328 10.7038C247.585 9.90701 248.969 9.5098 250.484 9.5098C254.88 9.5098 257.073 12.5267 257.073 15.6714V16.3807H246.165C246.165 16.4445 246.163 16.506 246.163 16.5699C246.163 20.3529 247.892 23.987 252.239 23.987C255.546 23.987 256.929 22.2042 257.473 21.5635L257.878 21.8093ZM246.24 15.1772H253.081C253.035 12.593 252.243 10.3373 250.081 10.3279C248.052 10.3208 246.581 12.165 246.24 15.1772ZM209.325 25.0012C209.179 24.6324 209.107 24.0815 209.107 23.3439V15.2128C209.107 13.9761 208.893 12.9311 208.466 12.0752C208.038 11.2193 207.445 10.5785 206.69 10.1505C205.933 9.72258 205.067 9.5098 204.091 9.5098C202.967 9.5098 201.974 9.78879 201.107 10.3468C200.241 10.9048 199.418 11.7087 198.636 12.7537H198.563V1.11621H198.418L191.169 3.14959V3.61301C191.975 3.61301 192.608 3.69104 193.073 3.84471C193.536 3.9984 193.866 4.24193 194.06 4.57532C194.254 4.90869 194.353 5.37211 194.353 5.96557V23.3415C194.353 24.0792 194.281 24.6324 194.135 24.9989C193.99 25.3678 193.72 25.6396 193.33 25.8193C192.938 25.9967 192.317 26.1338 191.463 26.2284V26.7273H200.982V26.2284C200.323 26.1338 199.816 25.9967 199.461 25.8193C199.107 25.6421 198.87 25.3678 198.748 24.9989C198.627 24.6301 198.565 24.0792 198.565 23.3415V13.8107C199.408 12.8152 200.399 11.86 202.008 11.86C202.911 11.86 203.617 12.1509 204.132 12.7325C204.644 13.3141 204.902 14.1771 204.902 15.3167V23.3415C204.902 24.0792 204.833 24.6324 204.7 24.9989C204.567 25.3678 204.333 25.6396 204.003 25.8193C203.673 25.9967 203.169 26.1338 202.484 26.2284V26.7273H211.893V26.2284C211.087 26.1338 210.495 25.9967 210.118 25.8193C209.732 25.6421 209.473 25.3702 209.325 25.0012ZM182.736 25.1904C177.337 25.2259 173.055 20.9984 173.055 14.1393C173.055 6.89005 177.043 2.66252 181.605 2.66252C186.166 2.66252 188.122 6.66543 189.12 10.5974L189.851 10.5856V3.35056C188.137 2.42608 185.326 1.38338 181.24 1.38338C173.36 1.38338 167.413 6.99881 167.413 14.4963C167.413 21.6391 172.375 27.2876 180.912 27.2522C185.62 27.2167 188.902 24.4811 190.469 22.3839L189.96 21.8519C188.902 23.0247 186.784 25.155 182.736 25.1904ZM237.086 16.8181L234.561 15.6407C232.884 14.9101 231.926 13.943 231.926 12.7537C231.926 11.4061 233.192 10.4839 234.964 10.4839C237.545 10.4839 238.883 11.8742 239.437 14.9644H240.198V10.4721C239.441 10.186 237.441 9.5098 235.404 9.5098C231.376 9.5098 228.924 11.9758 228.924 14.8226C228.924 15.9173 229.223 16.8725 229.82 17.6929C230.418 18.5134 231.316 19.2203 232.51 19.8138L235.146 21.0976C236.95 21.8992 237.674 22.6889 237.674 23.8782C237.674 25.1928 236.586 26.2212 234.526 26.2212C231.513 26.2212 230.08 23.4384 229.687 21.204H228.924V25.8028C230.073 26.5264 232.233 27.193 234.234 27.193C238.093 27.193 240.786 24.8901 240.786 21.6321C240.783 19.2842 239.497 17.8159 237.086 16.8181ZM36.9783 15.9267V22.3083C36.9783 23.306 37.1239 24.0721 37.4177 24.6088C37.7113 25.1432 38.1993 25.5309 38.8815 25.7674C39.5637 26.0061 40.6026 26.1598 41.9936 26.2307V26.7297H27.8264V26.2307C29.0207 26.1598 29.9189 26.0061 30.5162 25.7674C31.1133 25.5309 31.5358 25.1502 31.7785 24.6254C32.0213 24.1029 32.145 23.3297 32.145 22.3083V6.47865C32.145 3.21816 30.6326 2.55612 28.3362 2.55612C25.8164 2.55612 24.2749 3.21579 24.2749 6.37225V24.0839C24.2749 28.0868 21.6046 31.8935 16.332 31.8935C15.9241 31.8935 15.5212 31.8698 15.123 31.8249V31.397C16.3756 31.3236 17.3904 30.9099 18.1623 30.1462C19.0169 29.3022 19.4441 27.919 19.4441 25.9919V6.36989C19.4441 5.37211 19.3227 4.60368 19.0775 4.06934C18.8324 3.53498 18.4051 3.14959 17.7958 2.91078C17.1865 2.67435 16.2955 2.5183 15.123 2.44736V1.94848H40.1389C45.8291 1.94848 49.3515 4.71954 49.3515 8.90214C49.3515 13.6901 44.5231 15.9267 40.2069 15.9267H36.9783ZM36.9783 14.9692H38.7236C41.6925 14.9692 44.1906 13.2763 44.1906 8.93762C44.1906 3.63428 40.5953 2.90606 38.8135 2.90606H36.9783V14.9692ZM145.75 25.3062C146.354 25.3062 146.885 25.0486 147.223 24.8263V25.6728C146.549 26.2875 145.296 27.1812 143.412 27.1812C141.824 27.1812 140.491 26.2 140.137 24.7034H140.042C139.424 25.843 137.532 27.2829 135.469 27.2829C132.992 27.2829 131.17 25.6752 131.17 23.2303C131.17 21.3199 132.512 20.0479 134.745 19.2771L140.042 17.4187V15.0235C140.042 12.8459 138.426 11.841 136.673 11.841C134.884 11.841 133.233 12.5788 131.515 14.2859L131 13.8177C132.512 11.4391 134.92 9.49561 138.395 9.49561C141.696 9.49561 144.344 11.607 144.31 15.0235L144.242 23.5661C144.237 24.7695 144.754 25.3062 145.75 25.3062ZM140.042 18.5346L137.911 19.3764C136.26 20.0124 135.195 20.7501 135.195 22.4572C135.195 23.8971 136.227 24.902 137.671 24.902C138.428 24.902 139.528 24.3322 140.045 23.6961V18.5346H140.042ZM226.565 25.3062C227.172 25.3062 227.702 25.0462 228.042 24.8263V25.6728C227.366 26.2875 226.114 27.1837 224.227 27.1837C222.639 27.1837 221.307 26.2024 220.953 24.7057H220.857C220.239 25.8454 218.348 27.2852 216.284 27.2852C213.809 27.2852 211.985 25.6775 211.985 23.2327C211.985 21.3223 213.328 20.0503 215.562 19.2794L220.857 17.421V15.0235C220.857 12.8459 219.241 11.841 217.489 11.841C215.699 11.841 214.049 12.5788 212.33 14.2859L211.813 13.8177C213.325 11.4391 215.734 9.49561 219.207 9.49561C222.509 9.49561 225.158 11.607 225.123 15.0235L225.055 23.5661C225.052 24.7695 225.567 25.3062 226.565 25.3062ZM220.855 18.5346L218.724 19.3764C217.073 20.0124 216.008 20.7501 216.008 22.4572C216.008 23.8971 217.039 24.902 218.484 24.902C219.241 24.902 220.341 24.3322 220.857 23.6961V18.5346H220.855ZM126.822 10.6802C128.388 11.8694 129.079 13.5813 129.079 15.0424C129.079 18.8799 125.713 20.8683 121.879 20.8683C120.869 20.8683 119.894 20.7288 119.003 20.4545C118.508 20.8258 118.083 21.3104 118.083 21.878C118.083 23.098 120.124 23.3439 121.343 23.4124L125.499 23.6915C128.83 23.9018 130.942 25.051 130.942 27.9473C130.942 31.6098 126.494 34.6456 120.018 34.6456C116.257 34.6456 113.57 33.3902 113.57 31.1558C113.57 29.2146 114.667 28.1034 117.489 26.784C115.643 26.2615 115.215 25.1904 115.215 24.143C115.215 22.7102 116.529 21.424 118.309 20.2039C116.177 19.3291 114.679 17.596 114.679 15.0377C114.679 11.2003 118.047 9.21189 121.879 9.21189C123.642 9.21189 125.045 9.602 126.125 10.2144C126.931 8.63734 128.521 6.80256 131.371 6.80256V10.0772C129.849 9.61855 127.992 9.85736 126.822 10.6802ZM116.578 29.626C116.578 31.65 118.942 32.5555 122.023 32.5555C124.96 32.5555 128.934 31.2645 128.934 29.2051C128.934 28.0182 128.255 27.7392 126.463 27.5998L119.265 27.0796C118.842 27.0489 118.462 27.0016 118.119 26.9377C117.082 27.725 116.578 28.5337 116.578 29.626ZM124.637 15.0448C124.637 11.7654 123.528 10.1955 121.879 10.1955C120.232 10.1955 119.122 11.7654 119.122 15.0448C119.122 18.3243 120.232 19.8942 121.879 19.8942C123.528 19.8942 124.637 18.3243 124.637 15.0448Z" fill="white"/>
</svg>
