<svg width="243" height="34" viewBox="0 0 243 34" fill="none" xmlns="http://www.w3.org/2000/svg">
<path d="M65.0648 25.1004C65.6742 25.3391 66.5772 25.4928 67.7741 25.5638V26.0627H54.2672V25.5638C55.4615 25.4928 56.3669 25.3391 56.9763 25.1004C57.5856 24.8639 58.0079 24.4832 58.2386 23.9584C58.4692 23.4359 58.5857 22.6627 58.5857 21.6413V5.73836H58.4766L49.2154 26.526H49.1062L39.1848 5.81166H39.0755V21.6413C39.0755 22.6627 39.1969 23.4359 39.4421 23.9584C39.6849 24.4809 40.1073 24.8615 40.7044 25.1004C41.3016 25.3391 42.1998 25.4928 43.3941 25.5638V26.0627H33.0892V25.5638C34.2835 25.4928 35.1817 25.3391 35.779 25.1004C36.3761 24.8639 36.7985 24.4832 37.0413 23.9584C37.284 23.4359 37.4078 22.6627 37.4078 21.6413V5.7029C37.4078 4.68148 37.2864 3.90833 37.0413 3.38579C36.7961 2.86326 36.3761 2.4826 35.779 2.24379C35.1793 2.00735 34.2835 1.85131 33.0892 1.78037V1.28149H42.3333L50.7763 19.2343L58.9644 1.28149H67.7741V1.78037C66.5772 1.85131 65.6742 2.00735 65.0648 2.24379C64.4556 2.4826 64.0283 2.86799 63.7832 3.40234C63.5379 3.93669 63.4166 4.70276 63.4166 5.7029V21.6413C63.4166 22.6627 63.5379 23.4359 63.7832 23.9584C64.0283 24.4832 64.4556 24.8615 65.0648 25.1004ZM83.4171 13.0846C84.1721 14.4394 84.5508 15.9714 84.5508 17.6832C84.5508 19.3951 84.1721 20.9272 83.4171 22.282C82.6598 23.6368 81.6062 24.6842 80.2517 25.4196C78.8971 26.1572 77.3532 26.526 75.6199 26.526C73.8866 26.526 72.35 26.1572 71.0075 25.4196C69.6651 24.6842 68.6091 23.6368 67.842 22.282C67.0724 20.9272 66.689 19.3951 66.689 17.6832C66.689 15.9714 67.0724 14.4394 67.842 13.0846C68.6115 11.7297 69.6651 10.6846 71.0075 9.94697C72.35 9.20928 73.8866 8.84043 75.6199 8.84043C77.3532 8.84043 78.8971 9.20928 80.2517 9.94697C81.6062 10.6846 82.6598 11.7297 83.4171 13.0846ZM79.7564 17.6832C79.7564 15.9951 79.5913 14.5458 79.2612 13.3328C78.9311 12.1198 78.4553 11.2001 77.8338 10.5688C77.2123 9.93988 76.472 9.62306 75.6199 9.62306C74.7654 9.62306 74.0274 9.93752 73.406 10.5688C72.7845 11.2001 72.3087 12.1198 71.9786 13.3328C71.6484 14.5458 71.4833 15.9951 71.4833 17.6832C71.4833 19.3714 71.6484 20.8208 71.9786 22.0338C72.3087 23.2466 72.7845 24.1664 73.406 24.7977C74.0274 25.429 74.7654 25.7435 75.6199 25.7435C76.4743 25.7435 77.2123 25.429 77.8338 24.7977C78.4553 24.1688 78.9311 23.2466 79.2612 22.0338C79.5913 20.8208 79.7564 19.3714 79.7564 17.6832ZM96.9629 12.6566C97.5965 12.6566 98.1715 12.763 98.6838 12.9782V9.05559C98.3661 8.91373 97.9903 8.8428 97.5506 8.8428C96.4265 8.8428 95.4335 9.32514 94.5669 10.2874C93.7003 11.2497 93.0254 12.3563 92.3991 14.5598H92.3166V8.98467H92.171L84.9222 11.018V11.4815C85.7525 11.4815 86.3934 11.5595 86.8449 11.7132C87.2964 11.8669 87.6192 12.1175 87.8159 12.4627C88.0101 12.8079 88.1097 13.276 88.1097 13.8718V22.7146C88.1097 23.4524 88.0367 23.9985 87.8911 24.3556C87.7454 24.7126 87.4761 24.9798 87.0852 25.157C86.6943 25.3344 86.0729 25.4715 85.2184 25.5661V26.065H95.3947V25.5661C94.5402 25.4952 93.8993 25.3698 93.4721 25.1926C93.0449 25.0152 92.7462 24.7409 92.5763 24.3721C92.4063 24.0033 92.319 23.4499 92.319 22.7146V15.7067C93.0861 13.9498 94.7757 12.6566 96.9629 12.6566ZM150.381 24.3342C150.235 23.9654 150.162 23.4145 150.162 22.6769V14.5458C150.162 10.7272 147.992 8.84043 145.147 8.84043C142.303 8.84043 140.475 10.8029 139.693 11.848H139.62V8.98467H139.475L132.225 11.018V11.4815C133.031 11.4815 133.665 11.5595 134.128 11.7132C134.593 11.8669 134.923 12.1104 135.117 12.4438C135.311 12.7772 135.41 13.2406 135.41 13.834V22.6745C135.41 23.4122 135.338 23.9654 135.192 24.3319C135.047 24.7008 134.777 24.9726 134.386 25.1523C133.995 25.3297 133.373 25.4669 132.52 25.5614V26.0603H142.037V25.5614C141.38 25.4669 140.873 25.3297 140.518 25.1523C140.164 24.9751 139.925 24.7008 139.805 24.3319C139.683 23.9631 139.622 23.4122 139.622 22.6745V13.1437C140.465 12.1482 141.455 11.193 143.064 11.193C145.276 11.193 145.956 12.8173 145.956 14.6521V22.6745C145.956 23.4122 145.888 23.9654 145.754 24.3319C145.621 24.7008 145.388 24.9726 145.058 25.1523C144.728 25.3297 144.222 25.4669 143.538 25.5614V26.0603H152.947V25.5614C152.141 25.4669 151.549 25.3297 151.173 25.1523C150.789 24.9751 150.529 24.7032 150.381 24.3342ZM242.878 21.1423C242.069 22.8613 239.814 26.526 235.226 26.526C230.869 26.526 227.247 23.0552 227.247 17.8275C227.247 16.1866 227.614 14.6781 228.344 13.2997C229.078 11.9212 230.07 10.8336 231.328 10.0368C232.585 9.24002 233.969 8.8428 235.484 8.8428C239.88 8.8428 242.073 11.8597 242.073 15.0044V15.7137H231.165C231.165 15.7775 231.163 15.839 231.163 15.9029C231.163 19.6859 232.892 23.32 237.239 23.32C240.546 23.32 241.929 21.5372 242.473 20.8965L242.878 21.1423ZM231.24 14.5102H238.081C238.035 11.926 237.243 9.67034 235.081 9.66088C233.052 9.65379 231.581 11.4981 231.24 14.5102ZM194.325 24.3342C194.179 23.9654 194.107 23.4145 194.107 22.6769V14.5458C194.107 13.3091 193.893 12.2641 193.466 11.4082C193.038 10.5523 192.445 9.91151 191.69 9.48355C190.933 9.05559 190.067 8.8428 189.091 8.8428C187.967 8.8428 186.974 9.1218 186.107 9.6798C185.241 10.2378 184.418 11.0417 183.636 12.0867H183.563V0.449219H183.418L176.169 2.4826V2.94602C176.975 2.94602 177.608 3.02404 178.073 3.17772C178.536 3.33141 178.866 3.57494 179.06 3.90832C179.254 4.2417 179.353 4.70512 179.353 5.29858V22.6745C179.353 23.4122 179.281 23.9654 179.135 24.3319C178.99 24.7008 178.72 24.9726 178.33 25.1523C177.938 25.3297 177.317 25.4669 176.463 25.5614V26.0603H185.982V25.5614C185.323 25.4669 184.816 25.3297 184.461 25.1523C184.107 24.9751 183.87 24.7008 183.748 24.3319C183.627 23.9631 183.565 23.4122 183.565 22.6745V13.1437C184.408 12.1482 185.399 11.193 187.008 11.193C187.911 11.193 188.617 11.4839 189.132 12.0655C189.644 12.6471 189.902 13.5102 189.902 14.6497V22.6745C189.902 23.4122 189.833 23.9654 189.7 24.3319C189.567 24.7008 189.333 24.9726 189.003 25.1523C188.673 25.3297 188.169 25.4669 187.484 25.5614V26.0603H196.893V25.5614C196.087 25.4669 195.495 25.3297 195.118 25.1523C194.732 24.9751 194.473 24.7032 194.325 24.3342ZM167.736 24.5234C162.337 24.5589 158.055 20.3314 158.055 13.4723C158.055 6.22306 162.043 1.99553 166.605 1.99553C171.166 1.99553 173.122 5.99844 174.12 9.93042L174.851 9.9186V2.68356C173.137 1.75909 170.326 0.716392 166.24 0.716392C158.36 0.716392 152.413 6.33182 152.413 13.8294C152.413 20.9721 157.375 26.6206 165.912 26.5852C170.62 26.5497 173.902 23.8141 175.469 21.7169L174.96 21.1849C173.902 22.3577 171.784 24.488 167.736 24.5234ZM222.086 16.1512L219.561 14.9737C217.884 14.2431 216.926 13.276 216.926 12.0867C216.926 10.7391 218.192 9.81693 219.964 9.81693C222.545 9.81693 223.883 11.2072 224.437 14.2974H225.198V9.80511C224.441 9.51901 222.441 8.8428 220.404 8.8428C216.376 8.8428 213.924 11.3088 213.924 14.1556C213.924 15.2503 214.223 16.2055 214.82 17.0259C215.418 17.8464 216.316 18.5533 217.51 19.1468L220.146 20.4306C221.95 21.2322 222.674 22.0219 222.674 23.2112C222.674 24.5258 221.586 25.5543 219.526 25.5543C216.513 25.5543 215.08 22.7714 214.687 20.537H213.924V25.1358C215.073 25.8594 217.233 26.526 219.234 26.526C223.093 26.526 225.786 24.2231 225.786 20.9651C225.783 18.6172 224.497 17.1489 222.086 16.1512ZM21.9783 15.2597V21.6413C21.9783 22.639 22.1239 23.4051 22.4177 23.9418C22.7113 24.4762 23.1993 24.8639 23.8815 25.1004C24.5637 25.3391 25.6026 25.4928 26.9936 25.5638V26.0627H12.8264V25.5638C14.0207 25.4928 14.9189 25.3391 15.5162 25.1004C16.1133 24.8639 16.5358 24.4832 16.7785 23.9584C17.0213 23.4359 17.145 22.6627 17.145 21.6413V5.81166C17.145 2.55117 15.6326 1.88913 13.3362 1.88913C10.8164 1.88913 9.27491 2.5488 9.27491 5.70526V23.4169C9.27491 27.4198 6.60461 31.2265 1.33201 31.2265C0.924139 31.2265 0.521188 31.2028 0.123047 31.1579V30.73C1.37564 30.6566 2.3904 30.2429 3.1623 29.4792C4.01686 28.6352 4.44409 27.252 4.44409 25.3249V5.7029C4.44409 4.70512 4.32271 3.93669 4.07749 3.40234C3.83239 2.86799 3.40505 2.4826 2.79581 2.24379C2.18647 2.00735 1.29554 1.85131 0.123047 1.78037V1.28149H25.1389C30.8291 1.28149 34.3515 4.05255 34.3515 8.23515C34.3515 13.0231 29.5231 15.2597 25.2069 15.2597H21.9783ZM21.9783 14.3022H23.7236C26.6925 14.3022 29.1906 12.6093 29.1906 8.27062C29.1906 2.96729 25.5953 2.23906 23.8135 2.23906H21.9783V14.3022ZM130.75 24.6392C131.354 24.6392 131.885 24.3816 132.223 24.1593V25.0058C131.549 25.6205 130.296 26.5142 128.412 26.5142C126.824 26.5142 125.491 25.533 125.137 24.0364H125.042C124.424 25.176 122.532 26.6159 120.469 26.6159C117.992 26.6159 116.17 25.0082 116.17 22.5633C116.17 20.6529 117.512 19.3809 119.745 18.6101L125.042 16.7517V14.3565C125.042 12.1789 123.426 11.174 121.673 11.174C119.884 11.174 118.233 11.9118 116.515 13.6189L116 13.1507C117.512 10.7721 119.92 8.82862 123.395 8.82862C126.696 8.82862 129.344 10.94 129.31 14.3565L129.242 22.8991C129.237 24.1025 129.754 24.6392 130.75 24.6392ZM125.042 17.8676L122.911 18.7094C121.26 19.3454 120.195 20.0831 120.195 21.7902C120.195 23.2301 121.227 24.235 122.671 24.235C123.428 24.235 124.528 23.6652 125.045 23.0292V17.8676H125.042ZM211.565 24.6392C212.172 24.6392 212.702 24.3792 213.042 24.1593V25.0058C212.366 25.6205 211.114 26.5167 209.227 26.5167C207.639 26.5167 206.307 25.5354 205.953 24.0387H205.857C205.239 25.1784 203.348 26.6183 201.284 26.6183C198.809 26.6183 196.985 25.0105 196.985 22.5657C196.985 20.6553 198.328 19.3833 200.562 18.6124L205.857 16.754V14.3565C205.857 12.1789 204.241 11.174 202.489 11.174C200.699 11.174 199.049 11.9118 197.33 13.6189L196.813 13.1507C198.325 10.7721 200.734 8.82862 204.207 8.82862C207.509 8.82862 210.158 10.94 210.123 14.3565L210.055 22.8991C210.052 24.1025 210.567 24.6392 211.565 24.6392ZM205.855 17.8676L203.724 18.7094C202.073 19.3454 201.008 20.0831 201.008 21.7902C201.008 23.2301 202.039 24.235 203.484 24.235C204.241 24.235 205.341 23.6652 205.857 23.0292V17.8676H205.855ZM111.822 10.0132C113.388 11.2024 114.079 12.9143 114.079 14.3754C114.079 18.2129 110.713 20.2013 106.879 20.2013C105.869 20.2013 104.894 20.0618 104.003 19.7875C103.508 20.1588 103.083 20.6434 103.083 21.211C103.083 22.431 105.124 22.6769 106.343 22.7454L110.499 23.0245C113.83 23.2348 115.942 24.384 115.942 27.2803C115.942 30.9428 111.494 33.9786 105.018 33.9786C101.257 33.9786 98.5697 32.7232 98.5697 30.4888C98.5697 28.5476 99.6672 27.4364 102.489 26.117C100.643 25.5945 100.215 24.5234 100.215 23.476C100.215 22.0432 101.529 20.757 103.309 19.537C101.177 18.6621 99.6795 16.929 99.6795 14.3707C99.6795 10.5333 103.047 8.5449 106.879 8.5449C108.642 8.5449 110.045 8.93501 111.125 9.54739C111.931 7.97035 113.521 6.13557 116.371 6.13557V9.41026C114.849 8.95156 112.992 9.19037 111.822 10.0132ZM101.578 28.9591C101.578 30.983 103.942 31.8885 107.023 31.8885C109.96 31.8885 113.934 30.5975 113.934 28.5381C113.934 27.3512 113.255 27.0722 111.463 26.9328L104.265 26.4126C103.842 26.3819 103.462 26.3346 103.119 26.2707C102.082 27.058 101.578 27.8667 101.578 28.9591ZM109.637 14.3778C109.637 11.0984 108.528 9.52848 106.879 9.52848C105.232 9.52848 104.122 11.0984 104.122 14.3778C104.122 17.6573 105.232 19.2273 106.879 19.2273C108.528 19.2273 109.637 17.6573 109.637 14.3778Z" fill="#323131"/>
</svg>
