<svg width="187" height="52" viewBox="0 0 187 52" fill="none" xmlns="http://www.w3.org/2000/svg">
<path d="M0.518099 38.7703C0.518099 41.3127 1.71062 45.2347 5.55319 45.2347C9.39437 45.2347 10.5883 41.3127 10.5883 38.7717C10.5883 36.2294 9.39575 32.3073 5.55319 32.3073C1.71062 32.3073 0.518099 36.2348 0.518099 38.7717V38.7703ZM2.98458 38.7703C2.98458 36.1325 3.01079 32.9664 5.55457 32.9664C8.09695 32.9664 8.12318 36.1351 8.12318 38.7717C8.12318 41.4137 8.09695 44.6042 5.55595 44.6042C3.00803 44.6042 2.98458 41.4137 2.98458 38.7717V38.7703ZM13.2825 33.2189V44.3054H11.4523V44.9317H17.2244V44.304H15.4936V33.2189H17.557V32.5897H15.4936V29.7963C15.4936 28.287 15.6481 27.2853 16.8159 27.2853C17.6578 27.2853 17.9587 27.8858 17.9587 28.9652C17.9587 29.7677 18.2651 30.147 18.9759 30.147C19.5363 30.147 19.9186 29.7677 19.9186 29.0921C19.9186 27.1284 17.9849 26.6549 16.6889 26.6549C15.063 26.6549 13.2838 27.3576 13.2838 30.0979V32.5857H11.4523V33.2161H13.2838L13.2825 33.2189ZM24.5382 44.102C25.8605 44.8048 28.0731 45.1842 29.5485 45.1842C32.5505 45.1842 34.9135 43.8523 34.9135 40.0298C34.9135 33.2639 26.5492 35.1253 26.5492 30.6247C26.5492 28.6418 28.2524 27.2826 29.7542 27.2826C31.761 27.2826 33.3151 28.8138 33.6188 31.6809H34.3061L34.1792 27.733C33.006 27.1052 31.2807 26.6767 30.0095 26.6767C27.4933 26.6767 24.7964 28.186 24.7964 31.6304C24.7964 37.8423 33.1371 36.1106 33.1371 40.9592C33.1371 43.3747 31.4836 44.5796 29.6768 44.5796C26.9067 44.5796 25.227 42.691 25.049 39.5277H24.3879L24.5382 44.102ZM37.9223 44.3054H36.0397V44.9317H41.9692V44.304H40.11V32.5897H36.0383V33.2189H37.9223V44.3054ZM37.667 28.6896C37.667 29.5697 38.3019 30.2003 39.0141 30.2003C39.7015 30.2003 40.3626 29.5944 40.3626 28.6896C40.3626 27.7588 39.7277 27.1803 39.0141 27.1803C38.2523 27.1803 37.667 27.733 37.667 28.6896ZM42.1955 44.3054V44.9317H47.9677V44.304H46.2645V37.7673C46.2645 35.4269 47.2831 33.2175 49.29 33.2175C50.8165 33.2175 51.0208 34.5999 51.0208 35.9796V44.304H49.3162V44.9303H54.9365V44.3027H53.2333V35.8581C53.2333 33.3431 52.165 32.31 50.0532 32.31C48.2741 32.31 46.9753 33.2667 46.317 34.9779H46.2645V32.5897H42.1955V33.2434H44.0768V44.3081L42.1955 44.3054ZM60.249 32.3073C58.4188 32.3073 56.7143 33.7429 56.7143 36.1065C56.7143 37.2119 56.8688 37.8669 57.4512 38.7717C56.4064 39.2247 55.5162 40.1281 55.5162 41.6129C55.5162 43.0458 56.3567 44.1566 57.679 44.506V44.5551V44.5278C56.6356 44.7557 55.5672 45.4845 55.5672 46.9433C55.5672 49.9128 58.7708 50.4614 60.6272 50.4614C62.9666 50.4614 65.8141 49.3315 65.8141 45.9361C65.8141 43.1441 64.2364 42.0878 62.0488 42.0878H58.3111C57.0896 42.0878 56.3526 41.9104 56.3526 40.9851C56.3526 40.1309 57.3188 39.3994 57.9578 39.3994C58.6972 39.9048 59.5737 40.1773 60.4726 40.1814C62.5085 40.1814 64.1357 38.6216 64.1357 36.1556C64.143 35.3944 63.958 34.6434 63.5975 33.9708C63.5975 33.6679 63.9797 33.2175 64.2337 33.2175C64.9956 33.2175 64.2613 34.877 65.4069 34.877C65.9149 34.877 66.1937 34.3993 66.1937 33.7716C66.1937 32.8122 65.4828 32.3086 64.8259 32.3086C64.0874 32.3086 63.6002 32.7658 63.2193 33.3431C62.485 32.5611 61.3946 32.3073 60.249 32.3073ZM58.7721 36.0055C58.7721 34.4471 58.9005 32.9404 60.4767 32.9404C62.0543 32.9404 62.0543 34.9001 62.0543 36.333C62.0543 37.6649 61.926 39.5263 60.4008 39.5263C58.8508 39.5263 58.7721 37.3388 58.7721 36.0055ZM61.7755 44.5551C63.81 44.5551 64.9266 44.9058 64.9266 46.5953C64.9266 48.3776 63.1737 49.7858 60.9087 49.7858C58.6963 49.7858 57.1434 49.1076 57.1434 47.0661C57.1462 44.7325 58.7486 44.5551 61.7755 44.5551ZM73.3943 43.2955C73.749 44.8048 74.5909 44.9317 75.7835 44.9317H77.437V44.304C76.2155 44.304 75.7352 44.5265 75.7352 42.6201V35.9564C75.7352 33.8671 74.9995 32.3073 71.6401 32.3073C69.9092 32.3073 67.4703 32.864 67.4703 35.2767C67.4703 36.0328 67.901 36.2089 68.46 36.2089C69.1473 36.2089 69.5283 35.7995 69.5283 34.8988C69.5283 33.3158 70.5455 32.9404 71.6401 32.9404C73.0644 32.9404 73.5213 34.0704 73.5213 35.8008V36.8598C70.8009 37.8382 66.8575 37.8656 66.8575 41.6348C66.8575 43.926 67.647 45.2347 69.8803 45.2347C71.3074 45.2347 72.5551 44.8048 73.3943 43.2969V43.2955ZM73.5227 37.564V40.4816C73.5227 42.1928 72.6807 44.3777 70.8022 44.3777C69.6291 44.3777 69.3268 43.0977 69.3268 41.5638C69.3268 39.0992 70.2929 38.5479 71.5862 38.1425L73.5227 37.564ZM77.5902 50.4627H83.5901V49.835H81.7323V43.4988H81.7585C82.2416 44.7079 83.3348 45.2347 84.559 45.2347C87.9406 45.2347 89.3622 42.1656 89.3622 38.7717C89.3622 34.1441 87.2008 32.3073 84.9124 32.3073C83.488 32.3073 82.4445 32.7644 81.7585 34.3202H81.7323V32.5884H77.7131V33.242H79.5211V49.835H77.5875L77.5902 50.4627ZM81.6577 37.5913C81.6577 33.8657 83.2326 33.0892 84.2278 33.0892C86.2359 33.0892 86.9247 35.5593 86.9247 38.7717C86.9247 42.3689 85.9586 44.4527 84.2278 44.4527C82.0387 44.4527 81.6577 41.8395 81.6577 39.6505V37.5913ZM90.8888 38.7703C90.8888 41.3127 92.0826 45.2347 95.9266 45.2347C99.7663 45.2347 100.962 41.3127 100.962 38.7717C100.962 36.2294 99.7663 32.3073 95.9266 32.3073C92.0826 32.3073 90.8888 36.2348 90.8888 38.7717V38.7703ZM93.3565 38.7703C93.3565 36.1325 93.3829 32.9664 95.9266 32.9664C98.4692 32.9664 98.4956 36.1351 98.4956 38.7717C98.4956 41.4137 98.4692 44.6042 95.928 44.6042C93.3814 44.6042 93.3565 41.4137 93.3565 38.7717V38.7703ZM103.706 44.3054H101.824V44.9317H107.697V44.304H105.892V38.6474C105.892 35.9304 107.111 33.3431 108.307 33.3431C108.609 33.3431 108.841 33.5669 108.841 33.9231V35.1021C108.841 35.8827 109.273 36.1351 109.858 36.1351C110.622 36.1351 110.976 35.4064 110.976 34.5767C110.976 33.1165 110.185 32.3114 108.916 32.3114C107.261 32.3114 106.401 33.8698 105.941 35.3327H105.892V32.5897H101.82V33.2203H103.703L103.706 44.3054ZM120.996 37.9939C120.996 34.6258 119.293 32.3359 116.341 32.3359C113.189 32.3359 111.303 35.3805 111.303 38.7717C111.303 42.3171 112.602 45.2347 115.983 45.2347C118.398 45.2347 119.722 44.3518 120.661 41.4368L120.025 41.2635C119.441 42.9694 118.528 44.4568 116.669 44.4568C113.869 44.4568 113.77 41.9677 113.77 38.4455V37.9925H120.997L120.996 37.9939ZM113.773 37.2883C113.773 35.7326 114.253 32.9664 116.112 32.9664C118.3 32.9664 118.401 35.4815 118.401 37.2883H113.773ZM2.04325 19.7292H0.00878906V20.357H5.09495V19.7292H2.75408V3.43517H2.80651L8.57866 20.6599H9.0355L14.8103 3.43517H14.8601V19.7292H12.4447V20.357H19.2837V19.7292H17.3017V3.00666H19.2837V2.37891H14.4294L10.562 13.9198L9.69664 16.686L8.88505 13.9703L4.99281 2.37891H0.0101791V3.00666H2.04325V19.7292ZM20.3824 14.1996C20.3824 16.7378 21.5776 20.6599 25.4174 20.6599C29.2587 20.6599 30.4553 16.7378 30.4553 14.1996C30.4553 11.6573 29.2601 7.7393 25.4174 7.7393C21.579 7.7393 20.3824 11.6559 20.3824 14.1996ZM22.8488 14.1996C22.8488 11.5562 22.8764 8.39297 25.4188 8.39297C27.964 8.39297 27.9889 11.559 27.9889 14.1996C27.9889 16.8375 27.964 20.0335 25.4188 20.0335C22.8751 20.0335 22.8488 16.8402 22.8488 14.1996ZM31.3152 19.7292V20.3556H37.0873V19.7278H35.3841V13.1883C35.3841 10.8494 36.4013 8.63861 38.4096 8.63861C39.9362 8.63861 40.139 10.021 40.139 11.4061V19.7278H38.4358V20.3542H44.0533V19.7264H42.3529V11.2793C42.3529 8.76416 41.2846 7.73384 39.1729 7.73384C37.3923 7.73384 36.0949 8.68773 35.4352 10.4018H35.3841V8.01359H31.3152V8.66318H33.1951V19.7333H31.3152V19.7292ZM54.6065 13.4176C54.6065 10.0497 52.9062 7.75977 49.9511 7.75977C46.8014 7.75977 44.916 10.8029 44.916 14.1941C44.916 17.7409 46.2161 20.6545 49.5949 20.6545C52.0103 20.6545 53.334 19.7756 54.2726 16.8594L53.6377 16.6819C53.0524 18.3959 52.1374 19.878 50.281 19.878C47.4818 19.878 47.3825 17.3888 47.3825 13.868V13.4149L54.608 13.4176H54.6065ZM47.3852 12.7135C47.3852 11.155 47.8683 8.38888 49.7234 8.38888C51.911 8.38888 52.0132 10.9053 52.0132 12.7148L47.3852 12.7135ZM55.2456 8.63861H56.9986V17.4134C56.9986 19.0224 57.1753 20.5112 59.4416 20.5112C61.1199 20.5112 61.9094 19.6569 62.3924 18.3223L61.8072 18.0971C61.4539 18.8981 61.044 19.6037 60.2545 19.6037C59.3905 19.6037 59.1862 18.8981 59.1862 17.4174V8.63997H61.603V8.0368H59.1876V4.69337H56.9972V8.0368H55.2456V8.63861Z" fill="#323131"/>
<path d="M68.5765 18.4567C68.9319 19.9776 69.7771 20.1068 70.9805 20.1068H72.642V19.4743C71.4122 19.4743 70.9292 19.697 70.9292 17.776V11.0584C70.9292 8.95439 70.188 7.38672 66.811 7.38672C65.0732 7.38672 62.6164 7.94366 62.6164 10.3763C62.6164 11.1381 63.0522 11.3127 63.6143 11.3127C64.3042 11.3127 64.6887 10.9071 64.6887 9.99676C64.6887 8.40158 65.7116 8.01929 66.8124 8.01929C68.2462 8.01929 68.7028 9.16066 68.7028 10.9071V11.9715C65.9684 12.956 62.0029 12.985 62.0029 16.7831C62.0029 19.0921 62.7954 20.408 65.0454 20.408C66.4806 20.408 67.734 19.9762 68.5765 18.4567ZM68.7041 12.6811V15.6197C68.7041 17.3456 67.8589 19.5486 65.9699 19.5486C64.79 19.5486 64.4846 18.2546 64.4846 16.7088C64.4846 14.2267 65.4563 13.6698 66.7596 13.2627L68.7028 12.6797L68.7041 12.6811ZM74.6907 19.4702H72.796V20.1014H78.7047V19.4688H76.8865V13.7674C76.8865 11.0309 78.1135 8.4222 79.3155 8.4222C79.6208 8.4222 79.854 8.64911 79.854 9.00665V10.1948C79.854 10.9814 80.287 11.233 80.877 11.233C81.6446 11.233 82.0012 10.5042 82.0012 9.66534C82.0012 8.19393 81.2074 7.38672 79.929 7.38672C78.2648 7.38672 77.3987 8.95439 76.9365 10.4258H76.8865V7.66725H72.7919V8.29844H74.6865L74.6892 19.4716L74.6907 19.4702Z" fill="#323131"/>
<path d="M86.2186 21.2386C85.6329 23.502 84.8191 24.514 84.1561 24.514C83.5206 24.514 83.4171 23.8548 83.4171 23.2011C83.4171 22.5501 83.2651 21.895 82.4777 21.895C81.8423 21.895 81.4872 22.4229 81.4872 23.3037C81.4872 24.3896 82.1986 25.4208 83.4972 25.4208C86.3456 25.4208 86.7048 21.5422 87.3403 19.7013L91.3117 7.93405H92.8631L92.8907 7.33091H88.4855V7.93405H90.5727L88.3334 14.7887C88.0268 15.6708 87.7947 16.6501 87.7947 16.6501H87.7201C87.7201 16.6501 87.5668 15.6927 87.2615 14.7326L85.1245 7.92994H87.1123V7.32818H81.001V7.92994H82.6297L86.6246 19.6972L86.2186 21.2386ZM97.3361 19.0695H95.5043V19.6972H100.469V19.0681H98.1246L99.7517 13.2966H103.877L105.531 19.0681H103.268V19.6972H110.244V19.0681H108.255L102.986 1.37891H102.428L97.3361 19.0695ZM103.699 12.6456H99.9083L101.23 8.03252L101.764 5.78957H101.892L102.4 8.03252L103.699 12.6456ZM117.469 19.6985H121.54V19.0695H119.68V7.3528H115.511V7.9573H117.469V14.5329C117.469 16.8771 116.451 19.0927 114.442 19.0927C112.94 19.0927 112.709 17.7045 112.709 16.3177V7.35143H108.79V7.95593H110.521V16.4491C110.521 18.9683 111.566 20.0022 113.704 20.0022C115.46 20.0022 116.757 19.0449 117.444 17.3312H117.471L117.469 19.6999V19.6985ZM121.843 7.95456H123.598V16.7486C123.598 18.361 123.775 19.8531 126.043 19.8531C127.724 19.8531 128.51 18.997 128.996 17.6594L128.412 17.4338C128.055 18.2365 127.648 18.9436 126.856 18.9436C125.993 18.9436 125.787 18.2365 125.787 16.7526V7.95593H128.205V7.35143H125.787V4.00069H123.598V7.35143H121.843V7.95456Z" fill="#323131"/>
<path d="M128.996 19.4923V20.1102H134.734V19.491H133.041V13.0408C133.041 10.7338 134.053 8.55315 136.049 8.55315C137.566 8.55315 137.769 9.91669 137.769 11.2829V19.491H136.074V20.1088H141.662V19.4897H139.968V11.1578C139.968 8.67699 138.906 7.66074 136.807 7.66074C135.038 7.66074 133.747 8.60161 133.093 10.2922H133.041V2.37891H128.996V2.99809H130.868V19.4951H128.996V19.4923ZM142.52 14.0383C142.52 16.5419 143.706 20.4103 147.527 20.4103C151.345 20.4103 152.532 16.5419 152.532 14.0383C152.532 11.5306 151.345 7.66612 147.527 7.66612C143.706 7.66612 142.52 11.5293 142.52 14.0383ZM144.971 14.0383C144.971 11.431 144.996 8.31087 147.527 8.31087C150.055 8.31087 150.079 11.4337 150.079 14.0383C150.079 16.6401 150.055 19.7926 147.527 19.7926C144.996 19.7926 144.971 16.6428 144.971 14.0383ZM155.259 19.4923H153.388V20.1102H159.228V19.491H157.431V13.9104C157.431 11.2317 158.647 8.67834 159.833 8.67834C160.135 8.67834 160.365 8.90043 160.365 9.2504V10.4134C160.365 11.1833 160.796 11.4296 161.377 11.4296C162.136 11.4296 162.488 10.7162 162.488 9.89515C162.488 8.45489 161.702 7.66478 160.438 7.66478C158.795 7.66478 157.937 9.19925 157.48 10.6395H157.431V7.93937H153.385V8.55719H155.255L155.259 19.4923ZM164.534 19.4923H162.665V20.1102H168.557V19.491H166.711V7.93533H162.665V8.55451H164.534V19.4923ZM164.282 4.09106C164.282 4.95926 164.914 5.57709 165.622 5.57709C166.305 5.57709 166.964 4.98214 166.964 4.09106C166.964 3.17173 166.333 2.60235 165.622 2.60235C164.865 2.60235 164.282 3.14885 164.282 4.09106ZM168.884 8.55315H170.63V17.2081C170.63 18.7951 170.806 20.2636 173.057 20.2636C174.727 20.2636 175.509 19.421 175.991 18.1045L175.408 17.8825C175.055 18.6726 174.649 19.3685 173.866 19.3685C173.007 19.3685 172.804 18.6726 172.804 17.2121V8.55451H175.205V7.95955H172.804V4.66178H170.63V7.95955H168.884V8.55315Z" fill="#323131"/>
<path d="M180.257 21.25C179.667 23.5058 178.844 24.5145 178.177 24.5145C177.535 24.5145 177.433 23.8575 177.433 23.206C177.433 22.5572 177.279 21.9043 176.483 21.9043C175.839 21.9043 175.483 22.4304 175.483 23.3082C175.483 24.3904 176.203 25.4182 177.509 25.4182C180.386 25.4182 180.746 21.5526 181.389 19.718L185.395 7.99054H186.964L186.99 7.38945H182.547V7.99054H184.652L182.391 14.822C182.084 15.7011 181.85 16.6771 181.85 16.6771H181.773C181.773 16.6771 181.617 15.723 181.309 14.7662L179.153 7.98645H181.157V7.38672H174.992V7.98645H176.637L180.668 19.7139L180.257 21.25Z" fill="#323131"/>
</svg>
