<svg width="187" height="51" viewBox="0 0 187 51" fill="none" xmlns="http://www.w3.org/2000/svg">
<path d="M0.518587 38.3494C0.518587 40.8918 1.71111 44.8138 5.55367 44.8138C9.39486 44.8138 10.5888 40.8918 10.5888 38.3508C10.5888 35.8085 9.39624 31.8864 5.55367 31.8864C1.71111 31.8864 0.518587 35.8139 0.518587 38.3508V38.3494ZM2.98507 38.3494C2.98507 35.7116 3.01128 32.5455 5.55506 32.5455C8.09744 32.5455 8.12366 35.7142 8.12366 38.3508C8.12366 40.9928 8.09744 44.1833 5.55644 44.1833C3.00852 44.1833 2.98507 40.9928 2.98507 38.3508V38.3494ZM13.283 32.798V43.8845H11.4528V44.5108H17.2249V43.8831H15.4941V32.798H17.5575V32.1688H15.4941V29.3754C15.4941 27.8661 15.6486 26.8644 16.8163 26.8644C17.6583 26.8644 17.9592 27.4649 17.9592 28.5443C17.9592 29.3468 18.2656 29.7261 18.9764 29.7261C19.5368 29.7261 19.9191 29.3468 19.9191 28.6712C19.9191 26.7075 17.9854 26.234 16.6894 26.234C15.0635 26.234 13.2843 26.9367 13.2843 29.677V32.1648H11.4528V32.7952H13.2843L13.283 32.798ZM24.5387 43.6811C25.861 44.3839 28.0736 44.7633 29.549 44.7633C32.551 44.7633 34.914 43.4314 34.914 39.6089C34.914 32.843 26.5497 34.7044 26.5497 30.2038C26.5497 28.2209 28.2529 26.8617 29.7546 26.8617C31.7615 26.8617 33.3156 28.3929 33.6193 31.26H34.3066L34.1797 27.3121C33.0065 26.6843 31.2811 26.2558 30.01 26.2558C27.4938 26.2558 24.7969 27.7651 24.7969 31.2095C24.7969 37.4214 33.1376 35.6897 33.1376 40.5383C33.1376 42.9538 31.4841 44.1587 29.6773 44.1587C26.9072 44.1587 25.2275 42.2701 25.0494 39.1068H24.3883L24.5387 43.6811ZM37.9228 43.8845H36.0402V44.5108H41.9697V43.8831H40.1105V32.1688H36.0388V32.798H37.9228V43.8845ZM37.6675 28.2687C37.6675 29.1488 38.3024 29.7794 39.0146 29.7794C39.702 29.7794 40.3631 29.1735 40.3631 28.2687C40.3631 27.3379 39.7282 26.7594 39.0146 26.7594C38.2527 26.7594 37.6675 27.3121 37.6675 28.2687ZM42.196 43.8845V44.5108H47.9682V43.8831H46.265V37.3464C46.265 35.006 47.2836 32.7966 49.2905 32.7966C50.817 32.7966 51.0213 34.179 51.0213 35.5587V43.8831H49.3167V44.5094H54.9369V43.8818H53.2337V35.4372C53.2337 32.9222 52.1655 31.8891 50.0537 31.8891C48.2746 31.8891 46.9758 32.8458 46.3175 34.557H46.265V32.1688H42.196V32.8225H44.0773V43.8872L42.196 43.8845ZM60.2495 31.8864C58.4193 31.8864 56.7147 33.322 56.7147 35.6856C56.7147 36.791 56.8693 37.446 57.4517 38.3508C56.4069 38.8038 55.5167 39.7072 55.5167 41.192C55.5167 42.6249 56.3572 43.7357 57.6795 44.0851V44.1342V44.1069C56.636 44.3348 55.5677 45.0636 55.5677 46.5224C55.5677 49.4919 58.7713 50.0405 60.6277 50.0405C62.9671 50.0405 65.8146 48.9106 65.8146 45.5152C65.8146 42.7232 64.2369 41.6669 62.0493 41.6669H58.3116C57.0901 41.6669 56.3531 41.4895 56.3531 40.5642C56.3531 39.71 57.3193 38.9785 57.9583 38.9785C58.6976 39.4839 59.5742 39.7565 60.4731 39.7605C62.5089 39.7605 64.1362 38.2007 64.1362 35.7347C64.1435 34.9735 63.9585 34.2225 63.5979 33.5499C63.5979 33.247 63.9802 32.7966 64.2342 32.7966C64.9961 32.7966 64.2618 34.4561 65.4074 34.4561C65.9154 34.4561 66.1942 33.9784 66.1942 33.3507C66.1942 32.3913 65.4833 31.8877 64.8264 31.8877C64.0879 31.8877 63.6007 32.3449 63.2198 32.9222C62.4855 32.1402 61.3951 31.8864 60.2495 31.8864ZM58.7726 35.5846C58.7726 34.0262 58.901 32.5195 60.4772 32.5195C62.0548 32.5195 62.0548 34.4792 62.0548 35.9121C62.0548 37.244 61.9265 39.1054 60.4013 39.1054C58.8512 39.1054 58.7726 36.9179 58.7726 35.5846ZM61.776 44.1342C63.8105 44.1342 64.9271 44.4849 64.9271 46.1744C64.9271 47.9567 63.1742 49.3649 60.9092 49.3649C58.6968 49.3649 57.1439 48.6867 57.1439 46.6452C57.1467 44.3116 58.7491 44.1342 61.776 44.1342ZM73.3947 42.8746C73.7495 44.3839 74.5914 44.5108 75.784 44.5108H77.4375V43.8831C76.216 43.8831 75.7356 44.1056 75.7356 42.1992V35.5355C75.7356 33.4462 75 31.8864 71.6405 31.8864C69.9097 31.8864 67.4708 32.4431 67.4708 34.8558C67.4708 35.6119 67.9015 35.788 68.4605 35.788C69.1478 35.788 69.5288 35.3786 69.5288 34.4779C69.5288 32.8949 70.546 32.5195 71.6405 32.5195C73.0649 32.5195 73.5218 33.6495 73.5218 35.3799V36.4389C70.8014 37.4173 66.858 37.4447 66.858 41.2139C66.858 43.5051 67.6475 44.8138 69.8808 44.8138C71.3079 44.8138 72.5556 44.3839 73.3947 42.876V42.8746ZM73.5232 37.1431V40.0607C73.5232 41.7719 72.6812 43.9568 70.8027 43.9568C69.6295 43.9568 69.3272 42.6768 69.3272 41.1429C69.3272 38.6783 70.2934 38.127 71.5867 37.7216L73.5232 37.1431ZM77.5907 50.0418H83.5906V49.4141H81.7328V43.0779H81.759C82.242 44.287 83.3353 44.8138 84.5594 44.8138C87.9411 44.8138 89.3626 41.7447 89.3626 38.3508C89.3626 33.7232 87.2013 31.8864 84.9128 31.8864C83.4885 31.8864 82.445 32.3435 81.759 33.8993H81.7328V32.1675H77.7135V32.8211H79.5216V49.4141H77.5879L77.5907 50.0418ZM81.6582 37.1704C81.6582 33.4448 83.233 32.6683 84.2283 32.6683C86.2364 32.6683 86.9252 35.1384 86.9252 38.3508C86.9252 41.948 85.9591 44.0318 84.2283 44.0318C82.0392 44.0318 81.6582 41.4186 81.6582 39.2296V37.1704ZM90.8892 38.3494C90.8892 40.8918 92.0831 44.8138 95.9271 44.8138C99.7668 44.8138 100.962 40.8918 100.962 38.3508C100.962 35.8085 99.7668 31.8864 95.9271 31.8864C92.0831 31.8864 90.8892 35.8139 90.8892 38.3508V38.3494ZM93.357 38.3494C93.357 35.7116 93.3833 32.5455 95.9271 32.5455C98.4697 32.5455 98.4961 35.7142 98.4961 38.3508C98.4961 40.9928 98.4697 44.1833 95.9285 44.1833C93.3819 44.1833 93.357 40.9928 93.357 38.3508V38.3494ZM103.706 43.8845H101.825V44.5108H107.697V43.8831H105.892V38.2265C105.892 35.5095 107.112 32.9222 108.307 32.9222C108.61 32.9222 108.842 33.146 108.842 33.5022V34.6812C108.842 35.4618 109.274 35.7142 109.859 35.7142C110.623 35.7142 110.977 34.9855 110.977 34.1558C110.977 32.6956 110.186 31.8905 108.916 31.8905C107.262 31.8905 106.401 33.4489 105.941 34.9118H105.892V32.1688H101.821V32.7994H103.703L103.706 43.8845ZM120.997 37.573C120.997 34.2049 119.293 31.915 116.342 31.915C113.189 31.915 111.304 34.9596 111.304 38.3508C111.304 41.8962 112.603 44.8138 115.983 44.8138C118.398 44.8138 119.722 43.9309 120.662 41.0159L120.025 40.8427C119.441 42.5485 118.529 44.0359 116.67 44.0359C113.87 44.0359 113.771 41.5468 113.771 38.0246V37.5716H120.998L120.997 37.573ZM113.774 36.8674C113.774 35.3117 114.254 32.5455 116.113 32.5455C118.301 32.5455 118.401 35.0606 118.401 36.8674H113.774ZM2.04374 19.3083H0.00927734V19.9361H5.09544V19.3083H2.75457V3.01427H2.807L8.57915 20.239H9.03599L14.8108 3.01427H14.8606V19.3083H12.4452V19.9361H19.2842V19.3083H17.3022V2.58576H19.2842V1.95801H14.4299L10.5625 13.4989L9.69713 16.2651L8.88554 13.5494L4.9933 1.95801H0.0106673V2.58576H2.04374V19.3083ZM20.3829 13.7787C20.3829 16.3169 21.5781 20.239 25.4179 20.239C29.2592 20.239 30.4558 16.3169 30.4558 13.7787C30.4558 11.2364 29.2606 7.3184 25.4179 7.3184C21.5795 7.3184 20.3829 11.235 20.3829 13.7787ZM22.8493 13.7787C22.8493 11.1353 22.8769 7.97207 25.4193 7.97207C27.9645 7.97207 27.9894 11.1381 27.9894 13.7787C27.9894 16.4166 27.9645 19.6126 25.4193 19.6126C22.8755 19.6126 22.8493 16.4193 22.8493 13.7787ZM31.3157 19.3083V19.9347H37.0878V19.3069H35.3846V12.7674C35.3846 10.4285 36.4018 8.21771 38.4101 8.21771C39.9367 8.21771 40.1395 9.60011 40.1395 10.9852V19.3069H38.4363V19.9333H44.0538V19.3055H42.3534V10.8584C42.3534 8.34327 41.2851 7.31294 39.1734 7.31294C37.3928 7.31294 36.0954 8.26683 35.4357 9.98089H35.3846V7.59269H31.3157V8.24228H33.1956V19.3124H31.3157V19.3083ZM54.607 12.9968C54.607 9.62877 52.9067 7.33887 49.9516 7.33887C46.8018 7.33887 44.9165 10.382 44.9165 13.7732C44.9165 17.32 46.2166 20.2336 49.5954 20.2336C52.0108 20.2336 53.3345 19.3547 54.2731 16.4385L53.6382 16.261C53.0529 17.975 52.1379 19.4571 50.2815 19.4571C47.4823 19.4571 47.383 16.9679 47.383 13.4471V12.994L54.6085 12.9968H54.607ZM47.3857 12.2926C47.3857 10.7341 47.8688 7.96798 49.7239 7.96798C51.9115 7.96798 52.0137 10.4844 52.0137 12.2939L47.3857 12.2926ZM55.2461 8.21771H56.999V16.9925C56.999 18.6015 57.1757 20.0903 59.442 20.0903C61.1204 20.0903 61.9099 19.236 62.3929 17.9014L61.8077 17.6762C61.4544 18.4772 61.0445 19.1828 60.255 19.1828C59.3909 19.1828 59.1867 18.4772 59.1867 16.9965V8.21907H61.6035V7.6159H59.1881V4.27248H56.9977V7.6159H55.2461V8.21771Z" fill="white"/>
<path d="M68.5765 18.0348C68.9319 19.5557 69.7771 19.685 70.9805 19.685H72.642V19.0524C71.4122 19.0524 70.9292 19.2751 70.9292 17.3541V10.6365C70.9292 8.53251 70.188 6.96484 66.811 6.96484C65.0732 6.96484 62.6164 7.52178 62.6164 9.95443C62.6164 10.7162 63.0522 10.8909 63.6143 10.8909C64.3042 10.8909 64.6887 10.4853 64.6887 9.57488C64.6887 7.9797 65.7116 7.59741 66.8124 7.59741C68.2462 7.59741 68.7028 8.73879 68.7028 10.4853V11.5496C65.9684 12.5342 62.0029 12.5631 62.0029 16.3612C62.0029 18.6702 62.7954 19.9861 65.0454 19.9861C66.4806 19.9861 67.734 19.5543 68.5765 18.0348ZM68.7041 12.2592V15.1978C68.7041 16.9237 67.8589 19.1267 65.9699 19.1267C64.79 19.1267 64.4846 17.8327 64.4846 16.287C64.4846 13.8048 65.4563 13.2479 66.7596 12.8408L68.7028 12.2578L68.7041 12.2592ZM74.6907 19.0483H72.796V19.6795H78.7047V19.0469H76.8865V13.3456C76.8865 10.609 78.1135 8.00033 79.3155 8.00033C79.6208 8.00033 79.854 8.22723 79.854 8.58477V9.77291C79.854 10.5595 80.287 10.8111 80.877 10.8111C81.6446 10.8111 82.0012 10.0823 82.0012 9.24347C82.0012 7.77206 81.2074 6.96484 79.929 6.96484C78.2648 6.96484 77.3987 8.53251 76.9365 10.004H76.8865V7.24537H72.7919V7.87657H74.6865L74.6892 19.0497L74.6907 19.0483Z" fill="white"/>
<path d="M86.2186 20.8157C85.6329 23.0791 84.8191 24.0912 84.1561 24.0912C83.5206 24.0912 83.4171 23.432 83.4171 22.7782C83.4171 22.1273 83.2651 21.4721 82.4777 21.4721C81.8423 21.4721 81.4872 22.0001 81.4872 22.8808C81.4872 23.9667 82.1986 24.998 83.4972 24.998C86.3456 24.998 86.7048 21.1193 87.3403 19.2784L91.3117 7.5112H92.8631L92.8907 6.90806H88.4855V7.5112H90.5727L88.3334 14.3659C88.0268 15.248 87.7947 16.2273 87.7947 16.2273H87.7201C87.7201 16.2273 87.5668 15.2698 87.2615 14.3098L85.1245 7.50709H87.1123V6.90533H81.001V7.50709H82.6297L86.6246 19.2743L86.2186 20.8157ZM97.3361 18.6466H95.5043V19.2743H100.469V18.6453H98.1246L99.7517 12.8737H103.877L105.531 18.6453H103.268V19.2743H110.244V18.6453H108.255L102.986 0.956055H102.428L97.3361 18.6466ZM103.699 12.2228H99.9083L101.23 7.60967L101.764 5.36672H101.892L102.4 7.60967L103.699 12.2228ZM117.469 19.2757H121.54V18.6466H119.68V6.92995H115.511V7.53444H117.469V14.1101C117.469 16.4542 116.451 18.6699 114.442 18.6699C112.94 18.6699 112.709 17.2817 112.709 15.8949V6.92857H108.79V7.53308H110.521V16.0262C110.521 18.5454 111.566 19.5793 113.704 19.5793C115.46 19.5793 116.757 18.622 117.444 16.9083H117.471L117.469 19.2771V19.2757ZM121.843 7.53171H123.598V16.3257C123.598 17.9381 123.775 19.4303 126.043 19.4303C127.724 19.4303 128.51 18.5742 128.996 17.2366L128.412 17.0109C128.055 17.8137 127.648 18.5208 126.856 18.5208C125.993 18.5208 125.787 17.8137 125.787 16.3298V7.53308H128.205V6.92857H125.787V3.57783H123.598V6.92857H121.843V7.53171Z" fill="white"/>
<path d="M128.996 19.0714V19.6893H134.734V19.0701H133.041V12.6199C133.041 10.3129 134.053 8.13225 136.049 8.13225C137.566 8.13225 137.769 9.49579 137.769 10.862V19.0701H136.074V19.688H141.662V19.0688H139.968V10.7369C139.968 8.2561 138.906 7.23984 136.807 7.23984C135.038 7.23984 133.747 8.18071 133.093 9.87133H133.041V1.95801H128.996V2.57719H130.868V19.0742H128.996V19.0714ZM142.52 13.6174C142.52 16.121 143.706 19.9894 147.527 19.9894C151.345 19.9894 152.532 16.121 152.532 13.6174C152.532 11.1097 151.345 7.24523 147.527 7.24523C143.706 7.24523 142.52 11.1084 142.52 13.6174ZM144.971 13.6174C144.971 11.0101 144.996 7.88998 147.527 7.88998C150.055 7.88998 150.079 11.0128 150.079 13.6174C150.079 16.2192 150.055 19.3717 147.527 19.3717C144.996 19.3717 144.971 16.2219 144.971 13.6174ZM155.259 19.0714H153.388V19.6893H159.228V19.0701H157.431V13.4895C157.431 10.8108 158.647 8.25744 159.833 8.25744C160.135 8.25744 160.365 8.47953 160.365 8.8295V9.99246C160.365 10.7624 160.796 11.0087 161.377 11.0087C162.136 11.0087 162.488 10.2953 162.488 9.47425C162.488 8.03399 161.702 7.24388 160.438 7.24388C158.795 7.24388 157.937 8.77836 157.48 10.2186H157.431V7.51847H153.385V8.13629H155.255L155.259 19.0714ZM164.534 19.0714H162.665V19.6893H168.557V19.0701H166.711V7.51443H162.665V8.13361H164.534V19.0714ZM164.282 3.67017C164.282 4.53836 164.914 5.15619 165.622 5.15619C166.305 5.15619 166.964 4.56124 166.964 3.67017C166.964 2.75083 166.333 2.18146 165.622 2.18146C164.865 2.18146 164.282 2.72795 164.282 3.67017ZM168.884 8.13225H170.63V16.7872C170.63 18.3742 170.806 19.8427 173.057 19.8427C174.727 19.8427 175.509 19.0001 175.991 17.6837L175.408 17.4616C175.055 18.2517 174.649 18.9476 173.866 18.9476C173.007 18.9476 172.804 18.2517 172.804 16.7913V8.13361H175.205V7.53865H172.804V4.24089H170.63V7.53865H168.884V8.13225Z" fill="white"/>
<path d="M180.257 20.8281C179.667 23.0839 178.844 24.0926 178.177 24.0926C177.535 24.0926 177.433 23.4356 177.433 22.7841C177.433 22.1353 177.279 21.4824 176.483 21.4824C175.839 21.4824 175.483 22.0085 175.483 22.8863C175.483 23.9686 176.203 24.9963 177.509 24.9963C180.386 24.9963 180.746 21.1307 181.389 19.2961L185.395 7.56866H186.964L186.99 6.96757H182.547V7.56866H184.652L182.391 14.4001C182.084 15.2792 181.85 16.2552 181.85 16.2552H181.773C181.773 16.2552 181.617 15.3011 181.309 14.3443L179.153 7.56457H181.157V6.96484H174.992V7.56457H176.637L180.668 19.2921L180.257 20.8281Z" fill="white"/>
</svg>
