<svg width="123" height="24" viewBox="0 0 123 24" fill="none" xmlns="http://www.w3.org/2000/svg">
<path fill-rule="evenodd" clip-rule="evenodd" d="M0.640625 0H5.14062C5.14062 0 5.17812 11.0769 15.9406 11.0769C6.9407 11.0769 6.94062 0 6.94062 0H11.4406C11.4406 0 10.5406 10.1538 17.7406 10.1538C12.2727 10.1538 13.2406 0 13.2406 0H17.7406C17.7406 0 14.1406 11.0769 23.1406 11.0769H27.6406V12.9231H23.1406C14.1406 12.9231 17.7406 24 17.7406 24H13.2406C13.2406 24 12.2727 13.8461 17.7406 13.8461C10.5406 13.8462 11.4407 24 11.4407 24H6.9407C6.9407 24 6.94062 12.9231 15.9406 12.9231C5.17812 12.9231 5.1407 24 5.1407 24H0.640701C0.640701 24 0.640625 12 13.2406 12C0.640625 12 0.640625 0 0.640625 0Z" fill="#323131"/>
<path d="M117.943 18.7873C116.535 18.7873 115.391 18.4273 114.511 17.7073C113.631 16.9873 113.191 16.1073 113.191 15.0673H115.807C115.807 15.5473 116.015 15.9393 116.431 16.2433C116.863 16.5473 117.415 16.6993 118.087 16.6993C118.583 16.6993 118.975 16.5793 119.263 16.3393C119.551 16.0993 119.695 15.7793 119.695 15.3793C119.695 14.7393 119.415 14.3473 118.855 14.2033L115.975 13.4113C114.359 12.9633 113.551 11.9313 113.551 10.3153C113.551 9.38734 113.951 8.61134 114.751 7.98734C115.551 7.34734 116.583 7.02734 117.847 7.02734C119.271 7.02734 120.359 7.34734 121.111 7.98734C121.879 8.62734 122.263 9.46734 122.263 10.5073H119.695C119.695 10.0433 119.519 9.68334 119.167 9.42734C118.831 9.15534 118.359 9.01934 117.751 9.01934C117.287 9.01934 116.903 9.13134 116.599 9.35534C116.295 9.56334 116.143 9.83534 116.143 10.1713C116.143 10.7793 116.463 11.1793 117.103 11.3713L119.767 12.1393C120.535 12.3633 121.159 12.7473 121.639 13.2913C122.119 13.8193 122.359 14.4353 122.359 15.1393C122.359 16.2273 121.967 17.1073 121.183 17.7793C120.415 18.4513 119.335 18.7873 117.943 18.7873Z" fill="#323131"/>
<path d="M111.727 5.15436C111.359 5.52236 110.895 5.70636 110.335 5.70636C109.775 5.70636 109.311 5.52236 108.943 5.15436C108.575 4.77036 108.391 4.30636 108.391 3.76236C108.391 3.21836 108.575 2.76236 108.943 2.39436C109.311 2.01036 109.775 1.81836 110.335 1.81836C110.895 1.81836 111.359 2.01036 111.727 2.39436C112.095 2.76236 112.279 3.21836 112.279 3.76236C112.279 4.30636 112.095 4.77036 111.727 5.15436ZM109.015 18.4984V7.31436H111.631V18.4984H109.015Z" fill="#323131"/>
<path d="M102.918 18.7873C101.51 18.7873 100.366 18.4273 99.4859 17.7073C98.6059 16.9873 98.1659 16.1073 98.1659 15.0673H100.782C100.782 15.5473 100.99 15.9393 101.406 16.2433C101.838 16.5473 102.39 16.6993 103.062 16.6993C103.558 16.6993 103.95 16.5793 104.238 16.3393C104.526 16.0993 104.67 15.7793 104.67 15.3793C104.67 14.7393 104.39 14.3473 103.83 14.2033L100.95 13.4113C99.3339 12.9633 98.5259 11.9313 98.5259 10.3153C98.5259 9.38734 98.9259 8.61134 99.7259 7.98734C100.526 7.34734 101.558 7.02734 102.822 7.02734C104.246 7.02734 105.334 7.34734 106.086 7.98734C106.854 8.62734 107.238 9.46734 107.238 10.5073H104.67C104.67 10.0433 104.494 9.68334 104.142 9.42734C103.806 9.15534 103.334 9.01934 102.726 9.01934C102.262 9.01934 101.878 9.13134 101.574 9.35534C101.27 9.56334 101.118 9.83534 101.118 10.1713C101.118 10.7793 101.438 11.1793 102.078 11.3713L104.742 12.1393C105.51 12.3633 106.134 12.7473 106.614 13.2913C107.094 13.8193 107.334 14.4353 107.334 15.1393C107.334 16.2273 106.942 17.1073 106.158 17.7793C105.39 18.4513 104.31 18.7873 102.918 18.7873Z" fill="#323131"/>
<path d="M93.9802 7.31445H96.5962V18.5465C96.5962 20.2585 96.1082 21.5865 95.1322 22.5305C94.1882 23.3945 92.9242 23.8265 91.3402 23.8265C89.6922 23.8265 88.4122 23.4425 87.5002 22.6745C86.7002 21.9705 86.2842 21.0025 86.2522 19.7705H88.8922C88.9562 20.4105 89.1642 20.8825 89.5162 21.1865C89.8842 21.5065 90.4762 21.6665 91.2922 21.6665C92.1242 21.6665 92.7802 21.3945 93.2602 20.8505C93.7402 20.3225 93.9802 19.4905 93.9802 18.3545V16.9385C93.2602 18.1705 92.0602 18.7865 90.3802 18.7865C89.0522 18.7865 88.0282 18.3625 87.3082 17.5145C86.6042 16.6505 86.2522 15.5225 86.2522 14.1305V7.31445H88.8682V13.5785C88.8682 15.5145 89.6762 16.4825 91.2922 16.4825C92.1722 16.4825 92.8362 16.1705 93.2842 15.5465C93.7482 14.9225 93.9802 14.1065 93.9802 13.0985V7.31445Z" fill="#323131"/>
<path d="M81.3556 18.4992V1.69922H83.9716V18.4992H81.3556Z" fill="#323131"/>
<path d="M72.7685 18.7873C71.0245 18.7873 69.6725 18.2353 68.7125 17.1313C67.7525 16.0273 67.2725 14.6193 67.2725 12.9073C67.2725 11.2113 67.7765 9.81134 68.7845 8.70734C69.7925 7.58734 71.1445 7.02734 72.8405 7.02734C73.5925 7.02734 74.2805 7.18734 74.9045 7.50734C75.5285 7.82734 76.0085 8.26734 76.3445 8.82734V7.31534H78.9605V18.4993H76.3445V16.9873C76.0245 17.5313 75.5205 17.9713 74.8325 18.3073C74.1605 18.6273 73.4725 18.7873 72.7685 18.7873ZM73.1525 16.4593C74.2245 16.4593 75.0405 16.1233 75.6005 15.4513C76.1765 14.7793 76.4645 13.9313 76.4645 12.9073C76.4645 11.8833 76.1765 11.0353 75.6005 10.3633C75.0405 9.69134 74.2245 9.35534 73.1525 9.35534C72.1445 9.35534 71.3445 9.69134 70.7525 10.3633C70.1765 11.0193 69.8885 11.8673 69.8885 12.9073C69.8885 13.9473 70.1765 14.8033 70.7525 15.4753C71.3445 16.1313 72.1445 16.4593 73.1525 16.4593Z" fill="#323131"/>
<path d="M65.4646 16.2916C65.9926 16.2916 66.4326 16.2596 66.7846 16.1956V18.4996C66.2406 18.5956 65.5926 18.6436 64.8406 18.6436C64.4086 18.6436 64.0326 18.6116 63.7126 18.5476C63.3926 18.4836 63.0166 18.3396 62.5846 18.1156C62.1526 17.8756 61.8166 17.4676 61.5766 16.8916C61.3366 16.3156 61.2166 15.5876 61.2166 14.7076V9.49964H59.3206V7.31564H61.2166V3.93164H63.8326V7.31564H66.4006V9.49964H63.8326V14.1076C63.8326 15.0036 63.9606 15.5956 64.2166 15.8836C64.4726 16.1556 64.8886 16.2916 65.4646 16.2916Z" fill="#323131"/>
<path d="M51.8135 18.7873C50.0695 18.7873 48.7175 18.2353 47.7575 17.1313C46.7975 16.0273 46.3175 14.6193 46.3175 12.9073C46.3175 11.2113 46.8215 9.81134 47.8295 8.70734C48.8375 7.58734 50.1895 7.02734 51.8855 7.02734C52.6375 7.02734 53.3255 7.18734 53.9495 7.50734C54.5735 7.82734 55.0535 8.26734 55.3895 8.82734V7.31534H58.0055V18.4993H55.3895V16.9873C55.0695 17.5313 54.5655 17.9713 53.8775 18.3073C53.2055 18.6273 52.5175 18.7873 51.8135 18.7873ZM52.1975 16.4593C53.2695 16.4593 54.0855 16.1233 54.6455 15.4513C55.2215 14.7793 55.5095 13.9313 55.5095 12.9073C55.5095 11.8833 55.2215 11.0353 54.6455 10.3633C54.0855 9.69134 53.2695 9.35534 52.1975 9.35534C51.1895 9.35534 50.3895 9.69134 49.7975 10.3633C49.2215 11.0193 48.9335 11.8673 48.9335 12.9073C48.9335 13.9473 49.2215 14.8033 49.7975 15.4753C50.3895 16.1313 51.1895 16.4593 52.1975 16.4593Z" fill="#323131"/>
<path d="M40.0486 18.7873C38.3366 18.7873 36.9766 18.2513 35.9686 17.1793C34.9766 16.0913 34.4806 14.6673 34.4806 12.9073C34.4806 11.1473 34.9766 9.73134 35.9686 8.65934C36.9766 7.57134 38.3366 7.02734 40.0486 7.02734C41.5846 7.02734 42.8166 7.41934 43.7446 8.20334C44.6886 8.97134 45.2246 10.0033 45.3526 11.2993H42.7366C42.4486 10.0033 41.5526 9.35534 40.0486 9.35534C39.1206 9.35534 38.3926 9.66734 37.8646 10.2913C37.3526 10.8993 37.0966 11.7713 37.0966 12.9073C37.0966 14.0433 37.3526 14.9233 37.8646 15.5473C38.3926 16.1553 39.1206 16.4593 40.0486 16.4593C41.5366 16.4593 42.4326 15.8513 42.7366 14.6353H45.3526C45.2246 15.8993 44.6886 16.9073 43.7446 17.6593C42.8166 18.4113 41.5846 18.7873 40.0486 18.7873Z" fill="#323131"/>
</svg>
