<svg width="480" height="516" viewBox="0 0 480 516" fill="none" xmlns="http://www.w3.org/2000/svg">
<rect width="480" height="516" rx="8" fill="#380843"/>
<path fill-rule="evenodd" clip-rule="evenodd" d="M180 264.422H0V258.422H180V264.422Z" fill="#D35AEF"/>
<path fill-rule="evenodd" clip-rule="evenodd" d="M180 294.422H0V288.422H180V294.422Z" fill="#D35AEF"/>
<path fill-rule="evenodd" clip-rule="evenodd" d="M180 324.422H0V318.422H180V324.422Z" fill="#D35AEF"/>
<path fill-rule="evenodd" clip-rule="evenodd" d="M180 354.422H0V348.422H180V354.422Z" fill="#D35AEF"/>
<path fill-rule="evenodd" clip-rule="evenodd" d="M180 384.422H0V378.422H180V384.422Z" fill="#D35AEF"/>
<path fill-rule="evenodd" clip-rule="evenodd" d="M180 414.422H0V408.422H180V414.422Z" fill="#D35AEF"/>
<path fill-rule="evenodd" clip-rule="evenodd" d="M180 444.422H0V438.422H180V444.422Z" fill="#D35AEF"/>
<path fill-rule="evenodd" clip-rule="evenodd" d="M180 474.422H0V468.422H180V474.422Z" fill="#D35AEF"/>
<path fill-rule="evenodd" clip-rule="evenodd" d="M330 268.922H180V264.422H330V268.922Z" fill="#D35AEF"/>
<path fill-rule="evenodd" clip-rule="evenodd" d="M330 297.422H180V292.922H330V297.422Z" fill="#D35AEF"/>
<path fill-rule="evenodd" clip-rule="evenodd" d="M330 325.922H180V321.422H330V325.922Z" fill="#D35AEF"/>
<path fill-rule="evenodd" clip-rule="evenodd" d="M330 354.422H180V349.922H330V354.422Z" fill="#D35AEF"/>
<path fill-rule="evenodd" clip-rule="evenodd" d="M330 382.922H180V378.422H330V382.922Z" fill="#D35AEF"/>
<path fill-rule="evenodd" clip-rule="evenodd" d="M330 411.422H180V406.922H330V411.422Z" fill="#D35AEF"/>
<path fill-rule="evenodd" clip-rule="evenodd" d="M330 439.922H180V435.422H330V439.922Z" fill="#D35AEF"/>
<path fill-rule="evenodd" clip-rule="evenodd" d="M330 468.422H180V463.922H330V468.422Z" fill="#D35AEF"/>
<path fill-rule="evenodd" clip-rule="evenodd" d="M480 273.422H330V270.422H480V273.422Z" fill="#D35AEF"/>
<path fill-rule="evenodd" clip-rule="evenodd" d="M480 300.422H330V297.422H480V300.422Z" fill="#D35AEF"/>
<path fill-rule="evenodd" clip-rule="evenodd" d="M480 327.422H330V324.422H480V327.422Z" fill="#D35AEF"/>
<path fill-rule="evenodd" clip-rule="evenodd" d="M480 354.422H330V351.422H480V354.422Z" fill="#D35AEF"/>
<path fill-rule="evenodd" clip-rule="evenodd" d="M480 381.422H330V378.422H480V381.422Z" fill="#D35AEF"/>
<path fill-rule="evenodd" clip-rule="evenodd" d="M480 408.422H330V405.422H480V408.422Z" fill="#D35AEF"/>
<path fill-rule="evenodd" clip-rule="evenodd" d="M480 435.422H330V432.422H480V435.422Z" fill="#D35AEF"/>
<path fill-rule="evenodd" clip-rule="evenodd" d="M480 462.422H330V459.422H480V462.422Z" fill="#D35AEF"/>
</svg>
