<svg width="320" height="321" viewBox="0 0 320 321" fill="none" xmlns="http://www.w3.org/2000/svg">
<g clip-path="url(#clip0_123_7191)">
<rect y="0.421875" width="320" height="320" rx="8" fill="#072237"/>
<path fill-rule="evenodd" clip-rule="evenodd" d="M83.2611 199.858L1.90317 223.187L1.37573 221.348L82.7337 198.019L83.2611 199.858Z" fill="#58B2F4"/>
<path fill-rule="evenodd" clip-rule="evenodd" d="M83.2611 226.744L1.90317 250.073L1.37573 248.233L82.7337 224.904L83.2611 226.744Z" fill="#58B2F4"/>
<path fill-rule="evenodd" clip-rule="evenodd" d="M83.2611 253.63L1.90317 276.959L1.37573 275.119L82.7337 251.79L83.2611 253.63Z" fill="#58B2F4"/>
<path fill-rule="evenodd" clip-rule="evenodd" d="M83.2611 280.515L1.90317 303.844L1.37573 302.005L82.7337 278.676L83.2611 280.515Z" fill="#58B2F4"/>
<path fill-rule="evenodd" clip-rule="evenodd" d="M83.2611 307.402L1.90317 330.731L1.37573 328.892L82.7337 305.563L83.2611 307.402Z" fill="#58B2F4"/>
<path fill-rule="evenodd" clip-rule="evenodd" d="M155.961 211.155L90.8749 192.492L91.2266 191.266L156.313 209.929L155.961 211.155Z" fill="#58B2F4"/>
<path fill-rule="evenodd" clip-rule="evenodd" d="M155.961 232.763L90.8749 214.099L91.2266 212.873L156.313 231.536L155.961 232.763Z" fill="#58B2F4"/>
<path fill-rule="evenodd" clip-rule="evenodd" d="M155.961 254.369L90.8749 235.706L91.2266 234.479L156.313 253.143L155.961 254.369Z" fill="#58B2F4"/>
<path fill-rule="evenodd" clip-rule="evenodd" d="M155.961 275.976L90.8749 257.313L91.2266 256.087L156.313 274.75L155.961 275.976Z" fill="#58B2F4"/>
<path fill-rule="evenodd" clip-rule="evenodd" d="M155.961 297.583L90.8749 278.92L91.2266 277.693L156.313 296.357L155.961 297.583Z" fill="#58B2F4"/>
<path fill-rule="evenodd" clip-rule="evenodd" d="M155.961 319.19L90.8749 300.527L91.2266 299.301L156.313 317.964L155.961 319.19Z" fill="#58B2F4"/>
<path fill-rule="evenodd" clip-rule="evenodd" d="M245.812 199.858L164.454 223.187L163.927 221.348L245.285 198.019L245.812 199.858Z" fill="#58B2F4"/>
<path fill-rule="evenodd" clip-rule="evenodd" d="M245.812 226.744L164.454 250.073L163.927 248.233L245.285 224.904L245.812 226.744Z" fill="#58B2F4"/>
<path fill-rule="evenodd" clip-rule="evenodd" d="M245.812 253.63L164.454 276.959L163.927 275.119L245.285 251.79L245.812 253.63Z" fill="#58B2F4"/>
<path fill-rule="evenodd" clip-rule="evenodd" d="M245.812 280.515L164.454 303.844L163.927 302.005L245.285 278.676L245.812 280.515Z" fill="#58B2F4"/>
<path fill-rule="evenodd" clip-rule="evenodd" d="M245.812 307.402L164.454 330.731L163.927 328.892L245.285 305.563L245.812 307.402Z" fill="#58B2F4"/>
<path fill-rule="evenodd" clip-rule="evenodd" d="M318.513 211.155L253.426 192.492L253.778 191.266L318.864 209.929L318.513 211.155Z" fill="#58B2F4"/>
<path fill-rule="evenodd" clip-rule="evenodd" d="M318.513 232.763L253.426 214.099L253.778 212.873L318.864 231.536L318.513 232.763Z" fill="#58B2F4"/>
<path fill-rule="evenodd" clip-rule="evenodd" d="M318.513 254.369L253.426 235.706L253.778 234.479L318.864 253.143L318.513 254.369Z" fill="#58B2F4"/>
<path fill-rule="evenodd" clip-rule="evenodd" d="M318.513 275.976L253.426 257.313L253.778 256.087L318.864 274.75L318.513 275.976Z" fill="#58B2F4"/>
<path fill-rule="evenodd" clip-rule="evenodd" d="M318.513 297.583L253.426 278.92L253.778 277.693L318.864 296.357L318.513 297.583Z" fill="#58B2F4"/>
<path fill-rule="evenodd" clip-rule="evenodd" d="M318.513 319.19L253.426 300.527L253.778 299.301L318.864 317.964L318.513 319.19Z" fill="#58B2F4"/>
</g>
<defs>
<clipPath id="clip0_123_7191">
<rect y="0.421875" width="320" height="320" rx="8" fill="white"/>
</clipPath>
</defs>
</svg>
