<svg width="320" height="321" viewBox="0 0 320 321" fill="none" xmlns="http://www.w3.org/2000/svg">
<g clip-path="url(#clip0_139_9090)">
<rect y="0.421875" width="320" height="320" rx="8" fill="#CFEBFF"/>
<path fill-rule="evenodd" clip-rule="evenodd" d="M83.2614 199.858L1.90342 223.187L1.37598 221.348L82.7339 198.019L83.2614 199.858Z" fill="#085A95"/>
<path fill-rule="evenodd" clip-rule="evenodd" d="M83.2614 226.744L1.90342 250.073L1.37598 248.233L82.7339 224.904L83.2614 226.744Z" fill="#085A95"/>
<path fill-rule="evenodd" clip-rule="evenodd" d="M83.2614 253.63L1.90342 276.959L1.37598 275.12L82.7339 251.791L83.2614 253.63Z" fill="#085A95"/>
<path fill-rule="evenodd" clip-rule="evenodd" d="M83.2614 280.516L1.90342 303.845L1.37598 302.005L82.7339 278.676L83.2614 280.516Z" fill="#085A95"/>
<path fill-rule="evenodd" clip-rule="evenodd" d="M83.2614 307.401L1.90342 330.731L1.37598 328.891L82.7339 305.562L83.2614 307.401Z" fill="#085A95"/>
<path fill-rule="evenodd" clip-rule="evenodd" d="M155.961 211.155L90.8749 192.492L91.2266 191.266L156.313 209.929L155.961 211.155Z" fill="#085A95"/>
<path fill-rule="evenodd" clip-rule="evenodd" d="M155.961 232.762L90.8749 214.099L91.2266 212.873L156.313 231.536L155.961 232.762Z" fill="#085A95"/>
<path fill-rule="evenodd" clip-rule="evenodd" d="M155.961 254.369L90.8749 235.706L91.2266 234.479L156.313 253.143L155.961 254.369Z" fill="#085A95"/>
<path fill-rule="evenodd" clip-rule="evenodd" d="M155.961 275.976L90.8749 257.313L91.2266 256.086L156.313 274.75L155.961 275.976Z" fill="#085A95"/>
<path fill-rule="evenodd" clip-rule="evenodd" d="M155.961 297.583L90.8749 278.92L91.2266 277.693L156.313 296.357L155.961 297.583Z" fill="#085A95"/>
<path fill-rule="evenodd" clip-rule="evenodd" d="M155.961 319.19L90.8749 300.527L91.2266 299.3L156.313 317.964L155.961 319.19Z" fill="#085A95"/>
<path fill-rule="evenodd" clip-rule="evenodd" d="M245.813 199.858L164.455 223.187L163.928 221.348L245.286 198.019L245.813 199.858Z" fill="#085A95"/>
<path fill-rule="evenodd" clip-rule="evenodd" d="M245.813 226.744L164.455 250.073L163.928 248.233L245.286 224.904L245.813 226.744Z" fill="#085A95"/>
<path fill-rule="evenodd" clip-rule="evenodd" d="M245.813 253.63L164.455 276.959L163.928 275.12L245.286 251.791L245.813 253.63Z" fill="#085A95"/>
<path fill-rule="evenodd" clip-rule="evenodd" d="M245.813 280.516L164.455 303.845L163.928 302.005L245.286 278.676L245.813 280.516Z" fill="#085A95"/>
<path fill-rule="evenodd" clip-rule="evenodd" d="M245.813 307.401L164.455 330.731L163.928 328.891L245.286 305.562L245.813 307.401Z" fill="#085A95"/>
<path fill-rule="evenodd" clip-rule="evenodd" d="M318.513 211.155L253.427 192.492L253.778 191.266L318.865 209.929L318.513 211.155Z" fill="#085A95"/>
<path fill-rule="evenodd" clip-rule="evenodd" d="M318.513 232.762L253.427 214.099L253.778 212.873L318.865 231.536L318.513 232.762Z" fill="#085A95"/>
<path fill-rule="evenodd" clip-rule="evenodd" d="M318.513 254.369L253.427 235.706L253.778 234.479L318.865 253.143L318.513 254.369Z" fill="#085A95"/>
<path fill-rule="evenodd" clip-rule="evenodd" d="M318.513 275.976L253.427 257.313L253.778 256.086L318.865 274.75L318.513 275.976Z" fill="#085A95"/>
<path fill-rule="evenodd" clip-rule="evenodd" d="M318.513 297.583L253.427 278.92L253.778 277.693L318.865 296.357L318.513 297.583Z" fill="#085A95"/>
<path fill-rule="evenodd" clip-rule="evenodd" d="M318.513 319.19L253.427 300.527L253.778 299.3L318.865 317.964L318.513 319.19Z" fill="#085A95"/>
</g>
<defs>
<clipPath id="clip0_139_9090">
<rect y="0.421875" width="320" height="320" rx="8" fill="white"/>
</clipPath>
</defs>
</svg>
