<svg width="516" height="321" viewBox="0 0 516 321" fill="none" xmlns="http://www.w3.org/2000/svg">
<g clip-path="url(#clip0_123_7100)">
<rect y="0.421875" width="516" height="320" rx="8" fill="#3B2607"/>
<line x1="-2.12967" y1="980.061" x2="-2.12967" y2="221.261" stroke="#F4AB3E" stroke-width="5.05866"/>
<line x1="13.0464" y1="980.061" x2="13.0464" y2="221.261" stroke="#F4AB3E" stroke-width="5.05866"/>
<line x1="28.2224" y1="980.061" x2="28.2224" y2="221.261" stroke="#F4AB3E" stroke-width="5.05866"/>
<line x1="43.3984" y1="980.061" x2="43.3984" y2="221.261" stroke="#F4AB3E" stroke-width="5.05866"/>
<line x1="58.5744" y1="980.061" x2="58.5744" y2="221.261" stroke="#F4AB3E" stroke-width="5.05866"/>
<line x1="73.7502" y1="980.061" x2="73.7502" y2="221.261" stroke="#F4AB3E" stroke-width="5.05866"/>
<line x1="88.9262" y1="980.061" x2="88.9262" y2="221.261" stroke="#F4AB3E" stroke-width="5.05866"/>
<line x1="104.102" y1="980.061" x2="104.102" y2="221.261" stroke="#F4AB3E" stroke-width="5.05866"/>
<line x1="119.278" y1="980.061" x2="119.278" y2="221.261" stroke="#F4AB3E" stroke-width="5.05866"/>
<line x1="134.454" y1="980.061" x2="134.454" y2="221.261" stroke="#F4AB3E" stroke-width="5.05866"/>
<line x1="149.63" y1="980.061" x2="149.63" y2="221.261" stroke="#F4AB3E" stroke-width="5.05866"/>
<line x1="164.806" y1="980.061" x2="164.806" y2="221.261" stroke="#F4AB3E" stroke-width="5.05866"/>
<line x1="179.982" y1="980.061" x2="179.982" y2="221.261" stroke="#F4AB3E" stroke-width="5.05866"/>
<line x1="195.158" y1="980.061" x2="195.158" y2="221.261" stroke="#F4AB3E" stroke-width="5.05866"/>
<line x1="210.334" y1="980.061" x2="210.334" y2="221.261" stroke="#F4AB3E" stroke-width="5.05866"/>
<line x1="225.51" y1="980.061" x2="225.51" y2="221.261" stroke="#F4AB3E" stroke-width="5.05866"/>
<line x1="240.686" y1="980.061" x2="240.686" y2="221.261" stroke="#F4AB3E" stroke-width="5.05866"/>
<line x1="255.862" y1="980.061" x2="255.862" y2="221.261" stroke="#F4AB3E" stroke-width="5.05866"/>
<line x1="271.038" y1="980.061" x2="271.038" y2="221.261" stroke="#F4AB3E" stroke-width="5.05866"/>
<line x1="286.214" y1="980.061" x2="286.214" y2="221.261" stroke="#F4AB3E" stroke-width="5.05866"/>
<line x1="301.39" y1="980.061" x2="301.39" y2="221.261" stroke="#F4AB3E" stroke-width="5.05866"/>
<line x1="316.566" y1="980.061" x2="316.566" y2="221.261" stroke="#F4AB3E" stroke-width="5.05866"/>
<line x1="331.742" y1="980.061" x2="331.742" y2="221.261" stroke="#F4AB3E" stroke-width="5.05866"/>
<line x1="346.918" y1="980.061" x2="346.918" y2="221.261" stroke="#F4AB3E" stroke-width="5.05866"/>
<line x1="362.094" y1="980.061" x2="362.094" y2="221.261" stroke="#F4AB3E" stroke-width="5.05866"/>
<line x1="377.27" y1="980.061" x2="377.27" y2="221.261" stroke="#F4AB3E" stroke-width="5.05866"/>
<line x1="392.446" y1="980.061" x2="392.446" y2="221.261" stroke="#F4AB3E" stroke-width="5.05866"/>
<line x1="407.622" y1="980.061" x2="407.622" y2="221.261" stroke="#F4AB3E" stroke-width="5.05866"/>
<line x1="422.798" y1="980.061" x2="422.798" y2="221.261" stroke="#F4AB3E" stroke-width="5.05866"/>
<line x1="437.973" y1="980.061" x2="437.973" y2="221.261" stroke="#F4AB3E" stroke-width="5.05866"/>
<line x1="453.149" y1="980.061" x2="453.149" y2="221.261" stroke="#F4AB3E" stroke-width="5.05866"/>
<line x1="468.325" y1="980.061" x2="468.325" y2="221.261" stroke="#F4AB3E" stroke-width="5.05866"/>
<line x1="483.501" y1="980.061" x2="483.501" y2="221.261" stroke="#F4AB3E" stroke-width="5.05866"/>
<line x1="498.677" y1="980.061" x2="498.677" y2="221.261" stroke="#F4AB3E" stroke-width="5.05866"/>
<line x1="513.853" y1="980.061" x2="513.853" y2="221.261" stroke="#F4AB3E" stroke-width="5.05866"/>
</g>
<defs>
<clipPath id="clip0_123_7100">
<rect y="0.421875" width="516" height="320" rx="8" fill="white"/>
</clipPath>
</defs>
</svg>
